<?xml version="1.0" standalone="no"?>
<!DOCTYPE svg PUBLIC "-//W3C//DTD SVG 20010904//EN"
 "http://www.w3.org/TR/2001/REC-SVG-20010904/DTD/svg10.dtd">
<svg version="1.0" xmlns="http://www.w3.org/2000/svg"
 width="1280.000000pt" height="853.000000pt" viewBox="0 0 1280.000000 853.000000"
 preserveAspectRatio="xMidYMid meet">

<g transform="translate(0.000000,853.000000) scale(0.100000,-0.100000)"
fill="#000000" stroke="none">
<path d="M8580 8479 c116 -108 407 -354 457 -386 54 -35 66 -38 203 -53 110
-12 397 -57 417 -65 9 -3 66 -12 127 -21 61 -8 122 -17 136 -20 14 -3 70 -9
125 -15 55 -5 127 -16 160 -23 33 -8 94 -19 135 -26 41 -7 121 -20 176 -31 56
-10 123 -19 148 -19 25 0 88 -6 139 -14 156 -25 164 -26 437 -61 146 -19 294
-43 330 -54 36 -11 112 -24 170 -31 58 -6 124 -15 148 -20 23 -6 62 -10 87
-10 24 0 54 -4 67 -10 13 -5 70 -16 128 -24 58 -8 141 -22 185 -30 102 -20
336 -57 398 -63 l47 -5 0 231 0 231 -26 0 c-14 0 -38 9 -54 20 -23 16 -42 19
-106 18 -113 -4 -272 11 -319 29 -78 30 -152 45 -295 59 -153 15 -260 32 -260
43 0 4 -19 7 -42 7 -62 1 -218 25 -218 34 0 4 -15 10 -32 13 -79 14 -183 40
-186 47 -2 4 -31 5 -66 3 -50 -4 -70 -1 -102 15 -28 15 -33 21 -19 22 11 0 27
9 35 20 16 22 66 27 72 8 3 -7 25 -12 58 -12 33 0 55 5 58 12 5 15 142 17 142
2 0 -5 -9 -10 -20 -10 -11 0 -20 -4 -20 -10 0 -5 23 -10 50 -10 28 0 50 5 50
10 0 6 9 10 20 10 11 0 20 4 20 8 0 12 141 32 218 32 58 0 66 3 94 31 17 16
43 33 59 36 16 3 29 9 29 13 0 10 51 32 84 37 17 2 33 8 37 14 4 7 9 7 12 2 5
-8 51 -15 92 -14 65 1 95 5 95 12 0 5 9 9 20 9 11 0 20 -4 20 -10 0 -5 18 -10
40 -10 22 0 40 5 40 11 0 6 7 4 15 -4 20 -20 54 -10 87 25 14 15 33 28 42 28
9 0 16 5 16 10 0 7 -194 10 -563 10 l-563 0 -11 -32 c-7 -21 -8 -53 -3 -88 4
-30 6 -57 4 -58 -1 -2 -23 -6 -48 -9 -33 -3 -50 0 -62 11 -12 12 -12 16 -2 16
8 0 5 5 -6 11 -10 6 -31 25 -45 42 -32 34 -54 40 -170 39 -71 -1 -91 3 -130
24 -25 13 -54 24 -63 24 -10 0 -18 5 -18 10 0 6 -7 10 -15 10 -8 0 -15 -5 -15
-11 0 -6 -18 -28 -41 -50 -22 -21 -36 -39 -30 -39 6 0 11 -9 11 -20 0 -11 4
-20 9 -20 5 0 13 -9 16 -20 3 -11 15 -20 26 -20 30 0 22 -27 -9 -33 -16 -3
-103 -2 -193 2 -90 4 -212 6 -271 5 -74 -3 -117 1 -140 10 -18 8 -60 17 -93
21 -33 3 -70 11 -83 17 -16 9 -25 9 -34 0 -8 -8 -16 -8 -32 1 -12 6 -93 17
-181 23 -126 9 -183 18 -265 43 -58 17 -134 33 -170 37 -95 8 -108 12 -115 34
-8 25 -42 26 -48 3 -4 -17 -5 -17 -6 0 -1 16 -24 17 -328 17 l-328 0 55 -51z"/>
<path d="M10611 8385 c0 -6 -13 -18 -28 -27 l-28 -17 55 1 c30 0 45 3 33 5
-13 2 -24 13 -26 26 -2 12 -5 17 -6 12z"/>
<path d="M10438 8343 c7 -3 16 -2 19 1 4 3 -2 6 -13 5 -11 0 -14 -3 -6 -6z"/>
<path d="M603 8325 c-15 -17 -17 -55 -3 -55 6 0 10 -8 10 -17 0 -14 10 -19 45
-21 39 -2 45 0 45 17 0 12 8 21 23 24 l22 4 -22 2 c-16 1 -23 7 -23 21 0 13
-7 20 -20 20 -11 0 -20 5 -20 10 0 15 -43 11 -57 -5z"/>
<path d="M4173 8323 c-21 -3 -33 -10 -33 -20 0 -11 6 -14 24 -9 14 3 28 2 31
-4 4 -6 -9 -11 -32 -12 l-38 -1 34 -4 c34 -5 84 10 111 33 8 7 26 14 40 17 31
5 -92 5 -137 0z"/>
<path d="M3244 8306 c-16 -17 -26 -68 -16 -83 4 -6 14 -13 22 -15 49 -11 35
-48 -19 -48 -28 0 -31 -3 -31 -30 0 -28 -2 -30 -39 -30 -22 0 -42 -4 -45 -8
-4 -7 -19 -8 -78 -3 -10 0 -18 8 -18 16 0 10 -10 15 -30 15 -25 0 -30 -4 -30
-25 0 -26 -15 -34 -23 -12 -4 9 -7 9 -14 0 -20 -28 -93 -38 -93 -12 0 14 18
11 22 -3 3 -9 9 -8 21 4 20 19 22 33 5 21 -15 -9 -46 -13 -108 -11 -103 2
-124 0 -137 -18 -7 -10 -13 -12 -13 -6 0 17 -28 15 -46 -2 -8 -8 -14 -24 -14
-35 0 -17 -6 -21 -35 -21 -27 0 -35 -4 -34 -17 0 -11 3 -13 6 -5 2 6 18 12 34
12 22 0 29 -5 29 -20 0 -16 7 -20 35 -20 28 0 35 -4 35 -19 0 -10 3 -33 6 -50
5 -25 3 -31 -10 -31 -10 0 -25 7 -33 16 -14 13 -14 17 -2 25 21 14 -7 29 -53
29 -21 0 -38 5 -38 10 0 6 -9 10 -20 10 -11 0 -20 4 -20 9 0 5 -29 11 -65 13
-36 1 -65 -1 -65 -5 0 -5 -7 -15 -15 -23 -8 -9 -15 -11 -15 -5 0 5 -10 12 -22
14 l-23 4 23 2 c15 1 22 7 22 21 0 14 7 20 23 21 47 2 -26 17 -90 18 -42 1
-66 -4 -77 -14 -25 -26 -43 -21 -96 27 -10 9 -27 19 -39 23 -12 3 -21 11 -21
16 0 16 -27 39 -44 39 -14 0 -38 -21 -73 -64 -15 -18 -17 -46 -4 -46 5 0 12
-10 14 -22 l4 -23 2 23 c1 27 21 30 21 2 0 -11 5 -20 10 -20 6 0 10 18 10 40
0 33 3 40 19 40 11 0 22 6 24 13 3 6 6 -19 6 -56 1 -44 6 -73 15 -82 7 -8 16
-11 19 -8 10 9 52 -5 76 -26 22 -19 22 -19 2 -26 -11 -3 -52 -3 -91 1 -51 5
-70 10 -70 21 0 16 -24 43 -38 43 -6 0 -12 -7 -16 -15 -3 -9 -19 -14 -43 -14
-21 0 -55 -3 -75 -6 -43 -8 -81 -1 -100 18 -14 15 -128 57 -153 57 -10 0 -15
10 -15 29 0 23 5 31 23 34 l22 4 -22 2 c-60 3 1 31 68 31 19 0 29 5 29 15 0 9
9 15 24 15 17 0 26 -7 30 -25 5 -21 12 -25 46 -25 33 0 40 3 40 20 0 14 7 20
24 20 13 0 27 -6 29 -12 3 -7 6 3 6 23 1 33 -2 37 -29 43 -17 3 -30 12 -30 21
0 17 -42 30 -67 21 -10 -4 -56 -2 -103 5 -47 7 -98 9 -113 5 -28 -7 -57 -50
-57 -84 0 -11 -8 -23 -17 -26 -12 -5 -13 -10 -5 -18 8 -8 7 -16 -1 -31 -9 -15
-9 -21 1 -24 21 -8 13 -32 -14 -39 -14 -4 -48 -4 -77 -1 -29 2 -62 1 -75 -4
-30 -11 -123 9 -139 30 -9 13 -31 16 -105 17 -215 3 -351 16 -398 39 -42 20
-51 21 -139 11 -80 -8 -95 -8 -105 5 -7 11 -45 20 -116 28 -58 7 -110 11 -115
10 -18 -5 -55 12 -55 26 0 13 -21 25 -46 25 -12 0 -14 -45 -14 -278 l0 -278
48 -12 c26 -6 97 -14 157 -18 61 -3 119 -12 130 -18 11 -7 49 -18 85 -25 61
-12 133 -27 173 -38 9 -2 17 -9 17 -14 0 -10 -33 -12 -43 -2 -11 10 -330 3
-344 -8 -6 -6 -40 -13 -75 -16 -35 -3 -68 -9 -74 -14 -6 -5 -25 -6 -43 -3
l-31 7 0 -82 c0 -74 2 -81 20 -81 16 0 19 -5 14 -29 -13 -61 29 -87 90 -56 15
8 33 15 38 15 5 0 22 9 36 21 23 17 39 20 107 18 44 -1 88 -7 99 -12 13 -6 21
-5 27 4 6 9 9 10 9 2 0 -6 7 -19 16 -28 14 -13 15 -21 5 -41 -6 -14 -11 -36
-11 -49 0 -40 -57 -58 -150 -50 -112 10 -132 10 -167 1 -27 -6 -36 -3 -58 18
-14 14 -37 26 -50 26 -25 0 -25 -1 -25 -95 l0 -95 30 0 c17 0 30 5 30 13 0 7
3 8 8 2 4 -5 40 -11 80 -12 57 -2 79 -8 105 -25 17 -13 33 -26 35 -30 2 -5 8
-8 14 -8 5 0 16 -7 24 -15 14 -13 14 -16 1 -21 -21 -8 -9 -43 17 -49 35 -7
116 -11 116 -5 0 4 17 7 37 7 21 1 39 6 41 12 2 6 7 9 12 6 13 -8 124 16 141
31 8 8 23 14 32 14 10 0 17 8 17 18 0 26 46 42 129 44 68 1 71 2 31 8 l-45 7
45 3 45 2 -54 8 c-29 5 -56 12 -60 18 -6 10 -30 18 -73 26 -15 2 -40 16 -55
31 l-28 26 28 24 c23 20 39 25 83 25 31 0 63 -4 72 -8 21 -10 128 10 124 24
-4 13 55 23 67 11 8 -8 11 1 11 30 0 24 7 48 15 57 8 8 15 20 15 26 0 6 5 8
10 5 6 -3 10 3 10 14 0 11 5 23 10 26 6 3 10 15 10 26 0 18 -19 26 -45 19 -31
-9 -167 -11 -178 -3 -6 5 -28 8 -47 7 -30 -1 -36 3 -38 20 -2 29 24 65 56 77
15 6 66 13 114 16 77 4 92 2 122 -16 31 -20 33 -25 39 -91 3 -38 9 -76 14 -83
17 -27 -8 -107 -34 -107 -7 0 -13 -7 -13 -15 0 -8 4 -15 8 -15 5 0 17 -18 27
-40 14 -31 24 -40 42 -40 33 0 24 -24 -10 -28 -20 -2 -27 1 -27 13 0 15 -2 15
-17 -1 -10 -9 -37 -26 -60 -36 -23 -10 -52 -32 -64 -49 -18 -26 -21 -39 -15
-85 4 -34 2 -54 -4 -54 -5 0 -10 -4 -10 -10 0 -5 11 -10 25 -10 14 0 25 5 25
11 0 6 7 4 15 -5 17 -16 21 -82 5 -88 -5 -2 -6 -18 -1 -41 9 -37 -6 -88 -30
-102 -5 -4 -9 -14 -9 -24 0 -20 -26 -31 -78 -31 -42 0 -61 -19 -55 -53 5 -23
10 -27 39 -27 19 0 34 -4 34 -10 0 -5 7 -10 15 -10 8 0 14 -3 13 -7 0 -5 2
-16 7 -26 9 -21 -10 -47 -34 -47 -23 0 -70 -22 -75 -36 -8 -19 6 -64 20 -64
17 0 18 -17 2 -23 -7 -3 0 -6 16 -6 17 -1 38 -11 52 -26 13 -14 27 -25 32 -25
12 0 30 -41 26 -62 -1 -10 3 -18 9 -18 8 0 8 -3 0 -11 -9 -9 -23 -9 -55 0 -49
13 -85 18 -248 31 -241 19 -276 23 -302 36 -18 9 -42 12 -74 7 -37 -5 -48 -3
-56 10 -14 25 -71 32 -102 12 -19 -13 -37 -15 -68 -11 -24 4 -55 7 -70 7 -15
0 -30 4 -33 9 -4 6 -13 10 -21 10 -12 0 -14 -48 -14 -317 l0 -318 25 -12 c22
-10 27 -8 45 17 11 15 20 33 20 39 0 14 -4 15 70 -14 59 -23 66 -24 93 -10 33
16 127 21 127 6 0 -14 -35 -23 -62 -16 -16 4 -32 -1 -48 -13 -14 -11 -47 -22
-74 -26 -65 -10 -96 -23 -96 -39 0 -14 -60 -47 -85 -47 -9 0 -15 -10 -15 -24
0 -30 -3 -31 199 46 85 32 159 58 164 58 11 0 184 67 209 80 10 6 30 10 46 10
15 0 36 6 47 14 25 16 198 76 223 76 9 0 27 6 38 14 11 8 37 18 58 22 55 10
44 -15 -15 -34 -24 -8 -53 -19 -64 -25 -26 -13 -231 -88 -380 -138 -66 -23
-133 -47 -150 -54 -16 -8 -99 -37 -184 -65 -85 -28 -163 -56 -173 -61 -17 -9
-18 -104 -18 -2654 l0 -2645 818 0 818 0 84 36 c47 19 117 48 155 64 39 15
178 73 310 128 132 55 258 107 280 116 22 9 49 21 60 26 11 5 65 28 120 51 55
22 165 68 245 101 80 33 181 75 225 93 92 38 204 84 360 150 61 26 126 52 145
60 19 7 80 31 135 54 55 23 138 58 185 78 47 19 129 57 183 84 53 27 103 49
111 49 25 0 46 -36 46 -78 0 -70 -25 -115 -83 -153 -29 -18 -58 -39 -65 -46
-7 -7 -26 -13 -42 -13 -16 0 -33 -6 -37 -12 -12 -20 -50 -38 -77 -38 -30 0
-95 -40 -96 -58 0 -9 -11 -12 -32 -10 -32 3 -33 1 -36 -34 l-3 -38 39 0 c44 0
69 -19 50 -38 -7 -7 -18 -12 -25 -12 -7 0 -13 -4 -13 -9 0 -5 -15 -14 -32 -22
-18 -7 -43 -20 -56 -30 -12 -10 -42 -20 -65 -24 -23 -4 -46 -10 -52 -13 -5 -4
-16 -7 -23 -8 -6 -1 -26 -14 -43 -28 -17 -14 -41 -26 -54 -26 -12 0 -59 -18
-103 -40 -44 -21 -93 -42 -109 -45 -25 -6 -67 -22 -160 -61 -17 -8 -34 -14
-37 -14 -3 0 -29 -11 -58 -25 -28 -14 -58 -25 -66 -25 -18 0 -116 -42 -120
-52 -2 -4 -10 -8 -19 -8 -8 0 -27 -6 -41 -14 -15 -8 -47 -22 -72 -31 -48 -19
-103 -42 -132 -56 -10 -5 -25 -9 -33 -9 -8 0 -15 -4 -15 -10 0 -7 442 -10
1308 -10 1155 1 1303 2 1273 15 -18 8 -52 15 -75 15 -22 0 -81 9 -131 19 -49
10 -112 22 -139 26 -27 4 -59 13 -70 20 -12 7 -48 17 -81 20 -33 4 -78 17
-100 28 -28 14 -62 20 -110 21 -99 2 -135 12 -180 52 -28 24 -40 42 -41 64 -1
16 2 30 7 30 13 0 11 32 -3 63 -11 22 -20 27 -51 27 -33 0 -38 3 -35 20 2 12
8 21 13 21 6 0 15 5 21 10 7 6 51 5 114 -2 93 -11 104 -11 115 4 16 22 25 21
25 -2 0 -11 5 -21 12 -23 11 -4 78 12 112 27 10 4 30 9 45 10 14 1 34 3 44 3
9 1 17 10 17 21 0 12 10 22 28 26 25 8 35 9 73 13 33 4 54 104 24 116 -9 3
-19 -3 -25 -14 -7 -12 -16 -17 -27 -13 -11 4 -14 3 -9 -5 5 -8 0 -12 -13 -12
-14 0 -21 6 -21 20 0 11 -7 23 -15 26 -32 13 -1 24 64 24 l67 0 10 38 9 37 85
0 c47 1 92 -4 100 -10 20 -13 19 -34 -3 -49 -22 -17 -23 -73 -2 -73 8 0 15 3
15 6 0 10 92 35 120 33 14 -1 27 -7 29 -13 5 -16 51 52 51 77 0 31 46 54 83
41 15 -5 27 -15 27 -24 0 -22 23 -40 45 -36 102 17 115 12 115 -43 0 -13 4
-24 9 -24 5 0 11 -9 14 -21 3 -11 15 -23 26 -26 35 -9 25 -33 -13 -33 -42 0
-45 -5 -51 -69 -4 -47 -2 -51 18 -51 13 0 29 9 37 19 7 11 31 23 52 26 35 6
38 9 38 41 0 19 -4 34 -10 34 -5 0 -10 9 -10 20 0 17 7 20 40 20 36 0 40 -3
49 -33 8 -28 9 -29 10 -7 1 18 4 21 10 11 7 -11 15 -7 40 16 29 28 34 29 66
19 23 -7 35 -17 35 -28 0 -11 8 -18 18 -18 11 0 24 -12 30 -26 7 -14 16 -23
21 -20 4 3 19 -17 31 -45 25 -53 20 -68 -21 -69 -9 0 -21 -6 -26 -12 -14 -18
14 -108 33 -108 8 0 14 -4 14 -10 0 -14 19 -12 34 3 25 24 36 56 36 101 0 39
-3 46 -20 46 -11 0 -20 5 -20 10 0 19 48 11 55 -10 3 -11 15 -20 26 -20 10 0
19 -4 19 -8 0 -5 10 -14 23 -21 25 -13 47 -61 47 -100 0 -22 3 -23 43 -17 23
4 44 11 45 16 2 6 10 10 19 10 10 0 12 6 8 20 -10 32 15 33 78 5 32 -14 68
-25 82 -25 32 0 41 -17 20 -40 -19 -21 -29 -70 -17 -85 4 -6 20 -16 36 -23 28
-12 29 -15 23 -67 l-5 -54 218 1 c204 1 219 2 223 19 5 18 27 27 27 11 0 -4
12 -9 26 -10 14 -1 31 -5 37 -9 17 -11 81 -10 89 2 5 6 8 5 8 -2 0 -8 14 -13
35 -13 30 0 35 3 35 23 0 15 10 26 33 36 17 8 44 27 58 43 19 20 42 31 85 40
32 6 70 20 83 30 13 10 31 18 40 18 9 0 30 9 46 20 17 11 38 20 49 20 24 0
105 52 106 68 0 7 13 12 29 12 15 0 40 9 54 20 14 11 30 20 36 20 14 0 81 40
81 49 0 11 111 59 165 71 27 6 52 15 55 19 3 4 26 20 53 35 26 15 47 31 47 36
0 4 24 17 53 29 28 12 59 26 67 31 8 5 31 19 50 29 19 11 49 34 67 50 18 17
41 31 53 31 23 0 96 35 118 56 7 8 19 14 26 14 14 0 59 19 117 50 19 10 53 21
75 25 83 14 94 17 94 29 0 7 30 32 68 56 37 25 73 50 80 57 7 7 19 13 26 13
12 0 78 32 99 48 7 5 41 15 77 22 36 6 76 18 90 25 14 7 30 10 37 8 13 -5 36
31 26 40 -3 4 3 10 13 13 10 4 30 17 44 29 32 29 120 75 142 75 9 0 23 6 30
13 38 38 237 60 339 38 24 -5 76 -12 114 -16 39 -3 120 -15 180 -25 61 -10
146 -23 190 -30 107 -15 178 -31 191 -41 5 -4 37 -11 70 -14 32 -2 102 -14
154 -25 101 -22 108 -23 185 -34 28 -4 83 -14 123 -22 161 -32 369 -66 404
-66 23 -1 47 7 64 21 14 11 33 21 40 21 8 0 22 29 35 70 17 56 25 70 41 70 22
0 21 -8 -4 -149 -15 -77 -7 -85 80 -96 31 -3 95 -15 142 -25 47 -10 130 -26
185 -35 151 -26 305 -54 355 -67 25 -6 81 -16 125 -23 44 -7 92 -16 108 -20
l27 -7 0 315 0 314 -42 11 c-24 6 -77 16 -118 22 -41 6 -83 16 -92 21 -10 5
-25 9 -33 9 -8 0 -15 4 -15 8 0 4 -13 13 -29 19 -43 16 -29 -12 18 -37 35 -19
35 -19 9 -20 -36 0 -106 27 -138 54 -38 32 -65 45 -110 52 -34 6 -40 4 -40
-11 0 -16 -7 -17 -52 -12 -29 4 -54 11 -56 17 -2 5 -12 10 -23 10 -10 0 -19 7
-19 15 0 8 -9 15 -20 15 -11 0 -20 5 -20 10 0 6 5 10 10 10 6 0 10 4 10 9 0 6
-15 7 -33 4 -37 -6 -89 28 -86 56 3 33 -2 41 -25 41 -16 0 -27 -7 -31 -20 -5
-16 -12 -19 -33 -14 -40 10 -44 14 -31 30 13 16 12 16 -61 20 -30 1 -66 4 -80
6 -19 2 -26 -2 -28 -19 -4 -28 -30 -30 -75 -6 -18 9 -35 16 -39 15 -4 -1 -5 5
-2 12 10 25 -37 40 -133 42 -50 2 -100 7 -110 12 -10 6 -56 13 -103 17 -77 6
-87 5 -103 -13 -12 -13 -15 -22 -8 -27 6 -3 11 -14 11 -23 0 -15 -11 -17 -78
-16 -119 1 -120 1 -137 34 -9 17 -27 35 -40 40 -17 6 -22 14 -18 29 6 23 16
27 91 36 28 4 52 10 52 14 0 13 84 68 115 75 16 4 35 16 43 27 7 10 25 19 39
19 33 0 93 29 93 45 0 34 35 55 110 65 41 6 77 14 80 19 3 5 20 12 38 16 25 5
31 10 23 18 -25 25 -11 37 39 37 40 0 56 5 73 23 12 13 61 42 108 65 48 23 92
49 99 57 7 8 19 15 27 15 8 0 26 9 40 20 14 11 34 20 43 20 10 0 23 6 29 13 6
8 43 26 83 42 40 16 89 38 108 50 19 11 55 27 79 35 25 8 57 25 72 37 15 13
30 23 33 23 4 0 25 12 49 27 23 15 51 27 62 28 11 1 46 13 78 29 47 22 59 32
64 56 3 17 10 30 15 30 5 0 6 -10 2 -22 -6 -19 -4 -21 7 -12 8 6 33 18 57 28
42 16 54 23 93 59 10 9 28 17 39 17 16 0 20 7 20 35 0 19 -1 35 -3 35 -3 0
-129 -65 -282 -145 -60 -32 -184 -95 -275 -141 -91 -46 -178 -91 -195 -100
-40 -23 -52 -29 -190 -96 -66 -32 -138 -68 -160 -79 -22 -11 -249 -127 -505
-257 -256 -129 -481 -245 -500 -257 -19 -12 -64 -35 -100 -51 -76 -34 -559
-277 -703 -353 -54 -29 -292 -149 -528 -267 -235 -118 -431 -219 -434 -224 -3
-5 -20 -12 -38 -15 -17 -4 -52 -18 -77 -31 -71 -37 -281 -134 -290 -134 -4 0
-32 -12 -61 -28 -30 -15 -74 -35 -99 -45 -25 -10 -76 -32 -115 -49 -89 -38
-102 -43 -145 -58 -19 -7 -71 -28 -115 -46 -44 -18 -111 -45 -150 -60 -38 -14
-89 -35 -111 -45 -51 -23 -226 -87 -274 -100 -19 -6 -78 -27 -130 -47 -52 -20
-109 -36 -126 -36 -40 0 -80 26 -88 57 -3 13 -45 62 -92 108 -80 78 -300 319
-402 442 -109 131 -109 162 4 183 73 14 84 55 23 88 l-36 20 -60 -47 c-32 -26
-63 -47 -68 -47 -5 0 -16 7 -26 16 -32 29 6 78 70 89 28 4 42 14 56 37 17 30
17 32 0 45 -35 25 -79 16 -128 -27 -26 -23 -55 -40 -69 -40 -38 0 -108 82
-108 128 0 16 49 52 102 74 23 9 51 55 45 72 -3 8 -24 16 -47 18 -40 3 -46 0
-90 -45 -51 -52 -83 -59 -88 -21 -2 16 5 25 25 32 15 6 46 24 68 39 31 22 41
36 43 62 l3 34 -40 -6 c-44 -6 -90 -37 -115 -79 -23 -38 -58 -37 -88 2 -13 17
-38 49 -55 71 -49 61 -45 88 19 129 67 44 88 65 88 90 0 17 -7 20 -41 20 -35
0 -47 -7 -93 -50 -36 -34 -59 -48 -70 -44 -32 12 -17 43 37 78 55 35 87 73 87
101 0 46 -86 21 -137 -40 -20 -24 -44 -45 -53 -48 -12 -3 -35 13 -68 47 -59
61 -74 88 -64 115 7 18 74 71 91 71 10 0 57 52 64 72 3 9 16 18 28 20 32 4 37
28 5 28 -13 0 -28 -4 -31 -10 -3 -5 -20 -10 -36 -10 -43 0 -82 -23 -124 -75
-39 -46 -53 -53 -72 -34 -18 18 -5 36 51 77 28 20 75 63 105 94 49 53 52 58
30 58 -13 0 -33 -7 -43 -15 -11 -8 -31 -15 -44 -15 -16 0 -44 -19 -84 -60 -32
-33 -67 -60 -76 -60 -23 1 -122 113 -122 139 0 12 16 32 37 48 20 15 52 44 71
63 18 19 50 52 70 72 19 21 33 40 30 44 -4 3 -28 -4 -53 -15 -26 -12 -53 -21
-60 -21 -6 0 -41 -31 -76 -69 -53 -56 -68 -67 -82 -60 -9 6 -17 18 -17 27 0
19 57 77 101 104 14 9 31 30 38 46 7 16 23 35 36 42 13 7 26 19 29 26 7 19
-35 18 -60 -1 -10 -8 -28 -15 -39 -15 -21 0 -73 -49 -114 -108 -32 -46 -55
-39 -118 38 -71 88 -70 103 14 171 37 30 82 71 101 91 19 21 51 45 73 54 53
24 43 28 -22 8 -51 -15 -70 -22 -129 -47 -24 -10 -73 -56 -113 -106 -21 -26
-41 -23 -45 5 -2 13 24 43 80 96 108 99 167 148 181 148 6 0 8 2 6 4 -7 7
-108 -22 -131 -38 -12 -9 -32 -16 -43 -17 -12 0 -44 -28 -79 -69 -70 -81 -70
-81 -146 15 -60 76 -60 92 3 133 56 36 64 42 100 75 47 44 100 75 159 91 49
14 50 15 13 12 -50 -5 -133 -27 -162 -44 -12 -6 -32 -12 -45 -12 -15 -1 -46
-24 -88 -65 -65 -64 -83 -75 -95 -54 -15 23 8 56 66 99 33 25 69 55 78 66 25
32 111 81 154 89 20 4 40 12 43 17 7 12 -39 3 -101 -18 -22 -8 -50 -14 -62
-14 -12 0 -25 -5 -28 -10 -3 -6 -16 -10 -28 -10 -22 0 -105 -73 -135 -118 -20
-31 -57 -29 -79 6 -9 15 -34 45 -55 66 -21 22 -38 44 -38 50 0 14 94 103 116
110 10 3 27 19 38 34 25 38 88 73 166 92 35 9 60 19 55 22 -15 8 -204 -37
-219 -53 -6 -5 -18 -9 -27 -9 -21 0 -93 -61 -147 -125 -16 -18 -43 -16 -50 3
-4 12 23 40 139 148 63 58 132 95 203 109 45 9 53 13 31 15 -44 3 -64 0 -130
-20 -124 -38 -168 -66 -248 -158 -15 -18 -33 -32 -40 -32 -11 0 -90 90 -119
136 -9 14 34 61 98 105 27 18 56 40 64 48 28 28 116 61 190 71 l75 11 30 -37
c31 -37 31 -37 94 -31 59 5 65 3 87 -20 32 -34 32 -63 0 -63 -14 0 -28 -4 -31
-10 -3 -5 3 -10 14 -10 11 0 32 -5 46 -12 22 -10 26 -18 24 -47 -4 -54 22 -95
70 -111 22 -7 49 -10 61 -7 17 4 30 -3 51 -26 35 -38 34 -69 -1 -77 -24 -6
-24 -7 7 -14 33 -8 58 -29 50 -44 -8 -12 28 -84 54 -109 15 -14 40 -23 69 -25
36 -2 47 -8 57 -28 8 -17 9 -28 1 -37 -8 -10 -6 -13 6 -13 9 0 32 -15 51 -34
18 -19 39 -36 46 -38 19 -6 1 -46 -27 -55 l-24 -8 25 -38 c18 -26 33 -37 51
-37 44 0 93 -27 100 -54 3 -14 12 -26 19 -26 7 0 25 -14 38 -30 30 -35 43 -38
50 -9 4 15 -1 22 -19 30 -14 5 -29 9 -34 9 -17 0 -50 53 -50 80 0 20 -15 41
-55 79 -30 29 -55 59 -55 67 0 27 -19 51 -50 64 -30 13 -58 51 -66 93 -3 20
-69 98 -89 106 -24 10 -104 103 -133 157 -38 71 -74 112 -124 143 -21 12 -38
28 -38 34 0 6 -7 19 -17 29 -17 19 -24 29 -60 94 -36 66 -92 124 -119 124 -31
0 -84 58 -123 135 -36 72 -105 145 -122 128 -9 -9 -16 -9 -29 -1 -14 9 -22 8
-35 -5 -9 -9 -23 -17 -30 -17 -8 0 -16 -4 -19 -9 -3 -4 6 -6 21 -3 18 3 24 1
19 -7 -4 -6 -12 -9 -17 -6 -15 10 -11 -5 12 -41 20 -33 22 -34 89 -34 66 0 70
-1 94 -33 41 -53 36 -57 -67 -57 -74 0 -108 -5 -167 -26 -41 -14 -85 -28 -96
-31 -12 -3 -36 -18 -53 -34 -18 -16 -35 -29 -39 -29 -4 0 -17 -15 -30 -34 -39
-57 -55 -53 -122 29 -34 42 -58 79 -55 87 6 16 73 74 120 104 16 10 37 27 47
36 22 22 102 58 144 65 18 3 32 10 31 16 -1 6 12 14 28 19 19 5 11 5 -25 2
-118 -11 -233 -63 -320 -144 -36 -33 -68 -60 -71 -60 -13 0 -19 32 -10 49 9
17 64 67 133 122 32 26 133 82 153 86 6 1 46 4 90 8 74 7 81 6 100 -15 16 -18
17 -23 5 -30 -20 -13 -10 -12 29 1 41 15 41 43 -1 65 -34 17 -73 59 -96 102
-11 22 -10 24 8 19 19 -5 19 -4 -2 19 -24 25 -44 32 -32 12 4 -7 -6 -1 -23 15
-16 15 -39 27 -50 27 -12 0 -23 6 -26 13 -3 9 -12 8 -38 -5 -19 -9 -45 -19
-59 -22 -14 -2 -7 -4 15 -3 49 1 70 -9 56 -27 -10 -12 -8 -46 4 -66 4 -6 28
-8 59 -4 49 6 54 4 74 -21 26 -32 21 -45 -16 -45 -54 -1 -161 -29 -223 -60
-100 -49 -108 -55 -163 -114 l-51 -56 -60 74 c-32 40 -61 78 -63 84 -10 31
201 189 288 215 l55 17 -45 -5 c-43 -4 -42 -3 20 16 92 29 140 50 140 63 0 21
-16 35 -52 51 -21 8 -42 24 -47 34 -9 16 -7 20 14 25 32 8 31 13 -11 61 -27
30 -34 35 -29 18 4 -15 2 -23 -5 -23 -8 0 -7 -9 4 -27 17 -27 17 -27 -9 2 -15
17 -42 46 -61 66 -19 20 -34 42 -34 49 0 10 -5 9 -18 -3 -9 -9 -51 -23 -91
-31 -81 -17 -110 -14 -40 4 61 15 132 39 146 48 22 14 -9 55 -50 67 -29 8 -47
24 -77 67 -22 30 -50 58 -61 61 -16 4 -20 11 -16 26 4 18 3 19 -17 6 -11 -7
-57 -20 -101 -28 -44 -9 -89 -18 -100 -22 -16 -6 -17 -5 -5 4 8 6 56 20 106
31 56 13 99 29 109 40 16 17 15 20 -3 38 -11 11 -38 23 -60 27 -22 3 -48 16
-59 28 -18 22 -18 22 2 6 25 -19 55 -14 55 11 0 25 -48 80 -69 80 -9 0 -32 16
-51 35 -31 32 -35 33 -59 20 -29 -15 -150 -39 -158 -31 -3 2 12 8 33 11 70 11
139 39 142 57 2 12 -9 25 -31 38 -20 12 -38 29 -42 38 -5 14 -4 15 6 5 21 -21
29 -15 18 16 -6 16 -45 62 -87 104 -42 41 -94 99 -114 128 -21 30 -56 73 -78
97 -22 24 -40 47 -40 51 0 5 -10 11 -22 14 -13 4 -27 15 -33 25 -47 88 -145
196 -195 214 -8 3 -30 32 -49 64 -45 76 -78 112 -120 130 -38 16 -81 61 -81
85 0 9 -24 39 -54 68 -42 39 -62 51 -87 51 -31 0 -31 0 -15 -25 9 -13 16 -30
16 -36 0 -7 7 -20 16 -30 24 -26 11 -46 -38 -59 -24 -6 -73 -24 -109 -40 -36
-17 -70 -30 -76 -30 -6 0 -34 -24 -62 -52 l-52 -53 -44 48 c-25 27 -45 57 -45
67 0 10 36 55 80 98 77 78 116 100 238 138 6 2 12 10 12 19 0 9 9 15 25 15 64
0 -8 86 -102 123 -64 25 -76 21 -48 -17 20 -27 19 -55 -2 -62 -38 -12 -119
-49 -145 -66 -14 -10 -33 -18 -41 -18 -18 0 -45 -24 -81 -72 -16 -21 -34 -38
-41 -38 -7 0 -22 16 -34 35 -11 19 -25 35 -31 35 -5 0 -10 13 -10 29 0 23 9
37 37 58 21 15 48 41 62 56 23 27 58 46 136 73 l40 14 -45 -5 c-25 -3 -69 -17
-99 -30 -29 -14 -60 -25 -67 -25 -8 0 -34 -18 -58 -40 -24 -22 -48 -40 -54
-40 -21 0 1 31 67 97 66 66 126 102 168 103 12 0 25 5 28 10 10 16 41 12 65
-8 19 -16 21 -22 11 -40 -10 -18 -9 -22 4 -22 8 0 23 9 32 20 10 11 25 20 35
20 10 0 18 6 18 13 0 12 -84 97 -150 153 -48 39 -90 97 -90 123 0 19 -14 38
-49 69 -28 23 -52 38 -55 33 -9 -13 12 -62 36 -88 13 -14 18 -28 13 -42 -5
-17 0 -21 31 -27 26 -5 38 -13 42 -28 3 -11 5 -23 3 -26 -1 -3 8 -7 21 -10 16
-4 24 -14 26 -34 2 -16 10 -39 18 -51 13 -19 12 -23 -3 -37 -10 -8 -43 -20
-73 -27 -30 -7 -69 -21 -85 -30 -17 -10 -43 -21 -57 -24 -15 -4 -42 -25 -59
-47 -18 -22 -38 -40 -45 -40 -22 0 -74 63 -74 90 0 16 11 34 32 50 18 14 49
41 70 60 22 19 53 40 71 47 18 6 25 12 17 12 -8 0 -33 -8 -55 -19 -22 -11 -53
-20 -70 -20 -21 -1 -42 -13 -70 -40 -46 -45 -55 -49 -55 -19 0 20 53 79 70 79
11 0 43 51 36 57 -12 12 -83 -18 -111 -47 -16 -16 -34 -30 -41 -30 -14 0 -84
75 -84 91 0 11 37 49 88 89 41 31 40 40 -1 40 -24 0 -41 -8 -61 -29 -30 -32
-76 -47 -76 -25 0 7 25 34 55 59 30 26 52 51 49 56 -11 18 -43 8 -85 -26 -48
-41 -73 -42 -102 -3 -27 36 -17 66 38 106 25 18 45 37 45 42 0 20 -43 9 -85
-21 -24 -17 -48 -28 -54 -25 -21 13 -11 43 24 70 36 29 46 56 20 56 -8 0 -28
-13 -45 -30 -19 -18 -46 -32 -70 -36 -22 -4 -45 -13 -51 -20 -6 -8 -16 -11
-23 -7 -16 10 -45 15 -93 17 -34 1 -43 5 -43 19 0 9 -7 17 -15 17 -9 0 -18 12
-21 30 -6 27 -34 44 -34 20 0 -5 -7 -10 -15 -10 -8 0 -15 -4 -15 -10 0 -5 -4
-10 -10 -10 -5 0 -10 8 -10 18 0 11 -9 27 -20 37 -11 10 -20 24 -20 32 0 7
-10 13 -21 13 -18 0 -19 2 -9 15 7 9 18 14 24 12 6 -2 20 10 31 27 14 21 35
35 67 43 27 8 48 21 51 31 2 9 8 26 13 36 5 15 4 17 -6 11 -9 -5 -11 -4 -6 3
10 16 26 15 26 0 0 -13 44 -38 67 -38 9 0 13 -14 13 -43 0 -31 6 -49 20 -62
14 -13 17 -22 10 -29 -15 -15 -12 -63 4 -69 15 -6 47 37 61 81 8 27 -12 61
-63 107 l-34 32 36 28 c19 15 55 31 78 36 24 5 113 31 198 58 158 50 337 104
400 121 101 27 416 136 435 150 6 4 35 15 65 25 30 10 59 21 65 26 5 5 21 9
35 9 14 0 43 9 65 20 22 11 45 20 53 20 11 0 50 13 267 90 33 12 74 28 90 35
17 7 57 22 90 33 33 11 92 32 130 47 39 14 111 40 160 57 50 16 95 33 100 37
6 4 30 13 55 20 47 14 83 27 112 42 10 5 28 9 40 9 12 0 18 3 15 6 -10 11
-147 14 -147 4 0 -5 -7 -7 -15 -4 -9 4 -15 0 -15 -10 0 -13 -12 -16 -70 -16
-38 0 -70 4 -70 9 0 5 -66 9 -147 9 -100 0 -148 3 -151 11 -2 6 -12 11 -23 11
-16 0 -19 7 -19 45 0 38 -3 45 -19 45 -11 0 -21 4 -23 9 -1 5 -8 3 -14 -3z
m-1324 -266 c0 -5 -4 -10 -10 -10 -5 0 -10 5 -10 10 0 6 5 10 10 10 6 0 10 -4
10 -10z m401 -170 c5 0 9 -4 9 -9 0 -5 -22 -9 -50 -8 -44 1 -50 3 -50 21 0 17
2 18 10 6 6 -10 10 -11 10 -2 0 6 9 12 19 12 11 0 22 -6 24 -12 3 -7 6 -2 8
12 2 24 2 24 6 3 2 -13 9 -23 14 -23z m-401 10 c0 -5 -4 -10 -10 -10 -5 0 -10
5 -10 10 0 6 5 10 10 10 6 0 10 -4 10 -10z m-590 -509 c0 -6 -4 -12 -9 -15
-13 -9 -71 5 -65 15 7 12 74 11 74 0z m-20 -336 c0 -8 -6 -15 -12 -16 -7 0
-23 -2 -35 -3 -17 -2 -23 3 -23 16 0 14 8 18 35 18 24 0 35 -5 35 -15z m1364
-707 c20 -28 7 -44 -42 -53 -66 -11 -200 -86 -238 -132 -20 -24 -42 -43 -50
-43 -26 0 -14 36 27 81 22 24 50 56 61 72 20 27 70 58 137 82 55 20 88 18 105
-7z m256 -234 c20 -23 -4 -39 -89 -58 -40 -9 -90 -25 -110 -35 -20 -10 -49
-21 -64 -25 -15 -4 -50 -29 -76 -56 -52 -53 -71 -61 -71 -31 0 22 130 145 183
172 43 22 137 47 183 48 17 1 37 -6 44 -15z m69 -53 c15 -15 18 -31 16 -78 -3
-72 -6 -79 -46 -87 -17 -3 -68 -22 -113 -42 -62 -28 -93 -49 -132 -91 l-50
-55 -52 62 c-29 34 -52 66 -52 72 0 6 17 25 37 42 20 17 53 47 73 67 44 45
119 80 204 94 22 4 49 13 60 21 26 18 32 18 55 -5z m135 -177 c9 -3 16 -13 16
-20 0 -17 -28 -29 -90 -39 -89 -14 -211 -74 -272 -133 -50 -49 -78 -60 -78
-30 0 16 141 157 175 175 77 41 202 65 249 47z m88 -51 c23 -21 23 -51 -2 -88
-27 -41 -25 -45 15 -45 42 0 47 -16 8 -23 -134 -25 -256 -81 -319 -147 -27
-28 -54 -49 -60 -48 -16 4 -94 97 -94 112 0 8 21 32 48 56 26 23 63 57 82 75
33 32 95 57 206 85 23 5 47 17 54 25 16 20 39 19 62 -2z m-2122 -118 c0 -16
-27 -32 -37 -22 -3 4 -3 13 0 22 8 20 37 20 37 0z m2233 -84 c12 -12 -18 -28
-79 -41 -116 -26 -193 -63 -265 -128 -54 -50 -70 -60 -75 -48 -9 22 16 57 73
102 26 21 59 49 72 62 14 13 51 30 83 39 41 11 55 19 46 26 -8 5 -1 7 20 3 18
-3 31 -2 28 3 -7 11 85 -6 97 -18z m83 -13 c44 -52 48 -68 22 -97 -12 -14 -31
-33 -42 -42 -13 -11 -15 -18 -7 -23 21 -14 11 -25 -41 -42 -99 -32 -163 -71
-223 -135 l-58 -63 -24 29 c-13 17 -37 50 -54 74 l-30 44 23 25 c83 90 222
172 292 172 25 0 61 20 37 20 -26 0 -1 14 27 15 20 0 28 6 30 23 2 12 9 22 16
22 7 0 21 -10 32 -22z m-1769 -50 c13 -12 23 -28 23 -35 0 -8 5 -11 10 -8 6 3
10 1 10 -4 0 -22 -26 -10 -52 23 -40 50 -35 65 9 24z m157 -197 c6 -9 19 -24
31 -33 12 -9 27 -36 34 -60 13 -41 21 -54 89 -140 18 -22 49 -66 70 -97 20
-31 39 -58 43 -61 3 -3 13 -19 22 -35 8 -17 24 -39 36 -49 12 -11 21 -23 21
-27 0 -5 20 -29 45 -54 25 -26 55 -68 67 -95 13 -29 27 -46 35 -43 7 3 15 -6
19 -21 3 -14 12 -30 20 -37 8 -6 23 -31 34 -56 10 -24 37 -70 60 -101 22 -32
40 -64 40 -72 0 -7 3 -10 7 -7 9 9 53 -33 53 -50 0 -8 11 -29 25 -47 14 -18
25 -37 25 -43 0 -6 17 -30 38 -54 21 -24 49 -62 62 -84 13 -22 46 -66 73 -97
29 -33 47 -63 44 -72 -3 -8 2 -16 12 -19 10 -2 28 -26 40 -52 12 -26 39 -64
60 -84 20 -20 50 -57 65 -83 15 -27 35 -48 43 -48 10 0 12 -6 8 -19 -3 -12 3
-30 20 -49 14 -16 25 -34 25 -39 0 -5 14 -22 30 -38 17 -16 30 -33 30 -37 0
-5 27 -40 59 -78 33 -37 62 -78 66 -89 3 -12 13 -21 20 -21 8 0 26 -24 39 -53
14 -29 41 -71 61 -92 19 -22 35 -45 35 -51 0 -5 14 -23 31 -40 17 -16 40 -45
50 -64 19 -33 52 -82 84 -125 22 -28 62 -90 80 -123 8 -15 35 -49 60 -77 27
-30 45 -60 45 -74 l0 -25 -30 29 c-16 16 -33 38 -36 49 -4 12 -23 40 -43 63
-90 105 -147 177 -166 211 -23 42 -23 43 -70 100 -19 24 -35 47 -35 51 0 8
-75 107 -125 166 -14 17 -35 46 -48 66 -20 34 -40 59 -108 142 -14 18 -38 53
-53 78 -14 25 -35 54 -46 64 -11 10 -20 22 -20 27 0 5 -30 52 -68 106 -87 125
-97 139 -132 187 -17 22 -57 81 -90 130 -69 103 -85 126 -117 163 -13 15 -23
30 -23 34 0 4 -25 40 -55 80 -30 40 -55 78 -55 85 0 7 -9 17 -20 23 -11 6 -28
27 -39 48 -10 20 -28 46 -40 56 -12 11 -21 23 -21 28 0 4 -39 66 -87 136 -47
70 -96 141 -107 157 -11 17 -28 41 -38 55 -71 98 -160 231 -188 282 -11 20
-24 40 -30 43 -11 7 -20 20 -99 140 -22 33 -48 68 -57 77 -9 10 -14 24 -10 34
5 13 14 7 49 -31 23 -26 46 -55 51 -64z m1683 53 c-3 -4 -21 -10 -39 -15 -27
-7 -24 -8 17 -4 35 4 57 1 70 -9 19 -14 19 -15 -9 -26 -16 -6 -49 -15 -74 -21
-26 -5 -82 -27 -127 -48 -62 -29 -93 -52 -138 -101 -46 -49 -61 -60 -68 -49
-5 8 -9 20 -9 28 0 14 82 99 147 152 18 15 29 30 25 34 -4 5 -2 5 4 2 6 -3 37
3 70 14 51 17 35 21 -21 5 -11 -4 -4 1 15 10 45 21 152 43 137 28z m136 -84
c-3 -11 1 -30 9 -42 12 -19 12 -28 2 -47 -7 -13 -18 -28 -26 -32 -10 -7 -10
-9 0 -9 27 0 10 -18 -25 -25 -20 -4 -66 -20 -101 -36 -35 -16 -68 -26 -73 -23
-5 3 -8 2 -7 -3 3 -10 -127 -143 -139 -142 -10 1 -93 106 -93 119 0 16 60 79
120 124 73 56 90 64 164 87 34 9 54 18 46 18 -8 1 -31 -3 -49 -9 -66 -19 -42
-2 29 21 43 13 78 31 88 44 l17 23 22 -24 c13 -14 19 -31 16 -44z m73 -43 c24
-37 24 -40 4 -22 -34 30 -65 76 -46 69 8 -3 27 -24 42 -47z m14 -116 c-8 -5
-42 -11 -75 -14 l-60 -5 50 13 c59 15 108 19 85 6z m45 -32 c10 -15 6 -17 -80
-34 -117 -22 -211 -71 -289 -148 -63 -63 -76 -70 -76 -39 0 40 147 172 226
202 66 26 208 38 219 19z m-215 -3 c0 -2 -7 -7 -16 -10 -8 -3 -12 -2 -9 4 6
10 25 14 25 6z m261 -64 c-7 -14 -5 -27 9 -49 19 -31 16 -46 -10 -55 -19 -7
36 -32 63 -29 9 1 17 -1 17 -6 0 -5 -27 -14 -61 -20 -99 -19 -202 -74 -275
-147 l-64 -64 -61 74 -61 75 27 35 c29 38 127 115 186 144 19 10 64 24 100 31
35 6 75 15 89 20 43 13 52 11 41 -9z m86 -60 c-4 -2 -3 -11 4 -20 6 -10 -7 3
-29 28 -52 57 -54 73 -4 29 21 -19 34 -36 29 -37z m-1447 48 c0 -5 -11 -10
-24 -10 -14 0 -28 5 -31 10 -4 6 7 10 24 10 17 0 31 -4 31 -10z m1170 0 c-8
-5 -19 -10 -25 -10 -5 0 -3 5 5 10 8 5 20 10 25 10 6 0 3 -5 -5 -10z m-41 -14
c-2 -2 -15 -9 -29 -15 -24 -11 -24 -11 -6 3 16 13 49 24 35 12z m316 -151
c-49 -8 -103 -18 -119 -25 -16 -6 -31 -8 -33 -6 -5 5 82 32 127 39 14 2 45 4
70 5 29 0 14 -5 -45 -13z m58 -33 c16 -18 14 -19 -49 -31 -113 -21 -206 -66
-285 -139 -49 -45 -73 -62 -81 -54 -5 5 -7 19 -3 31 7 24 91 101 160 147 87
58 225 82 258 46z m71 -78 c10 -26 7 -37 -8 -31 -12 5 -12 2 -1 -20 7 -14 11
-32 8 -39 -3 -8 4 -17 18 -22 21 -8 21 -9 -9 -15 -77 -15 -186 -81 -257 -153
l-70 -71 -57 71 c-32 39 -58 75 -58 81 0 18 91 100 153 140 93 59 267 95 281
59z m40 -10 c3 -8 2 -12 -4 -9 -6 3 -10 10 -10 16 0 14 7 11 14 -7z m53 -130
c-43 -8 -101 -23 -129 -34 -28 -11 -46 -14 -40 -8 21 21 147 57 197 57 48 -1
47 -2 -28 -15z m53 -18 c0 -2 3 -11 6 -19 4 -12 -8 -18 -53 -27 -100 -20 -211
-79 -290 -154 -56 -53 -73 -63 -82 -53 -15 18 31 80 106 142 69 56 121 84 188
101 49 12 125 18 125 10z m79 -106 c21 -38 19 -45 -11 -42 -14 2 -15 -25 -2
-43 11 -14 27 -19 66 -19 68 -1 76 -22 11 -32 -60 -9 -146 -38 -190 -64 -19
-11 -39 -20 -45 -20 -6 0 -43 -34 -83 -74 l-72 -75 -39 52 c-21 29 -49 63 -61
77 -13 14 -23 27 -23 31 0 28 171 174 236 200 29 12 160 47 180 48 6 1 20 -17
33 -39z m-190 16 c-10 -9 -89 -46 -89 -41 0 6 72 44 84 45 5 0 7 -2 5 -4z
m340 -161 c-3 -2 -39 -11 -80 -19 -41 -9 -85 -18 -99 -21 l-25 -6 25 12 c46
21 194 50 179 34z m-1382 -21 c-3 -3 -12 -4 -19 -1 -8 3 -5 6 6 6 11 1 17 -2
13 -5z m1403 -24 c8 -15 8 -21 -2 -24 -220 -59 -280 -87 -362 -171 -60 -61
-64 -64 -80 -47 -15 17 -14 21 9 52 31 43 56 65 132 121 34 26 59 50 55 54 -4
5 -2 5 5 2 6 -4 24 -2 40 4 35 13 106 26 155 28 28 1 40 -4 48 -19z m-1303
-86 c-3 -3 -12 -4 -19 -1 -8 3 -5 6 6 6 11 1 17 -2 13 -5z m-72 -24 c4 -6 -10
-10 -34 -10 -23 0 -41 5 -41 10 0 6 15 10 34 10 19 0 38 -4 41 -10z m35 -20
c-8 -5 -22 -9 -30 -9 -10 0 -8 3 5 9 27 12 43 12 25 0z m-65 -30 c7 -11 -35
-11 -80 0 -26 7 -23 8 22 9 28 0 55 -3 58 -9z m85 -70 c12 -7 8 -10 -15 -10
-16 0 -37 5 -45 10 -12 7 -8 10 15 10 17 0 37 -5 45 -10z m1555 -9 c-6 -5 -26
-10 -45 -11 -56 -3 -69 2 -25 10 61 11 80 11 70 1z m-1642 -68 c-7 -2 -19 -2
-25 0 -7 3 -2 5 12 5 14 0 19 -2 13 -5z m1929 -258 c25 -10 30 -33 8 -45 -11
-6 -50 -12 -87 -14 -73 -4 -125 -15 -212 -47 -63 -23 -92 -43 -148 -98 -44
-44 -60 -50 -70 -25 -6 16 91 124 112 124 7 0 22 12 36 26 28 30 103 70 156
84 40 10 176 7 205 -5z m-1555 -41 c-3 -3 -12 -4 -19 -1 -8 3 -5 6 6 6 11 1
17 -2 13 -5z m-209 -131 c-10 -2 -28 -2 -40 0 -13 2 -5 4 17 4 22 1 32 -1 23
-4z m162 -20 c38 -4 61 -11 65 -20 3 -10 0 -13 -8 -10 -7 3 -54 11 -105 18
-51 7 -92 17 -92 22 0 6 17 7 41 3 22 -4 67 -9 99 -13z m167 -9 c-3 -3 -12 -4
-19 -1 -8 3 -5 6 6 6 11 1 17 -2 13 -5z m-109 -51 c-10 -2 -26 -2 -35 0 -10 3
-2 5 17 5 19 0 27 -2 18 -5z m102 -24 c19 -5 52 -9 73 -9 30 0 39 -5 47 -24 5
-13 15 -26 22 -29 19 -8 -31 -8 -77 0 l-40 7 30 7 30 7 -27 1 c-16 0 -28 4
-28 9 0 4 -15 8 -33 9 -44 2 -90 21 -82 33 4 6 16 8 28 4 12 -4 38 -11 57 -15z
m258 -6 c-10 -2 -26 -2 -35 0 -10 3 -2 5 17 5 19 0 27 -2 18 -5z m97 -13 c7
-11 -9 -11 -45 0 -24 8 -24 8 7 9 17 1 35 -3 38 -9z m-452 -17 c-7 -2 -19 -2
-25 0 -7 3 -2 5 12 5 14 0 19 -2 13 -5z m102 -13 c3 -5 -1 -10 -9 -10 -8 0
-18 5 -21 10 -3 6 1 10 9 10 8 0 18 -4 21 -10z m198 3 c-13 -2 -35 -2 -50 0
-16 2 -5 4 22 4 28 0 40 -2 28 -4z m-106 -105 c12 1 24 -2 27 -7 3 -5 -21 -11
-54 -15 -33 -4 -66 -13 -74 -21 -15 -15 -46 -11 -46 6 0 9 23 16 75 22 l30 4
-32 2 c-18 0 -33 6 -33 12 0 7 14 8 43 3 23 -4 52 -7 64 -6z m-287 -18 c0 -5
-4 -10 -10 -10 -5 0 -10 5 -10 10 0 6 5 10 10 10 6 0 10 -4 10 -10z m450 -30
c0 -9 -19 -16 -64 -24 -16 -3 -34 -10 -40 -16 -18 -18 -92 -12 -117 10 l-24
19 58 1 c31 0 57 4 57 9 0 6 15 11 33 13 44 4 97 -2 97 -12z m150 -10 c12 -8
11 -10 -7 -10 -12 0 -25 5 -28 10 -8 13 15 13 35 0z m30 -86 c0 -2 -7 -4 -15
-4 -8 0 -15 4 -15 10 0 5 7 7 15 4 8 -4 15 -8 15 -10z m-225 -24 c8 -13 -5
-13 -25 0 -13 8 -13 10 2 10 9 0 20 -4 23 -10z m134 -10 c14 0 37 -9 51 -20
l25 -20 -35 7 c-19 3 -57 15 -85 25 -39 15 -43 18 -16 14 18 -4 45 -6 60 -6z
m338 -86 c-3 -3 -12 -4 -19 -1 -8 3 -5 6 6 6 11 1 17 -2 13 -5z m33 -34 c0 -5
-4 -10 -10 -10 -5 0 -10 5 -10 10 0 6 5 10 10 10 6 0 10 -4 10 -10z m190 0 c0
-5 -4 -10 -10 -10 -5 0 -10 5 -10 10 0 6 5 10 10 10 6 0 10 -4 10 -10z m-370
-675 c0 -9 -9 -15 -25 -15 -16 0 -25 6 -25 15 0 9 9 15 25 15 16 0 25 -6 25
-15z m89 -91 c3 -3 0 -9 -6 -15 -17 -17 -67 -7 -71 14 -3 16 1 17 35 11 21 -4
40 -8 42 -10z m-72 -61 c3 -8 1 -19 -5 -25 -8 -8 -14 -5 -21 13 -5 14 -16 31
-25 38 -9 7 -16 18 -16 23 0 13 60 -31 67 -49z m508 27 c3 -5 1 -10 -4 -10 -6
0 -11 5 -11 10 0 6 2 10 4 10 3 0 8 -4 11 -10z m-262 -66 c6 -6 -16 -34 -27
-34 -3 0 -6 9 -6 20 0 19 20 27 33 14z m67 -7 c0 7 7 10 15 7 17 -7 20 -30 6
-38 -17 -11 -41 6 -41 28 0 17 2 18 10 6 6 -9 10 -11 10 -3z m-142 -197 c29
-38 16 -38 -22 0 -20 20 -24 30 -15 30 9 0 25 -13 37 -30z m7016 -199 c27 -27
13 -40 -37 -34 -43 6 -91 38 -80 56 9 15 96 -1 117 -22z m400 -67 c9 -8 14
-20 11 -25 -9 -14 -51 -11 -65 6 -26 31 24 49 54 19z m271 -42 c16 -8 35 -21
43 -28 11 -12 10 -14 -8 -14 -12 0 -40 4 -63 10 -23 5 -63 12 -89 15 -38 5
-48 10 -48 25 0 18 6 19 68 13 37 -3 80 -12 97 -21z m-7395 -78 c5 -12 6 -31
4 -42 -4 -12 5 -31 23 -53 39 -45 56 -112 57 -223 1 -130 -23 -204 -89 -271
-39 -41 -59 -53 -89 -57 -30 -3 -41 0 -52 16 -23 33 -18 142 10 222 40 116 62
172 74 186 16 19 43 164 35 186 -4 9 -12 21 -20 25 -14 8 -18 59 -6 71 8 8 39
-28 53 -60z m562 -589 c25 -25 42 -45 37 -45 -4 0 -16 -17 -26 -37 -12 -27
-14 -38 -5 -41 7 -2 12 -10 12 -17 0 -7 14 -18 31 -24 41 -14 35 -42 -11 -54
-44 -10 -84 -10 -88 2 -2 5 -12 19 -23 32 -10 12 -19 28 -19 36 0 7 -4 13 -10
13 -5 0 -10 9 -10 20 0 11 5 20 11 20 7 0 8 16 4 44 -6 39 -4 48 18 70 15 14
28 26 30 26 3 0 25 -20 49 -45z m-112 -75 c0 -5 -4 -10 -10 -10 -5 0 -10 5
-10 10 0 6 5 10 10 10 6 0 10 -4 10 -10z m-837 -580 c3 -14 14 -20 31 -20 21
0 26 -5 26 -25 0 -14 -4 -25 -10 -25 -5 0 -10 -7 -10 -15 0 -18 1 -18 -44 0
-20 8 -36 22 -36 30 0 8 -5 15 -10 15 -6 0 -2 10 10 22 11 12 20 25 20 30 0
17 18 7 23 -12z"/>
<path d="M3549 5329 c-23 -19 -23 -20 -2 -10 12 6 25 16 28 21 10 16 -1 12
-26 -11z"/>
<path d="M4060 8240 c-12 -8 -11 -10 8 -10 12 0 22 5 22 10 0 13 -11 13 -30 0z"/>
<path d="M3970 8210 c0 -5 4 -10 9 -10 6 0 13 5 16 10 3 6 -1 10 -9 10 -9 0
-16 -4 -16 -10z"/>
<path d="M11550 7280 c0 -22 41 -90 50 -85 17 10 11 54 -10 75 -22 22 -40 26
-40 10z"/>
<path d="M1900 7165 c0 -8 5 -15 12 -15 6 0 20 -7 30 -17 28 -25 35 -6 8 22
-26 28 -50 33 -50 10z"/>
<path d="M11696 7119 c-2 -8 -7 -26 -10 -40 -4 -17 -16 -31 -35 -38 -31 -14
-48 -42 -57 -100 -8 -51 8 -60 47 -24 38 36 68 103 71 159 1 44 -8 69 -16 43z"/>
<path d="M2040 7092 c0 -4 14 -24 31 -45 21 -26 28 -43 24 -58 -5 -16 -1 -22
24 -32 17 -6 31 -17 31 -24 0 -16 17 -26 31 -18 7 5 5 13 -6 25 -14 15 -16 29
-10 68 l7 50 -57 21 c-60 23 -75 25 -75 13z"/>
<path d="M11068 6731 c-22 -40 -14 -61 23 -61 22 0 29 -5 29 -20 0 -12 7 -20
16 -20 20 0 44 24 44 44 0 9 8 16 20 16 11 0 20 7 20 15 0 8 -7 15 -16 15 -9
0 -22 7 -28 16 -7 8 -30 18 -51 20 -37 5 -41 3 -57 -25z"/>
<path d="M7803 6724 c-3 -8 11 -46 31 -84 20 -38 36 -77 36 -87 0 -10 5 -25
11 -33 17 -24 2 85 -22 158 -20 61 -43 80 -56 46z"/>
<path d="M10760 6709 c-25 -4 -58 -12 -73 -16 -27 -8 -28 -9 -10 -25 28 -24
97 -33 116 -14 9 9 25 16 36 16 31 0 68 17 74 34 5 13 -2 16 -46 15 -29 -1
-72 -5 -97 -10z"/>
<path d="M11490 6626 c0 -11 9 -16 26 -16 31 0 28 23 -4 28 -15 2 -22 -2 -22
-12z"/>
<path d="M4155 6597 c-27 -11 -123 -43 -213 -72 l-164 -52 28 -22 c16 -13 34
-19 43 -15 37 14 243 85 324 110 88 27 92 30 81 58 -8 21 -37 19 -99 -7z"/>
<path d="M620 6520 c0 -5 5 -10 10 -10 6 0 10 5 10 10 0 6 -4 10 -10 10 -5 0
-10 -4 -10 -10z"/>
<path d="M10880 6510 c6 -11 16 -20 22 -20 7 0 22 -10 35 -22 22 -21 24 -21
37 -3 7 10 18 15 24 12 6 -5 8 0 5 13 -6 24 -34 34 -72 25 -17 -3 -32 -2 -36
4 -12 20 -26 12 -15 -9z"/>
<path d="M6152 6387 c-40 -31 -52 -59 -32 -72 6 -3 10 -19 10 -34 0 -35 27
-91 44 -91 28 0 55 -44 54 -88 0 -24 2 -46 6 -49 13 -13 10 241 -3 267 -5 8
-11 32 -15 52 -4 21 -11 40 -15 43 -5 3 -27 -10 -49 -28z"/>
<path d="M9050 6410 c0 -5 7 -10 15 -10 8 0 15 5 15 10 0 6 -7 10 -15 10 -8 0
-15 -4 -15 -10z"/>
<path d="M11027 6411 c-16 -6 -11 -14 35 -56 61 -57 177 -153 225 -187 28 -20
62 -49 183 -151 118 -101 168 -141 190 -151 14 -7 66 -18 115 -25 50 -7 115
-16 145 -22 52 -8 235 -38 365 -59 33 -6 158 -26 278 -45 119 -19 222 -35 227
-35 6 0 10 83 10 218 l0 218 -75 13 c-42 8 -98 11 -125 8 -44 -5 -53 -3 -75
19 -14 14 -25 28 -25 33 0 4 -16 15 -36 24 -25 13 -40 14 -54 7 -20 -11 -103
-14 -113 -4 -3 3 -45 8 -94 10 -48 3 -131 11 -183 18 -52 7 -113 11 -136 9
-29 -3 -46 0 -57 11 -8 9 -21 16 -27 16 -6 0 -13 7 -16 15 -9 23 -70 19 -94
-5 -18 -18 -26 -19 -58 -11 -20 6 -58 13 -84 16 -27 4 -48 10 -48 16 0 5 -9 9
-20 9 -12 0 -24 9 -29 23 -16 42 -37 52 -79 38 -53 -18 -184 -9 -256 17 -65
24 -63 24 -89 13z"/>
<path d="M920 6301 c0 -5 9 -7 20 -4 11 3 20 7 20 9 0 2 -9 4 -20 4 -11 0 -20
-4 -20 -9z"/>
<path d="M5790 6205 c0 -10 10 -15 26 -15 22 0 25 2 14 15 -7 8 -19 15 -26 15
-8 0 -14 -7 -14 -15z"/>
<path d="M5720 6150 c0 -5 16 -10 36 -10 21 0 33 4 29 10 -3 6 -19 10 -36 10
-16 0 -29 -4 -29 -10z"/>
<path d="M5510 6130 c0 -5 5 -10 10 -10 6 0 10 5 10 10 0 6 -4 10 -10 10 -5 0
-10 -4 -10 -10z"/>
<path d="M5461 6121 c-14 -4 -26 -12 -29 -19 -6 -18 13 -15 39 8 26 21 26 21
-10 11z"/>
<path d="M6270 5990 c0 -5 5 -10 11 -10 5 0 7 5 4 10 -3 6 -8 10 -11 10 -2 0
-4 -4 -4 -10z"/>
<path d="M8130 5950 c0 -5 5 -10 10 -10 6 0 10 5 10 10 0 6 -4 10 -10 10 -5 0
-10 -4 -10 -10z"/>
<path d="M9245 5650 c-3 -5 -1 -10 4 -10 6 0 11 5 11 10 0 6 -2 10 -4 10 -3 0
-8 -4 -11 -10z"/>
<path d="M9155 5600 c-3 -5 1 -10 9 -10 8 0 18 5 21 10 3 6 -1 10 -9 10 -8 0
-18 -4 -21 -10z"/>
<path d="M5405 5590 c3 -5 8 -10 11 -10 2 0 4 5 4 10 0 6 -5 10 -11 10 -5 0
-7 -4 -4 -10z"/>
<path d="M9110 5581 c0 -12 5 -21 10 -21 6 0 10 6 10 14 0 8 -4 18 -10 21 -5
3 -10 -3 -10 -14z"/>
<path d="M5461 5544 c0 -11 3 -14 6 -6 3 7 2 16 -1 19 -3 4 -6 -2 -5 -13z"/>
<path d="M8545 5550 c-8 -13 -1 -24 14 -19 6 3 7 10 2 18 -6 10 -10 10 -16 1z"/>
<path d="M8893 5490 c1 -11 5 -20 9 -20 4 0 8 9 8 20 0 11 -4 20 -9 20 -6 0
-9 -9 -8 -20z"/>
<path d="M9195 5501 c-3 -5 -1 -12 4 -15 5 -3 11 1 15 9 6 16 -9 21 -19 6z"/>
<path d="M8388 5473 c5 -10 7 -24 4 -32 -3 -8 1 -12 9 -9 23 8 22 36 -1 48
-19 10 -20 10 -12 -7z"/>
<path d="M9150 5471 c0 -25 6 -27 13 -6 4 8 2 17 -3 20 -6 4 -10 -3 -10 -14z"/>
<path d="M5546 5465 c4 -8 8 -15 10 -15 2 0 4 7 4 15 0 8 -4 15 -10 15 -5 0
-7 -7 -4 -15z"/>
<path d="M8843 5460 c1 -11 5 -20 9 -20 4 0 8 9 8 20 0 11 -4 20 -9 20 -6 0
-9 -9 -8 -20z"/>
<path d="M4878 5430 c2 -17 9 -33 15 -37 7 -4 8 0 4 11 -4 10 -7 26 -7 37 0
10 -4 19 -8 19 -5 0 -7 -14 -4 -30z"/>
<path d="M8790 5435 c0 -8 7 -15 15 -15 8 0 15 7 15 15 0 8 -7 15 -15 15 -8 0
-15 -7 -15 -15z"/>
<path d="M9095 5440 c-3 -5 1 -10 9 -10 9 0 16 5 16 10 0 6 -4 10 -9 10 -6 0
-13 -4 -16 -10z"/>
<path d="M8730 5430 c-9 -6 -7 -11 8 -19 26 -14 29 -14 35 3 6 16 -24 27 -43
16z"/>
<path d="M9060 5420 c-6 -11 -7 -20 -2 -20 6 0 12 9 15 20 3 11 3 20 1 20 -2
0 -8 -9 -14 -20z"/>
<path d="M5313 5418 c-30 -15 -29 -28 2 -28 18 0 25 5 25 20 0 11 -1 20 -2 19
-2 0 -13 -5 -25 -11z"/>
<path d="M5545 5410 c-3 -5 1 -10 10 -10 9 0 13 5 10 10 -3 6 -8 10 -10 10 -2
0 -7 -4 -10 -10z"/>
<path d="M7608 5409 c-18 -10 -25 -29 -10 -29 4 0 18 9 32 20 27 21 10 28 -22
9z"/>
<path d="M5227 5361 c-16 -10 -24 -21 -19 -25 5 -3 15 1 22 9 7 8 19 15 26 15
8 0 14 5 14 10 0 15 -11 12 -43 -9z"/>
<path d="M8930 5361 c0 -25 6 -27 13 -6 4 8 2 17 -3 20 -6 4 -10 -3 -10 -14z"/>
<path d="M5000 5285 c82 -82 100 -96 100 -75 0 6 -6 10 -13 10 -16 0 -87 71
-87 87 0 6 -9 13 -21 16 -11 3 -23 15 -26 26 -3 12 -13 21 -21 21 -10 0 18
-35 68 -85z"/>
<path d="M5420 5360 c0 -5 5 -10 11 -10 5 0 7 5 4 10 -3 6 -8 10 -11 10 -2 0
-4 -4 -4 -10z"/>
<path d="M6815 5354 c-20 -20 -11 -33 65 -84 79 -54 188 -147 275 -236 42 -42
79 -73 83 -69 13 12 -243 241 -361 322 -41 28 -47 36 -41 58 7 29 2 31 -21 9z"/>
<path d="M5380 5340 c0 -5 5 -10 11 -10 5 0 7 5 4 10 -3 6 -8 10 -11 10 -2 0
-4 -4 -4 -10z"/>
<path d="M8871 5341 c-10 -7 -10 -10 -1 -16 6 -4 16 -3 22 3 13 13 -4 23 -21
13z"/>
<path d="M5340 5325 c0 -8 4 -15 10 -15 5 0 7 7 4 15 -4 8 -8 15 -10 15 -2 0
-4 -7 -4 -15z"/>
<path d="M5060 5310 c-9 -6 -10 -10 -3 -10 6 0 15 5 18 10 8 12 4 12 -15 0z"/>
<path d="M5300 5304 c0 -8 5 -12 10 -9 6 4 8 11 5 16 -9 14 -15 11 -15 -7z"/>
<path d="M5920 5280 c-19 -10 -50 -21 -67 -25 -18 -3 -33 -11 -33 -16 0 -5
-15 -9 -33 -9 -20 0 -39 -8 -50 -20 -9 -11 -28 -20 -42 -20 -22 0 -46 -9 -150
-56 -16 -7 -63 -26 -102 -42 -40 -16 -71 -31 -68 -34 3 -3 -13 -8 -36 -12 -23
-4 -46 -9 -50 -12 -4 -2 13 -25 39 -50 45 -44 48 -46 77 -34 17 6 58 21 93 32
34 11 60 23 57 28 -3 4 2 10 10 14 8 3 15 1 15 -4 0 -14 52 8 67 27 7 9 15 14
19 11 8 -9 64 12 64 23 0 5 9 9 21 9 11 0 18 4 15 9 -3 5 0 8 7 8 19 -2 137
54 137 65 0 5 4 7 9 4 5 -3 24 0 42 8 19 7 43 16 54 20 19 7 18 9 -11 36 -18
15 -36 35 -40 43 -8 13 -13 13 -44 -3z m-95 -100 c3 -5 1 -10 -4 -10 -6 0 -11
5 -11 10 0 6 2 10 4 10 3 0 8 -4 11 -10z m-341 -126 c4 -10 1 -14 -6 -12 -15
5 -23 28 -10 28 5 0 13 -7 16 -16z"/>
<path d="M7455 5228 c-56 -67 -195 -269 -190 -276 2 -2 15 0 30 4 16 4 22 10
16 14 -9 5 -8 13 1 31 29 53 112 174 158 230 45 54 56 70 48 69 -2 0 -30 -33
-63 -72z"/>
<path d="M5250 5280 c0 -5 5 -10 10 -10 6 0 10 5 10 10 0 6 -4 10 -10 10 -5 0
-10 -4 -10 -10z"/>
<path d="M6625 5269 c-22 -11 -30 -16 -17 -13 12 3 22 3 22 -1 0 -30 -97 -151
-255 -317 l-93 -98 -89 -2 -88 -2 78 -3 c42 -2 77 -8 77 -12 0 -5 -8 -19 -19
-32 -10 -13 -36 -49 -57 -80 -47 -69 -256 -309 -266 -306 -16 4 -399 389 -393
395 4 4 43 10 88 13 l82 6 -85 2 c-58 2 -79 5 -65 11 11 5 14 9 7 9 -22 1 -52
-19 -52 -35 0 -9 88 -104 195 -211 107 -107 195 -199 195 -203 0 -15 23 -24
52 -22 57 5 883 357 1064 454 76 40 81 45 72 67 -11 30 -47 67 -118 118 -30
22 -104 92 -164 156 -60 64 -114 118 -120 120 -6 2 -29 -4 -51 -14z m175 -126
c69 -71 155 -152 193 -181 37 -29 67 -57 67 -62 0 -10 -42 -16 -210 -29 l-125
-9 135 4 c74 3 150 8 168 11 17 3 32 1 32 -4 0 -19 -269 -149 -520 -250 -74
-30 -175 -72 -225 -93 -182 -79 -357 -150 -366 -150 -15 0 -1 21 63 91 116
131 162 186 209 254 74 107 72 105 120 107 37 1 39 2 12 5 -18 2 -33 7 -33 10
0 9 39 55 108 129 85 89 155 175 200 242 19 28 38 52 41 52 3 0 62 -57 131
-127z"/>
<path d="M6598 4853 c23 -2 61 -2 85 0 23 2 4 4 -43 4 -47 0 -66 -2 -42 -4z"/>
<path d="M6428 4843 c23 -2 59 -2 80 0 20 2 1 4 -43 4 -44 0 -61 -2 -37 -4z"/>
<path d="M5210 5260 c0 -5 5 -10 11 -10 5 0 7 5 4 10 -3 6 -8 10 -11 10 -2 0
-4 -4 -4 -10z"/>
<path d="M8332 5224 c-7 -8 -8 -14 -3 -14 10 0 25 19 20 25 -2 1 -10 -3 -17
-11z"/>
<path d="M6452 5195 c-62 -19 -75 -25 -70 -30 5 -5 128 34 128 41 0 6 -11 4
-58 -11z"/>
<path d="M8275 5200 c-4 -7 -18 -9 -31 -6 -14 4 -24 2 -24 -4 0 -5 -13 -10
-30 -10 -20 0 -30 -5 -30 -15 0 -9 -6 -12 -17 -9 -15 5 -16 4 -3 -5 21 -15 50
-14 50 3 0 9 16 16 45 20 41 7 64 20 52 32 -3 3 -8 0 -12 -6z"/>
<path d="M10610 5206 c0 -2 8 -10 18 -17 15 -13 16 -12 3 4 -13 16 -21 21 -21
13z"/>
<path d="M6212 5106 c-62 -24 -116 -47 -120 -52 -4 -4 2 -4 13 0 11 5 67 26
124 47 58 22 107 41 109 44 12 12 -20 2 -126 -39z"/>
<path d="M10690 5136 c0 -2 8 -10 18 -17 15 -13 16 -12 3 4 -13 16 -21 21 -21
13z"/>
<path d="M7650 5110 c-19 -11 -31 -19 -27 -20 11 0 67 29 67 35 0 7 -1 7 -40
-15z"/>
<path d="M7984 5096 c-3 -8 -27 -17 -55 -21 -33 -5 -49 -12 -49 -22 0 -10 -7
-13 -22 -8 -21 5 -21 5 2 -9 32 -19 40 -20 40 -1 0 8 9 15 19 15 11 0 23 5 26
10 3 6 15 10 26 10 10 0 19 4 19 9 0 5 8 11 18 13 16 3 16 4 -1 11 -11 4 -20
2 -23 -7z"/>
<path d="M10731 5098 c2 -2 18 -14 34 -28 l30 -25 -24 28 c-14 15 -29 27 -34
27 -6 0 -8 -1 -6 -2z"/>
<path d="M7570 5075 c-14 -8 -20 -14 -15 -14 6 0 21 6 35 14 14 8 21 14 15 14
-5 0 -21 -6 -35 -14z"/>
<path d="M8455 5035 c-49 -24 -85 -44 -80 -44 6 0 51 20 100 44 50 24 86 43
80 44 -5 0 -50 -20 -100 -44z"/>
<path d="M7465 5030 c-33 -16 -55 -29 -50 -29 6 0 37 13 70 29 33 15 56 28 50
28 -5 0 -37 -12 -70 -28z"/>
<path d="M5878 4972 c-103 -42 -185 -78 -183 -80 4 -4 352 133 375 148 32 20
-11 5 -192 -68z"/>
<path d="M9370 5030 c-46 -25 -34 -25 21 0 24 11 37 19 29 19 -8 0 -31 -8 -50
-19z"/>
<path d="M10800 5043 c0 -5 28 -32 63 -59 34 -27 71 -58 83 -69 22 -21 145
-132 191 -171 17 -15 24 -27 18 -32 -27 -25 -208 -140 -355 -227 -91 -53 -208
-123 -261 -155 -53 -32 -154 -88 -225 -125 -71 -37 -133 -71 -138 -76 -49 -45
191 76 379 191 325 198 434 265 530 327 l105 69 -37 30 c-21 16 -49 40 -63 54
-44 43 -173 154 -220 190 -25 18 -51 40 -57 49 -7 8 -13 10 -13 4z"/>
<path d="M8105 4934 c-110 -58 -191 -103 -180 -100 42 12 419 212 385 205 -3
0 -95 -48 -205 -105z"/>
<path d="M7730 4995 c-8 -22 -15 -26 -35 -21 -13 3 -27 2 -30 -4 -3 -5 -15
-10 -26 -10 -16 0 -19 -5 -14 -20 7 -23 9 -23 -33 -11 -28 9 -32 7 -32 -10 0
-16 -3 -18 -19 -9 -21 11 -37 -2 -26 -20 4 -7 -2 -9 -18 -4 -22 5 -25 3 -20
-15 5 -20 3 -21 -22 -11 -15 6 -37 8 -48 4 -20 -6 -20 -7 4 -25 26 -20 49 -25
49 -9 0 6 9 10 20 10 11 0 20 7 20 15 0 8 9 15 20 15 11 0 20 5 20 10 0 6 12
10 26 10 19 0 25 4 21 14 -5 12 1 13 29 9 27 -4 34 -2 34 11 0 9 8 16 20 16
11 0 20 4 20 9 0 5 10 11 22 13 12 2 27 12 33 24 9 17 15 20 35 12 16 -6 21
-6 15 0 -5 6 -20 13 -32 17 -19 5 -25 1 -33 -20z"/>
<path d="M9241 4970 c-82 -44 -100 -57 -58 -41 25 10 136 68 146 77 16 14 -26
-3 -88 -36z"/>
<path d="M7370 4990 c-8 -5 -10 -10 -5 -10 6 0 17 5 25 10 8 5 11 10 5 10 -5
0 -17 -5 -25 -10z"/>
<path d="M8026 4975 c-8 -8 -21 -15 -30 -15 -8 0 -17 -4 -21 -9 -3 -6 -25 -13
-49 -16 -32 -5 -47 -13 -57 -31 -7 -14 -21 -24 -35 -24 -33 0 -54 -10 -54 -27
0 -10 -9 -14 -30 -11 -18 2 -34 -3 -39 -11 -5 -8 -16 -11 -30 -6 -17 5 -21 2
-21 -15 0 -19 -4 -21 -30 -15 -25 6 -29 4 -23 -10 5 -14 2 -16 -15 -11 -14 5
-24 1 -30 -10 -7 -13 -13 -14 -31 -5 -11 7 -21 9 -21 7 0 -7 56 -36 70 -36 5
0 10 7 10 15 0 8 9 15 20 15 11 0 20 5 20 11 0 7 9 9 21 6 15 -4 23 0 26 14 3
12 14 19 29 19 13 0 24 5 24 11 0 6 8 9 19 6 23 -6 51 10 51 28 0 10 10 15 29
15 17 0 42 11 60 26 19 16 54 30 91 37 46 9 60 16 60 29 0 13 11 18 43 21 l42
4 -42 1 c-26 1 -47 -4 -57 -13z"/>
<path d="M8250 4935 c-25 -13 -39 -24 -32 -25 14 0 92 38 92 45 0 9 -15 4 -60
-20z"/>
<path d="M10015 4950 c-3 -6 1 -7 9 -4 18 7 21 14 7 14 -6 0 -13 -4 -16 -10z"/>
<path d="M9980 4930 c-9 -6 -10 -10 -3 -10 6 0 15 5 18 10 8 12 4 12 -15 0z"/>
<path d="M9085 4890 c-33 -15 -57 -29 -54 -29 10 -1 119 48 119 54 0 7 3 8
-65 -25z"/>
<path d="M9930 4910 c-8 -5 -10 -10 -5 -10 6 0 17 5 25 10 8 5 11 10 5 10 -5
0 -17 -5 -25 -10z"/>
<path d="M9890 4890 c-9 -6 -10 -10 -3 -10 6 0 15 5 18 10 8 12 4 12 -15 0z"/>
<path d="M5635 4871 c-22 -11 -37 -20 -34 -20 10 -1 79 29 79 34 0 7 0 7 -45
-14z"/>
<path d="M9692 4793 c-94 -47 -170 -88 -167 -91 4 -5 322 154 340 169 17 17 0
9 -173 -78z"/>
<path d="M7998 4808 c-71 -34 -128 -65 -128 -70 0 -5 42 13 93 40 50 26 115
58 142 69 28 12 43 22 35 22 -8 0 -72 -27 -142 -61z"/>
<path d="M8157 4803 c-70 -36 -125 -68 -123 -70 2 -3 68 27 146 66 78 39 133
71 123 70 -10 0 -75 -30 -146 -66z"/>
<path d="M8941 4829 c-35 -17 -61 -32 -58 -35 3 -3 36 11 73 30 84 43 74 46
-15 5z"/>
<path d="M5828 4823 c50 -2 134 -2 185 0 50 1 9 3 -93 3 -102 0 -143 -2 -92
-3z"/>
<path d="M7775 4761 c-38 -21 -90 -48 -113 -60 -24 -12 -42 -24 -39 -27 4 -4
233 110 246 122 17 15 -36 -5 -94 -35z"/>
<path d="M4125 4769 c-4 -13 1 -32 17 -55 26 -38 35 -41 64 -19 19 14 19 14
-2 9 -15 -4 -23 2 -32 22 -7 14 -11 29 -8 31 5 5 -18 33 -28 33 -2 0 -8 -9
-11 -21z"/>
<path d="M8790 4761 c-36 -16 -180 -80 -320 -143 -140 -63 -331 -145 -425
-181 -166 -64 -540 -207 -660 -252 -33 -12 -73 -28 -90 -34 -16 -7 -70 -28
-120 -46 -150 -55 -595 -238 -591 -243 3 -2 44 13 93 33 277 114 571 228 1048
406 165 61 359 135 430 164 111 45 556 244 680 304 60 29 29 23 -45 -8z"/>
<path d="M10348 4780 c-69 -21 -110 -64 -95 -102 3 -7 8 2 13 21 6 28 15 37
61 58 89 41 182 20 216 -49 16 -34 17 -40 3 -66 -20 -38 -72 -62 -141 -64 -48
-1 -59 2 -85 27 -34 32 -38 59 -12 74 9 6 12 11 6 11 -26 0 -47 -27 -40 -53
23 -93 223 -99 283 -8 63 93 -73 192 -209 151z"/>
<path d="M7736 4674 c-96 -50 -76 -53 25 -4 45 22 74 40 63 40 -10 -1 -50 -17
-88 -36z"/>
<path d="M7853 4647 c-62 -29 -108 -53 -103 -55 12 -4 229 91 230 101 0 12
-11 8 -127 -46z"/>
<path d="M10360 4690 c0 -13 60 -50 81 -50 12 0 14 7 11 30 -4 28 -7 30 -48
30 -24 0 -44 -5 -44 -10z"/>
<path d="M9558 4651 c27 -22 85 -73 128 -113 117 -108 314 -280 354 -307 19
-13 48 -36 64 -50 23 -20 28 -22 23 -8 -4 10 -7 20 -7 22 0 2 -21 19 -47 37
-56 38 -241 195 -328 278 -83 78 -209 180 -224 180 -7 0 10 -18 37 -39z"/>
<path d="M12207 4537 c-131 -66 -236 -121 -233 -124 2 -3 73 31 158 74 84 44
182 92 218 107 65 27 107 53 99 59 -2 2 -111 -50 -242 -116z"/>
<path d="M6865 4610 c-5 -15 -15 -20 -41 -20 -19 0 -34 -4 -34 -9 0 -5 -10 -7
-22 -3 -14 3 -19 2 -14 -6 9 -15 53 -16 61 -2 3 6 19 10 36 10 19 0 29 5 29
15 0 7 8 19 18 24 15 9 15 10 -5 11 -13 0 -24 -8 -28 -20z"/>
<path d="M9325 4587 c-35 -20 -191 -103 -405 -214 -36 -19 -90 -45 -121 -58
-32 -13 -90 -40 -130 -59 -41 -19 -146 -68 -234 -109 -88 -41 -160 -79 -160
-83 0 -5 45 -51 100 -102 55 -51 130 -122 167 -158 105 -103 312 -284 317
-278 3 3 -4 13 -16 22 -63 50 -139 118 -238 213 -60 58 -158 150 -216 204
l-106 99 71 31 c39 18 94 42 121 55 28 12 109 50 180 82 185 85 343 163 552
272 l181 95 38 -47 c60 -73 383 -393 473 -467 71 -59 90 -85 61 -85 -4 0 -37
-16 -72 -36 -34 -20 -121 -64 -193 -98 -71 -33 -166 -82 -210 -108 -44 -26
-129 -70 -190 -98 -250 -118 -377 -181 -372 -186 3 -3 40 13 84 35 43 22 146
71 228 108 83 38 197 96 255 129 58 32 130 70 160 84 56 25 342 169 349 175 7
8 -36 54 -99 106 -92 75 -321 297 -420 407 -46 50 -91 92 -99 92 -9 0 -34 -11
-56 -23z"/>
<path d="M6700 4534 c0 -8 -5 -12 -10 -9 -6 4 -17 2 -24 -5 -8 -6 -26 -8 -40
-4 -21 5 -26 2 -31 -19 -6 -23 -10 -25 -32 -16 -27 10 -47 4 -37 -12 3 -6 -5
-7 -23 -4 l-28 6 29 -17 c23 -13 34 -14 48 -5 10 6 27 11 39 11 13 0 23 8 26
21 5 16 11 19 34 14 18 -4 29 -2 29 4 0 6 9 11 20 11 12 0 30 9 42 20 l22 20
-32 0 c-22 0 -32 -5 -32 -16z"/>
<path d="M7127 4462 c-103 -48 -183 -88 -177 -90 5 -2 67 23 137 55 192 88
260 122 243 121 -8 0 -99 -39 -203 -86z"/>
<path d="M6400 4420 c0 -5 -10 -9 -22 -7 -18 1 -22 -2 -20 -17 3 -15 0 -17
-15 -11 -51 21 -69 15 -41 -13 15 -15 3 -16 -23 -2 -24 13 -25 2 -1 -16 26
-20 63 -18 55 3 -5 12 -2 15 10 10 21 -8 49 2 41 14 -3 5 4 9 15 9 11 0 23 5
26 10 4 6 12 8 18 4 7 -3 3 2 -7 10 -23 18 -36 20 -36 6z"/>
<path d="M7045 4361 c-120 -49 -261 -117 -216 -105 14 3 57 22 97 41 41 18
120 51 176 73 57 21 94 39 83 39 -11 1 -74 -21 -140 -48z"/>
<path d="M6193 4330 c4 -16 0 -20 -20 -20 -20 0 -23 -4 -18 -21 7 -20 6 -20
-24 -5 -44 23 -64 21 -56 -5 l7 -22 -33 22 -34 23 28 -26 c32 -30 73 -36 63
-10 -5 12 -2 15 11 9 42 -17 53 -17 60 1 5 11 15 19 23 19 8 0 14 8 14 18 -1
9 2 17 8 17 5 0 6 5 3 10 -12 19 -38 11 -32 -10z"/>
<path d="M10952 4320 c-23 -17 -49 -30 -56 -30 -7 0 -24 -8 -37 -18 -19 -14
-172 -109 -287 -177 -32 -19 -77 -50 -82 -55 -5 -6 -75 -57 -125 -90 -12 -8
-35 -24 -51 -35 -16 -10 -61 -46 -101 -80 -39 -33 -93 -78 -119 -100 -157
-130 -464 -436 -464 -462 0 -5 -10 -19 -23 -33 -46 -51 -57 -78 -57 -138 0
-46 4 -63 20 -77 11 -10 23 -34 26 -54 9 -47 41 -110 68 -133 37 -32 143 -78
179 -78 20 0 45 9 61 21 23 18 26 28 26 80 0 82 -51 184 -126 256 l-55 51 -55
-7 c-47 -7 -54 -5 -54 9 0 10 7 23 15 30 8 7 15 18 15 25 0 8 4 15 9 17 4 2
41 32 80 68 40 36 86 73 103 82 17 9 52 33 77 53 154 119 279 220 325 262 49
45 92 81 221 191 27 23 66 56 85 74 109 97 246 212 320 270 86 66 130 108 114
108 -5 0 -28 -14 -52 -30z m-1202 -1360 c0 -5 -4 -10 -10 -10 -5 0 -10 5 -10
10 0 6 5 10 10 10 6 0 10 -4 10 -10z"/>
<path d="M6510 4323 c-19 -8 -37 -19 -40 -23 -3 -4 -20 -11 -38 -15 -18 -4
-36 -13 -38 -19 -3 -8 -15 -11 -30 -8 -13 2 -24 0 -24 -6 0 -6 -12 -12 -27
-14 -20 -2 -27 -8 -25 -20 2 -15 -1 -16 -23 -8 -32 12 -46 5 -38 -16 5 -14 3
-15 -15 -5 -27 15 -32 14 -32 -4 0 -13 -4 -14 -21 -5 -11 7 -23 10 -25 7 -2
-2 12 -12 32 -23 28 -14 38 -16 41 -6 3 6 16 12 29 12 14 0 24 6 24 14 0 9 8
12 25 8 18 -3 25 0 25 12 0 10 9 16 25 16 14 0 25 5 25 10 0 6 14 10 30 10 17
0 30 5 30 11 0 5 4 8 9 5 5 -3 24 8 42 24 19 16 39 30 45 30 5 0 19 7 30 15
24 18 9 18 -36 -2z"/>
<path d="M6790 4301 c-113 -45 -244 -110 -237 -117 3 -3 26 6 52 21 54 30 216
98 258 109 15 3 27 11 27 16 0 12 11 16 -100 -29z"/>
<path d="M6877 4217 c-86 -40 -153 -73 -148 -75 5 -2 74 27 155 63 80 36 150
65 156 65 5 0 10 5 10 10 0 15 -4 14 -173 -63z"/>
<path d="M6638 4174 c-45 -23 -250 -113 -292 -128 -10 -3 -16 -9 -13 -12 3 -3
63 19 134 49 189 82 260 116 238 116 -11 0 -41 -11 -67 -25z"/>
<path d="M6370 4115 c-52 -25 -87 -45 -78 -45 9 0 49 16 89 35 41 19 79 35 86
35 6 0 15 5 18 10 11 18 -19 9 -115 -35z"/>
<path d="M9105 4129 c-22 -5 -47 -18 -57 -29 -9 -11 -21 -20 -26 -20 -12 0
-22 -24 -22 -55 0 -31 46 -84 87 -101 76 -32 216 -6 253 46 26 37 25 52 -7 91
-48 56 -149 87 -228 68z m151 -33 c35 -16 55 -33 67 -57 15 -33 15 -35 -7 -64
-30 -39 -93 -58 -171 -51 -53 4 -64 9 -92 40 -38 41 -44 90 -15 113 59 48 140
55 218 19z"/>
<path d="M9160 4043 c-51 -8 -53 -13 -16 -38 46 -31 60 -31 74 0 21 46 15 50
-58 38z"/>
<path d="M10385 4077 c-44 -22 -74 -42 -67 -45 12 -4 152 73 152 83 0 3 -1 4
-2 4 -2 -1 -39 -20 -83 -42z"/>
<path d="M6600 4097 c-121 -55 -263 -126 -253 -127 6 0 51 18 100 41 48 23
112 52 141 65 28 14 52 27 52 29 0 7 -12 5 -40 -8z"/>
<path d="M8230 3867 c58 -56 141 -133 185 -172 43 -38 105 -94 137 -124 32
-30 58 -50 57 -45 -1 9 -171 167 -254 236 -21 18 -77 72 -123 121 -47 48 -90
87 -96 87 -6 -1 36 -47 94 -103z"/>
<path d="M8045 3928 c-22 -12 -76 -36 -120 -54 -44 -17 -163 -69 -265 -114
-102 -45 -209 -91 -238 -103 -29 -11 -50 -22 -48 -24 5 -5 28 5 301 122 99 43
218 92 265 110 91 35 185 85 160 84 -8 0 -33 -9 -55 -21z"/>
<path d="M6540 3850 c-8 -5 -10 -10 -5 -10 6 0 17 5 25 10 8 5 11 10 5 10 -5
0 -17 -5 -25 -10z"/>
<path d="M7139 3840 c-18 -12 -6 -23 19 -18 16 2 17 5 7 15 -7 6 -18 8 -26 3z"/>
<path d="M6470 3820 c-8 -5 -10 -10 -5 -10 6 0 17 5 25 10 8 5 11 10 5 10 -5
0 -17 -5 -25 -10z"/>
<path d="M7212 3809 c-19 -31 -9 -33 18 -4 16 17 19 25 9 25 -8 0 -20 -9 -27
-21z"/>
<path d="M6410 3800 c-18 -12 -2 -12 25 0 13 6 15 9 5 9 -8 0 -22 -4 -30 -9z"/>
<path d="M7079 3795 c-4 -5 -4 -17 0 -26 4 -12 12 -14 29 -8 12 5 22 14 21 21
0 10 -2 10 -6 1 -7 -19 -31 -16 -35 5 -2 9 -6 13 -9 7z"/>
<path d="M9738 3772 c-26 -15 -59 -37 -75 -50 l-28 -23 35 19 c19 11 59 32 88
47 28 15 52 29 52 31 0 10 -29 0 -72 -24z"/>
<path d="M6983 3748 c-18 -13 -33 -31 -33 -40 0 -9 -8 -19 -17 -21 -16 -4 -16
-5 -1 -6 9 0 24 9 32 21 14 19 18 20 39 9 19 -10 29 -10 47 -1 12 6 20 14 17
17 -3 2 -14 -1 -25 -8 -17 -10 -23 -10 -36 0 -25 21 -19 34 11 26 23 -5 25 -4
14 9 -16 19 -10 20 -48 -6z"/>
<path d="M6895 3700 c3 -5 8 -10 11 -10 2 0 4 5 4 10 0 6 -5 10 -11 10 -5 0
-7 -4 -4 -10z"/>
<path d="M6807 3657 c-3 -9 1 -18 10 -21 22 -9 25 -3 10 19 -12 15 -15 16 -20
2z"/>
<path d="M9462 3621 c-34 -21 -66 -42 -70 -46 -11 -12 73 32 114 60 57 38 27
29 -44 -14z"/>
<path d="M9591 3598 c-116 -60 -179 -98 -166 -98 6 0 30 12 55 27 25 14 84 45
133 69 48 24 87 46 87 49 0 9 -15 3 -109 -47z"/>
<path d="M5903 3607 c-51 -19 -51 -28 0 -11 26 9 47 18 47 20 0 6 -12 4 -47
-9z"/>
<path d="M7255 3595 c-39 -17 -21 -18 25 0 19 7 28 14 20 14 -8 0 -28 -6 -45
-14z"/>
<path d="M7115 3525 c-49 -30 -86 -55 -81 -55 10 0 176 99 176 106 0 6 1 7
-95 -51z"/>
<path d="M9340 3550 c-9 -6 -10 -10 -3 -10 6 0 15 5 18 10 8 12 4 12 -15 0z"/>
<path d="M7828 3533 c6 -2 18 -2 25 0 6 3 1 5 -13 5 -14 0 -19 -2 -12 -5z"/>
<path d="M9270 3515 c-25 -13 -41 -24 -37 -25 11 0 87 39 87 45 0 7 0 7 -50
-20z"/>
<path d="M7788 3523 c7 -3 16 -2 19 1 4 3 -2 6 -13 5 -11 0 -14 -3 -6 -6z"/>
<path d="M7745 3510 c-3 -6 1 -7 9 -4 18 7 21 14 7 14 -6 0 -13 -4 -16 -10z"/>
<path d="M8006 3498 c49 -53 55 -91 22 -134 l-23 -29 25 16 c49 32 30 142 -29
164 -11 4 -9 -1 5 -17z"/>
<path d="M8625 3513 c53 -52 106 -94 96 -76 -6 12 -26 33 -44 46 -37 28 -67
45 -52 30z"/>
<path d="M7711 3433 c-1 -27 19 -73 32 -73 5 0 4 7 -3 15 -7 8 -16 30 -20 48
-6 22 -8 25 -9 10z"/>
<path d="M6947 3434 c-8 -8 1 -24 14 -24 5 0 9 7 9 15 0 15 -12 20 -23 9z"/>
<path d="M7849 3422 c14 -9 37 -22 53 -29 27 -12 28 -11 28 17 0 29 -1 30 -52
29 -53 0 -53 0 -29 -17z"/>
<path d="M8720 3389 c0 -5 5 -7 10 -4 6 3 10 8 10 11 0 2 -4 4 -10 4 -5 0 -10
-5 -10 -11z"/>
<path d="M9455 3232 c-27 -15 -80 -40 -118 -56 -66 -28 -104 -55 -56 -41 40
12 253 106 264 116 20 20 -42 7 -90 -19z"/>
<path d="M5445 2940 c-13 -6 -15 -9 -5 -9 8 0 22 4 30 9 18 12 2 12 -25 0z"/>
<path d="M5525 2850 c-13 -5 -14 -9 -5 -9 8 0 24 4 35 9 13 5 14 9 5 9 -8 0
-24 -4 -35 -9z"/>
<path d="M5938 2597 c-8 -19 1 -77 12 -77 4 0 12 -11 18 -25 6 -14 16 -25 22
-25 6 0 30 -9 52 -20 51 -25 48 -25 48 5 0 14 -4 25 -9 25 -5 0 -19 16 -31 35
-12 19 -28 35 -35 35 -28 0 -64 23 -67 44 -3 19 -4 19 -10 3z"/>
<path d="M6110 2351 c0 -13 8 -23 23 -26 15 -4 27 -17 33 -38 5 -20 20 -37 37
-45 16 -8 41 -31 55 -52 20 -28 36 -39 60 -42 17 -2 32 0 32 5 0 20 -76 97
-102 102 -15 4 -36 17 -45 29 -10 12 -35 37 -55 55 -35 30 -38 31 -38 12z"/>
<path d="M6408 2017 c12 -13 29 -45 38 -73 23 -68 50 -104 78 -104 13 0 40 -7
60 -15 28 -12 36 -13 36 -2 0 15 -91 107 -106 107 -12 0 -54 44 -77 83 -10 15
-25 27 -34 27 -14 0 -13 -4 5 -23z"/>
<path d="M6075 1960 c-3 -5 1 -10 9 -10 9 0 16 5 16 10 0 6 -4 10 -9 10 -6 0
-13 -4 -16 -10z"/>
<path d="M6670 1676 c0 -9 7 -16 16 -16 17 0 14 22 -4 28 -7 2 -12 -3 -12 -12z"/>
<path d="M6705 1630 c3 -5 8 -10 11 -10 2 0 4 5 4 10 0 6 -5 10 -11 10 -5 0
-7 -4 -4 -10z"/>
<path d="M6740 1600 c0 -16 36 -71 56 -84 11 -8 39 -17 62 -21 42 -7 43 -6 33
14 -7 12 -15 21 -20 21 -4 0 -13 11 -21 24 -7 13 -31 31 -54 40 -49 19 -56 19
-56 6z"/>
<path d="M6990 1295 c0 -8 11 -21 25 -27 14 -6 41 -34 61 -60 26 -37 40 -48
56 -46 34 5 32 24 -8 68 -53 58 -134 98 -134 65z"/>
<path d="M3680 611 c0 -22 29 -36 43 -22 7 7 6 15 -3 26 -17 21 -40 19 -40 -4z"/>
<path d="M4882 588 c6 -18 58 -22 58 -3 0 10 -10 15 -31 15 -19 0 -29 -4 -27
-12z"/>
<path d="M3556 572 c-11 -10 -6 -40 7 -44 20 -8 37 2 37 22 0 17 -33 34 -44
22z"/>
<path d="M5170 545 c0 -9 6 -12 15 -9 8 4 12 10 9 15 -8 14 -24 10 -24 -6z"/>
<path d="M3350 484 c-52 -19 -121 -48 -153 -64 -37 -20 -80 -33 -120 -37 -68
-7 -107 -18 -107 -31 0 -5 18 -18 39 -30 45 -26 39 -27 211 46 52 22 128 52
168 68 85 32 99 45 74 67 -15 14 -25 12 -112 -19z"/>
<path d="M4630 290 c-12 -8 -9 -10 13 -10 16 0 26 4 22 10 -8 12 -16 12 -35 0z"/>
<path d="M2477 111 c-26 -15 -44 -30 -40 -34 24 -24 148 12 148 43 0 25 -56
21 -108 -9z"/>
<path d="M2340 40 c0 -13 30 -13 50 0 11 7 7 10 -17 10 -18 0 -33 -4 -33 -10z"/>
<path d="M2288 23 c-31 -8 -19 -23 17 -23 36 0 47 13 19 24 -9 3 -16 5 -17 5
-1 -1 -10 -3 -19 -6z"/>
</g>
</svg>
