<svg width="1153" height="1080" viewBox="0 0 1153 1080" xmlns="http://www.w3.org/2000/svg" xmlns:xlink="http://www.w3.org/1999/xlink"><g><g transform="translate(422.87695831630606, 108.80988836181896)  rotate(0)  "><g><path d="M0 39.016280119259754 C0.7348962379594189 70.80652007352552, 0.5809831274648053 101.51167264183135, 0 188.58286026956833 M0 39.016280119259754 C-2.634300396413015 70.05757349250896, -3.3222891097966896 100.38317448578061, 0 188.58286026956833 M0 188.58286026956833 C111.55497473496139 187.88019660633418, 225.65938057067868 188.34543575381568, 308.1398504551869 188.58286026956833 M0 188.58286026956833 C104.79506444544626 191.66268286072264, 210.25454495693532 191.83478537766132, 308.1398504551869 188.58286026956833 M308.1398504551869 188.58286026956833 C309.9954053227061 155.34910591045497, 308.5055947665328 122.29688641069342, 308.1398504551869 39.01628011925974 M308.1398504551869 188.58286026956833 C307.1384665938467 137.03136122001166, 308.2233307781071 89.29989028784723, 308.1398504551869 39.01628011925974 M308.1398504551869 39.01628011925974 C240.62415934628848 41.91688867580661, 175.33232327769457 40.87242610278978, 0 39.01628011925974 M308.1398504551869 39.01628011925974 C210.59727991816544 38.7529095835787, 113.10814208039703 39.65162784076441, 0 39.01628011925974 M0 39.01628011925974 C-1.4492246460568516e-15 39.01628011925975, 1.7635526246263992e-15 39.01628011925975, 0 39.016280119259754 M0 39.01628011925974 C-3.234165965655654e-16 39.01628011925975, -6.679397622075807e-16 39.01628011925975, 0 39.016280119259754 M21.53959182651847 48.85013082804208 C24.686735706488044 47.67690004693334, 29.47375481487327 52.61881788369153, 27.888813445147598 53.53590845207267 M21.53959182651847 48.85013082804208 C22.003959667720274 47.49473268791092, 30.27316744346247 51.76581251286786, 27.888813445147598 53.53590845207267 M27.888813445147598 53.53590845207267 C26.78881383172313 58.95202841993392, 27.150433361193127 60.32932955813327, 21.53959182651847 58.2260108490002 M27.888813445147598 53.53590845207267 C24.64896530250164 54.223674369388895, 22.6720595024414 56.644793753416394, 21.53959182651847 58.2260108490002 M21.53959182651847 58.2260108490002 C16.601510087405245 58.91203144979396, 15.974531747002196 53.481161292753825, 15.190370207889343 53.53590845207267 M21.53959182651847 58.2260108490002 C20.191007982524958 60.464926773400165, 12.684697542266962 54.59426451825508, 15.190370207889343 53.53590845207267 M15.190370207889343 53.53590845207267 C16.568941044613773 48.97302250858281, 15.202666543379866 48.08398096548384, 21.53959182651847 48.8501308280421 M15.190370207889343 53.53590845207267 C17.25164568511961 48.20872436576408, 19.06701454026855 50.026138779064546, 21.53959182651847 48.8501308280421 M21.53959182651847 48.8501308280421 C21.53959182651847 48.8501308280421, 21.53959182651847 48.85013082804209, 21.53959182651847 48.85013082804208 M21.53959182651847 48.8501308280421 C21.53959182651847 48.85013082804209, 21.53959182651847 48.85013082804209, 21.53959182651847 48.85013082804208 M286.6014911880702 48.85013082804208 C287.6199101651715 47.99711369262998, 295.5685455989352 51.32067387100194, 292.95071280669936 53.53590845207267 M286.6014911880702 48.85013082804208 C288.5497770091681 48.799540251037, 289.6009464643689 53.54284922295135, 292.95071280669936 53.53590845207267 M292.95071280669936 53.53590845207267 C290.58030661926404 55.156294342241885, 290.33266845067493 59.055252470492505, 286.6014911880702 58.2260108490002 M292.95071280669936 53.53590845207267 C295.4895025307292 55.45213667952426, 288.23813140817447 57.25767393121228, 286.6014911880702 58.2260108490002 M286.6014911880702 58.2260108490002 C285.17563761005357 55.677595742463254, 277.5904025481539 54.23652222391189, 280.25226956944107 53.53590845207267 M286.6014911880702 58.2260108490002 C285.28454146471984 55.675564338357304, 281.8324949500142 55.37885242157587, 280.25226956944107 53.53590845207267 M280.25226956944107 53.53590845207267 C280.5375197086195 49.28963126536343, 281.2858644624515 51.18665100919073, 286.6014911880702 48.8501308280421 M280.25226956944107 53.53590845207267 C278.8470767884693 50.21943269335549, 280.73059506721745 50.37767366572274, 286.6014911880702 48.8501308280421 M286.6014911880702 48.8501308280421 C286.6014911880702 48.85013082804209, 286.6014911880702 48.85013082804209, 286.6014911880702 48.85013082804208 M286.6014911880702 48.8501308280421 C286.6014911880702 48.8501308280421, 286.6014911880702 48.85013082804209, 286.6014911880702 48.85013082804208 M21.53959182651848 169.39520864356496 C26.47152200307508 171.76711187195417, 30.145810397780345 171.9016132512424, 27.88881344514761 174.08531104049248 M21.53959182651848 169.39520864356496 C25.215646443504813 170.69797585555736, 29.6811629075751 171.20261355394643, 27.88881344514761 174.08531104049248 M27.88881344514761 174.08531104049248 C28.175718805800024 178.8497205617768, 23.621140824715052 178.26858809030742, 21.539591826518482 178.77108866452306 M27.88881344514761 174.08531104049248 C29.24851942826139 175.90856739426266, 25.616591750122982 179.0802084565548, 21.539591826518482 178.77108866452306 M21.539591826518482 178.77108866452306 C18.653309933796976 178.0133058968851, 17.65041728596396 178.639765376125, 15.190370207889355 174.08531104049248 M21.539591826518482 178.77108866452306 C15.539594324959893 179.14715172205248, 18.122243940217487 177.58419284815204, 15.190370207889355 174.08531104049248 M15.190370207889355 174.08531104049248 C17.701375193495355 173.30951164749598, 16.84321958795648 167.6392825884783, 21.539591826518482 169.39520864356496 M15.190370207889355 174.08531104049248 C17.269642346279745 172.3332437028937, 16.013265690538027 167.23470030227128, 21.539591826518482 169.39520864356496 M21.539591826518482 169.39520864356496 C21.539591826518482 169.39520864356496, 21.53959182651848 169.39520864356496, 21.53959182651848 169.39520864356496 M21.539591826518482 169.39520864356496 C21.539591826518482 169.39520864356496, 21.53959182651848 169.39520864356496, 21.53959182651848 169.39520864356496 M286.6014911880702 169.39520864356496 C291.08486652096263 167.57625335883733, 294.2764230965151 169.76311241177058, 292.95071280669936 174.08531104049248 M286.6014911880702 169.39520864356496 C293.06742033936547 166.53162148096982, 294.95104655418345 171.31203752065224, 292.95071280669936 174.08531104049248 M292.95071280669936 174.08531104049248 C290.28483282442005 174.94843190339628, 291.5782115007447 179.08310925400943, 286.6014911880702 178.77108866452306 M292.95071280669936 174.08531104049248 C294.0241758085581 179.37361923152815, 289.2957277542142 175.41018048081673, 286.6014911880702 178.77108866452306 M286.6014911880702 178.77108866452306 C285.0887598593994 180.67258318699092, 278.68638734553855 177.00642963675085, 280.25226956944107 174.08531104049248 M286.6014911880702 178.77108866452306 C284.3395970568801 179.23494277898348, 277.44625241897916 176.75338968778263, 280.25226956944107 174.08531104049248 M280.25226956944107 174.08531104049248 C281.9812274323302 169.11285097983813, 282.898030437326 168.46971103977796, 286.6014911880702 169.39520864356496 M280.25226956944107 174.08531104049248 C281.885080297011 169.89448198730273, 280.5083917611576 167.02117371508305, 286.6014911880702 169.39520864356496 M286.6014911880702 169.39520864356496 C286.6014911880702 169.39520864356496, 286.6014911880702 169.39520864356496, 286.6014911880702 169.39520864356496 M286.6014911880702 169.39520864356496 C286.6014911880702 169.39520864356496, 286.6014911880702 169.39520864356496, 286.6014911880702 169.39520864356496" stroke="#000000" stroke-width="2" fill="none" vector-effect="non-scaling-stroke" data-shape-part="outline" stroke-opacity="1" fill-opacity="0.24"></path></g></g><g transform="translate(438.2839508390654, 131.57185097733716) rotate(0)"><text transform="translate(0, 79)" style="font-size: 24px; font-family: &quot;Comic Sans MS&quot;; fill: rgb(17, 17, 17); opacity: 1; stroke-width: 0; font-style: normal; font-weight: normal; text-decoration: none;"></text></g></g><g><g transform="translate(12.285623983918981, 103.19016094580681)  rotate(0)  "><g><path d="M-0.6898242831230164 1.4920293688774109 L1126.178417113663 -1.9168508648872375 L1126.1206530603183 876.1220102154616 L0.923992931842804 874.4302930676345" stroke="none" stroke-width="0" fill="#616161" vector-effect="non-scaling-stroke" data-shape-part="fill" stroke-opacity="0.03" fill-opacity="0.03"></path><path d="M0 0 C292.32597387976824 -4.208258566030897, 583.198358057884 -3.8508710233062873, 1128.428752032162 0 M0 0 C251.2462832338287 -1.896630082437357, 502.8695846690086 -2.271045289346537, 1128.428752032162 0 M1128.428752032162 0 C1129.3942207313708 201.10361899261414, 1129.0463912941148 402.1069683576572, 1128.428752032162 876.3674800836448 M1128.428752032162 0 C1129.426602263972 180.82900660388253, 1129.1150860743967 361.76384813293976, 1128.428752032162 876.3674800836448 M1128.428752032162 876.3674800836448 C867.981925050785 871.6900655616847, 608.255002325275 872.5104902137844, 0 876.3674800836448 M1128.428752032162 876.3674800836448 C761.1987976425833 882.378102367764, 392.9647175029397 882.7741217311673, 0 876.3674800836448 M0 876.3674800836448 C3.55572777120707 590.3400149089197, 3.6753299745762105 302.4384687662915, 0 0 M0 876.3674800836448 C-1.9509612524338433 573.3852578312521, -2.8418963873215386 271.22083720935666, 0 0" stroke="#000000" stroke-width="2" fill="none" vector-effect="non-scaling-stroke" data-shape-part="outline" stroke-opacity="1" fill-opacity="0.03"></path></g></g><g transform="translate(68.70706158552709, 147.00853494998904) rotate(0)"><text transform="translate(0, 382)" style="font-size: 24px; font-family: &quot;Comic Sans MS&quot;; fill: rgb(17, 17, 17); opacity: 1; stroke-width: 0; font-style: normal; font-weight: normal; text-decoration: none;"></text></g></g><g><g transform="translate(12.285623983918981, -0.07233032341628132)  rotate(0)  "><g><path d="M-0.4855645280331373 -0.28533268757164476 L1128.7345902612967 0.7171585600823164 L1128.789605765657 82.56484679942523 L-0.2381571751087904 82.90927759175692" stroke="none" stroke-width="0" fill="#616161" vector-effect="non-scaling-stroke" data-shape-part="fill" stroke-opacity="0.1" fill-opacity="0.1"></path><path d="M0 0 C313.8025699800437 -1.5982003619841962, 627.9039610501002 -1.854124915855351, 1128.428752032162 0 M0 0 C419.7076075119297 1.7964830040145237, 838.9660423192671 1.8647134160209018, 1128.428752032162 0 M1128.428752032162 0 C1127.3026410760856 25.78768161192058, 1127.5780708613372 54.31012966952261, 1128.428752032162 82.99427726817821 M1128.428752032162 0 C1127.463282837518 22.419884657872846, 1128.1287443479378 44.19089001214878, 1128.428752032162 82.99427726817821 M1128.428752032162 82.99427726817821 C697.073797679024 82.01704029022832, 264.9913719678549 82.248543409697, 0 82.99427726817821 M1128.428752032162 82.99427726817821 C697.553549179086 85.52685859467562, 267.04758984971204 85.79480534579332, 0 82.99427726817821 M0 82.99427726817821 C-0.24228673067068596 56.80330826215163, -1.1688367732999279 28.349529250504926, 0 0 M0 82.99427726817821 C0.05079237713693607 53.67623513862871, 0.9712660182940862 23.54831131986599, 0 0" stroke="#000000" stroke-width="2" fill="none" vector-effect="non-scaling-stroke" data-shape-part="outline" stroke-opacity="1" fill-opacity="0.1"></path></g></g><g transform="translate(68.70706158552709, 4.0773835399926295) rotate(0)"><text transform="translate(0, 25)" style="font-size: 24px; font-family: &quot;Comic Sans MS&quot;; fill: rgb(17, 17, 17); opacity: 1; stroke-width: 0; font-style: normal; font-weight: normal; text-decoration: none;"></text></g></g><g><g transform="translate(43.896590698987275, -0.07233032341628132)  rotate(0)  "><g><path d="M57.40289192643051 4.9550146348851385 C63.71183105858471 7.731680985402685, 70.36108388247075 14.804581806463592, 74.35155223396822 20.932402184011305 C78.34202058546569 27.06022256155902, 81.2845421574265 34.394441808386205, 81.34570203541529 41.72193690017142 C81.40686191340407 49.04943199195664, 78.89603120944084 58.63516714808553, 74.71851150190089 64.8973727347226 C70.54099179436095 71.15957832135966, 63.303281674781275 76.91327856335424, 56.28058379017561 79.29517041999384 C49.25788590556995 81.67706227663344, 39.776099818079004 80.95147852738833, 32.58232419426693 79.18872387456021 C25.38854857045486 77.42596922173209, 18.20811376473502 73.5625990044482, 13.11793004730318 68.71864250302512 C8.027746329871338 63.87468600160204, 3.8744563361458777 56.79347342134381, 2.0412218896758816 50.12498486602171 C0.20798744320588547 43.45649631069961, -0.3026956558911107 35.75430805317923, 2.1185233684832028 28.707711171092534 C4.539742392857516 21.661114289005837, 10.728699830488225 12.346472669947435, 16.568536035921763 7.845403573501542 C22.408372241355302 3.344334477055651, 28.83690072354625 1.4167207355456763, 37.15754060108443 1.7012965924171866 C45.478180478622605 1.9858724492886968, 60.35597350262993 6.621784912067913, 66.49237530115083 9.552858714730604 C72.62877709967172 12.483932517393296, 74.4768004925944 18.485315685577344, 73.97595139220982 19.287739408393335 M22.07505522235194 6.524245407194044 C27.500925957438103 2.362040430618343, 35.41210893197942 0.10525765248033636, 42.676196383875435 0.5376761207360445 C49.94028383577145 0.9700945889917527, 59.48933806870588 5.084452657100461, 65.65957993372805 9.118756216728293 C71.82982179875023 13.153059776356127, 77.22728386183114 18.315174486846345, 79.6976475740085 24.74349747850304 C82.16801128618586 31.171820470159737, 82.49246647235744 40.172118013902434, 80.48176220679218 47.68869416666846 C78.47105794122693 55.20527031943449, 72.81166041356285 64.20887065791837, 67.63342198061699 69.8429543950992 C62.455183547671126 75.47703813228003, 55.99202364116985 80.15691156222763, 49.41233160911702 81.49319658975341 C42.832639577064185 82.82948161727919, 35.17688258817316 80.65285719441258, 28.15526978829998 77.86066456025387 C21.1336569884268 75.06847192609516, 12.307581490680487 70.23681863000199, 7.2826548098779575 64.74004078480111 C2.257728129075427 59.24326293960023, -1.44087879065706 52.14615266861355, -1.994290296515203 44.8799974890486 C-2.547701802373346 37.613842309483644, 0.2343808680760744 28.061342878712686, 3.9621857747291003 21.14310970741137 C7.689990681382126 14.224876536110052, 17.411716906160073 5.627272950978886, 20.372539143402953 3.3705984612406894 C23.333361380645833 1.113923971502493, 21.53570878736528 6.865588809095669, 21.72711919818639 7.603062768982191" stroke="none" stroke-width="0" fill="#616161" vector-effect="non-scaling-stroke" data-shape-part="fill" stroke-opacity="0.26" fill-opacity="0.26"></path><path d="M46.72889319169048 0.4773775304552714 C53.37244989871932 1.0790325363098607, 60.165110249524226 5.005706948791506, 65.80013274076447 9.684707151602172 C71.43515523200472 14.363707354412838, 78.32427320074507 21.398328499560556, 80.53902813913194 28.55137874731927 C82.75378307751882 35.70442899507798, 81.36139966746481 45.64611099432478, 79.08866237108576 52.603008638154456 C76.81592507470671 59.559906281984134, 72.45811144952354 65.6770518628174, 66.90260436085762 70.29276461029733 C61.347097272191704 74.90847735777726, 52.82081818923881 78.93709252729711, 45.755619839090265 80.29728512303404 C38.69042148894172 81.65747771877098, 31.29757745213251 81.54942877071933, 24.511414259966394 78.45392018471895 C17.725251067800276 75.35841159871858, 8.967738827269754 68.1535767245557, 5.038640686093565 61.724233607031785 C1.1095425449173768 55.294890489507864, 0.8108965474222009 46.99905048651733, 0.9368254129092648 39.87786147957541 C1.0627542783963289 32.75667247263348, 2.195241701760486 25.263909386449168, 5.794213879015949 18.997099565380235 C9.393186056271412 12.730289744311303, 13.123179938273276 4.476849680799399, 22.530658476442042 2.2770025531618145 C31.93813701461081 0.07715542552423038, 53.513960325247595 3.1159355979687366, 62.23908510802855 5.7980167995547305 C70.9642098908095 8.480098001140725, 75.33641845763088 17.560123463834117, 74.88140717312776 18.369489762677777 M35.394643748821586 1.57368616938588 C41.86233279141065 0.09756858464786689, 49.50577168881725 0.042184843160811614, 55.54515284678441 2.633464709097751 C61.584534004751575 5.224744575034691, 67.12961537146218 10.922461274247752, 71.63093069662455 17.121365365007517 C76.13224602178691 23.32026945576728, 81.62177312068725 32.53850580314921, 82.55304479775859 39.82688925365633 C83.48431647482992 47.11527270416346, 81.35268716012754 54.690548960234906, 77.21856075905256 60.85166606805028 C73.08443435797759 67.01278317586565, 64.8861582065827 73.69105653734529, 57.74828639130874 76.79359190054855 C50.61041457603477 79.89612726375181, 41.54398666633804 80.4402831771555, 34.391329867408764 79.46687824726983 C27.238673068479482 78.49347331738417, 20.242749693137554 75.03244001087252, 14.832345597733049 70.95316232123461 C9.421941502328544 66.87388463159671, 4.30140240654649 61.55315623435045, 1.9289052949817247 54.991212109442365 C-0.44359181658304037 48.42926798453428, -1.0842256068762015 39.31504620680128, 0.5973629283444595 31.581497571786066 C2.2789514635651207 23.84794893677085, 6.522417773342667 13.94471088345168, 12.01843650630569 8.589920299351089 C17.514455239268713 3.2351297152504976, 30.06944987575335 0.6521111846830063, 33.5734753261226 -0.5472459328174821 C37.077500776491846 -1.7466030503179706, 33.21317209239578 0.646159883899859, 33.04258920852117 1.3937775943481583" stroke="#000000" stroke-width="2" fill="none" vector-effect="non-scaling-stroke" data-shape-part="outline" stroke-opacity="1" fill-opacity="0.26"></path></g></g><g transform="translate(56.02342434970136, 12.054503327297805) rotate(0)"><text transform="translate(0, 16)" style="font-size: 24px; font-family: &quot;Comic Sans MS&quot;; fill: rgb(17, 17, 17); opacity: 1; stroke-width: 0; font-style: normal; font-weight: normal; text-decoration: none;"></text></g></g><g><g id="5LCWZsUnOrLi6rqBiWjaL" pointer-events="auto"><g><path data-shape-part="outline" class="" d="M107.012 6.898 C97.04380161205185 22.002750543599017, 87.0756032241037 37.10750108719803, 81.479 45.588 M107.012 6.898 C99.790260300373 17.841058355013843, 92.56852060074601 28.784116710027682, 81.479 45.588 M81.479 45.588 C73.55457758091065 56.534550801007455, 65.63015516182128 67.4811016020149, 61.244 73.54 M81.479 45.588 C74.33765868587372 55.45282690449506, 67.19631737174745 65.31765380899013, 61.244 73.54" stroke="#000000" stroke-width="2" stroke-opacity="1" fill="none" stroke-linecap="round" stroke-dashoffset="-3"></path></g><path d="M107.012,6.898L81.479,45.588L61.244,73.54" fill="none" fill-opacity="0" stroke="black" stroke-opacity="0" stroke-width="10" id="hit-5LCWZsUnOrLi6rqBiWjaL"></path></g></g><g><g id="trxsVryXZpPCfDJ2WIPpn" pointer-events="auto"><g><path data-shape-part="outline" class="" d="M58.492 9.255 C70.96357460898346 23.499130980290474, 83.43514921796694 37.743261960580945, 90.611 45.939 M58.492 9.255 C71.29223304183893 23.87450088442415, 84.09246608367786 38.4940017688483, 90.611 45.939 M90.611 45.939 C98.30440298256092 54.46858789559677, 105.99780596512183 62.998175791193546, 112.076 69.737 M90.611 45.939 C97.5522122070212 53.63464258572981, 104.49342441404238 61.330285171459614, 112.076 69.737" stroke="#000000" stroke-width="2" stroke-opacity="1" fill="none" stroke-linecap="round" stroke-dashoffset="-3"></path></g><path d="M58.492,9.255L90.611,45.939L112.076,69.737" fill="none" fill-opacity="0" stroke="black" stroke-opacity="0" stroke-width="10" id="hit-trxsVryXZpPCfDJ2WIPpn"></path></g></g><g><g transform="translate(12.285623983918981, 997.078053055238)  rotate(0)  "><g><path d="M-2.82999749109149 1.1911075226962566 L1126.3799801031662 1.7302154414355755 L1127.6583255688263 81.7384655880699 L-1.2856105081737041 83.28943721530531" stroke="none" stroke-width="0" fill="#616161" vector-effect="non-scaling-stroke" data-shape-part="fill" stroke-opacity="0.1" fill-opacity="0.1"></path><path d="M0 0 C432.2268851135767 -1.1075358809529672, 865.0075249338341 -1.866020387560023, 1128.428752032162 0 M0 0 C286.87170766936845 3.8513679169419337, 573.59363667686 3.963970842242532, 1128.428752032162 0 M1128.428752032162 0 C1126.7716458818722 25.592266309828002, 1127.1896753094006 42.94996588268963, 1128.428752032162 82.99427726817821 M1128.428752032162 0 C1129.4999612928218 34.61295816543798, 1130.180704689104 65.95653903408548, 1128.428752032162 82.99427726817821 M1128.428752032162 82.99427726817821 C750.2552368819786 88.92775899012551, 372.0758577746882 89.54206195910439, 0 82.99427726817821 M1128.428752032162 82.99427726817821 C697.721739826624 79.92213151616212, 268.1138828943743 80.47268152398225, 0 82.99427726817821 M0 82.99427726817821 C-0.5370296958162177 51.51789440969265, -1.4485519650651801 17.751962390458374, 0 0 M0 82.99427726817821 C-1.1597266990631223 67.01366967109708, 1.1337295573264956 48.28624167820356, 0 0" stroke="#000000" stroke-width="2" fill="none" vector-effect="non-scaling-stroke" data-shape-part="outline" stroke-opacity="1" fill-opacity="0.1"></path></g></g><g transform="translate(68.70706158552709, 1001.2277669186469) rotate(0)"><text transform="translate(0, 25)" style="font-size: 24px; font-family: &quot;Comic Sans MS&quot;; fill: rgb(17, 17, 17); opacity: 1; stroke-width: 0; font-style: normal; font-weight: normal; text-decoration: none;"></text></g></g><g><g transform="translate(593.2249456141741, 351.8630991043441)  rotate(0)  "><g><path d="M6.139516178404345 164.07557684478718 C8.97532713122423 161.50608041339922, 51.12569154031395 143.97427341487133, 52.185887516436935 137.13606245838193 M6.139516178404345 164.07557684478718 C4.168337222027956 164.29617360012975, 53.013908209193566 142.58109690268398, 52.185887516436935 137.13606245838193 M52.185887516436935 137.13606245838193 C52.44254965722335 126.93543906993202, 36.360973420202086 36.41448293972554, 114.7713636615996 24.849379649528977 M52.185887516436935 137.13606245838193 C54.9224774642918 126.83061407119004, 35.55345914659398 34.99298160296658, 114.7713636615996 24.849379649528977 M114.7713636615996 24.849379649528977 C194.13340972487185 14.662454074797841, 362.2058691718241 -23.17331946068724, 400.00827346032395 25.68156292439638 M114.7713636615996 24.849379649528977 C198.23664059366402 13.01972154121815, 359.46374074649975 -19.45453829169554, 400.00827346032395 25.68156292439638 M400.00827346032395 25.68156292439638 C439.357641636113 72.03024864483372, 422.46043898477166 237.96469679907048, 307.93641349234855 246.7326644484774 M400.00827346032395 25.68156292439638 C440.57104919333784 75.12644344580107, 426.6796764797526 238.3778170228851, 307.93641349234855 246.7326644484774 M307.93641349234855 246.7326644484774 C195.29712211083222 255.50089967617328, 87.23976217365329 266.17954533209667, 71.2100345862545 228.0956297113307 M307.93641349234855 246.7326644484774 C190.59556826444876 255.29518089982244, 89.08870894221094 266.6890103785565, 71.2100345862545 228.0956297113307 M71.2100345862545 228.0956297113307 C56.5476172415831 191.44444078483568, 62.35957499892937 178.77034210157657, 45.37812467915867 174.64236912566165 M71.2100345862545 228.0956297113307 C56.73145218080029 191.94079173805142, 66.41643767558524 174.48860695725384, 45.37812467915867 174.64236912566165 M45.37812467915867 174.64236912566165 C26.29371039213917 172.34073308304662, -9.97536433451913 170.46291336439506, 6.13951617840437 164.07557684478718 M45.37812467915867 174.64236912566165 C30.526272587416013 169.45046129146368, -10.685015833993551 168.57538223461205, 6.13951617840437 164.07557684478718 M6.13951617840437 164.07557684478718 C6.139516178404363 164.07557684478718, 6.139516178404355 164.07557684478718, 6.139516178404345 164.07557684478718 M6.13951617840437 164.07557684478718 C6.139516178404363 164.07557684478718, 6.139516178404356 164.07557684478718, 6.139516178404345 164.07557684478718" stroke="#000000" stroke-width="2" fill="none" vector-effect="non-scaling-stroke" data-shape-part="outline" stroke-opacity="1" fill-opacity="0.1"></path></g></g><g transform="translate(654.5375478546067, 364.37015259143794) rotate(0)"><text transform="translate(0, 101)" style="font-size: 24px; font-family: &quot;Comic Sans MS&quot;; fill: rgb(17, 17, 17); opacity: 1; stroke-width: 0; font-style: normal; font-weight: normal; text-decoration: none;"></text></g></g><g transform="translate(377.5679060247082, 24.513977121636838) rotate(0)"><text transform="translate(0, 0)" style="font-size: 24px; font-family: Roboto; fill: rgb(17, 17, 17); opacity: 1; stroke-width: 0; font-style: normal; font-weight: normal; text-decoration: none;"><tspan dominant-baseline="text-before-edge" x="0" y="0">Hom</tspan></text></g><g transform="translate(507.8753354834897, 24.513977121636838) rotate(0)"><text transform="translate(0, 0)" style="font-size: 24px; font-family: Roboto; fill: rgb(17, 17, 17); opacity: 1; stroke-width: 0; font-style: normal; font-weight: normal; text-decoration: none;"><tspan dominant-baseline="text-before-edge" x="0" y="0">Abou</tspan></text></g><g transform="translate(637.4802990152697, 24.513977121636838) rotate(0)"><text transform="translate(0, 0)" style="font-size: 24px; font-family: Roboto; fill: rgb(17, 17, 17); opacity: 1; stroke-width: 0; font-style: normal; font-weight: normal; text-decoration: none;"><tspan dominant-baseline="text-before-edge" x="0" y="0">Contac</tspan></text></g><g transform="translate(773.0562229265627, 25.567676012139113) rotate(0)"><text transform="translate(0, 0)" style="font-size: 24px; font-family: Roboto; fill: rgb(17, 17, 17); opacity: 1; stroke-width: 0; font-style: normal; font-weight: normal; text-decoration: none;"><tspan dominant-baseline="text-before-edge" x="0" y="0">Portfoli</tspan></text></g><g transform="translate(923.0326983413867, 24.513977121636838) rotate(0)"><text transform="translate(0, 0)" style="font-size: 24px; font-family: Roboto; fill: rgb(17, 17, 17); opacity: 1; stroke-width: 0; font-style: normal; font-weight: normal; text-decoration: none;"><tspan dominant-baseline="text-before-edge" x="0" y="0">Sign U</tspan></text></g><g transform="translate(804.6671896416309, 461.09655075308007) rotate(0)"><text transform="translate(0, 0)" style="font-size: 24px; font-family: Roboto; fill: rgb(17, 17, 17); opacity: 1; stroke-width: 0; font-style: normal; font-weight: bold; text-decoration: none;"><tspan dominant-baseline="text-before-edge" x="0" y="0">BI</tspan></text></g><g><g transform="translate(246.90924360242587, 380.31296914790556)  rotate(0)  "><g><path d="M-0.4263762580230832 -1.6083510322496295 L305.4838934091464 0.3336878316476941 L305.6418925968543 290.7143461143401 L0.4100785804912448 290.5050273274806" stroke="none" stroke-width="0" fill="#616161" vector-effect="non-scaling-stroke" data-shape-part="fill" stroke-opacity="0.1" fill-opacity="0.1"></path><path d="M0 0 C107.52526298059637 0.5641219577525229, 210.64469288119477 -2.7827214646177088, 308.19657113101186 0 M0 0 C110.46431135051334 -4.062222129266559, 218.74821104289978 -3.09789998300325, 308.19657113101186 0 M308.19657113101186 0 C308.5890218915136 90.68214076236349, 308.25928550703367 182.4112041754827, 308.19657113101186 289.6018684346032 M308.19657113101186 0 C309.92132032659697 108.32358329986567, 310.299805485109 217.04982035832828, 308.19657113101186 289.6018684346032 M308.19657113101186 289.6018684346032 C205.38472006161155 287.614042864684, 103.78448977074153 288.7563520506919, 0 289.6018684346032 M308.19657113101186 289.6018684346032 C227.37424751327026 286.72349274890087, 146.72186876627205 286.4995282017875, 0 289.6018684346032 M0 289.6018684346032 C1.2397743586653296 186.3051638294872, 2.9388480369333356 87.12891604594076, 0 0 M0 289.6018684346032 C-3.2846678138553074 194.94447280688348, -2.4070925365416773 102.02698044026461, 0 0" stroke="#000000" stroke-width="2" fill="none" vector-effect="non-scaling-stroke" data-shape-part="outline" stroke-opacity="1" fill-opacity="0.1"></path></g></g><g transform="translate(262.3190721589765, 394.7930625696357) rotate(0)"><text transform="translate(0, 118)" style="font-size: 24px; font-family: &quot;Comic Sans MS&quot;; fill: rgb(17, 17, 17); opacity: 1; stroke-width: 0; font-style: normal; font-weight: normal; text-decoration: none;"></text></g></g><g><g id="Y0kChQuJpOIsSO71mgbQq" pointer-events="auto"><g><path data-shape-part="outline" class="" d="M246.909 380.313 C318.54454016751833 447.2057191889942, 390.1800803350367 514.0984383779884, 555.106 668.105 M246.909 380.313 C334.10494472319897 461.7359058809102, 421.3008894463979 543.1588117618203, 555.106 668.105" stroke="#000000" stroke-width="2" stroke-opacity="1" fill="none" stroke-linecap="round" stroke-dashoffset="-3"></path></g><path d="M246.909,380.313L555.106,668.105" fill="none" fill-opacity="0" stroke="black" stroke-opacity="0" stroke-width="10" id="hit-Y0kChQuJpOIsSO71mgbQq"></path></g></g><g><g id="djoxgTSjF9_LjYbj8qQhB" pointer-events="auto"><g><path data-shape-part="outline" class="" d="M555.106 382.123 C464.9731110562401 466.2884019179374, 374.84022211248015 550.4538038358749, 246.909 669.915 M555.106 382.123 C474.33947184211144 457.54216589588816, 393.5729436842229 532.9613317917764, 246.909 669.915" stroke="#000000" stroke-width="2" stroke-opacity="1" fill="none" stroke-linecap="round" stroke-dashoffset="-3"></path></g><path d="M555.106,382.123L246.909,669.915" fill="none" fill-opacity="0" stroke="black" stroke-opacity="0" stroke-width="10" id="hit-djoxgTSjF9_LjYbj8qQhB"></path></g></g><g><g transform="translate(439.03367463734094, 827.7837646478723)  rotate(0)  "><g><path d="M239.48813613782775 78.82475681803045 C165.17369747326578 77.31618920241701, 94.7876015960664 85.81701753412591, 42.26261225961666 78.82475681803045 C19.72479099071631 74.26029690499273, -0.24446224365383384 73.4583431229293, 0 59.870422860504696 C1.5856651664082182 43.5784031070704, 4.828032690316833 33.45844849636448, 0 18.95433395752576 C-1.5549463978037237 12.511881897334456, 20.974733071765396 -2.210265592671931, 42.26261225961666 0 C101.09048349344474 1.9191192184475216, 162.58114418922077 -0.7025639320823391, 239.48813613782775 0 C262.90680066276946 1.3492722878232597, 285.6733539140197 11.420340886075497, 281.7507483974444 18.95433395752576 C284.8622165978348 32.52389895555198, 278.36047229770776 48.41587123292807, 281.7507483974444 59.870422860504696 C286.0131144846203 70.16870060528812, 260.13763627228 76.6397357891765, 239.48813613782775 78.82475681803045 C239.48813613782775 78.82475681803045, 239.48813613782775 78.82475681803045, 239.48813613782775 78.82475681803045" stroke="none" stroke-width="0" fill="#616161" vector-effect="non-scaling-stroke" data-shape-part="fill" stroke-opacity="0.1" fill-opacity="0.1"></path><path d="M239.48813613782775 78.82475681803045 C189.30776428062535 79.21736138197657, 142.90783984036182 77.35405125352618, 42.26261225961666 78.82475681803045 M239.48813613782775 78.82475681803045 C168.69690822221344 75.67681041019755, 96.61331877472685 76.11109594660597, 42.26261225961666 78.82475681803045 M42.26261225961666 78.82475681803045 C17.347160471221898 81.25749039011863, -1.5177417313680053 67.3841916721612, 0 59.870422860504696 M42.26261225961666 78.82475681803045 C16.22868080189498 80.62537231054013, -1.7895610653329639 67.49312184963559, 0 59.870422860504696 M0 59.870422860504696 C2.1393495149588606 45.70932056351936, -0.31399313140153673 26.166961856613277, 0 18.95433395752576 M0 59.870422860504696 C-0.05374260922777285 50.87438931318937, 0.6801439754117764 40.1083527865545, 0 18.95433395752576 M0 18.95433395752576 C2.668295511044562 7.822063912932277, 18.770807994148228 -0.677687251009047, 42.26261225961666 0 M0 18.95433395752576 C-0.7374874763656408 6.371478635041491, 20.868858927991706 0.03894030754454447, 42.26261225961666 0 M42.26261225961666 0 C120.1608963778125 1.3478457770970373, 190.82449483008054 0.8612198374894172, 239.48813613782775 0 M42.26261225961666 0 C82.34227777977816 -1.3895248613208275, 125.20089333132076 -1.5689201644509774, 239.48813613782775 0 M239.48813613782775 0 C259.9944218453453 0.7113764053210616, 282.60120965040943 9.144592155997158, 281.7507483974444 18.95433395752576 M239.48813613782775 0 C262.1730443621022 -2.401117223454639, 283.62125501855 6.354557669131533, 281.7507483974444 18.95433395752576 M281.7507483974444 18.95433395752576 C284.98323109441253 32.93638897039877, 279.58115225725624 40.58455007974064, 281.7507483974444 59.870422860504696 M281.7507483974444 18.95433395752576 C282.4253383360215 31.61163805766352, 281.2798790268012 43.84422927309577, 281.7507483974444 59.870422860504696 M281.7507483974444 59.870422860504696 C282.344433019531 72.04569927866754, 263.9405989703224 77.452132993516, 239.48813613782775 78.82475681803045 M281.7507483974444 59.870422860504696 C281.8374202899514 72.6342297426257, 260.1946246946198 79.02787055279916, 239.48813613782775 78.82475681803045 M239.48813613782775 78.82475681803045 C239.48813613782775 78.82475681803045, 239.48813613782775 78.82475681803045, 239.48813613782775 78.82475681803045 M239.48813613782775 78.82475681803045 C239.48813613782775 78.82475681803045, 239.48813613782775 78.82475681803045, 239.48813613782775 78.82475681803045" stroke="#000000" stroke-width="2" fill="none" vector-effect="non-scaling-stroke" data-shape-part="outline" stroke-opacity="1" fill-opacity="0.1"></path></g></g><g transform="translate(453.12121205721314, 834.1018761215455) rotate(0)"><text transform="translate(0, 21)" style="font-size: 24px; font-family: &quot;Comic Sans MS&quot;; fill: rgb(17, 17, 17); opacity: 1; stroke-width: 0; font-style: normal; font-weight: normal; text-decoration: none;"></text></g></g><g transform="translate(474.8594369144184, 852.0188391294247) rotate(0)"><text transform="translate(0, 0)" style="font-size: 24px; font-family: Roboto; fill: rgb(17, 17, 17); opacity: 1; stroke-width: 0; font-style: normal; font-weight: bold; text-decoration: none;"><tspan dominant-baseline="text-before-edge" x="0" y="0">See my latest wor</tspan></text></g><g transform="translate(438.33120871033947, 202.58908961652156) rotate(0)"><text transform="translate(0, 0)" style="font-size: 33px; font-family: Roboto; fill: rgb(17, 17, 17); opacity: 1; stroke-width: 0; font-style: normal; font-weight: bold; text-decoration: none;"><tspan dominant-baseline="text-before-edge" x="0" y="0">James De Guzma</tspan></text></g><g transform="translate(394.4270882727446, 1016.3958660477798) rotate(0)"><text transform="translate(0, 0)" style="font-size: 24px; font-family: Roboto; fill: rgb(17, 17, 17); opacity: 1; stroke-width: 0; font-style: normal; font-weight: bold; text-decoration: none;"><tspan dominant-baseline="text-before-edge" x="0" y="0">©2024 James Phillip De Guzman</tspan></text></g><g><g transform="translate(51.97494885950473, 1023.0692923542942)  rotate(0)  "><g><path d="M-1.2287267610514228 7.63560181987583 L0.18671159296392748 36.24535542175218 L19.814161527892104 31.03049492188547 L41.27877721640518 37.07667733229272 L62.64931937735308 30.455204263237817 L62.34629001896609 -0.8099391921334548 L40.46108949120692 7.655584965007915 L22.462828067106724 2.997981182230313" stroke="none" stroke-width="0" fill="#616161" fill-rule="evenodd" vector-effect="non-scaling-stroke" data-shape-part="fill" stroke-opacity="0.24" fill-opacity="0.24"></path><path d="M0.32049066237270185 5.9098479258000784 C1.8161470566792977 14.896900726363356, -0.89631030215783 31.15270469182491, 0.32049066237270185 37.89481485270008 M0.32049066237270185 5.9098479258000784 C1.1419779653932818 14.553240310579486, -1.0782651607606641 25.9359105992808, 0.32049066237270185 37.89481485270008 M0.32049066237270185 37.89481485270008 C4.9206588375328275 34.8925702546752, 13.012095048550416 37.06008351490424, 20.87035281396424 32.440064909912685 M0.32049066237270185 37.89481485270008 C9.152248046832241 36.4165077118789, 15.88712339713111 34.54035885809286, 20.87035281396424 32.440064909912685 M20.87035281396424 32.440064909912685 C24.84628463103377 34.22286092022686, 31.896671166769647 32.007893299997356, 42.63166927810064 38.52938743367366 M20.87035281396424 32.440064909912685 C26.06105957775198 35.48357595381075, 30.695848400133315 35.12720502780895, 42.63166927810064 38.52938743367366 M42.63166927810064 38.52938743367366 C47.7705583595664 36.92346375807098, 56.057440386683915 32.418401819534765, 64.41862313691307 32.516981983465655 M42.63166927810064 38.52938743367366 C49.17161994516027 36.92382584937193, 57.48018882503738 34.73818251152869, 64.41862313691307 32.516981983465655 M64.41862313691307 32.516981983465655 C65.59548799729323 22.04932589795618, 67.11457513308501 13.965007569065559, 64.41862313691307 0.7819972266531902 M64.41862313691307 32.516981983465655 C64.1005720146556 21.06940624913569, 64.05966162165595 8.607611891055807, 64.41862313691307 0.7819972266531902 M64.41862313691307 0.7819972266531902 C61.58318797618216 3.118244137222038, 54.22218201032716 1.1603621824385235, 42.82396074134461 5.813700361284031 M64.41862313691307 0.7819972266531902 C60.397031490685 2.993510927440517, 52.68996145380963 3.1518364591610806, 42.82396074134461 5.813700361284031 M42.82396074134461 5.813700361284031 C36.66149381338426 6.867889254080476, 33.01873928202356 4.41330311277458, 20.851121711520076 0.32049065914531455 M42.82396074134461 5.813700361284031 C37.505073264245496 3.970791628412809, 30.900642075221555 2.9791382581646393, 20.851121711520076 0.32049065914531455 M20.851121711520076 0.32049065914531455 C17.926472460759605 0.08371122063402225, 12.014412079361538 1.1895246087391378, 0.32049066237270185 5.9098479258000784 M20.851121711520076 0.32049065914531455 C14.12184045114283 1.0165385814054506, 5.9659781776258765 4.536427519360437, 0.32049066237270185 5.9098479258000784" stroke="#000000" stroke-width="2" fill="none" vector-effect="non-scaling-stroke" data-shape-part="outline" stroke-opacity="1" fill-opacity="0.24"></path></g><g><path d="M20.851121711520076 0.32049065914531455 C22.345346469495286 9.355035768740418, 19.63288911065816 25.6583320432338, 20.851121711520076 32.440064909912685 M20.851121711520076 0.32049065914531455 C21.6725630780924 9.004867567030374, 19.452319951938453 20.428522378837336, 20.851121711520076 32.440064909912685" stroke="#000000" stroke-width="2" fill="none" vector-effect="non-scaling-stroke" data-shape-part="outline" stroke-opacity="1" fill-opacity="0.24"></path></g><g><path d="" stroke="none" stroke-width="0" fill="#616161" vector-effect="non-scaling-stroke" data-shape-part="fill" stroke-opacity="0.24" fill-opacity="0.24"></path><path d="" stroke="#000000" stroke-width="2" fill="none" vector-effect="non-scaling-stroke" data-shape-part="outline" stroke-opacity="1" fill-opacity="0.24"></path></g><g><path d="M42.63166927810064 38.52938743367366 C44.88330365044456 24.68934385207447, 42.23869078427087 18.117389520199474, 42.82396074134461 5.813700361284031 M42.63166927810064 38.52938743367366 C43.533784379454666 27.47366209691134, 41.37208913681787 19.156620864734123, 42.82396074134461 5.813700361284031" stroke="#000000" stroke-width="2" fill="none" vector-effect="non-scaling-stroke" data-shape-part="outline" stroke-opacity="1" fill-opacity="0.24"></path></g></g></g><g transform="translate(773.0562229265627, 833.7547250273852) rotate(0)"><text transform="translate(0, 0)" style="font-size: 8px; font-family: &quot;Comic Sans MS&quot;; fill: rgb(17, 17, 17); opacity: 1; stroke-width: 0; font-style: normal; font-weight: normal; text-decoration: none;"><tspan dominant-baseline="text-before-edge" x="0" y="0"></tspan></text></g><g><g transform="translate(995.386688822543, 1016.3958660477798)  rotate(0)  "><g><path d="M33.99792930041617 0 C24.574976949261817 -0.47693032932263385, 20.885827322737107 1.7870089321138285, 1.6580007472148421 0 M33.99792930041617 0 C23.29795229754819 0.0239940863372326, 13.650046037153217 0.8131183963538646, 1.6580007472148421 0 M1.6580007472148421 0 C-0.4192799848091059 2.955207299441099, 0.811551321297884 1.3114843516565307, 0 2.041670341611659 M1.6580007472148421 0 C3.7188765169534634 1.207703880406916, -1.0259888777509332 3.608536066203509, 0 2.041670341611659 M0 2.041670341611659 C1.98037253290797 15.769969541759092, 0.2812964764275622 24.542180925399904, 0 41.86521872530574 M0 2.041670341611659 C-0.905933842130795 12.328238983152225, -1.850643441148892 19.534260077724927, 0 41.86521872530574 M0 41.86521872530574 C0.28763293102383614 43.318448537012934, -1.7922691625129632 41.30149942345688, 1.6580007472148421 43.906889066917394 M0 41.86521872530574 C1.4219985952600835 43.08342688491791, 0.37756255878543354 44.04851821835855, 1.6580007472148421 43.906889066917394 M1.6580007472148421 43.906889066917394 C4.689243502211126 45.46804506525491, 10.54047392487666 41.52787048816792, 18.145302801239424 43.906889066917394 M1.6580007472148421 43.906889066917394 C6.629741538799939 42.75656142746407, 10.462582435557486 42.75691741770519, 18.145302801239424 43.906889066917394 M18.145302801239424 43.906889066917394 C18.866910359390626 41.0229278012746, 15.948482032365993 36.86002065381817, 18.252270591382313 26.875406797860137 M18.145302801239424 43.906889066917394 C17.078468303450173 37.33537915625051, 17.616739931176443 31.570186815763304, 18.252270591382313 26.875406797860137 M18.252270591382313 26.875406797860137 C17.43477988105687 26.237544799891356, 15.746675978168781 26.729504331721763, 13.570646976128364 26.875406797860137 M18.252270591382313 26.875406797860137 C16.533677405976583 26.976857094640014, 14.586261923787227 26.525730592467994, 13.570646976128364 26.875406797860137 M13.570646976128364 26.875406797860137 C14.321440369341893 24.893073806270007, 13.277308259099762 21.561094139183986, 13.613434092185521 20.104964503741474 M13.570646976128364 26.875406797860137 C13.918125576594653 24.220863497545746, 13.45656378941994 22.445547927336246, 13.613434092185521 20.104964503741474 M13.613434092185521 20.104964503741474 C14.737102588138255 20.048284090833228, 15.172764534718956 20.535134289477206, 18.31645126546805 20.104964503741474 M13.613434092185521 20.104964503741474 C15.190174305673574 20.312572332739887, 16.4006656834088 19.951546014492383, 18.31645126546805 20.104964503741474 M18.31645126546805 20.104964503741474 C18.377647091935785 19.86732193777221, 18.352993100902097 19.639098347478843, 18.320016858472812 19.595644590565232 M18.31645126546805 20.104964503741474 C18.335168771327083 19.94082427602527, 18.308812234915422 19.71802951192657, 18.320016858472812 19.595644590565232 M18.320016858472812 19.595644590565232 C18.06677420251118 19.724414550768916, 16.426851096554447 15.974882462080814, 18.355672788520444 15.49913184062184 M18.320016858472812 19.595644590565232 C16.83513529244857 19.48258691846836, 17.36521231642996 19.109327073041595, 18.355672788520444 15.49913184062184 M18.355672788520444 15.49913184062184 C20.789512314252544 15.936994453412163, 17.349460594115545 11.170483920827342, 18.5339524387586 12.904234696767023 M18.355672788520444 15.49913184062184 C15.201999366447318 13.399490947355199, 18.617719718387118 14.206671633861793, 18.5339524387586 12.904234696767023 M18.5339524387586 12.904234696767023 C18.207175949101494 10.792043264782887, 19.109211218717792 8.069784796760363, 21.04056432110706 7.84616107625814 M18.5339524387586 12.904234696767023 C19.70741384148334 12.675346428914827, 18.73624703156511 11.915506749563797, 21.04056432110706 7.84616107625814 M21.04056432110706 7.84616107625814 C21.481945675416014 4.980997973627544, 25.298197147623668 5.596038381632887, 25.16952102062273 6.265513069849114 M21.04056432110706 7.84616107625814 C20.38582491091462 6.0355747268937, 26.772654058226415 5.305570086900614, 25.16952102062273 6.265513069849114 M25.16952102062273 6.265513069849114 C26.942691905761663 6.059101806581337, 23.737451442050514 9.077600823343117, 25.62591692523241 6.261122380942423 M25.16952102062273 6.265513069849114 C25.588368612306716 3.3194034429270216, 27.75773948458838 9.001702168770452, 25.62591692523241 6.261122380942423 M25.62591692523241 6.261122380942423 C23.68325359006172 5.683825717866737, 24.578866381008613 5.3566212778760045, 28.082610505514186 6.362108225796333 M25.62591692523241 6.261122380942423 C28.18114952058291 4.018287906237264, 24.40316121466129 3.0925365261582582, 28.082610505514186 6.362108225796333 M28.082610505514186 6.362108225796333 C26.332903980298138 7.208523650414948, 26.806453696612277 4.922834311951629, 29.644340241600425 6.550907848784077 M28.082610505514186 6.362108225796333 C29.01570651272515 6.869566434755628, 27.602696605559448 8.264292100784115, 29.644340241600425 6.550907848784077 M29.644340241600425 6.550907848784077 C30.348807926193306 7.670174102005491, 29.817349145184224 10.015185961147269, 29.60511871854803 12.610058540018677 M29.644340241600425 6.550907848784077 C29.84744449390864 8.099703420434269, 29.446375271768645 10.10422968900293, 29.60511871854803 12.610058540018677 M29.60511871854803 12.610058540018677 C27.87519467632988 12.380433743359923, 27.115574135454864 14.523722951772093, 29.21290348802409 12.610058540018677 M29.60511871854803 12.610058540018677 C27.720840930861918 9.670786259422481, 32.42187699117747 14.168871537695109, 29.21290348802409 12.610058540018677 M29.21290348802409 12.610058540018677 C29.51120402174441 15.200851624371886, 30.305503621310397 12.26851070008786, 27.59412426386164 12.601277162205294 M29.21290348802409 12.610058540018677 C27.55912214307485 12.956486366043269, 24.950118840657577 9.189763807762281, 27.59412426386164 12.601277162205294 M27.59412426386164 12.601277162205294 C25.656227253742326 15.455054045539216, 27.448670063501886 15.431927058092453, 26.378257049237426 12.623230606738753 M27.59412426386164 12.601277162205294 C25.299553838550853 14.572629338014737, 28.025613149403327 12.151626606463589, 26.378257049237426 12.623230606738753 M26.378257049237426 12.623230606738753 C22.79071051143319 10.21180797390244, 23.01686527045752 10.394747172882939, 24.046359224122355 15.283988084193949 M26.378257049237426 12.623230606738753 C26.657347781399494 12.859466517377411, 24.542417350842907 15.919219455896103, 24.046359224122355 15.283988084193949 M24.046359224122355 15.283988084193949 C25.985354414050885 15.342216969697127, 23.512932780326196 21.187485743742943, 23.97504736402709 20.08740174811471 M24.046359224122355 15.283988084193949 C21.687970215854655 13.409585839366862, 26.575640608125216 21.45704143034345, 23.97504736402709 20.08740174811471 M23.97504736402709 20.08740174811471 C23.70277713568116 17.15115053620327, 27.551288121726632 21.09349290910807, 26.627848559570836 20.0917924370214 M23.97504736402709 20.08740174811471 C22.98880494100208 16.699341182263083, 24.06196407486898 22.33242704324123, 26.627848559570836 20.0917924370214 M26.627848559570836 20.0917924370214 C27.42728808411042 18.954413695965673, 25.502252540287294 17.13996975008097, 28.35359557387618 20.08740174811471 M26.627848559570836 20.0917924370214 C27.928926989628177 21.766021943610873, 24.94397462170265 20.506561750692097, 28.35359557387618 20.08740174811471 M28.35359557387618 20.08740174811471 C26.54053540163699 21.074273895883447, 26.33293759642634 19.22032494511593, 29.409011103286055 20.08740174811471 M28.35359557387618 20.08740174811471 C30.224750129031275 23.303379945309345, 31.311049434044392 22.156838606150338, 29.409011103286055 20.08740174811471 M29.409011103286055 20.08740174811471 C31.3073956884183 19.82753082322328, 26.912847556439072 26.631828146079048, 28.638843014257226 26.897360242393596 M29.409011103286055 20.08740174811471 C26.025916584368797 25.349699249625193, 30.90495840318951 27.514511636482045, 28.638843014257226 26.897360242393596 M28.638843014257226 26.897360242393596 C26.387155913245582 26.724180009232043, 25.19639107822973 27.0766706114621, 23.978612957031856 26.897360242393596 M28.638843014257226 26.897360242393596 C26.747489507363085 26.65245398826253, 25.015587607736553 26.924336328741045, 23.978612957031856 26.897360242393596 M23.978612957031856 26.897360242393596 C21.753329811878842 31.851949660365374, 25.221192689167584 39.468062582409615, 23.871645166888964 43.906889066917394 M23.978612957031856 26.897360242393596 C24.034272400286177 31.194877961077484, 24.108321736458503 36.01191739230664, 23.871645166888964 43.906889066917394 M23.871645166888964 43.906889066917394 C24.84405847114352 44.68425271878051, 29.16295877347709 44.320723919452476, 33.99792930041617 43.906889066917394 M23.871645166888964 43.906889066917394 C26.250267459972054 44.11692392529818, 28.635391058043325 43.691837593240166, 33.99792930041617 43.906889066917394 M33.99792930041617 43.906889066917394 C32.25268272069781 41.735816654635165, 37.81951677218054 45.48401581587493, 35.65593004763101 41.86521872530573 M33.99792930041617 43.906889066917394 C34.405456933766 45.79985566910127, 34.34678406562631 46.30353773644418, 35.65593004763101 41.86521872530573 M35.65593004763101 41.86521872530573 C37.68377030615455 26.210960269800594, 34.636362798258126 13.351712749810623, 35.65593004763101 2.041670341611659 M35.65593004763101 41.86521872530573 C36.89229256038425 29.11746451028111, 36.438185454652285 16.798179679345598, 35.65593004763101 2.041670341611659 M35.65593004763101 2.041670341611659 C37.76817070856665 2.8865980057931884, 37.80771783498614 -1.0710706003010273, 33.99792930041617 0 M35.65593004763101 2.041670341611659 C36.059640847109 2.8416555837682824, 34.39206427076399 -2.884269168041646, 33.99792930041617 0 M33.99792930041617 0 C33.99792930041617 0, 33.99792930041617 0, 33.99792930041617 0 M33.99792930041617 0 C33.99792930041617 0, 33.99792930041617 0, 33.99792930041617 0" stroke="#000000" stroke-width="2" fill="none" vector-effect="non-scaling-stroke" data-shape-part="outline" stroke-opacity="1" fill-opacity="0.24"></path></g></g></g><g><g transform="translate(1055.4475255811726, 1016.3958660477798)  rotate(0)  "><g><path d="M1.9467789348418885 13.617426049657354 C1.9467789348418885 13.617426049657354, 1.9467789348418885 13.617426049657354, 1.9467789348418885 13.617426049657354 M1.9467789348418885 13.617426049657354 C1.9467789348418885 13.617426049657354, 1.9467789348418885 13.617426049657354, 1.9467789348418885 13.617426049657354 M2.0799243157095013 25.658284503586362 C4.123289011540785 23.46353975468739, 9.019721098818053 16.988696025798774, 11.264750721576602 15.092350380467554 M2.0799243157095013 25.658284503586362 C4.360994595070541 22.65726869893082, 5.297108501574316 21.7378449710127, 11.264750721576602 15.092350380467554 M1.557010667586603 38.45385253773814 C3.534618614126706 32.806351872885635, 9.872047753650712 31.515567030552052, 10.741837073453706 27.88791841461933 M1.557010667586603 38.45385253773814 C4.907242700473274 35.14695469505621, 6.358962578980502 34.02320967519817, 10.741837073453706 27.88791841461933 M8.906805367349794 42.19290560921665 C9.454848156783271 41.98663452290881, 9.928353193535655 41.69396917949918, 10.874982454321314 39.92877686854834 M8.906805367349794 42.19290560921665 C9.779862429490125 41.549364467229644, 10.135586870252494 40.6133458115443, 10.874982454321314 39.92877686854834" stroke="none" stroke-width="1" fill="none" vector-effect="non-scaling-stroke" data-shape-part="fill" stroke-opacity="0.24" fill-opacity="0.24"></path><path d="M10.954592088323508 41.735584061842076 C7.541916053647912 42.538938079401866, 6.845943074649705 41.113663409117414, 1.8407890114970409 41.735584061842076 M10.954592088323508 41.735584061842076 C7.328401133475685 41.89565543155324, 4.115039608118771 41.976266021309364, 1.8407890114970409 41.735584061842076 M1.8407890114970409 41.735584061842076 C2.1068498670356974 33.1995678122114, -0.8719284058315053 25.689555516581486, 1.8407890114970409 13.739353508957043 M1.8407890114970409 41.735584061842076 C2.8142595166542423 31.026873387259187, 1.1551494026758564 21.496158716210942, 1.8407890114970409 13.739353508957043 M1.8407890114970409 13.739353508957043 C3.872349486277316 12.826883929018456, 6.590478079352362 12.805119252919027, 10.954592088323508 13.739353508957043 M1.8407890114970409 13.739353508957043 C4.153409725913936 13.155893485454731, 6.8042660197387095 13.916358847987077, 10.954592088323508 13.739353508957043 M10.954592088323508 13.739353508957043 C13.35872854324396 20.82778155889981, 10.396939024649217 26.267985192653683, 10.954592088323508 41.735584061842076 M10.954592088323508 13.739353508957043 C9.575213995922494 19.222609189522693, 11.51803736125319 27.741259234590622, 10.954592088323508 41.735584061842076 M10.954592088323508 41.735584061842076 C10.954592088323508 41.735584061842076, 10.954592088323508 41.735584061842076, 10.954592088323508 41.735584061842076 M10.954592088323508 41.735584061842076 C10.954592088323508 41.735584061842076, 10.954592088323508 41.735584061842076, 10.954592088323508 41.735584061842076" stroke="#000000" stroke-width="2" fill="none" vector-effect="non-scaling-stroke" data-shape-part="outline" stroke-opacity="1" fill-opacity="0.24"></path></g><g><path d="M3.413576846577124 0.3173510945484075 C3.413576846577124 0.3173510945484075, 3.413576846577124 0.3173510945484075, 3.413576846577124 0.3173510945484075 M3.413576846577124 0.3173510945484075 C3.413576846577124 0.3173510945484075, 3.413576846577124 0.3173510945484075, 3.413576846577124 0.3173510945484075 M4.8588402854257495 10.84879038803187 C5.302502152250826 7.567703404264182, 9.20652009827056 7.575721808251471, 12.07548960432133 2.5469850055813783 M4.8588402854257495 10.84879038803187 C8.235261012152028 7.489544618583824, 10.969148890744542 4.094108415420521, 12.07548960432133 2.5469850055813783" stroke="none" stroke-width="1" fill="none" vector-effect="non-scaling-stroke" data-shape-part="fill" stroke-opacity="0.24" fill-opacity="0.24"></path><path d="M10.054047332335017 1.9296011725008597 C10.855092155840536 2.3078368395345454, 11.147314988458556 1.6677077083278151, 11.489032180846213 2.287879300802942 C11.83074937323387 2.9080508932780686, 12.374037717779764 4.49416193693304, 12.104350486660962 5.65063072735162 C11.83466325554216 6.807099517770201, 11.085431827590607 8.405612222946253, 9.870908794133408 9.226692043314426 C8.656385760676208 10.047771863682598, 6.079277401735353 10.760758921380631, 4.81721228591776 10.577109649560652 C3.5551471701001676 10.393460377740674, 3.1885273471937485 8.931037436530383, 2.2985180992278513 8.124796412394552 C1.4085088512619541 7.318555388258721, -0.7057729307421775 7.03755291268964, -0.5228432018776221 5.739663504745666 C-0.33991347301306674 4.441774096801692, 2.3115901600129662 1.1843882043416567, 3.3960964724151834 0.3374599647307064 C4.480602784817401 -0.5094682748802439, 4.948431276878183 0.7470072249730528, 5.984194672535682 0.658094067079964 C7.019958068193181 0.5691809091868751, 8.761291320708699 -0.11054477457233336, 9.610676846360178 -0.1960189826278267 C10.460062372011658 -0.28149319068332, 10.88640939165872 -0.25272552116282937, 11.080507826444556 0.14524881874700402 M5.017163912142856 -0.08265724256316531 C6.0046396326453 -0.5249480893310481, 6.850422829378526 -0.3765208397691193, 7.790613632451487 -0.06826494030056374 C8.730804435524448 0.23999095916799185, 10.309800611735552 0.5024160147404035, 10.658308730580623 1.7668781542481682 C11.006816849425695 3.0313402937559326, 10.574150341029625 6.489646448972133, 9.881662345521917 7.518507896746025 C9.18917435001421 8.547369344519916, 7.501507831068197 7.301610884394504, 6.503380757534374 7.940046840891521 C5.505253684000551 8.578482797388538, 4.552405470555142 11.498660258088478, 3.8928999043189787 11.349123635728127 C3.233394338082815 11.199587013367776, 2.955883119573223 8.51738035734222, 2.5463473601173927 7.04282710672941 C2.1368116006615625 5.5682738561165985, 1.5608006111201955 3.7790935600454674, 1.4356853475839984 2.501804132051258 C1.3105700840478012 1.2245147040570485, 1.26005772584248 0.04817992165663476, 1.7956557789002092 -0.6209094612358457 C2.3312538319579383 -1.289998844128326, 3.687739480907657 -1.8868012013552014, 4.649273665930372 -1.5127321653036248 C5.610807850953088 -1.1386631292520482, 7.2567431176945165 1.2827390024131933, 7.564860889036502 1.623504755073614" stroke="#000000" stroke-width="2" fill="none" vector-effect="non-scaling-stroke" data-shape-part="outline" stroke-opacity="1" fill-opacity="0.24"></path></g><g><path d="M46.49889837511556 41.735584061842076 C43.00272636943896 42.55859327757249, 42.28972542204251 41.09844723616188, 37.162113148890946 41.735584061842076 M46.49889837511556 41.735584061842076 C42.78398750318987 41.89957180518721, 39.49200651966853 41.98215464762606, 37.162113148890946 41.735584061842076 M37.162113148890946 41.735584061842076 C37.33265608484759 36.76077673489408, 34.859910380281804 32.63767659717601, 37.162113148890946 25.133168722041297 M37.162113148890946 41.735584061842076 C37.87613317090907 35.36555477666481, 36.498871410572406 29.973404437452924, 37.162113148890946 25.133168722041297 M37.162113148890946 25.133168722041297 C34.92256572021595 27.905850684064774, 39.12538932509231 22.413328734695206, 35.601237976417416 20.888659822951958 M37.162113148890946 25.133168722041297 C35.069318727808586 26.720280188070014, 35.15197716195578 22.334801971403177, 35.601237976417416 20.888659822951958 M35.601237976417416 20.888659822951958 C31.81308962055015 18.56182739853311, 31.887206130062374 16.83832690044267, 32.13789792807191 19.707542794001828 M35.601237976417416 20.888659822951958 C32.54829462756867 20.642721189580968, 30.611393801129566 17.60139698492324, 32.13789792807191 19.707542794001828 M32.13789792807191 19.707542794001828 C27.4723075330884 22.368045090874265, 27.745624893050337 21.718406929305573, 25.85644282668909 23.42200977550577 M32.13789792807191 19.707542794001828 C29.13398410130039 17.35766925172841, 24.99349348352633 19.28313779588491, 25.85644282668909 23.42200977550577 M25.85644282668909 23.42200977550577 C27.53592348159258 27.566147343250385, 25.733156206760157 30.852522413684284, 25.85644282668909 41.735584061842076 M25.85644282668909 23.42200977550577 C24.738365005588875 26.828633004577142, 24.878440554797425 32.38568225048787, 25.85644282668909 41.735584061842076 M25.85644282668909 41.735584061842076 C24.90858800175741 41.817959487759644, 20.66675021419656 42.662634447834904, 16.73789546652461 41.735584061842076 M25.85644282668909 41.735584061842076 C23.539269275775354 41.04309169685914, 22.663493531141714 41.75505092393983, 16.73789546652461 41.735584061842076 M16.73789546652461 41.735584061842076 C18.644165556585108 30.160361041820764, 18.20501149789027 18.680459882895175, 16.73789546652461 13.739354273158412 M16.73789546652461 41.735584061842076 C17.28150188405657 30.267289485983923, 15.655581066800597 20.763738562972435, 16.73789546652461 13.739354273158412 M16.73789546652461 13.739354273158412 C19.56128709990176 14.707214668578144, 25.27573195035168 14.814379143077804, 25.856442826689094 13.739354273158412 M16.73789546652461 13.739354273158412 C20.704698942178982 14.313252320198435, 23.533211070593318 13.511116715076298, 25.856442826689094 13.739354273158412 M25.856442826689094 13.739354273158412 C25.94034044546984 14.860045639016061, 25.535580199199146 15.266178671993726, 25.856442826689094 16.10576188946486 M25.856442826689094 13.739354273158412 C25.955839374477144 14.498344588366999, 25.93599768396637 15.008719134939074, 25.856442826689094 16.10576188946486 M25.856442826689094 16.10576188946486 C30.2929694502491 16.89605605149086, 34.01687110910869 11.630887322979799, 35.568027866364794 12.850386332641175 M25.856442826689094 16.10576188946486 C28.33840876104007 11.997027242448212, 30.697229811472138 14.825809108898794, 35.568027866364794 12.850386332641175 M35.568027866364794 12.850386332641175 C42.158483063955856 11.518894278365007, 46.0459464101933 18.349234741150696, 46.49889837511555 21.93204942449801 M35.568027866364794 12.850386332641175 C41.05952353646519 10.843542776689684, 43.253609040693576 16.132071619776372, 46.49889837511555 21.93204942449801 M46.49889837511555 21.93204942449801 C48.91761869452401 27.772069449322785, 47.42073730354275 32.74052886057445, 46.49889837511556 41.735584061842076 M46.49889837511555 21.93204942449801 C47.38047038825082 26.301426444388497, 47.72291918041294 33.833865808477576, 46.49889837511556 41.735584061842076 M46.49889837511556 41.735584061842076 C46.49889837511556 41.735584061842076, 46.49889837511556 41.735584061842076, 46.49889837511556 41.735584061842076 M46.49889837511556 41.735584061842076 C46.49889837511556 41.735584061842076, 46.49889837511556 41.735584061842076, 46.49889837511556 41.735584061842076 M46.49889837511556 41.735584061842076 C46.49889837511556 41.735584061842076, 46.49889837511556 41.735584061842076, 46.49889837511556 41.735584061842076 M46.49889837511556 41.735584061842076 C46.49889837511556 41.735584061842076, 46.49889837511556 41.735584061842076, 46.49889837511556 41.735584061842076" stroke="#000000" stroke-width="2" fill="none" vector-effect="non-scaling-stroke" data-shape-part="outline" stroke-opacity="1" fill-opacity="0.24"></path></g></g></g><g transform="translate(432.36024833082655, 1046.2506679453443) rotate(0)"><text transform="translate(0, 0)" style="font-size: 17px; font-family: Roboto; fill: rgb(17, 17, 17); opacity: 1; stroke-width: 0; font-style: normal; font-weight: normal; text-decoration: none;"><tspan dominant-baseline="text-before-edge" x="0" y="0">Last Modified: dd/mm/yyyy hh:mm:s</tspan></text></g><defs><style>@import url("https://www.dafontfree.net/embed/Y29taWMtc2Fucy1tcy1yZWd1bGFyJmRhdGEvNDAvYy8xMDA5MzQvQ09NSUMuVFRG");
@import url("https://fonts.googleapis.com/css2?family=Roboto&amp;display=swap");
@import url("https://fonts.googleapis.com/css2?family=Roboto:wght@700&amp;display=swap");text {white-space: pre;};
</style></defs></svg>