<svg width="1153" height="1080" viewBox="0 0 1153 1080" xmlns="http://www.w3.org/2000/svg" xmlns:xlink="http://www.w3.org/1999/xlink"><g><g transform="translate(422.87695831630606, 108.80988836181896)  rotate(0)  "><g><path d="M0 39.016280119259754 C0.7348962379594189 70.80652007352552, 0.5809831274648053 101.51167264183135, 0 188.58286026956833 M0 39.016280119259754 C-2.634300396413015 70.05757349250896, -3.3222891097966896 100.38317448578061, 0 188.58286026956833 M0 188.58286026956833 C111.55497473496139 187.88019660633418, 225.65938057067868 188.34543575381568, 308.1398504551869 188.58286026956833 M0 188.58286026956833 C104.79506444544626 191.66268286072264, 210.25454495693532 191.83478537766132, 308.1398504551869 188.58286026956833 M308.1398504551869 188.58286026956833 C309.9954053227061 155.34910591045497, 308.5055947665328 122.29688641069342, 308.1398504551869 39.01628011925974 M308.1398504551869 188.58286026956833 C307.1384665938467 137.03136122001166, 308.2233307781071 89.29989028784723, 308.1398504551869 39.01628011925974 M308.1398504551869 39.01628011925974 C240.62415934628848 41.91688867580661, 175.33232327769457 40.87242610278978, 0 39.01628011925974 M308.1398504551869 39.01628011925974 C210.59727991816544 38.7529095835787, 113.10814208039703 39.65162784076441, 0 39.01628011925974 M0 39.01628011925974 C-1.4492246460568516e-15 39.01628011925975, 1.7635526246263992e-15 39.01628011925975, 0 39.016280119259754 M0 39.01628011925974 C-3.234165965655654e-16 39.01628011925975, -6.679397622075807e-16 39.01628011925975, 0 39.016280119259754 M21.53959182651847 48.85013082804208 C24.686735706488044 47.67690004693334, 29.47375481487327 52.61881788369153, 27.888813445147598 53.53590845207267 M21.53959182651847 48.85013082804208 C22.003959667720274 47.49473268791092, 30.27316744346247 51.76581251286786, 27.888813445147598 53.53590845207267 M27.888813445147598 53.53590845207267 C26.78881383172313 58.95202841993392, 27.150433361193127 60.32932955813327, 21.53959182651847 58.2260108490002 M27.888813445147598 53.53590845207267 C24.64896530250164 54.223674369388895, 22.6720595024414 56.644793753416394, 21.53959182651847 58.2260108490002 M21.53959182651847 58.2260108490002 C16.601510087405245 58.91203144979396, 15.974531747002196 53.481161292753825, 15.190370207889343 53.53590845207267 M21.53959182651847 58.2260108490002 C20.191007982524958 60.464926773400165, 12.684697542266962 54.59426451825508, 15.190370207889343 53.53590845207267 M15.190370207889343 53.53590845207267 C16.568941044613773 48.97302250858281, 15.202666543379866 48.08398096548384, 21.53959182651847 48.8501308280421 M15.190370207889343 53.53590845207267 C17.25164568511961 48.20872436576408, 19.06701454026855 50.026138779064546, 21.53959182651847 48.8501308280421 M21.53959182651847 48.8501308280421 C21.53959182651847 48.8501308280421, 21.53959182651847 48.85013082804209, 21.53959182651847 48.85013082804208 M21.53959182651847 48.8501308280421 C21.53959182651847 48.85013082804209, 21.53959182651847 48.85013082804209, 21.53959182651847 48.85013082804208 M286.6014911880702 48.85013082804208 C287.6199101651715 47.99711369262998, 295.5685455989352 51.32067387100194, 292.95071280669936 53.53590845207267 M286.6014911880702 48.85013082804208 C288.5497770091681 48.799540251037, 289.6009464643689 53.54284922295135, 292.95071280669936 53.53590845207267 M292.95071280669936 53.53590845207267 C290.58030661926404 55.156294342241885, 290.33266845067493 59.055252470492505, 286.6014911880702 58.2260108490002 M292.95071280669936 53.53590845207267 C295.4895025307292 55.45213667952426, 288.23813140817447 57.25767393121228, 286.6014911880702 58.2260108490002 M286.6014911880702 58.2260108490002 C285.17563761005357 55.677595742463254, 277.5904025481539 54.23652222391189, 280.25226956944107 53.53590845207267 M286.6014911880702 58.2260108490002 C285.28454146471984 55.675564338357304, 281.8324949500142 55.37885242157587, 280.25226956944107 53.53590845207267 M280.25226956944107 53.53590845207267 C280.5375197086195 49.28963126536343, 281.2858644624515 51.18665100919073, 286.6014911880702 48.8501308280421 M280.25226956944107 53.53590845207267 C278.8470767884693 50.21943269335549, 280.73059506721745 50.37767366572274, 286.6014911880702 48.8501308280421 M286.6014911880702 48.8501308280421 C286.6014911880702 48.85013082804209, 286.6014911880702 48.85013082804209, 286.6014911880702 48.85013082804208 M286.6014911880702 48.8501308280421 C286.6014911880702 48.8501308280421, 286.6014911880702 48.85013082804209, 286.6014911880702 48.85013082804208 M21.53959182651848 169.39520864356496 C26.47152200307508 171.76711187195417, 30.145810397780345 171.9016132512424, 27.88881344514761 174.08531104049248 M21.53959182651848 169.39520864356496 C25.215646443504813 170.69797585555736, 29.6811629075751 171.20261355394643, 27.88881344514761 174.08531104049248 M27.88881344514761 174.08531104049248 C28.175718805800024 178.8497205617768, 23.621140824715052 178.26858809030742, 21.539591826518482 178.77108866452306 M27.88881344514761 174.08531104049248 C29.24851942826139 175.90856739426266, 25.616591750122982 179.0802084565548, 21.539591826518482 178.77108866452306 M21.539591826518482 178.77108866452306 C18.653309933796976 178.0133058968851, 17.65041728596396 178.639765376125, 15.190370207889355 174.08531104049248 M21.539591826518482 178.77108866452306 C15.539594324959893 179.14715172205248, 18.122243940217487 177.58419284815204, 15.190370207889355 174.08531104049248 M15.190370207889355 174.08531104049248 C17.701375193495355 173.30951164749598, 16.84321958795648 167.6392825884783, 21.539591826518482 169.39520864356496 M15.190370207889355 174.08531104049248 C17.269642346279745 172.3332437028937, 16.013265690538027 167.23470030227128, 21.539591826518482 169.39520864356496 M21.539591826518482 169.39520864356496 C21.539591826518482 169.39520864356496, 21.53959182651848 169.39520864356496, 21.53959182651848 169.39520864356496 M21.539591826518482 169.39520864356496 C21.539591826518482 169.39520864356496, 21.53959182651848 169.39520864356496, 21.53959182651848 169.39520864356496 M286.6014911880702 169.39520864356496 C291.08486652096263 167.57625335883733, 294.2764230965151 169.76311241177058, 292.95071280669936 174.08531104049248 M286.6014911880702 169.39520864356496 C293.06742033936547 166.53162148096982, 294.95104655418345 171.31203752065224, 292.95071280669936 174.08531104049248 M292.95071280669936 174.08531104049248 C290.28483282442005 174.94843190339628, 291.5782115007447 179.08310925400943, 286.6014911880702 178.77108866452306 M292.95071280669936 174.08531104049248 C294.0241758085581 179.37361923152815, 289.2957277542142 175.41018048081673, 286.6014911880702 178.77108866452306 M286.6014911880702 178.77108866452306 C285.0887598593994 180.67258318699092, 278.68638734553855 177.00642963675085, 280.25226956944107 174.08531104049248 M286.6014911880702 178.77108866452306 C284.3395970568801 179.23494277898348, 277.44625241897916 176.75338968778263, 280.25226956944107 174.08531104049248 M280.25226956944107 174.08531104049248 C281.9812274323302 169.11285097983813, 282.898030437326 168.46971103977796, 286.6014911880702 169.39520864356496 M280.25226956944107 174.08531104049248 C281.885080297011 169.89448198730273, 280.5083917611576 167.02117371508305, 286.6014911880702 169.39520864356496 M286.6014911880702 169.39520864356496 C286.6014911880702 169.39520864356496, 286.6014911880702 169.39520864356496, 286.6014911880702 169.39520864356496 M286.6014911880702 169.39520864356496 C286.6014911880702 169.39520864356496, 286.6014911880702 169.39520864356496, 286.6014911880702 169.39520864356496" stroke="#000000" stroke-width="2" fill="none" vector-effect="non-scaling-stroke" data-shape-part="outline" stroke-opacity="1" fill-opacity="0.24"></path></g></g><g transform="translate(438.2839508390654, 131.57185097733716) rotate(0)"><text transform="translate(0, 79)" style="font-size: 24px; font-family: &quot;Comic Sans MS&quot;; fill: rgb(17, 17, 17); opacity: 1; stroke-width: 0; font-style: normal; font-weight: normal; text-decoration: none;"></text></g></g><g><g transform="translate(12.285623983918981, 103.19016094580681)  rotate(0)  "><g><path d="M-0.6898242831230164 1.4920293688774109 L1126.178417113663 -1.9168508648872375 L1126.1206530603183 876.1220102154616 L0.923992931842804 874.4302930676345" stroke="none" stroke-width="0" fill="#616161" vector-effect="non-scaling-stroke" data-shape-part="fill" stroke-opacity="0.03" fill-opacity="0.03"></path><path d="M0 0 C292.32597387976824 -4.208258566030897, 583.198358057884 -3.8508710233062873, 1128.428752032162 0 M0 0 C251.2462832338287 -1.896630082437357, 502.8695846690086 -2.271045289346537, 1128.428752032162 0 M1128.428752032162 0 C1129.3942207313708 201.10361899261414, 1129.0463912941148 402.1069683576572, 1128.428752032162 876.3674800836448 M1128.428752032162 0 C1129.426602263972 180.82900660388253, 1129.1150860743967 361.76384813293976, 1128.428752032162 876.3674800836448 M1128.428752032162 876.3674800836448 C867.981925050785 871.6900655616847, 608.255002325275 872.5104902137844, 0 876.3674800836448 M1128.428752032162 876.3674800836448 C761.1987976425833 882.378102367764, 392.9647175029397 882.7741217311673, 0 876.3674800836448 M0 876.3674800836448 C3.55572777120707 590.3400149089197, 3.6753299745762105 302.4384687662915, 0 0 M0 876.3674800836448 C-1.9509612524338433 573.3852578312521, -2.8418963873215386 271.22083720935666, 0 0" stroke="#000000" stroke-width="2" fill="none" vector-effect="non-scaling-stroke" data-shape-part="outline" stroke-opacity="1" fill-opacity="0.03"></path></g></g><g transform="translate(68.70706158552709, 147.00853494998904) rotate(0)"><text transform="translate(0, 382)" style="font-size: 24px; font-family: &quot;Comic Sans MS&quot;; fill: rgb(17, 17, 17); opacity: 1; stroke-width: 0; font-style: normal; font-weight: normal; text-decoration: none;"></text></g></g><g><g transform="translate(12.285623983918981, -0.07233032341628132)  rotate(0)  "><g><path d="M-0.4855645280331373 -0.28533268757164476 L1128.7345902612967 0.7171585600823164 L1128.789605765657 82.56484679942523 L-0.2381571751087904 82.90927759175692" stroke="none" stroke-width="0" fill="#616161" vector-effect="non-scaling-stroke" data-shape-part="fill" stroke-opacity="0.1" fill-opacity="0.1"></path><path d="M0 0 C313.8025699800437 -1.5982003619841962, 627.9039610501002 -1.854124915855351, 1128.428752032162 0 M0 0 C419.7076075119297 1.7964830040145237, 838.9660423192671 1.8647134160209018, 1128.428752032162 0 M1128.428752032162 0 C1127.3026410760856 25.78768161192058, 1127.5780708613372 54.31012966952261, 1128.428752032162 82.99427726817821 M1128.428752032162 0 C1127.463282837518 22.419884657872846, 1128.1287443479378 44.19089001214878, 1128.428752032162 82.99427726817821 M1128.428752032162 82.99427726817821 C697.073797679024 82.01704029022832, 264.9913719678549 82.248543409697, 0 82.99427726817821 M1128.428752032162 82.99427726817821 C697.553549179086 85.52685859467562, 267.04758984971204 85.79480534579332, 0 82.99427726817821 M0 82.99427726817821 C-0.24228673067068596 56.80330826215163, -1.1688367732999279 28.349529250504926, 0 0 M0 82.99427726817821 C0.05079237713693607 53.67623513862871, 0.9712660182940862 23.54831131986599, 0 0" stroke="#000000" stroke-width="2" fill="none" vector-effect="non-scaling-stroke" data-shape-part="outline" stroke-opacity="1" fill-opacity="0.1"></path></g></g><g transform="translate(68.70706158552709, 4.0773835399926295) rotate(0)"><text transform="translate(0, 25)" style="font-size: 24px; font-family: &quot;Comic Sans MS&quot;; fill: rgb(17, 17, 17); opacity: 1; stroke-width: 0; font-style: normal; font-weight: normal; text-decoration: none;"></text></g></g><g><g transform="translate(43.896590698987275, -0.07233032341628132)  rotate(0)  "><g><path d="M57.40289192643051 4.9550146348851385 C63.71183105858471 7.731680985402685, 70.36108388247075 14.804581806463592, 74.35155223396822 20.932402184011305 C78.34202058546569 27.06022256155902, 81.2845421574265 34.394441808386205, 81.34570203541529 41.72193690017142 C81.40686191340407 49.04943199195664, 78.89603120944084 58.63516714808553, 74.71851150190089 64.8973727347226 C70.54099179436095 71.15957832135966, 63.303281674781275 76.91327856335424, 56.28058379017561 79.29517041999384 C49.25788590556995 81.67706227663344, 39.776099818079004 80.95147852738833, 32.58232419426693 79.18872387456021 C25.38854857045486 77.42596922173209, 18.20811376473502 73.5625990044482, 13.11793004730318 68.71864250302512 C8.027746329871338 63.87468600160204, 3.8744563361458777 56.79347342134381, 2.0412218896758816 50.12498486602171 C0.20798744320588547 43.45649631069961, -0.3026956558911107 35.75430805317923, 2.1185233684832028 28.707711171092534 C4.539742392857516 21.661114289005837, 10.728699830488225 12.346472669947435, 16.568536035921763 7.845403573501542 C22.408372241355302 3.344334477055651, 28.83690072354625 1.4167207355456763, 37.15754060108443 1.7012965924171866 C45.478180478622605 1.9858724492886968, 60.35597350262993 6.621784912067913, 66.49237530115083 9.552858714730604 C72.62877709967172 12.483932517393296, 74.4768004925944 18.485315685577344, 73.97595139220982 19.287739408393335 M22.07505522235194 6.524245407194044 C27.500925957438103 2.362040430618343, 35.41210893197942 0.10525765248033636, 42.676196383875435 0.5376761207360445 C49.94028383577145 0.9700945889917527, 59.48933806870588 5.084452657100461, 65.65957993372805 9.118756216728293 C71.82982179875023 13.153059776356127, 77.22728386183114 18.315174486846345, 79.6976475740085 24.74349747850304 C82.16801128618586 31.171820470159737, 82.49246647235744 40.172118013902434, 80.48176220679218 47.68869416666846 C78.47105794122693 55.20527031943449, 72.81166041356285 64.20887065791837, 67.63342198061699 69.8429543950992 C62.455183547671126 75.47703813228003, 55.99202364116985 80.15691156222763, 49.41233160911702 81.49319658975341 C42.832639577064185 82.82948161727919, 35.17688258817316 80.65285719441258, 28.15526978829998 77.86066456025387 C21.1336569884268 75.06847192609516, 12.307581490680487 70.23681863000199, 7.2826548098779575 64.74004078480111 C2.257728129075427 59.24326293960023, -1.44087879065706 52.14615266861355, -1.994290296515203 44.8799974890486 C-2.547701802373346 37.613842309483644, 0.2343808680760744 28.061342878712686, 3.9621857747291003 21.14310970741137 C7.689990681382126 14.224876536110052, 17.411716906160073 5.627272950978886, 20.372539143402953 3.3705984612406894 C23.333361380645833 1.113923971502493, 21.53570878736528 6.865588809095669, 21.72711919818639 7.603062768982191" stroke="none" stroke-width="0" fill="#616161" vector-effect="non-scaling-stroke" data-shape-part="fill" stroke-opacity="0.26" fill-opacity="0.26"></path><path d="M46.72889319169048 0.4773775304552714 C53.37244989871932 1.0790325363098607, 60.165110249524226 5.005706948791506, 65.80013274076447 9.684707151602172 C71.43515523200472 14.363707354412838, 78.32427320074507 21.398328499560556, 80.53902813913194 28.55137874731927 C82.75378307751882 35.70442899507798, 81.36139966746481 45.64611099432478, 79.08866237108576 52.603008638154456 C76.81592507470671 59.559906281984134, 72.45811144952354 65.6770518628174, 66.90260436085762 70.29276461029733 C61.347097272191704 74.90847735777726, 52.82081818923881 78.93709252729711, 45.755619839090265 80.29728512303404 C38.69042148894172 81.65747771877098, 31.29757745213251 81.54942877071933, 24.511414259966394 78.45392018471895 C17.725251067800276 75.35841159871858, 8.967738827269754 68.1535767245557, 5.038640686093565 61.724233607031785 C1.1095425449173768 55.294890489507864, 0.8108965474222009 46.99905048651733, 0.9368254129092648 39.87786147957541 C1.0627542783963289 32.75667247263348, 2.195241701760486 25.263909386449168, 5.794213879015949 18.997099565380235 C9.393186056271412 12.730289744311303, 13.123179938273276 4.476849680799399, 22.530658476442042 2.2770025531618145 C31.93813701461081 0.07715542552423038, 53.513960325247595 3.1159355979687366, 62.23908510802855 5.7980167995547305 C70.9642098908095 8.480098001140725, 75.33641845763088 17.560123463834117, 74.88140717312776 18.369489762677777 M35.394643748821586 1.57368616938588 C41.86233279141065 0.09756858464786689, 49.50577168881725 0.042184843160811614, 55.54515284678441 2.633464709097751 C61.584534004751575 5.224744575034691, 67.12961537146218 10.922461274247752, 71.63093069662455 17.121365365007517 C76.13224602178691 23.32026945576728, 81.62177312068725 32.53850580314921, 82.55304479775859 39.82688925365633 C83.48431647482992 47.11527270416346, 81.35268716012754 54.690548960234906, 77.21856075905256 60.85166606805028 C73.08443435797759 67.01278317586565, 64.8861582065827 73.69105653734529, 57.74828639130874 76.79359190054855 C50.61041457603477 79.89612726375181, 41.54398666633804 80.4402831771555, 34.391329867408764 79.46687824726983 C27.238673068479482 78.49347331738417, 20.242749693137554 75.03244001087252, 14.832345597733049 70.95316232123461 C9.421941502328544 66.87388463159671, 4.30140240654649 61.55315623435045, 1.9289052949817247 54.991212109442365 C-0.44359181658304037 48.42926798453428, -1.0842256068762015 39.31504620680128, 0.5973629283444595 31.581497571786066 C2.2789514635651207 23.84794893677085, 6.522417773342667 13.94471088345168, 12.01843650630569 8.589920299351089 C17.514455239268713 3.2351297152504976, 30.06944987575335 0.6521111846830063, 33.5734753261226 -0.5472459328174821 C37.077500776491846 -1.7466030503179706, 33.21317209239578 0.646159883899859, 33.04258920852117 1.3937775943481583" stroke="#000000" stroke-width="2" fill="none" vector-effect="non-scaling-stroke" data-shape-part="outline" stroke-opacity="1" fill-opacity="0.26"></path></g></g><g transform="translate(56.02342434970136, 12.054503327297805) rotate(0)"><text transform="translate(0, 16)" style="font-size: 24px; font-family: &quot;Comic Sans MS&quot;; fill: rgb(17, 17, 17); opacity: 1; stroke-width: 0; font-style: normal; font-weight: normal; text-decoration: none;"></text></g></g><g><g id="5LCWZsUnOrLi6rqBiWjaL" pointer-events="auto"><g><path data-shape-part="outline" class="" d="M107.012 6.898 C97.04380161205185 22.002750543599017, 87.0756032241037 37.10750108719803, 81.479 45.588 M107.012 6.898 C99.790260300373 17.841058355013843, 92.56852060074601 28.784116710027682, 81.479 45.588 M81.479 45.588 C73.55457758091065 56.534550801007455, 65.63015516182128 67.4811016020149, 61.244 73.54 M81.479 45.588 C74.33765868587372 55.45282690449506, 67.19631737174745 65.31765380899013, 61.244 73.54" stroke="#000000" stroke-width="2" stroke-opacity="1" fill="none" stroke-linecap="round" stroke-dashoffset="-3"></path></g><path d="M107.012,6.898L81.479,45.588L61.244,73.54" fill="none" fill-opacity="0" stroke="black" stroke-opacity="0" stroke-width="10" id="hit-5LCWZsUnOrLi6rqBiWjaL"></path></g></g><g><g id="trxsVryXZpPCfDJ2WIPpn" pointer-events="auto"><g><path data-shape-part="outline" class="" d="M58.492 9.255 C70.96357460898346 23.499130980290474, 83.43514921796694 37.743261960580945, 90.611 45.939 M58.492 9.255 C71.29223304183893 23.87450088442415, 84.09246608367786 38.4940017688483, 90.611 45.939 M90.611 45.939 C98.30440298256092 54.46858789559677, 105.99780596512183 62.998175791193546, 112.076 69.737 M90.611 45.939 C97.5522122070212 53.63464258572981, 104.49342441404238 61.330285171459614, 112.076 69.737" stroke="#000000" stroke-width="2" stroke-opacity="1" fill="none" stroke-linecap="round" stroke-dashoffset="-3"></path></g><path d="M58.492,9.255L90.611,45.939L112.076,69.737" fill="none" fill-opacity="0" stroke="black" stroke-opacity="0" stroke-width="10" id="hit-trxsVryXZpPCfDJ2WIPpn"></path></g></g><g><g transform="translate(12.285623983918981, 997.078053055238)  rotate(0)  "><g><path d="M-2.82999749109149 1.1911075226962566 L1126.3799801031662 1.7302154414355755 L1127.6583255688263 81.7384655880699 L-1.2856105081737041 83.28943721530531" stroke="none" stroke-width="0" fill="#616161" vector-effect="non-scaling-stroke" data-shape-part="fill" stroke-opacity="0.1" fill-opacity="0.1"></path><path d="M0 0 C432.2268851135767 -1.1075358809529672, 865.0075249338341 -1.866020387560023, 1128.428752032162 0 M0 0 C286.87170766936845 3.8513679169419337, 573.59363667686 3.963970842242532, 1128.428752032162 0 M1128.428752032162 0 C1126.7716458818722 25.592266309828002, 1127.1896753094006 42.94996588268963, 1128.428752032162 82.99427726817821 M1128.428752032162 0 C1129.4999612928218 34.61295816543798, 1130.180704689104 65.95653903408548, 1128.428752032162 82.99427726817821 M1128.428752032162 82.99427726817821 C750.2552368819786 88.92775899012551, 372.0758577746882 89.54206195910439, 0 82.99427726817821 M1128.428752032162 82.99427726817821 C697.721739826624 79.92213151616212, 268.1138828943743 80.47268152398225, 0 82.99427726817821 M0 82.99427726817821 C-0.5370296958162177 51.51789440969265, -1.4485519650651801 17.751962390458374, 0 0 M0 82.99427726817821 C-1.1597266990631223 67.01366967109708, 1.1337295573264956 48.28624167820356, 0 0" stroke="#000000" stroke-width="2" fill="none" vector-effect="non-scaling-stroke" data-shape-part="outline" stroke-opacity="1" fill-opacity="0.1"></path></g></g><g transform="translate(68.70706158552709, 1001.2277669186469) rotate(0)"><text transform="translate(0, 25)" style="font-size: 24px; font-family: &quot;Comic Sans MS&quot;; fill: rgb(17, 17, 17); opacity: 1; stroke-width: 0; font-style: normal; font-weight: normal; text-decoration: none;"></text></g></g><g><g transform="translate(593.2249456141741, 351.8630991043441)  rotate(0)  "><g><path d="M6.139516178404345 164.07557684478718 C8.97532713122423 161.50608041339922, 51.12569154031395 143.97427341487133, 52.185887516436935 137.13606245838193 M6.139516178404345 164.07557684478718 C4.168337222027956 164.29617360012975, 53.013908209193566 142.58109690268398, 52.185887516436935 137.13606245838193 M52.185887516436935 137.13606245838193 C52.44254965722335 126.93543906993202, 36.360973420202086 36.41448293972554, 114.7713636615996 24.849379649528977 M52.185887516436935 137.13606245838193 C54.9224774642918 126.83061407119004, 35.55345914659398 34.99298160296658, 114.7713636615996 24.849379649528977 M114.7713636615996 24.849379649528977 C194.13340972487185 14.662454074797841, 362.2058691718241 -23.17331946068724, 400.00827346032395 25.68156292439638 M114.7713636615996 24.849379649528977 C198.23664059366402 13.01972154121815, 359.46374074649975 -19.45453829169554, 400.00827346032395 25.68156292439638 M400.00827346032395 25.68156292439638 C439.357641636113 72.03024864483372, 422.46043898477166 237.96469679907048, 307.93641349234855 246.7326644484774 M400.00827346032395 25.68156292439638 C440.57104919333784 75.12644344580107, 426.6796764797526 238.3778170228851, 307.93641349234855 246.7326644484774 M307.93641349234855 246.7326644484774 C195.29712211083222 255.50089967617328, 87.23976217365329 266.17954533209667, 71.2100345862545 228.0956297113307 M307.93641349234855 246.7326644484774 C190.59556826444876 255.29518089982244, 89.08870894221094 266.6890103785565, 71.2100345862545 228.0956297113307 M71.2100345862545 228.0956297113307 C56.5476172415831 191.44444078483568, 62.35957499892937 178.77034210157657, 45.37812467915867 174.64236912566165 M71.2100345862545 228.0956297113307 C56.73145218080029 191.94079173805142, 66.41643767558524 174.48860695725384, 45.37812467915867 174.64236912566165 M45.37812467915867 174.64236912566165 C26.29371039213917 172.34073308304662, -9.97536433451913 170.46291336439506, 6.13951617840437 164.07557684478718 M45.37812467915867 174.64236912566165 C30.526272587416013 169.45046129146368, -10.685015833993551 168.57538223461205, 6.13951617840437 164.07557684478718 M6.13951617840437 164.07557684478718 C6.139516178404363 164.07557684478718, 6.139516178404355 164.07557684478718, 6.139516178404345 164.07557684478718 M6.13951617840437 164.07557684478718 C6.139516178404363 164.07557684478718, 6.139516178404356 164.07557684478718, 6.139516178404345 164.07557684478718" stroke="#000000" stroke-width="2" fill="none" vector-effect="non-scaling-stroke" data-shape-part="outline" stroke-opacity="1" fill-opacity="0.1"></path></g></g><g transform="translate(654.5375478546067, 364.37015259143794) rotate(0)"><text transform="translate(0, 101)" style="font-size: 24px; font-family: &quot;Comic Sans MS&quot;; fill: rgb(17, 17, 17); opacity: 1; stroke-width: 0; font-style: normal; font-weight: normal; text-decoration: none;"></text></g></g><g transform="translate(377.5679060247082, 24.513977121636838) rotate(0)"><text transform="translate(0, 0)" style="font-size: 24px; font-family: Roboto; fill: rgb(17, 17, 17); opacity: 1; stroke-width: 0; font-style: normal; font-weight: normal; text-decoration: none;"><tspan dominant-baseline="text-before-edge" x="0" y="0">Hom</tspan></text></g><g transform="translate(507.8753354834897, 24.513977121636838) rotate(0)"><text transform="translate(0, 0)" style="font-size: 24px; font-family: Roboto; fill: rgb(17, 17, 17); opacity: 1; stroke-width: 0; font-style: normal; font-weight: normal; text-decoration: none;"><tspan dominant-baseline="text-before-edge" x="0" y="0">Abou</tspan></text></g><g transform="translate(637.4802990152697, 24.513977121636838) rotate(0)"><text transform="translate(0, 0)" style="font-size: 24px; font-family: Roboto; fill: rgb(17, 17, 17); opacity: 1; stroke-width: 0; font-style: normal; font-weight: normal; text-decoration: none;"><tspan dominant-baseline="text-before-edge" x="0" y="0">Contac</tspan></text></g><g transform="translate(773.0562229265627, 25.567676012139113) rotate(0)"><text transform="translate(0, 0)" style="font-size: 24px; font-family: Roboto; fill: rgb(17, 17, 17); opacity: 1; stroke-width: 0; font-style: normal; font-weight: normal; text-decoration: none;"><tspan dominant-baseline="text-before-edge" x="0" y="0">Portfoli</tspan></text></g><g transform="translate(923.0326983413867, 24.513977121636838) rotate(0)"><text transform="translate(0, 0)" style="font-size: 24px; font-family: Roboto; fill: rgb(17, 17, 17); opacity: 1; stroke-width: 0; font-style: normal; font-weight: normal; text-decoration: none;"><tspan dominant-baseline="text-before-edge" x="0" y="0">Sign U</tspan></text></g><g transform="translate(804.6671896416309, 461.09655075308007) rotate(0)"><text transform="translate(0, 0)" style="font-size: 24px; font-family: Roboto; fill: rgb(17, 17, 17); opacity: 1; stroke-width: 0; font-style: normal; font-weight: bold; text-decoration: none;"><tspan dominant-baseline="text-before-edge" x="0" y="0">BI</tspan></text></g><g><g transform="translate(246.90924360242587, 380.31296914790556)  rotate(0)  "><g><path d="M-0.4263762580230832 -1.6083510322496295 L305.4838934091464 0.3336878316476941 L305.6418925968543 290.7143461143401 L0.4100785804912448 290.5050273274806" stroke="none" stroke-width="0" fill="#616161" vector-effect="non-scaling-stroke" data-shape-part="fill" stroke-opacity="0.1" fill-opacity="0.1"></path><path d="M0 0 C107.52526298059637 0.5641219577525229, 210.64469288119477 -2.7827214646177088, 308.19657113101186 0 M0 0 C110.46431135051334 -4.062222129266559, 218.74821104289978 -3.09789998300325, 308.19657113101186 0 M308.19657113101186 0 C308.5890218915136 90.68214076236349, 308.25928550703367 182.4112041754827, 308.19657113101186 289.6018684346032 M308.19657113101186 0 C309.92132032659697 108.32358329986567, 310.299805485109 217.04982035832828, 308.19657113101186 289.6018684346032 M308.19657113101186 289.6018684346032 C205.38472006161155 287.614042864684, 103.78448977074153 288.7563520506919, 0 289.6018684346032 M308.19657113101186 289.6018684346032 C227.37424751327026 286.72349274890087, 146.72186876627205 286.4995282017875, 0 289.6018684346032 M0 289.6018684346032 C1.2397743586653296 186.3051638294872, 2.9388480369333356 87.12891604594076, 0 0 M0 289.6018684346032 C-3.2846678138553074 194.94447280688348, -2.4070925365416773 102.02698044026461, 0 0" stroke="#000000" stroke-width="2" fill="none" vector-effect="non-scaling-stroke" data-shape-part="outline" stroke-opacity="1" fill-opacity="0.1"></path></g></g><g transform="translate(262.3190721589765, 394.7930625696357) rotate(0)"><text transform="translate(0, 118)" style="font-size: 24px; font-family: &quot;Comic Sans MS&quot;; fill: rgb(17, 17, 17); opacity: 1; stroke-width: 0; font-style: normal; font-weight: normal; text-decoration: none;"></text></g></g><g><g id="Y0kChQuJpOIsSO71mgbQq" pointer-events="auto"><g><path data-shape-part="outline" class="" d="M246.909 380.313 C318.54454016751833 447.2057191889942, 390.1800803350367 514.0984383779884, 555.106 668.105 M246.909 380.313 C334.10494472319897 461.7359058809102, 421.3008894463979 543.1588117618203, 555.106 668.105" stroke="#000000" stroke-width="2" stroke-opacity="1" fill="none" stroke-linecap="round" stroke-dashoffset="-3"></path></g><path d="M246.909,380.313L555.106,668.105" fill="none" fill-opacity="0" stroke="black" stroke-opacity="0" stroke-width="10" id="hit-Y0kChQuJpOIsSO71mgbQq"></path></g></g><g><g id="djoxgTSjF9_LjYbj8qQhB" pointer-events="auto"><g><path data-shape-part="outline" class="" d="M555.106 382.123 C464.9731110562401 466.2884019179374, 374.84022211248015 550.4538038358749, 246.909 669.915 M555.106 382.123 C474.33947184211144 457.54216589588816, 393.5729436842229 532.9613317917764, 246.909 669.915" stroke="#000000" stroke-width="2" stroke-opacity="1" fill="none" stroke-linecap="round" stroke-dashoffset="-3"></path></g><path d="M555.106,382.123L246.909,669.915" fill="none" fill-opacity="0" stroke="black" stroke-opacity="0" stroke-width="10" id="hit-djoxgTSjF9_LjYbj8qQhB"></path></g></g><g><g transform="translate(439.03367463734094, 827.7837646478723)  rotate(0)  "><g><path d="M239.48813613782775 78.82475681803045 C165.17369747326578 77.31618920241701, 94.7876015960664 85.81701753412591, 42.26261225961666 78.82475681803045 C19.72479099071631 74.26029690499273, -0.24446224365383384 73.4583431229293, 0 59.870422860504696 C1.5856651664082182 43.5784031070704, 4.828032690316833 33.45844849636448, 0 18.95433395752576 C-1.5549463978037237 12.511881897334456, 20.974733071765396 -2.210265592671931, 42.26261225961666 0 C101.09048349344474 1.9191192184475216, 162.58114418922077 -0.7025639320823391, 239.48813613782775 0 C262.90680066276946 1.3492722878232597, 285.6733539140197 11.420340886075497, 281.7507483974444 18.95433395752576 C284.8622165978348 32.52389895555198, 278.36047229770776 48.41587123292807, 281.7507483974444 59.870422860504696 C286.0131144846203 70.16870060528812, 260.13763627228 76.6397357891765, 239.48813613782775 78.82475681803045 C239.48813613782775 78.82475681803045, 239.48813613782775 78.82475681803045, 239.48813613782775 78.82475681803045" stroke="none" stroke-width="0" fill="#616161" vector-effect="non-scaling-stroke" data-shape-part="fill" stroke-opacity="0.1" fill-opacity="0.1"></path><path d="M239.48813613782775 78.82475681803045 C189.30776428062535 79.21736138197657, 142.90783984036182 77.35405125352618, 42.26261225961666 78.82475681803045 M239.48813613782775 78.82475681803045 C168.69690822221344 75.67681041019755, 96.61331877472685 76.11109594660597, 42.26261225961666 78.82475681803045 M42.26261225961666 78.82475681803045 C17.347160471221898 81.25749039011863, -1.5177417313680053 67.3841916721612, 0 59.870422860504696 M42.26261225961666 78.82475681803045 C16.22868080189498 80.62537231054013, -1.7895610653329639 67.49312184963559, 0 59.870422860504696 M0 59.870422860504696 C2.1393495149588606 45.70932056351936, -0.31399313140153673 26.166961856613277, 0 18.95433395752576 M0 59.870422860504696 C-0.05374260922777285 50.87438931318937, 0.6801439754117764 40.1083527865545, 0 18.95433395752576 M0 18.95433395752576 C2.668295511044562 7.822063912932277, 18.770807994148228 -0.677687251009047, 42.26261225961666 0 M0 18.95433395752576 C-0.7374874763656408 6.371478635041491, 20.868858927991706 0.03894030754454447, 42.26261225961666 0 M42.26261225961666 0 C120.1608963778125 1.3478457770970373, 190.82449483008054 0.8612198374894172, 239.48813613782775 0 M42.26261225961666 0 C82.34227777977816 -1.3895248613208275, 125.20089333132076 -1.5689201644509774, 239.48813613782775 0 M239.48813613782775 0 C259.9944218453453 0.7113764053210616, 282.60120965040943 9.144592155997158, 281.7507483974444 18.95433395752576 M239.48813613782775 0 C262.1730443621022 -2.401117223454639, 283.62125501855 6.354557669131533, 281.7507483974444 18.95433395752576 M281.7507483974444 18.95433395752576 C284.98323109441253 32.93638897039877, 279.58115225725624 40.58455007974064, 281.7507483974444 59.870422860504696 M281.7507483974444 18.95433395752576 C282.4253383360215 31.61163805766352, 281.2798790268012 43.84422927309577, 281.7507483974444 59.870422860504696 M281.7507483974444 59.870422860504696 C282.344433019531 72.04569927866754, 263.9405989703224 77.452132993516, 239.48813613782775 78.82475681803045 M281.7507483974444 59.870422860504696 C281.8374202899514 72.6342297426257, 260.1946246946198 79.02787055279916, 239.48813613782775 78.82475681803045 M239.48813613782775 78.82475681803045 C239.48813613782775 78.82475681803045, 239.48813613782775 78.82475681803045, 239.48813613782775 78.82475681803045 M239.48813613782775 78.82475681803045 C239.48813613782775 78.82475681803045, 239.48813613782775 78.82475681803045, 239.48813613782775 78.82475681803045" stroke="#000000" stroke-width="2" fill="none" vector-effect="non-scaling-stroke" data-shape-part="outline" stroke-opacity="1" fill-opacity="0.1"></path></g></g><g transform="translate(453.12121205721314, 834.1018761215455) rotate(0)"><text transform="translate(0, 21)" style="font-size: 24px; font-family: &quot;Comic Sans MS&quot;; fill: rgb(17, 17, 17); opacity: 1; stroke-width: 0; font-style: normal; font-weight: normal; text-decoration: none;"></text></g></g><g transform="translate(474.8594369144184, 852.0188391294247) rotate(0)"><text transform="translate(0, 0)" style="font-size: 24px; font-family: Roboto; fill: rgb(17, 17, 17); opacity: 1; stroke-width: 0; font-style: normal; font-weight: bold; text-decoration: none;"><tspan dominant-baseline="text-before-edge" x="0" y="0">See my latest wor</tspan></text></g><g transform="translate(438.33120871033947, 202.58908961652156) rotate(0)"><text transform="translate(0, 0)" style="font-size: 33px; font-family: Roboto; fill: rgb(17, 17, 17); opacity: 1; stroke-width: 0; font-style: normal; font-weight: bold; text-decoration: none;"><tspan dominant-baseline="text-before-edge" x="0" y="0">James De Guzma</tspan></text></g><g transform="translate(394.4270882727446, 1016.3958660477798) rotate(0)"><text transform="translate(0, 0)" style="font-size: 24px; font-family: Roboto; fill: rgb(17, 17, 17); opacity: 1; stroke-width: 0; font-style: normal; font-weight: bold; text-decoration: none;"><tspan dominant-baseline="text-before-edge" x="0" y="0">©2024 James Phillip De Guzman</tspan></text></g><g><g transform="translate(51.97494885950473, 1023.0692923542942)  rotate(0)  "><g><path d="M0.32049066237270185 5.9098479258000784 L0.32049066237270185 37.89481485270008 L20.87035281396424 32.440064909912685 L42.63166927810064 38.52938743367366 L64.41862313691307 32.516981983465655 L64.41862313691307 0.7819972266531902 L42.82396074134461 5.813700361284031 L20.851121711520076 0.32049065914531455" stroke="none" stroke-width="0" fill="#616161" fill-rule="evenodd" vector-effect="non-scaling-stroke" data-shape-part="fill" stroke-opacity="0.24" fill-opacity="0.24"></path><path d="M0.32049066237270185 5.9098479258000784 C0.32049066237270185 17.19482031825214, 0.32049066237270185 28.479792710704203, 0.32049066237270185 37.89481485270008 M0.32049066237270185 5.9098479258000784 C0.32049066237270185 15.64846079162503, 0.32049066237270185 25.387073657449985, 0.32049066237270185 37.89481485270008 M0.32049066237270185 37.89481485270008 C6.359436340992066 36.29183871826436, 12.39838201961143 34.68886258382864, 20.87035281396424 32.440064909912685 M0.32049066237270185 37.89481485270008 C7.791582229951004 35.9116902944825, 15.262673797529306 33.92856573626492, 20.87035281396424 32.440064909912685 M20.87035281396424 32.440064909912685 C25.227019187785288 33.659161499144396, 29.583685561606337 34.87825808837611, 42.63166927810064 38.52938743367366 M20.87035281396424 32.440064909912685 C26.33853822014112 33.97019037878355, 31.806723626318004 35.50031584765441, 42.63166927810064 38.52938743367366 M42.63166927810064 38.52938743367366 C50.306929150505475 36.411295359505885, 57.98218902291031 34.29320328533811, 64.41862313691307 32.516981983465655 M42.63166927810064 38.52938743367366 C49.60534269618004 36.60490765836666, 56.57901611425943 34.680427883059664, 64.41862313691307 32.516981983465655 M64.41862313691307 32.516981983465655 C64.41862313691307 22.577531849631953, 64.41862313691307 12.638081715798247, 64.41862313691307 0.7819972266531902 M64.41862313691307 32.516981983465655 C64.41862313691307 20.840768111444966, 64.41862313691307 9.164554239424273, 64.41862313691307 0.7819972266531902 M64.41862313691307 0.7819972266531902 C59.61611144090594 1.9010150983963174, 54.81359974489881 3.0200329701394444, 42.82396074134461 5.813700361284031 M64.41862313691307 0.7819972266531902 C59.138187560725335 2.012374611315267, 53.8577519845376 3.242751995977344, 42.82396074134461 5.813700361284031 M42.82396074134461 5.813700361284031 C36.46443764719018 4.223819603755754, 30.104914553035748 2.6339388462274753, 20.851121711520076 0.32049065914531455 M42.82396074134461 5.813700361284031 C37.16387660608691 4.398679341719074, 31.503792470829218 2.9836583221541164, 20.851121711520076 0.32049065914531455 M20.851121711520076 0.32049065914531455 C14.943795071405427 1.928729539060275, 9.036468431290778 3.5369684189752357, 0.32049066237270185 5.9098479258000784 M20.851121711520076 0.32049065914531455 C13.067627922738609 2.4395062638845872, 5.284134133957144 4.55852186862386, 0.32049066237270185 5.9098479258000784" stroke="#000000" stroke-width="2" fill="none" vector-effect="non-scaling-stroke" data-shape-part="outline" stroke-opacity="1" fill-opacity="0.24"></path></g><g><path d="M20.851121711520076 0.32049065914531455 C20.851121711520076 11.652955360629203, 20.851121711520076 22.985420062113093, 20.851121711520076 32.440064909912685 M20.851121711520076 0.32049065914531455 C20.851121711520076 10.100088048075918, 20.851121711520076 19.879685437006522, 20.851121711520076 32.440064909912685" stroke="#000000" stroke-width="2" fill="none" vector-effect="non-scaling-stroke" data-shape-part="outline" stroke-opacity="1" fill-opacity="0.24"></path></g><g><path d="" stroke="none" stroke-width="0" fill="#616161" vector-effect="non-scaling-stroke" data-shape-part="fill" stroke-opacity="0.24" fill-opacity="0.24"></path><path d="" stroke="#000000" stroke-width="2" fill="none" vector-effect="non-scaling-stroke" data-shape-part="outline" stroke-opacity="1" fill-opacity="0.24"></path></g><g><path d="M42.63166927810064 38.52938743367366 C42.69951377076408 26.986601528789176, 42.76735826342752 15.44381562390469, 42.82396074134461 5.813700361284031 M42.63166927810064 38.52938743367366 C42.69021716161779 28.568288778620087, 42.74876504513494 18.60719012356651, 42.82396074134461 5.813700361284031" stroke="#000000" stroke-width="2" fill="none" vector-effect="non-scaling-stroke" data-shape-part="outline" stroke-opacity="1" fill-opacity="0.24"></path></g></g></g><g transform="translate(773.0562229265627, 833.7547250273852) rotate(0)"><text transform="translate(0, 0)" style="font-size: 8px; font-family: &quot;Comic Sans MS&quot;; fill: rgb(17, 17, 17); opacity: 1; stroke-width: 0; font-style: normal; font-weight: normal; text-decoration: none;"><tspan dominant-baseline="text-before-edge" x="0" y="0"></tspan></text></g><g><g transform="translate(995.386688822543, 1016.3958660477798)  rotate(0)  "><g><path d="M33.99792930041617 0 C26.85411198647538 0, 19.710294672534594 0, 1.6580007472148421 0 M33.99792930041617 0 C24.52489430590941 0, 15.051859311402652 0, 1.6580007472148421 0 M1.6580007472148421 0 C0.7452089379954882 0, 0 0.9176539814985735, 0 2.041670341611659 M1.6580007472148421 0 C0.7452089379954882 0, 0 0.9176539814985735, 0 2.041670341611659 M0 2.041670341611659 C0 12.914204091013271, 0 23.786737840414887, 0 41.86521872530574 M0 2.041670341611659 C0 11.324745638740971, 0 20.607820935870283, 0 41.86521872530574 M0 41.86521872530574 C0 42.98923508541882, 0.7452089379954882 43.906889066917394, 1.6580007472148421 43.906889066917394 M0 41.86521872530574 C0 42.98923508541882, 0.7452089379954882 43.906889066917394, 1.6580007472148421 43.906889066917394 M1.6580007472148421 43.906889066917394 C5.97374045288867 43.906889066917394, 10.289480158562498 43.906889066917394, 18.145302801239424 43.906889066917394 M1.6580007472148421 43.906889066917394 C6.572023511572437 43.906889066917394, 11.48604627593003 43.906889066917394, 18.145302801239424 43.906889066917394 M18.145302801239424 43.906889066917394 C18.16743530032157 40.38293793000066, 18.18956779940372 36.85898679308392, 18.252270591382313 26.875406797860137 M18.145302801239424 43.906889066917394 C18.18131093286872 38.17365054187184, 18.21731906449801 32.440412016826286, 18.252270591382313 26.875406797860137 M18.252270591382313 26.875406797860137 C16.86122540229736 26.875406797860137, 15.470180213212407 26.875406797860137, 13.570646976128364 26.875406797860137 M18.252270591382313 26.875406797860137 C16.45616301593403 26.875406797860137, 14.660055440485747 26.875406797860137, 13.570646976128364 26.875406797860137 M13.570646976128364 26.875406797860137 C13.58556769880685 24.514418229565727, 13.600488421485336 22.153429661271318, 13.613434092185521 20.104964503741474 M13.570646976128364 26.875406797860137 C13.58466871145751 24.656669975715555, 13.598690446786657 22.437933153570974, 13.613434092185521 20.104964503741474 M13.613434092185521 20.104964503741474 C14.74256932056672 20.104964503741474, 15.871704548947918 20.104964503741474, 18.31645126546805 20.104964503741474 M13.613434092185521 20.104964503741474 C15.03153075815364 20.104964503741474, 16.449627424121758 20.104964503741474, 18.31645126546805 20.104964503741474 M18.31645126546805 20.104964503741474 C18.317874814938524 19.90162046202523, 18.319298364408997 19.69827642030899, 18.320016858472812 19.595644590565232 M18.31645126546805 20.104964503741474 C18.317857812635044 19.904049121639527, 18.319264359802037 19.70313373953758, 18.320016858472812 19.595644590565232 M18.320016858472812 19.595644590565232 C18.32714804448234 18.230140340584104, 18.31645126546805 16.86463609060297, 18.355672788520444 15.49913184062184 M18.320016858472812 19.595644590565232 C18.32714804448234 18.230140340584104, 18.31645126546805 16.86463609060297, 18.355672788520444 15.49913184062184 M18.355672788520444 15.49913184062184 C18.37350075354426 14.64294750381695, 18.409156683591892 13.760419033571912, 18.5339524387586 12.904234696767023 M18.355672788520444 15.49913184062184 C18.37350075354426 14.64294750381695, 18.409156683591892 13.760419033571912, 18.5339524387586 12.904234696767023 M18.5339524387586 12.904234696767023 C18.851290216182516 10.831829532808523, 19.632155084225634 9.093116725758595, 21.04056432110706 7.84616107625814 M18.5339524387586 12.904234696767023 C18.851290216182516 10.831829532808523, 19.632155084225634 9.093116725758595, 21.04056432110706 7.84616107625814 M21.04056432110706 7.84616107625814 C22.274259500755093 6.7616609163052805, 23.679103144631753 6.309419958916031, 25.16952102062273 6.265513069849114 M21.04056432110706 7.84616107625814 C22.274259500755093 6.7616609163052805, 23.679103144631753 6.309419958916031, 25.16952102062273 6.265513069849114 M25.16952102062273 6.265513069849114 C25.32284151982755 6.261122380942423, 25.472596426027593 6.261122380942423, 25.62591692523241 6.261122380942423 M25.16952102062273 6.265513069849114 C25.32284151982755 6.261122380942423, 25.472596426027593 6.261122380942423, 25.62591692523241 6.261122380942423 M25.62591692523241 6.261122380942423 C26.442437723323163 6.261122380942423, 27.266089707423436 6.313810647822723, 28.082610505514186 6.362108225796333 M25.62591692523241 6.261122380942423 C26.442437723323163 6.261122380942423, 27.266089707423436 6.313810647822723, 28.082610505514186 6.362108225796333 M28.082610505514186 6.362108225796333 C28.613883863223887 6.388452359236483, 29.145157220933594 6.480656826277009, 29.644340241600425 6.550907848784077 M28.082610505514186 6.362108225796333 C28.613883863223887 6.388452359236483, 29.145157220933594 6.480656826277009, 29.644340241600425 6.550907848784077 M29.644340241600425 6.550907848784077 C29.63296220766861 8.308647395786354, 29.621584173736792 10.066386942788629, 29.60511871854803 12.610058540018677 M29.644340241600425 6.550907848784077 C29.63202996422589 8.452665349724567, 29.619719686851354 10.354422850665056, 29.60511871854803 12.610058540018677 M29.60511871854803 12.610058540018677 C29.451798219343214 12.610058540018677, 29.334133650186033 12.610058540018677, 29.21290348802409 12.610058540018677 M29.60511871854803 12.610058540018677 C29.451798219343214 12.610058540018677, 29.334133650186033 12.610058540018677, 29.21290348802409 12.610058540018677 M29.21290348802409 12.610058540018677 C28.67449894430486 12.610058540018677, 28.132528807580872 12.601277162205294, 27.59412426386164 12.601277162205294 M29.21290348802409 12.610058540018677 C28.67449894430486 12.610058540018677, 28.132528807580872 12.601277162205294, 27.59412426386164 12.601277162205294 M27.59412426386164 12.601277162205294 C27.18764666131865 12.601277162205294, 26.78473465178042 12.605667851111987, 26.378257049237426 12.623230606738753 M27.59412426386164 12.601277162205294 C27.18764666131865 12.601277162205294, 26.78473465178042 12.605667851111987, 26.378257049237426 12.623230606738753 M26.378257049237426 12.623230606738753 C25.07325000949413 12.675918873619056, 24.114105491212857 13.277443253835822, 24.046359224122355 15.283988084193949 M26.378257049237426 12.623230606738753 C25.07325000949413 12.675918873619056, 24.114105491212857 13.277443253835822, 24.046359224122355 15.283988084193949 M24.046359224122355 15.283988084193949 C24.003572108065196 16.72852473449553, 23.97504736402709 19.920555569660426, 23.97504736402709 20.08740174811471 M24.046359224122355 15.283988084193949 C24.003572108065196 16.72852473449553, 23.97504736402709 19.920555569660426, 23.97504736402709 20.08740174811471 M23.97504736402709 20.08740174811471 C24.04279363111759 20.08740174811471, 25.333538298841834 20.0917924370214, 26.627848559570836 20.0917924370214 M23.97504736402709 20.08740174811471 C24.04279363111759 20.08740174811471, 25.333538298841834 20.0917924370214, 26.627848559570836 20.0917924370214 M26.627848559570836 20.0917924370214 C27.276786486437718 20.0917924370214, 27.911462041285553 20.0917924370214, 28.35359557387618 20.08740174811471 M26.627848559570836 20.0917924370214 C27.276786486437718 20.0917924370214, 27.911462041285553 20.0917924370214, 28.35359557387618 20.08740174811471 M28.35359557387618 20.08740174811471 C28.68876131632391 20.08740174811471, 29.027492651776406 20.08740174811471, 29.409011103286055 20.08740174811471 M28.35359557387618 20.08740174811471 C28.68876131632391 20.08740174811471, 29.027492651776406 20.08740174811471, 29.409011103286055 20.08740174811471 M29.409011103286055 20.08740174811471 C29.145157220933587 22.414466868661332, 28.902696896609694 24.64932752216743, 28.638843014257226 26.897360242393596 M29.409011103286055 20.08740174811471 C29.145157220933587 22.414466868661332, 28.902696896609694 24.64932752216743, 28.638843014257226 26.897360242393596 M28.638843014257226 26.897360242393596 C27.010817703121518 26.897360242393596, 25.38279239198581 26.897360242393596, 23.978612957031856 26.897360242393596 M28.638843014257226 26.897360242393596 C26.982427328110983 26.897360242393596, 25.32601164196474 26.897360242393596, 23.978612957031856 26.897360242393596 M23.978612957031856 26.897360242393596 C23.94504843324243 32.23463732472854, 23.911483909453004 37.57191440706349, 23.871645166888964 43.906889066917394 M23.978612957031856 26.897360242393596 C23.95337942077677 30.909881784646714, 23.928145884521683 34.92240332689983, 23.871645166888964 43.906889066917394 M23.871645166888964 43.906889066917394 C26.200140610020938 43.906889066917394, 28.528636053152916 43.906889066917394, 33.99792930041617 43.906889066917394 M23.871645166888964 43.906889066917394 C26.616728362168597 43.906889066917394, 29.361811557448227 43.906889066917394, 33.99792930041617 43.906889066917394 M33.99792930041617 43.906889066917394 C34.910721109635524 43.906889066917394, 35.65593004763101 42.98923508541882, 35.65593004763101 41.86521872530573 M33.99792930041617 43.906889066917394 C34.910721109635524 43.906889066917394, 35.65593004763101 42.98923508541882, 35.65593004763101 41.86521872530573 M35.65593004763101 41.86521872530573 C35.65593004763101 28.413784873566797, 35.65593004763101 14.962351021827864, 35.65593004763101 2.041670341611659 M35.65593004763101 41.86521872530573 C35.65593004763101 28.75003468200984, 35.65593004763101 15.634850638713946, 35.65593004763101 2.041670341611659 M35.65593004763101 2.041670341611659 C35.65593004763101 0.9176539814985735, 34.910721109635524 0, 33.99792930041617 0 M35.65593004763101 2.041670341611659 C35.65593004763101 0.9176539814985735, 34.910721109635524 0, 33.99792930041617 0 M33.99792930041617 0 C33.99792930041617 0, 33.99792930041617 0, 33.99792930041617 0 M33.99792930041617 0 C33.99792930041617 0, 33.99792930041617 0, 33.99792930041617 0" stroke="#000000" stroke-width="2" fill="none" vector-effect="non-scaling-stroke" data-shape-part="outline" stroke-opacity="1" fill-opacity="0.24"></path></g></g></g><g><g transform="translate(1055.4475255811726, 1016.3958660477798)  rotate(0)  "><g><path d="M1.9467789348418885 13.617426049657354 C1.9467789348418885 13.617426049657354, 1.9467789348418885 13.617426049657354, 1.9467789348418885 13.617426049657354 M1.9467789348418885 13.617426049657354 C1.9467789348418885 13.617426049657354, 1.9467789348418885 13.617426049657354, 1.9467789348418885 13.617426049657354 M2.0799243157095013 25.658284503586362 C4.6820195837042995 22.66491631470586, 7.284114851699099 19.671548125825357, 11.264750721576602 15.092350380467554 M2.0799243157095013 25.658284503586362 C4.352548314517749 23.043929653865074, 6.625172313325997 20.42957480414379, 11.264750721576602 15.092350380467554 M1.557010667586603 38.45385253773814 C4.907013512526821 34.600115100818414, 8.25701635746704 30.746377663898684, 10.741837073453706 27.88791841461933 M1.557010667586603 38.45385253773814 C4.963269930383346 34.53539949501284, 8.369529193180089 30.616946452287543, 10.741837073453706 27.88791841461933 M8.906805367349794 42.19290560921665 C9.665771254419397 41.31981523057331, 10.424737141489 40.44672485192997, 10.874982454321314 39.92877686854834 M8.906805367349794 42.19290560921665 C9.669740073638852 41.315249626329276, 10.432674779927913 40.43759364344191, 10.874982454321314 39.92877686854834" stroke="none" stroke-width="1" fill="none" vector-effect="non-scaling-stroke" data-shape-part="fill" stroke-opacity="0.24" fill-opacity="0.24"></path><path d="M10.954592088323508 41.735584061842076 C8.393727878220016 41.735584061842076, 5.832863668116525 41.735584061842076, 1.8407890114970409 41.735584061842076 M10.954592088323508 41.735584061842076 C7.708773324469437 41.735584061842076, 4.462954560615366 41.735584061842076, 1.8407890114970409 41.735584061842076 M1.8407890114970409 41.735584061842076 C1.8407890114970409 32.83158133895654, 1.8407890114970409 23.927578616070996, 1.8407890114970409 13.739353508957043 M1.8407890114970409 41.735584061842076 C1.8407890114970409 31.10918124146083, 1.8407890114970409 20.482778421079587, 1.8407890114970409 13.739353508957043 M1.8407890114970409 13.739353508957043 C3.8945701263397483 13.739353508957043, 5.948351241182456 13.739353508957043, 10.954592088323508 13.739353508957043 M1.8407890114970409 13.739353508957043 C4.541304129960843 13.739353508957043, 7.241819248424645 13.739353508957043, 10.954592088323508 13.739353508957043 M10.954592088323508 13.739353508957043 C10.954592088323508 19.72140922949337, 10.954592088323508 25.703464950029698, 10.954592088323508 41.735584061842076 M10.954592088323508 13.739353508957043 C10.954592088323508 20.231335675993243, 10.954592088323508 26.72331784302944, 10.954592088323508 41.735584061842076 M10.954592088323508 41.735584061842076 C10.954592088323508 41.735584061842076, 10.954592088323508 41.735584061842076, 10.954592088323508 41.735584061842076 M10.954592088323508 41.735584061842076 C10.954592088323508 41.735584061842076, 10.954592088323508 41.735584061842076, 10.954592088323508 41.735584061842076" stroke="#000000" stroke-width="2" fill="none" vector-effect="non-scaling-stroke" data-shape-part="outline" stroke-opacity="1" fill-opacity="0.24"></path></g><g><path d="M2.1252227014470058 1.8474279092738564 C2.1252227014470058 1.8474279092738564, 2.1252227014470058 1.8474279092738564, 2.1252227014470058 1.8474279092738564 M2.1252227014470058 1.8474279092738564 C2.1252227014470058 1.8474279092738564, 2.1252227014470058 1.8474279092738564, 2.1252227014470058 1.8474279092738564 M5.538663227267152 10.114738462089003 C7.587313930347083 7.758035415834742, 9.635964633427013 5.401332369580481, 12.099253517172226 2.5676426598612823 M5.538663227267152 10.114738462089003 C7.470841106968125 7.892022072149727, 9.4030189866691 5.669305682210451, 12.099253517172226 2.5676426598612823" stroke="none" stroke-width="1" fill="none" vector-effect="non-scaling-stroke" data-shape-part="fill" stroke-opacity="0.24" fill-opacity="0.24"></path><path d="M12.031548279040923 4.812112730884358 C12.031548279040923 5.090650933032993, 12.003035744766787 5.373420756344206, 11.947290737598692 5.647727337330263 C11.891545730430597 5.92203391831632, 11.806874466534076 6.196211923634656, 11.697078236032354 6.4579522168007015 C11.587282005530632 6.719692509966747, 11.449024705519491 6.976947937341374, 11.288513354588364 7.2181690963265375 C11.128002003657237 7.459390255311701, 10.940359545630747 7.691906528759367, 10.734010130445593 7.90527917071168 C10.52766071526044 8.118651812663991, 10.296334520354067 8.319364042874904, 10.050416863477448 8.498404948040411 C9.804499206600829 8.677445853205919, 9.536518004190103 8.840255500630404, 9.258504189185874 8.979524601704721 C8.980490374181645 9.118793702779039, 8.683996637496785 9.238753878665763, 8.38233397345207 9.334019554486314 C8.080671309407355 9.429285230306865, 7.76467385060446 9.50275100541429, 7.448528204917586 9.551118656628024 C7.132382559230711 9.599486307841758, 6.806482801193078 9.624225461768717, 6.485460099330824 9.624225461768717 C6.1644373974685704 9.624225461768717, 5.838537639430937 9.599486307841758, 5.522391993744063 9.551118656628024 C5.2062463480571886 9.50275100541429, 4.890248889254294 9.429285230306867, 4.588586225209579 9.334019554486316 C4.286923561164865 9.238753878665765, 3.9904298244800063 9.11879370277904, 3.7124160094757768 8.979524601704723 C3.4344021944715473 8.840255500630406, 3.166420992060822 8.67744585320592, 2.9205033351842022 8.498404948040413 C2.6745856783075825 8.319364042874906, 2.44325948340121 8.118651812663995, 2.2369100682160576 7.905279170711682 C2.0305606530309053 7.69190652875937, 1.8429181950044138 7.459390255311703, 1.6824068440732871 7.218169096326541 C1.5218954931421604 6.976947937341379, 1.3836381931310189 6.719692509966752, 1.2738419626292972 6.457952216800706 C1.1640457321275754 6.19621192363466, 1.0793744682310524 5.922033918316325, 1.0236294610629573 5.647727337330268 C0.9678844538948622 5.373420756344212, 0.9393719196207271 5.090650933033, 0.9393719196207266 4.812112730884365 C0.9393719196207262 4.5335745287357305, 0.9678844538948606 4.250804705424518, 1.0236294610629546 3.9764981244384616 C1.0793744682310487 3.7021915434524044, 1.1640457321275701 3.428013538134069, 1.273841962629291 3.166273244968023 C1.3836381931310118 2.9045329518019773, 1.5218954931421529 2.6472775244273508, 1.6824068440732791 2.4060563654421876 C1.8429181950044053 2.1648352064570244, 2.0305606530308955 1.9323189330093575, 2.236910068216048 1.718946291057045 C2.4432594834012002 1.5055736491047325, 2.6745856783075723 1.3048614188938195, 2.920503335184192 1.125820513728312 C3.1664209920608117 0.9467796085628044, 3.4344021944715357 0.7839699611383176, 3.7124160094757648 0.6447008600639998 C3.990429824479994 0.5054317589896821, 4.286923561164853 0.38547158310295576, 4.588586225209567 0.29020590728240503 C4.890248889254281 0.1949402314618543, 5.206246348057175 0.12147445635442974, 5.522391993744049 0.07310680514069556 C5.838537639430922 0.02473915392696139, 6.164437397468555 8.881784197001252e-16, 6.485460099330808 0 C6.806482801193061 -8.881784197001252e-16, 7.132382559230694 0.02473915392695769, 7.448528204917569 0.07310680514069023 C7.764673850604443 0.12147445635442278, 8.080671309407338 0.19494023146184603, 8.382333973452052 0.29020590728239526 C8.683996637496767 0.3854715831029445, 8.980490374181628 0.5054317589896692, 9.258504189185857 0.6447008600639856 C9.536518004190086 0.7839699611383021, 9.804499206600811 0.9467796085627881, 10.050416863477432 1.1258205137282942 C10.296334520354053 1.3048614188938004, 10.527660715260426 1.505573649104711, 10.73401013044558 1.7189462910570223 C10.940359545630733 1.9323189330093338, 11.128002003657226 2.164835206457, 11.288513354588353 2.4060563654421623 C11.44902470551948 2.6472775244273246, 11.587282005530623 2.9045329518019507, 11.697078236032345 3.1662732449679956 C11.806874466534067 3.4280135381340404, 11.891545730430593 3.7021915434523756, 11.947290737598689 3.9764981244384323 C12.003035744766784 4.250804705424489, 12.017505355467216 4.672843629810015, 12.031548279040923 4.812112730884336 C12.045591202614629 4.951381831958657, 12.045591202614627 4.672843629810037, 12.031548279040923 4.812112730884358" stroke="#000000" stroke-width="2" fill="none" vector-effect="non-scaling-stroke" data-shape-part="outline" stroke-opacity="1" fill-opacity="0.24"></path></g><g><path d="M46.49889837511556 41.735584061842076 C43.875378981322875 41.735584061842076, 41.2518595875302 41.735584061842076, 37.162113148890946 41.735584061842076 M46.49889837511556 41.735584061842076 C43.173666040612666 41.735584061842076, 39.84843370610977 41.735584061842076, 37.162113148890946 41.735584061842076 M37.162113148890946 41.735584061842076 C37.162113148890946 36.455303521473795, 37.162113148890946 31.17502298110551, 37.162113148890946 25.133168722041297 M37.162113148890946 41.735584061842076 C37.162113148890946 35.43388023572398, 37.162113148890946 29.13217640960589, 37.162113148890946 25.133168722041297 M37.162113148890946 25.133168722041297 C37.162113148890946 25.099780254791824, 37.29969789053755 22.462091342083404, 35.601237976417416 20.888659822951958 M37.162113148890946 25.133168722041297 C37.162113148890946 25.099780254791824, 37.29969789053755 22.462091342083404, 35.601237976417416 20.888659822951958 M35.601237976417416 20.888659822951958 C34.756752320793446 20.104030842589324, 33.58965416751537 19.707542794001828, 32.13789792807191 19.707542794001828 M35.601237976417416 20.888659822951958 C34.756752320793446 20.104030842589324, 33.58965416751537 19.707542794001828, 32.13789792807191 19.707542794001828 M32.13789792807191 19.707542794001828 C28.484785822282806 19.707542794001828, 26.639252563643897 22.019694151027878, 25.85644282668909 23.42200977550577 M32.13789792807191 19.707542794001828 C28.484785822282806 19.707542794001828, 26.639252563643897 22.019694151027878, 25.85644282668909 23.42200977550577 M25.85644282668909 23.42200977550577 C25.85644282668909 27.47657189761515, 25.85644282668909 31.531134019724526, 25.85644282668909 41.735584061842076 M25.85644282668909 23.42200977550577 C25.85644282668909 27.84817097647047, 25.85644282668909 32.27433217743517, 25.85644282668909 41.735584061842076 M25.85644282668909 41.735584061842076 C23.765080693825443 41.735584061842076, 21.67371856096179 41.735584061842076, 16.73789546652461 41.735584061842076 M25.85644282668909 41.735584061842076 C23.978539638038054 41.735584061842076, 22.100636449387018 41.735584061842076, 16.73789546652461 41.735584061842076 M16.73789546652461 41.735584061842076 C16.73789546652461 30.66125016151291, 16.73789546652461 19.58691626118374, 16.73789546652461 13.739354273158412 M16.73789546652461 41.735584061842076 C16.73789546652461 31.055802901942656, 16.73789546652461 20.376021742043235, 16.73789546652461 13.739354273158412 M16.73789546652461 13.739354273158412 C20.372343625534334 13.739354273158412, 24.00679178454406 13.739354273158412, 25.856442826689094 13.739354273158412 M16.73789546652461 13.739354273158412 C20.30904055298588 13.739354273158412, 23.880185639447156 13.739354273158412, 25.856442826689094 13.739354273158412 M25.856442826689094 13.739354273158412 C25.856442826689094 14.55613252799836, 25.856442826689094 15.372910782838307, 25.856442826689094 16.10576188946486 M25.856442826689094 13.739354273158412 C25.856442826689094 14.34280914604551, 25.856442826689094 14.94626401893261, 25.856442826689094 16.10576188946486 M25.856442826689094 16.10576188946486 C28.84060842998954 13.977247102310912, 32.19008524386889 12.850386332641175, 35.568027866364794 12.850386332641175 M25.856442826689094 16.10576188946486 C28.84060842998954 13.977247102310912, 32.19008524386889 12.850386332641175, 35.568027866364794 12.850386332641175 M35.568027866364794 12.850386332641175 C44.21688938435639 12.850386332641175, 46.49889837511555 18.793533503047485, 46.49889837511555 21.93204942449801 M35.568027866364794 12.850386332641175 C44.21688938435639 12.850386332641175, 46.49889837511555 18.793533503047485, 46.49889837511555 21.93204942449801 M46.49889837511555 21.93204942449801 C46.49889837511555 27.68565507891207, 46.49889837511556 33.43926073332613, 46.49889837511556 41.735584061842076 M46.49889837511555 21.93204942449801 C46.49889837511555 27.14885065860173, 46.49889837511556 32.36565189270546, 46.49889837511556 41.735584061842076 M46.49889837511556 41.735584061842076 C46.49889837511556 41.735584061842076, 46.49889837511556 41.735584061842076, 46.49889837511556 41.735584061842076 M46.49889837511556 41.735584061842076 C46.49889837511556 41.735584061842076, 46.49889837511556 41.735584061842076, 46.49889837511556 41.735584061842076 M46.49889837511556 41.735584061842076 C46.49889837511556 41.735584061842076, 46.49889837511556 41.735584061842076, 46.49889837511556 41.735584061842076 M46.49889837511556 41.735584061842076 C46.49889837511556 41.735584061842076, 46.49889837511556 41.735584061842076, 46.49889837511556 41.735584061842076" stroke="#000000" stroke-width="2" fill="none" vector-effect="non-scaling-stroke" data-shape-part="outline" stroke-opacity="1" fill-opacity="0.24"></path></g></g></g><g transform="translate(432.36024833082655, 1046.2506679453443) rotate(0)"><text transform="translate(0, 0)" style="font-size: 17px; font-family: Roboto; fill: rgb(17, 17, 17); opacity: 1; stroke-width: 0; font-style: normal; font-weight: normal; text-decoration: none;"><tspan dominant-baseline="text-before-edge" x="0" y="0">Last Modified: dd/mm/yyyy hh:mm:s</tspan></text></g><defs><style>@import url("https://www.dafontfree.net/embed/Y29taWMtc2Fucy1tcy1yZWd1bGFyJmRhdGEvNDAvYy8xMDA5MzQvQ09NSUMuVFRG");
@import url("https://fonts.googleapis.com/css2?family=Roboto&amp;display=swap");
@import url("https://fonts.googleapis.com/css2?family=Roboto:wght@700&amp;display=swap");text {white-space: pre;};
</style></defs></svg>