<svg width="56" height="64" viewBox="984 1006 56 64" xmlns="http://www.w3.org/2000/svg" xmlns:xlink="http://www.w3.org/1999/xlink"><g><g transform="translate(994.4572078161546, 1016.3958660477798)  rotate(0)  "><g><path d="M33.99792930041617 0 C26.475385355493678 1.86823986718038, 16.614912396454663 -2.111776721984354, 1.6580007472148421 0 M33.99792930041617 0 C22.22552627336032 -0.32143529894216494, 7.095362490959246 1.0873647665752606, 1.6580007472148421 0 M1.6580007472148421 0 C-1.634752973593419 -1.14143430814147, -0.17548829689621925 1.922074504098986, 0 2.041670341611659 M1.6580007472148421 0 C-1.1142876508232407 2.340161131136119, 2.017961071617901 2.6165420492134435, 0 2.041670341611659 M0 2.041670341611659 C1.7225020887894766 15.56463532014443, 2.727873063330187 24.38108051985931, 0 41.86521872530574 M0 2.041670341611659 C0.5501211668444721 14.863035381024723, 0.8454865600062458 26.11860720234666, 0 41.86521872530574 M0 41.86521872530574 C-1.8188892044126987 41.388448880037664, 3.1942889842618056 45.44980238832304, 1.6580007472148421 43.906889066917394 M0 41.86521872530574 C-0.03572179209440973 43.6626088961795, -0.7275718333717635 42.00627439830223, 1.6580007472148421 43.906889066917394 M1.6580007472148421 43.906889066917394 C4.08582543170725 45.95295668390017, 11.501777313323117 44.30895778288928, 18.145302801239424 43.906889066917394 M1.6580007472148421 43.906889066917394 C7.5318268442977985 43.37417219134172, 13.689483863884883 42.689556081944886, 18.145302801239424 43.906889066917394 M18.145302801239424 43.906889066917394 C16.293646340062597 37.86051673387513, 18.911564516179222 34.50805514607256, 18.252270591382313 26.875406797860137 M18.145302801239424 43.906889066917394 C18.969938917455796 37.8432083604092, 19.03076865981048 30.77775485382034, 18.252270591382313 26.875406797860137 M18.252270591382313 26.875406797860137 C16.062632754274528 26.56722296604495, 14.92857569160867 26.840810463774393, 13.570646976128364 26.875406797860137 M18.252270591382313 26.875406797860137 C16.78201717027488 26.568965215357036, 15.965917176318829 27.197499835204923, 13.570646976128364 26.875406797860137 M13.570646976128364 26.875406797860137 C12.819552319254264 25.11990648914359, 14.34682415775382 24.860237393583148, 13.613434092185521 20.104964503741474 M13.570646976128364 26.875406797860137 C14.157752851361542 24.505164425855817, 13.926385564235028 22.745784231093644, 13.613434092185521 20.104964503741474 M13.613434092185521 20.104964503741474 C14.653619033845622 19.63481430088797, 15.835497383245965 20.21632301579848, 18.31645126546805 20.104964503741474 M13.613434092185521 20.104964503741474 C14.55230146453001 20.377157950976937, 15.763509081647044 19.951238988681496, 18.31645126546805 20.104964503741474 M18.31645126546805 20.104964503741474 C18.280381320111772 20.002758041678952, 18.273779132507574 19.751677683975576, 18.320016858472812 19.595644590565232 M18.31645126546805 20.104964503741474 C18.29580491357166 19.970307711030554, 18.303532970427252 19.80335899860589, 18.320016858472812 19.595644590565232 M18.320016858472812 19.595644590565232 C17.50551774166571 17.313793079065864, 17.317790518506218 14.511719496008254, 18.355672788520444 15.49913184062184 M18.320016858472812 19.595644590565232 C21.044669710658955 19.818488352070336, 16.663313717386472 16.76205264480809, 18.355672788520444 15.49913184062184 M18.355672788520444 15.49913184062184 C20.455664262525726 16.757689548176394, 21.122379958389093 15.761116769268943, 18.5339524387586 12.904234696767023 M18.355672788520444 15.49913184062184 C18.005960559636343 13.010247374777364, 18.141227813755858 11.165943178452386, 18.5339524387586 12.904234696767023 M18.5339524387586 12.904234696767023 C16.291288064305828 12.967956293201905, 22.607006033125618 10.123271076903624, 21.04056432110706 7.84616107625814 M18.5339524387586 12.904234696767023 C17.21907695613538 13.365553797422807, 22.536132280330456 6.57634990174411, 21.04056432110706 7.84616107625814 M21.04056432110706 7.84616107625814 C23.533944715364 9.026655302888848, 25.22313791997827 6.412060710665308, 25.16952102062273 6.265513069849114 M21.04056432110706 7.84616107625814 C20.631746343514045 8.909047733753122, 21.48816816937275 3.9872292314362756, 25.16952102062273 6.265513069849114 M25.16952102062273 6.265513069849114 C27.871879628265802 8.879654803872425, 22.651183680164394 7.846466818452198, 25.62591692523241 6.261122380942423 M25.16952102062273 6.265513069849114 C27.808386009337905 8.779175535403509, 24.01641541710007 5.247640440427084, 25.62591692523241 6.261122380942423 M25.62591692523241 6.261122380942423 C25.758306752934512 6.5750507503751106, 24.90241059269427 5.159263556249246, 28.082610505514186 6.362108225796333 M25.62591692523241 6.261122380942423 C29.728381778530235 4.866611281596441, 29.220813177522707 5.270435809701487, 28.082610505514186 6.362108225796333 M28.082610505514186 6.362108225796333 C27.18187434135208 7.8568220853281066, 30.82020538968221 6.7308104907765305, 29.644340241600425 6.550907848784077 M28.082610505514186 6.362108225796333 C25.35655377807299 9.00791204026312, 30.58342005775497 5.066053030979566, 29.644340241600425 6.550907848784077 M29.644340241600425 6.550907848784077 C29.29744225216113 8.815413189939385, 30.230520727994197 9.700040244762757, 29.60511871854803 12.610058540018677 M29.644340241600425 6.550907848784077 C29.69637713779155 8.46734431535278, 29.247983136378792 10.608216588136713, 29.60511871854803 12.610058540018677 M29.60511871854803 12.610058540018677 C29.590218857040195 10.312660811009287, 29.648356637927265 12.467899797024607, 29.21290348802409 12.610058540018677 M29.60511871854803 12.610058540018677 C31.58541269257435 14.914295880223095, 29.174782657633095 14.0782970172413, 29.21290348802409 12.610058540018677 M29.21290348802409 12.610058540018677 C31.66539808618275 14.30253612762916, 29.71816035321395 10.62161641649516, 27.59412426386164 12.601277162205294 M29.21290348802409 12.610058540018677 C30.7400643443167 14.517482511425792, 27.795052600451214 13.187282806519285, 27.59412426386164 12.601277162205294 M27.59412426386164 12.601277162205294 C24.647174209721197 15.4555661015919, 28.16612778264909 9.833488012842038, 26.378257049237426 12.623230606738753 M27.59412426386164 12.601277162205294 C29.610727563306497 15.239497017744794, 29.895381399019353 15.734803821697035, 26.378257049237426 12.623230606738753 M26.378257049237426 12.623230606738753 C23.875368366765088 11.731142699938035, 24.823425734660876 10.874914733162308, 24.046359224122355 15.283988084193949 M26.378257049237426 12.623230606738753 C26.850895363653308 12.994809491220629, 23.383107736765695 13.884838334871615, 24.046359224122355 15.283988084193949 M24.046359224122355 15.283988084193949 C25.28005617654831 13.890994482903132, 21.552272747398206 22.167036276739598, 23.97504736402709 20.08740174811471 M24.046359224122355 15.283988084193949 C26.15431523959101 17.850226617088865, 25.346622026839146 21.70110417032665, 23.97504736402709 20.08740174811471 M23.97504736402709 20.08740174811471 C26.183230813156612 21.130615953767187, 24.326459349479794 19.383827782009508, 26.627848559570836 20.0917924370214 M23.97504736402709 20.08740174811471 C26.156652240205354 20.956321023629492, 23.835886672858418 18.250154591497743, 26.627848559570836 20.0917924370214 M26.627848559570836 20.0917924370214 C28.9285766843764 19.656437135075, 30.87568178653411 17.943115330074694, 28.35359557387618 20.08740174811471 M26.627848559570836 20.0917924370214 C24.065262648282747 18.92460085838732, 24.90676979545198 18.592393804487553, 28.35359557387618 20.08740174811471 M28.35359557387618 20.08740174811471 C25.757116932505998 22.681350473725683, 27.526426618979308 18.12893259938944, 29.409011103286055 20.08740174811471 M28.35359557387618 20.08740174811471 C27.234841481121514 17.82303669326145, 28.761929830037985 21.30443361275036, 29.409011103286055 20.08740174811471 M29.409011103286055 20.08740174811471 C29.793103157702834 21.412780656985927, 30.50757311311069 27.629174241819843, 28.638843014257226 26.897360242393596 M29.409011103286055 20.08740174811471 C31.65331221387908 19.26413134051858, 28.15641791791174 25.916746793152257, 28.638843014257226 26.897360242393596 M28.638843014257226 26.897360242393596 C27.788632714489975 26.997558998969893, 26.34985749067107 26.6107515233028, 23.978612957031856 26.897360242393596 M28.638843014257226 26.897360242393596 C27.819646506725174 27.019661874263004, 26.736007938556515 27.27247023896708, 23.978612957031856 26.897360242393596 M23.978612957031856 26.897360242393596 C25.5760471262015 28.19510259885861, 25.82770581712767 36.07583901940336, 23.871645166888964 43.906889066917394 M23.978612957031856 26.897360242393596 C24.898527660441818 30.728021451997343, 23.23139605396363 34.61696149887554, 23.871645166888964 43.906889066917394 M23.871645166888964 43.906889066917394 C28.07232891065138 43.973240906538386, 31.828142416214305 44.460181910594244, 33.99792930041617 43.906889066917394 M23.871645166888964 43.906889066917394 C25.73553614261393 43.791774351757454, 28.08387474583632 44.22594362102101, 33.99792930041617 43.906889066917394 M33.99792930041617 43.906889066917394 C36.584539396143846 44.78939711011717, 35.20168334409569 40.04660873206556, 35.65593004763101 41.86521872530573 M33.99792930041617 43.906889066917394 C35.466512987031926 45.336602868770754, 35.570859311111015 42.039712528868016, 35.65593004763101 41.86521872530573 M35.65593004763101 41.86521872530573 C33.4422611615019 29.952064840814433, 35.928669275935185 12.760029589027155, 35.65593004763101 2.041670341611659 M35.65593004763101 41.86521872530573 C34.51020768346662 32.72698212289905, 34.73970660629148 22.845560594504054, 35.65593004763101 2.041670341611659 M35.65593004763101 2.041670341611659 C37.39537197515343 1.5189374162770255, 37.46340130028813 -1.5745170079171658, 33.99792930041617 0 M35.65593004763101 2.041670341611659 C33.91886750269656 -0.028452549413646944, 36.502367445840825 -1.139705033786595, 33.99792930041617 0 M33.99792930041617 0 C33.99792930041617 0, 33.99792930041617 0, 33.99792930041617 0 M33.99792930041617 0 C33.99792930041617 0, 33.99792930041617 0, 33.99792930041617 0" stroke="#000000" stroke-width="2" fill="none" vector-effect="non-scaling-stroke" data-shape-part="outline" stroke-opacity="1" fill-opacity="0.24"></path></g></g></g><defs><style>@import url("https://www.dafontfree.net/embed/Y29taWMtc2Fucy1tcy1yZWd1bGFyJmRhdGEvNDAvYy8xMDA5MzQvQ09NSUMuVFRG");text {white-space: pre;};
</style></defs></svg>