<svg width="1153" height="1080" viewBox="0 0 1153 1080" xmlns="http://www.w3.org/2000/svg" xmlns:xlink="http://www.w3.org/1999/xlink"><g><g transform="translate(421.94747730991764, 108.80988836181896)  rotate(0)  "><g><path d="M0 39.016280119259754 C3.8643171938103387 90.28898551831885, 3.3611773403328606 144.89687103233265, 0 188.58286026956833 M0 39.016280119259754 C-1.6178559917298663 72.59661901366829, 0.06225988685213446 104.63585358577745, 0 188.58286026956833 M0 188.58286026956833 C79.30338228215432 188.52340681631472, 155.37349403202094 185.92552481672297, 308.1398504551869 188.58286026956833 M0 188.58286026956833 C104.37343017331068 190.59915809625053, 211.05867328327153 189.91076630348778, 308.1398504551869 188.58286026956833 M308.1398504551869 188.58286026956833 C307.68876177156255 131.76359732982868, 307.87975186193273 79.33646292842937, 308.1398504551869 39.01628011925974 M308.1398504551869 188.58286026956833 C308.19870246718096 158.07914198127818, 307.8839872605579 123.665034383239, 308.1398504551869 39.01628011925974 M308.1398504551869 39.01628011925974 C224.2236595216226 38.565616148084786, 136.0215538846722 40.83684270442418, 0 39.01628011925974 M308.1398504551869 39.01628011925974 C239.44461213849357 38.084144857548836, 169.04020899753257 37.56199268759901, 0 39.01628011925974 M0 39.01628011925974 C-4.886936003636091e-16 39.01628011925974, -1.3762732524733201e-15 39.01628011925975, 0 39.016280119259754 M0 39.01628011925974 C4.3507072671147313e-16 39.01628011925975, 6.264277938256021e-16 39.01628011925975, 0 39.016280119259754 M21.53959182651847 48.85013082804208 C25.889932372691483 47.18317435314869, 28.840790135833256 50.78079594313983, 27.888813445147598 53.53590845207267 M21.53959182651847 48.85013082804208 C27.573303441042455 47.48801472285752, 30.29027635105961 49.62989113438759, 27.888813445147598 53.53590845207267 M27.888813445147598 53.53590845207267 C29.953282856820916 57.03633891522855, 26.90235172830332 61.180828334248744, 21.53959182651847 58.2260108490002 M27.888813445147598 53.53590845207267 C27.75100045322517 55.66243494499445, 24.583804558252876 57.890382829352404, 21.53959182651847 58.2260108490002 M21.53959182651847 58.2260108490002 C15.932192267295818 60.271536947644435, 12.664418487411034 57.00400756776304, 15.190370207889343 53.53590845207267 M21.53959182651847 58.2260108490002 C19.400430097808044 55.47985360328772, 15.717703044388484 56.60285742629291, 15.190370207889343 53.53590845207267 M15.190370207889343 53.53590845207267 C14.81960530019557 50.787303697465696, 16.369935109235787 47.304923396613354, 21.53959182651847 48.8501308280421 M15.190370207889343 53.53590845207267 C12.780552695870455 49.179040319806674, 19.988432130545817 50.37463905313974, 21.53959182651847 48.8501308280421 M21.53959182651847 48.8501308280421 C21.53959182651847 48.8501308280421, 21.53959182651847 48.85013082804209, 21.53959182651847 48.85013082804208 M21.53959182651847 48.8501308280421 C21.53959182651847 48.85013082804209, 21.53959182651847 48.85013082804209, 21.53959182651847 48.85013082804208 M286.6014911880702 48.85013082804208 C292.51061109310706 51.02160606911396, 292.8400508569813 50.15098501384143, 292.95071280669936 53.53590845207267 M286.6014911880702 48.85013082804208 C293.09132941501906 47.27572308281427, 294.32241918447227 49.85252133119736, 292.95071280669936 53.53590845207267 M292.95071280669936 53.53590845207267 C291.8692954395412 55.93563794076413, 290.027512718006 58.882880808270656, 286.6014911880702 58.2260108490002 M292.95071280669936 53.53590845207267 C290.25411935322717 57.67077547658205, 289.2515041848784 59.67497820560553, 286.6014911880702 58.2260108490002 M286.6014911880702 58.2260108490002 C284.9970543373208 57.28443765775033, 279.4564953706684 54.403157820105264, 280.25226956944107 53.53590845207267 M286.6014911880702 58.2260108490002 C282.6014348925854 59.33822083775618, 283.2243774329769 57.638187513239394, 280.25226956944107 53.53590845207267 M280.25226956944107 53.53590845207267 C279.6368324825252 48.216540467141904, 280.11994351104784 51.01640580227589, 286.6014911880702 48.8501308280421 M280.25226956944107 53.53590845207267 C281.25473635417325 53.65432878840599, 286.4999992498471 47.48697338202959, 286.6014911880702 48.8501308280421 M286.6014911880702 48.8501308280421 C286.6014911880702 48.85013082804209, 286.6014911880702 48.85013082804209, 286.6014911880702 48.85013082804208 M286.6014911880702 48.8501308280421 C286.6014911880702 48.85013082804209, 286.6014911880702 48.85013082804208, 286.6014911880702 48.85013082804208 M21.53959182651848 169.39520864356496 C25.978994122369187 168.95378231779125, 25.91490139949213 169.69335688085442, 27.88881344514761 174.08531104049248 M21.53959182651848 169.39520864356496 C26.660903196072177 168.78667903487025, 29.372331519118354 174.5026613583151, 27.88881344514761 174.08531104049248 M27.88881344514761 174.08531104049248 C24.96490548369551 175.67984925479863, 22.763281681659077 180.5498936353171, 21.539591826518482 178.77108866452306 M27.88881344514761 174.08531104049248 C25.68347706445569 173.74862412949327, 21.995258066887413 178.28198499231726, 21.539591826518482 178.77108866452306 M21.539591826518482 178.77108866452306 C17.39692540369228 179.07565321306825, 16.217716762788662 176.7528111812589, 15.190370207889355 174.08531104049248 M21.539591826518482 178.77108866452306 C16.498762885064338 180.17271652369888, 15.660784213423796 178.46172078986888, 15.190370207889355 174.08531104049248 M15.190370207889355 174.08531104049248 C17.745961813788913 171.550259837817, 19.999114574310294 171.84616887346294, 21.539591826518482 169.39520864356496 M15.190370207889355 174.08531104049248 C17.968684214327535 174.7832562377039, 21.468333515156914 171.01366248075303, 21.539591826518482 169.39520864356496 M21.539591826518482 169.39520864356496 C21.539591826518482 169.39520864356496, 21.539591826518482 169.39520864356496, 21.53959182651848 169.39520864356496 M21.539591826518482 169.39520864356496 C21.539591826518482 169.39520864356496, 21.53959182651848 169.39520864356496, 21.53959182651848 169.39520864356496 M286.6014911880702 169.39520864356496 C287.91764311866365 168.53540098444012, 291.29145856839403 172.54037548036462, 292.95071280669936 174.08531104049248 M286.6014911880702 169.39520864356496 C289.922842057622 167.6933834428006, 291.16270608776045 168.12938281794226, 292.95071280669936 174.08531104049248 M292.95071280669936 174.08531104049248 C295.0455680297947 174.3975305435178, 291.01866880661566 181.3977209506476, 286.6014911880702 178.77108866452306 M292.95071280669936 174.08531104049248 C290.13856549265597 179.7780603184295, 291.97143356936743 180.20558374076276, 286.6014911880702 178.77108866452306 M286.6014911880702 178.77108866452306 C283.0981171245961 180.35713149885774, 279.51794946879994 177.3416815874097, 280.25226956944107 174.08531104049248 M286.6014911880702 178.77108866452306 C285.42854384866496 179.58552902489097, 281.7949286184917 179.90221635838273, 280.25226956944107 174.08531104049248 M280.25226956944107 174.08531104049248 C279.29619833449743 172.0732694956768, 283.26020848637626 167.16631674543407, 286.6014911880702 169.39520864356496 M280.25226956944107 174.08531104049248 C281.7172006820785 173.67758958240188, 286.3951147915627 169.22857440058527, 286.6014911880702 169.39520864356496 M286.6014911880702 169.39520864356496 C286.6014911880702 169.39520864356496, 286.6014911880702 169.39520864356496, 286.6014911880702 169.39520864356496 M286.6014911880702 169.39520864356496 C286.6014911880702 169.39520864356496, 286.6014911880702 169.39520864356496, 286.6014911880702 169.39520864356496" stroke="#000000" stroke-width="2" fill="none" vector-effect="non-scaling-stroke" data-shape-part="outline" stroke-opacity="1" fill-opacity="0.24"></path></g></g><g transform="translate(437.354469832677, 131.57185097733716) rotate(0)"><text transform="translate(0, 79)" style="font-size: 24px; font-family: &quot;Comic Sans MS&quot;; fill: rgb(17, 17, 17); opacity: 1; stroke-width: 0; font-style: normal; font-weight: normal; text-decoration: none;"></text></g></g><g><g transform="translate(11.356142977530567, 103.19016094580681)  rotate(0)  "><g><path d="M2.818550948984921 -1.7271415488794446 L1127.5790460724918 -0.1563792424276471 L1127.8463408072082 878.7952403373051 L-1.5847955597564578 876.70101507967" stroke="none" stroke-width="0" fill="#616161" vector-effect="non-scaling-stroke" data-shape-part="fill" stroke-opacity="0.03" fill-opacity="0.03"></path><path d="M0 0 C238.20447203433457 -5.791862694955512, 478.6021869244117 -4.839232139325781, 1128.428752032162 0 M0 0 C371.1858859771615 2.0043284194344766, 741.8238739231106 1.568884284960676, 1128.428752032162 0 M1128.428752032162 0 C1132.9199132790677 238.14680220752706, 1132.6551899423712 474.64297231785457, 1128.428752032162 876.3674800836448 M1128.428752032162 0 C1124.9518537542745 322.6486108489953, 1125.3202867231294 644.5634405191363, 1128.428752032162 876.3674800836448 M1128.428752032162 876.3674800836448 C856.6243455387909 871.413839203188, 585.5237424375467 871.6292528093549, 0 876.3674800836448 M1128.428752032162 876.3674800836448 C721.5701857299699 870.8226276283048, 314.85571648085124 871.3387814705155, 0 876.3674800836448 M0 876.3674800836448 C2.525383989077236 689.2446275214845, 1.1453263323122518 502.4964324691728, 0 0 M0 876.3674800836448 C-2.9380425081106156 634.900204366233, -2.629209224924657 393.3509124946287, 0 0" stroke="#000000" stroke-width="2" fill="none" vector-effect="non-scaling-stroke" data-shape-part="outline" stroke-opacity="1" fill-opacity="0.03"></path></g></g><g transform="translate(67.77758057913867, 147.00853494998904) rotate(0)"><text transform="translate(0, 382)" style="font-size: 24px; font-family: &quot;Comic Sans MS&quot;; fill: rgb(17, 17, 17); opacity: 1; stroke-width: 0; font-style: normal; font-weight: normal; text-decoration: none;"></text></g></g><g><g transform="translate(11.356142977530567, -0.07233032341628132)  rotate(0)  "><g><path d="M-0.3530573146417737 -2.429635073058307 L1129.5141404346166 0.783574883826077 L1128.3719692007242 84.03022092999463 L2.036499540321529 82.8635881287003" stroke="none" stroke-width="0" fill="#616161" vector-effect="non-scaling-stroke" data-shape-part="fill" stroke-opacity="0.1" fill-opacity="0.1"></path><path d="M0 0 C345.982064609493 1.877319483050813, 692.6845026211494 2.9283577125162976, 1128.428752032162 0 M0 0 C430.3271362983946 -1.033352584486979, 860.8043210771583 -1.3198890217600048, 1128.428752032162 0 M1128.428752032162 0 C1125.8054314451265 28.38390404109787, 1131.0334996478605 54.86225765166692, 1128.428752032162 82.99427726817821 M1128.428752032162 0 C1127.774714928275 34.13664461523723, 1127.5613587462958 67.03489228553065, 1128.428752032162 82.99427726817821 M1128.428752032162 82.99427726817821 C786.016526943788 77.84013416912248, 443.6730338648695 77.5123126878946, 0 82.99427726817821 M1128.428752032162 82.99427726817821 C831.0424743460416 82.77417173096762, 533.1688572566271 82.77425142833815, 0 82.99427726817821 M0 82.99427726817821 C-1.4280266658085243 63.234273987380135, -2.2820755437630074 45.558439488108455, 0 0 M0 82.99427726817821 C0.32315638642929445 58.58729595221321, -1.1587573440728343 32.647765997721855, 0 0" stroke="#000000" stroke-width="2" fill="none" vector-effect="non-scaling-stroke" data-shape-part="outline" stroke-opacity="1" fill-opacity="0.1"></path></g></g><g transform="translate(67.77758057913867, 4.0773835399926295) rotate(0)"><text transform="translate(0, 25)" style="font-size: 24px; font-family: &quot;Comic Sans MS&quot;; fill: rgb(17, 17, 17); opacity: 1; stroke-width: 0; font-style: normal; font-weight: normal; text-decoration: none;"></text></g></g><g><g transform="translate(42.96710969259886, -0.07233032341628132)  rotate(0)  "><g><path d="M61.32811940959171 7.645681323245732 C67.67992505183481 10.795649450770682, 75.18027440163803 17.207964821805792, 78.12774648218351 23.562275869328257 C81.07521856272899 29.916586916850722, 80.42862818275496 38.35368494306854, 79.01295189286455 45.771547608380516 C77.59727560297414 53.189410273692495, 74.4954533018267 62.38520474254621, 69.63368874284104 68.06945186120015 C64.77192418385539 73.7536989798541, 56.946932520267055 78.09398531974084, 49.84236453895059 79.87703032030416 C42.73779655763413 81.66007532086748, 33.837515093009564 81.14169728840542, 27.006280854942247 78.76772186458008 C20.17504661687493 76.39374644075474, 13.275785824516198 71.07737128943455, 8.854959110546694 65.63317777735206 C4.43413239657719 60.18898426526957, 1.4195491712324944 53.17041251044144, 0.48132057112521665 46.10256079208514 C-0.45690802898206095 39.03470907372885, 0.13093073678210487 29.938866973727468, 3.225587509903029 23.22606746721427 C6.320244283023953 16.513267960701075, 12.971494114628257 9.666575698973839, 19.049261209850762 5.8257637530059725 C25.127028305073267 1.9849518070381067, 31.93757111595674 -0.3527460217423902, 39.69219008123807 0.18119579140707742 C47.44680904651939 0.7151376045565451, 60.67080859269685 6.80107814507957, 65.57697500153873 9.029414631902778 C70.4831414103806 11.257751118725986, 69.64221063350497 13.097691204892888, 69.12918853428933 13.55121471234633 M33.520572151139845 1.287007484356451 C40.16792556750384 -0.8178114005239396, 50.45808741275347 -0.7024234596554773, 57.20852607307959 1.862018654822208 C63.95896473340571 4.426460769299894, 70.02924100478646 10.37515837932893, 74.02320411309655 16.67366017122256 C78.01716722140665 22.972161963116193, 80.97978481352821 32.037989752462444, 81.17230472294018 39.653029406184 C81.36482463235215 47.26806905990555, 79.208434414376 56.44941930806915, 75.17832356956836 62.36389809355189 C71.14821272476073 68.27837687903462, 63.92801091833793 72.28500984754682, 56.9916396540944 75.13990211908042 C50.055268389850866 77.99479439061402, 40.38390602539892 80.25119807903847, 33.56009598410717 79.49325172275346 C26.736285942815424 78.73530536646844, 21.349981536618138 75.12093572636391, 16.04877940634391 70.59222398137032 C10.747577276069684 66.06351223637674, 3.857120880455548 58.95202066301615, 1.7528832024618168 52.32098125279195 C-0.35135447553191446 45.689941842567755, 1.3532777724850171 37.99269011681743, 3.4233533383815242 30.805987520025127 C5.493428904278032 23.619284923232826, 9.015616303783432 13.945833008032192, 14.173336597840859 9.200765672038138 C19.331056891898285 4.455698336044082, 30.972875957735297 3.470191233328774, 34.369675102726085 2.335583504060793 C37.76647424771687 1.2009757747928116, 34.47087048683291 1.9153593917022402, 34.55413146778558 2.3931192964302497" stroke="none" stroke-width="0" fill="#616161" vector-effect="non-scaling-stroke" data-shape-part="fill" stroke-opacity="0.26" fill-opacity="0.26"></path><path d="M16.91748245331899 8.341454335944356 C22.61445754749916 4.061241903959484, 32.338413806740526 -0.4806658413829498, 39.657990208775686 -0.8908477209182379 C46.97756661081085 -1.301029600453526, 54.59842611072871 1.9852974527959995, 60.83494086552995 5.880363058732627 C67.0714556203312 9.775428664669255, 73.58294018246507 16.004571826210086, 77.07707873758315 22.479545914701525 C80.57121729270123 28.954520003192965, 82.63723704287372 37.70989338344734, 81.79977219623844 44.73020758968126 C80.96230734960315 51.750521795915176, 76.9016797463872 58.98583358338708, 72.05228965777144 64.60143115210506 C67.20289956915568 70.21702872082305, 59.905131368650295 76.11465692966755, 52.70343166454385 78.4237930019892 C45.501731960437404 80.73292907431085, 35.84644381474186 80.00473374510682, 28.842091433132765 78.45624758603499 C21.837739051523666 76.90776142696316, 15.227648922259327 74.27912023811392, 10.67731737488926 69.1328760475582 C6.126985827519192 63.98663185700248, 2.867059741507761 55.20506043307743, 1.5401021489123607 47.57878244270067 C0.21314455631696028 39.952504452323915, -1.7001742597942693 31.155747063827622, 2.7155718193168568 23.375208105297645 C7.131317898427983 15.594669146767668, 22.090919456398787 4.780587448790593, 28.034578623579115 0.8955486915208013 C33.978237790759444 -2.98949006574899, 38.300582237838654 -0.5223122463164517, 38.377526822398835 0.0649755616788994 M14.786302329737662 11.198573996510955 C20.15821038408287 6.283761797229017, 29.920982325149765 3.362197537779731, 37.110931037924644 2.1208838580879217 C44.30087975069952 0.8795701783961121, 51.41964600374459 1.0916959489302536, 57.925994606386936 3.750691918360097 C64.43234320902928 6.409687887789941, 72.19816468702713 11.858745757392484, 76.14902265377873 18.074859674666982 C80.09988062053033 24.29097359194148, 81.85691038479209 33.54829134619243, 81.63114240689654 41.04737542200709 C81.405374429001 48.54645949782176, 79.07987730951683 57.094144356923366, 74.79441478640544 63.06936412955499 C70.50895226329405 69.04458390218662, 62.82026066494227 74.27922851613124, 55.91836726822816 76.89869405779686 C49.01647387151405 79.51815959946248, 40.18834141261008 79.74549977978678, 33.383054406120806 78.78615737954873 C26.577767399631533 77.82681497931067, 20.384322322450835 75.47867022296074, 15.086645229292529 71.14263965636849 C9.788968136134223 66.80660908977623, 4.1513550663645145 59.94961020185666, 1.5969918471709619 52.7699739799952 C-0.9573713720225903 45.59033775813374, -2.044292698999091 35.441425238840814, -0.2395340858687831 28.064822325199763 C1.5652245272615246 20.688219411558713, 9.752975195412628 11.890894721477022, 12.425543525952808 8.510356498148894 C15.098111856492988 5.129818274820767, 15.00024983014632 7.151255505726169, 15.795875897372294 7.781592985231004" stroke="#000000" stroke-width="2" fill="none" vector-effect="non-scaling-stroke" data-shape-part="outline" stroke-opacity="1" fill-opacity="0.26"></path></g></g><g transform="translate(55.093943343312944, 12.054503327297805) rotate(0)"><text transform="translate(0, 16)" style="font-size: 24px; font-family: &quot;Comic Sans MS&quot;; fill: rgb(17, 17, 17); opacity: 1; stroke-width: 0; font-style: normal; font-weight: normal; text-decoration: none;"></text></g></g><g><g id="YheH_VaDqbgHkSYEjyY83" pointer-events="auto"><g><path data-shape-part="outline" class="" d="M106.082 6.898 C96.11380161205186 22.002750543599017, 86.14560322410371 37.10750108719803, 80.549 45.588 M106.082 6.898 C98.860260300373 17.841058355013843, 91.638520600746 28.784116710027682, 80.549 45.588 M80.549 45.588 C72.62496920050141 56.534550801007455, 64.7009384010028 67.4811016020149, 60.315 73.54 M80.549 45.588 C73.40801160612646 55.45282690449506, 66.26702321225292 65.31765380899013, 60.315 73.54" stroke="#000000" stroke-width="2" stroke-opacity="1" fill="none" stroke-linecap="round" stroke-dashoffset="-3"></path></g><path d="M106.082,6.898L80.549,45.588L60.315,73.54" fill="none" fill-opacity="0" stroke="black" stroke-opacity="0" stroke-width="10" id="hit-YheH_VaDqbgHkSYEjyY83"></path></g></g><g><g id="96UWt2DFYsuy_czOTLnEp" pointer-events="auto"><g><path data-shape-part="outline" class="" d="M57.562 9.255 C70.03357460898347 23.499130980290474, 82.50514921796695 37.743261960580945, 89.681 45.939 M57.562 9.255 C70.36223304183892 23.87450088442415, 83.16246608367786 38.4940017688483, 89.681 45.939 M89.681 45.939 C97.37440298256092 54.46858789559677, 105.06780596512183 62.998175791193546, 111.146 69.737 M89.681 45.939 C96.62221220702119 53.63464258572981, 103.56342441404239 61.330285171459614, 111.146 69.737" stroke="#000000" stroke-width="2" stroke-opacity="1" fill="none" stroke-linecap="round" stroke-dashoffset="-3"></path></g><path d="M57.562,9.255L89.681,45.939L111.146,69.737" fill="none" fill-opacity="0" stroke="black" stroke-opacity="0" stroke-width="10" id="hit-96UWt2DFYsuy_czOTLnEp"></path></g></g><g><g transform="translate(11.356142977530567, 997.078053055238)  rotate(0)  "><g><path d="M1.6419454347342253 -1.6519199442118406 L1128.601124982403 -1.3853189181536436 L1127.6992538376314 83.38692908128296 L-0.3043296206742525 80.6991577013353" stroke="none" stroke-width="0" fill="#616161" vector-effect="non-scaling-stroke" data-shape-part="fill" stroke-opacity="0.1" fill-opacity="0.1"></path><path d="M0 0 C379.8582043152559 -6.7916833211845065, 759.9016846076166 -6.113122849649777, 1128.428752032162 0 M0 0 C231.87027635401287 1.5129653696663077, 463.2278396426548 1.8164751653320488, 1128.428752032162 0 M1128.428752032162 0 C1129.6568911352642 28.785871626761963, 1128.994804112006 51.827244689593535, 1128.428752032162 82.99427726817821 M1128.428752032162 0 C1128.8522006455066 22.525916863035807, 1127.2576884511116 43.561298965082365, 1128.428752032162 82.99427726817821 M1128.428752032162 82.99427726817821 C849.5763718061437 90.14648507907452, 572.9574311142829 88.55942207648816, 0 82.99427726817821 M1128.428752032162 82.99427726817821 C892.262555968006 83.58769852988175, 656.6101757929849 83.58396879307678, 0 82.99427726817821 M0 82.99427726817821 C0.1697717712444673 49.50243558604956, 0.9894314215702424 20.416058838106046, 0 0 M0 82.99427726817821 C0.046026095810972056 61.801370125989216, -0.36354766779796044 40.025657312071075, 0 0" stroke="#000000" stroke-width="2" fill="none" vector-effect="non-scaling-stroke" data-shape-part="outline" stroke-opacity="1" fill-opacity="0.1"></path></g></g><g transform="translate(67.77758057913867, 1001.2277669186469) rotate(0)"><text transform="translate(0, 25)" style="font-size: 24px; font-family: &quot;Comic Sans MS&quot;; fill: rgb(17, 17, 17); opacity: 1; stroke-width: 0; font-style: normal; font-weight: normal; text-decoration: none;"></text></g></g><g transform="translate(376.63842501831977, 24.513977121636838) rotate(0)"><text transform="translate(0, 0)" style="font-size: 24px; font-family: Roboto; fill: rgb(17, 17, 17); opacity: 1; stroke-width: 0; font-style: normal; font-weight: normal; text-decoration: none;"><tspan dominant-baseline="text-before-edge" x="0" y="0">Hom</tspan></text></g><g transform="translate(506.9458544771013, 24.513977121636838) rotate(0)"><text transform="translate(0, 0)" style="font-size: 24px; font-family: Roboto; fill: rgb(17, 17, 17); opacity: 1; stroke-width: 0; font-style: normal; font-weight: normal; text-decoration: none;"><tspan dominant-baseline="text-before-edge" x="0" y="0">Abou</tspan></text></g><g transform="translate(636.5508180088813, 24.513977121636838) rotate(0)"><text transform="translate(0, 0)" style="font-size: 24px; font-family: Roboto; fill: rgb(17, 17, 17); opacity: 1; stroke-width: 0; font-style: normal; font-weight: normal; text-decoration: none;"><tspan dominant-baseline="text-before-edge" x="0" y="0">Contac</tspan></text></g><g transform="translate(772.1267419201743, 25.567676012139113) rotate(0)"><text transform="translate(0, 0)" style="font-size: 24px; font-family: Roboto; fill: rgb(17, 17, 17); opacity: 1; stroke-width: 0; font-style: normal; font-weight: normal; text-decoration: none;"><tspan dominant-baseline="text-before-edge" x="0" y="0">Portfoli</tspan></text></g><g transform="translate(922.1032173349982, 24.513977121636838) rotate(0)"><text transform="translate(0, 0)" style="font-size: 24px; font-family: Roboto; fill: rgb(17, 17, 17); opacity: 1; stroke-width: 0; font-style: normal; font-weight: normal; text-decoration: none;"><tspan dominant-baseline="text-before-edge" x="0" y="0">Sign U</tspan></text></g><g><g transform="translate(13.463540758535121, 359.23899133786)  rotate(0)  "><g><path d="M-2.38118168246001 -0.020994027145206928 L1128.7776319376508 -2.975114037282765 L1126.4506225875894 390.14757387082204 L-1.416073258034885 390.9187861208163" stroke="none" stroke-width="0" fill="#616161" vector-effect="non-scaling-stroke" data-shape-part="fill" stroke-opacity="0.1" fill-opacity="0.1"></path><path d="M0 0 C227.37453973406826 0.8675321979718278, 453.5139084201659 1.0878244204716752, 1128.1803162639344 0 M0 0 C428.5182765269806 0.2281269441139081, 856.5701863268698 -0.018330030630888727, 1128.1803162639344 0 M1128.1803162639344 0 C1130.313072931533 103.5991176318952, 1132.9788665411247 205.8417239779866, 1128.1803162639344 388.19102472274676 M1128.1803162639344 0 C1125.647457362215 100.62318683540566, 1125.4808874556782 203.2235647697414, 1128.1803162639344 388.19102472274676 M1128.1803162639344 388.19102472274676 C685.8905436929687 389.82673559344283, 243.35709093878606 388.2305872336673, 0 388.19102472274676 M1128.1803162639344 388.19102472274676 C701.310658436521 390.6785089318281, 274.85440476891404 390.98517581267413, 0 388.19102472274676 M0 388.19102472274676 C-4.237432296551187 257.86357748805335, -1.8358407861358088 130.46772082660416, 0 0 M0 388.19102472274676 C-2.4296216838110554 272.84411987404513, -2.2824203558195144 157.01993961841464, 0 0" stroke="#000000" stroke-width="2" fill="none" vector-effect="non-scaling-stroke" data-shape-part="outline" stroke-opacity="1" fill-opacity="0.1"></path></g></g><g transform="translate(69.87255657173185, 378.64854257399736) rotate(0)"><text transform="translate(0, 163)" style="font-size: 24px; font-family: &quot;Comic Sans MS&quot;; fill: rgb(17, 17, 17); opacity: 1; stroke-width: 0; font-style: normal; font-weight: normal; text-decoration: none;"></text></g></g><g><g id="8vDj4CI7iJxnv-N7jGK_Y" pointer-events="auto"><g><path data-shape-part="outline" class="" d="M13.464 359.239 C275.6916780961231 448.9040004793126, 537.9193561922463 538.5690009586252, 1141.644 745.004 M13.464 359.239 C332.6517952018306 468.380697083829, 651.8395904036613 577.5223941676579, 1141.644 745.004" stroke="#000000" stroke-width="2" stroke-opacity="1" fill="none" stroke-linecap="round" stroke-dashoffset="-3"></path></g><path d="M13.464,359.239L1141.644,745.004" fill="none" fill-opacity="0" stroke="black" stroke-opacity="0" stroke-width="10" id="hit-8vDj4CI7iJxnv-N7jGK_Y"></path></g></g><g><g id="KYGej1m20Ov0Ckm2ZqmI6" pointer-events="auto"><g><path data-shape-part="outline" class="" d="M1141.644 361.665 C811.7052833720929 474.48282075552174, 481.76656674418587 587.3006415110435, 13.464 747.43 M1141.644 361.665 C845.9916031980626 462.75910453322996, 550.3392063961252 563.8532090664598, 13.464 747.43" stroke="#000000" stroke-width="2" stroke-opacity="1" fill="none" stroke-linecap="round" stroke-dashoffset="-3"></path></g><path d="M1141.644,361.665L13.464,747.43" fill="none" fill-opacity="0" stroke="black" stroke-opacity="0" stroke-width="10" id="hit-KYGej1m20Ov0Ckm2ZqmI6"></path></g></g><g><g transform="translate(434.9430969594457, 827.7837646478723)  rotate(0)  "><g><path d="M239.48813613782775 78.82475681803045 C180.43078866321594 82.83202001059402, 122.10207505413194 83.42396318519462, 42.26261225961666 78.82475681803045 C15.574776943019126 78.93220051410464, -2.38534680288285 74.4197845790833, 0 59.870422860504696 C0.5370309779381602 49.957888325418956, -1.2573732366824297 42.01805736325466, 0 18.95433395752576 C1.679161369614303 11.327922932912111, 20.49156144074211 -3.3880667177960273, 42.26261225961666 0 C110.75001061236058 -5.4614833591328855, 185.88114347069086 -2.4422717748032805, 239.48813613782775 0 C265.1832932178364 -4.078602075763047, 283.5499492394151 9.753293050561547, 281.7507483974444 18.95433395752576 C281.0477844274763 34.9048107987043, 286.2223905659441 53.18479069014308, 281.7507483974444 59.870422860504696 C286.264166004804 72.27663139182326, 260.0646331102089 76.30409945468274, 239.48813613782775 78.82475681803045 C239.48813613782775 78.82475681803045, 239.48813613782775 78.82475681803045, 239.48813613782775 78.82475681803045" stroke="none" stroke-width="0" fill="#616161" vector-effect="non-scaling-stroke" data-shape-part="fill" stroke-opacity="0.1" fill-opacity="0.1"></path><path d="M239.48813613782775 78.82475681803045 C177.29661247976196 75.24269851356996, 112.20495678679093 74.32221364289774, 42.26261225961666 78.82475681803045 M239.48813613782775 78.82475681803045 C177.2602418697912 78.19798726662219, 112.67786622737542 78.0211893252951, 42.26261225961666 78.82475681803045 M42.26261225961666 78.82475681803045 C19.10897703430662 75.90480705271331, -2.895121623761952 71.87940592396257, 0 59.870422860504696 M42.26261225961666 78.82475681803045 C21.388901811503338 79.65372711559614, 2.1252337931189684 68.25573418287743, 0 59.870422860504696 M0 59.870422860504696 C0.39407095208420834 53.77811904160808, -0.3090704093907825 39.72112923596163, 0 18.95433395752576 M0 59.870422860504696 C1.246945325742328 51.51600481063886, 1.5753352832895158 42.293227907965594, 0 18.95433395752576 M0 18.95433395752576 C-2.4550700085237622 5.845068830360175, 17.241177156186197 -1.48786651622504, 42.26261225961666 0 M0 18.95433395752576 C-0.9252954037394375 7.295016374500916, 20.059080373906063 -0.281643960485235, 42.26261225961666 0 M42.26261225961666 0 C88.36324064453781 0.48619038278754867, 134.07820083646885 -2.3658569115907317, 239.48813613782775 0 M42.26261225961666 0 C86.89968374701633 3.094379145074247, 133.9705021632308 2.8776098521236166, 239.48813613782775 0 M239.48813613782775 0 C260.25533110652725 1.0623229192569852, 279.1403838513764 9.622447031844855, 281.7507483974444 18.95433395752576 M239.48813613782775 0 C265.0856632129257 -1.7765691226813942, 285.08262744386406 9.562900003107712, 281.7507483974444 18.95433395752576 M281.7507483974444 18.95433395752576 C283.0211415365081 27.427375918906797, 283.10030112412977 43.215420311449535, 281.7507483974444 59.870422860504696 M281.7507483974444 18.95433395752576 C280.59575345259765 29.614259591767677, 280.85393104594806 36.733881009919, 281.7507483974444 59.870422860504696 M281.7507483974444 59.870422860504696 C280.4747111318978 70.70046133625505, 259.9598807767467 80.2042108989772, 239.48813613782775 78.82475681803045 M281.7507483974444 59.870422860504696 C281.32288098473754 68.40742776541222, 261.2363826231067 78.52483654459795, 239.48813613782775 78.82475681803045 M239.48813613782775 78.82475681803045 C239.48813613782775 78.82475681803045, 239.48813613782775 78.82475681803045, 239.48813613782775 78.82475681803045 M239.48813613782775 78.82475681803045 C239.48813613782775 78.82475681803045, 239.48813613782775 78.82475681803045, 239.48813613782775 78.82475681803045" stroke="#000000" stroke-width="2" fill="none" vector-effect="non-scaling-stroke" data-shape-part="outline" stroke-opacity="1" fill-opacity="0.1"></path></g></g><g transform="translate(449.0306343793179, 834.1018761215455) rotate(0)"><text transform="translate(0, 21)" style="font-size: 24px; font-family: &quot;Comic Sans MS&quot;; fill: rgb(17, 17, 17); opacity: 1; stroke-width: 0; font-style: normal; font-weight: normal; text-decoration: none;"></text></g></g><g transform="translate(471.12009220002386, 852.0188391294247) rotate(0)"><text transform="translate(0, 0)" style="font-size: 24px; font-family: Roboto; fill: rgb(17, 17, 17); opacity: 1; stroke-width: 0; font-style: normal; font-weight: bold; text-decoration: none;"><tspan dominant-baseline="text-before-edge" x="0" y="0">Who is besys.tech</tspan></text></g><g transform="translate(493.24776890057166, 202.58908961652156) rotate(0)"><text transform="translate(0, 0)" style="font-size: 33px; font-family: Roboto; fill: rgb(17, 17, 17); opacity: 1; stroke-width: 0; font-style: normal; font-weight: bold; text-decoration: none;"><tspan dominant-baseline="text-before-edge" x="0" y="0">besys.tec</tspan></text></g><g><g transform="translate(994.4572078161546, 1016.3958660477798)  rotate(0)  "><g><path d="M33.99792930041617 0 C26.475385355493678 1.86823986718038, 16.614912396454663 -2.111776721984354, 1.6580007472148421 0 M33.99792930041617 0 C22.22552627336032 -0.32143529894216494, 7.095362490959246 1.0873647665752606, 1.6580007472148421 0 M1.6580007472148421 0 C-1.634752973593419 -1.14143430814147, -0.17548829689621925 1.922074504098986, 0 2.041670341611659 M1.6580007472148421 0 C-1.1142876508232407 2.340161131136119, 2.017961071617901 2.6165420492134435, 0 2.041670341611659 M0 2.041670341611659 C1.7225020887894766 15.56463532014443, 2.727873063330187 24.38108051985931, 0 41.86521872530574 M0 2.041670341611659 C0.5501211668444721 14.863035381024723, 0.8454865600062458 26.11860720234666, 0 41.86521872530574 M0 41.86521872530574 C-1.8188892044126987 41.388448880037664, 3.1942889842618056 45.44980238832304, 1.6580007472148421 43.906889066917394 M0 41.86521872530574 C-0.03572179209440973 43.6626088961795, -0.7275718333717635 42.00627439830223, 1.6580007472148421 43.906889066917394 M1.6580007472148421 43.906889066917394 C4.08582543170725 45.95295668390017, 11.501777313323117 44.30895778288928, 18.145302801239424 43.906889066917394 M1.6580007472148421 43.906889066917394 C7.5318268442977985 43.37417219134172, 13.689483863884883 42.689556081944886, 18.145302801239424 43.906889066917394 M18.145302801239424 43.906889066917394 C16.293646340062597 37.86051673387513, 18.911564516179222 34.50805514607256, 18.252270591382313 26.875406797860137 M18.145302801239424 43.906889066917394 C18.969938917455796 37.8432083604092, 19.03076865981048 30.77775485382034, 18.252270591382313 26.875406797860137 M18.252270591382313 26.875406797860137 C16.062632754274528 26.56722296604495, 14.92857569160867 26.840810463774393, 13.570646976128364 26.875406797860137 M18.252270591382313 26.875406797860137 C16.78201717027488 26.568965215357036, 15.965917176318829 27.197499835204923, 13.570646976128364 26.875406797860137 M13.570646976128364 26.875406797860137 C12.819552319254264 25.11990648914359, 14.34682415775382 24.860237393583148, 13.613434092185521 20.104964503741474 M13.570646976128364 26.875406797860137 C14.157752851361542 24.505164425855817, 13.926385564235028 22.745784231093644, 13.613434092185521 20.104964503741474 M13.613434092185521 20.104964503741474 C14.653619033845622 19.63481430088797, 15.835497383245965 20.21632301579848, 18.31645126546805 20.104964503741474 M13.613434092185521 20.104964503741474 C14.55230146453001 20.377157950976937, 15.763509081647044 19.951238988681496, 18.31645126546805 20.104964503741474 M18.31645126546805 20.104964503741474 C18.280381320111772 20.002758041678952, 18.273779132507574 19.751677683975576, 18.320016858472812 19.595644590565232 M18.31645126546805 20.104964503741474 C18.29580491357166 19.970307711030554, 18.303532970427252 19.80335899860589, 18.320016858472812 19.595644590565232 M18.320016858472812 19.595644590565232 C17.50551774166571 17.313793079065864, 17.317790518506218 14.511719496008254, 18.355672788520444 15.49913184062184 M18.320016858472812 19.595644590565232 C21.044669710658955 19.818488352070336, 16.663313717386472 16.76205264480809, 18.355672788520444 15.49913184062184 M18.355672788520444 15.49913184062184 C20.455664262525726 16.757689548176394, 21.122379958389093 15.761116769268943, 18.5339524387586 12.904234696767023 M18.355672788520444 15.49913184062184 C18.005960559636343 13.010247374777364, 18.141227813755858 11.165943178452386, 18.5339524387586 12.904234696767023 M18.5339524387586 12.904234696767023 C16.291288064305828 12.967956293201905, 22.607006033125618 10.123271076903624, 21.04056432110706 7.84616107625814 M18.5339524387586 12.904234696767023 C17.21907695613538 13.365553797422807, 22.536132280330456 6.57634990174411, 21.04056432110706 7.84616107625814 M21.04056432110706 7.84616107625814 C23.533944715364 9.026655302888848, 25.22313791997827 6.412060710665308, 25.16952102062273 6.265513069849114 M21.04056432110706 7.84616107625814 C20.631746343514045 8.909047733753122, 21.48816816937275 3.9872292314362756, 25.16952102062273 6.265513069849114 M25.16952102062273 6.265513069849114 C27.871879628265802 8.879654803872425, 22.651183680164394 7.846466818452198, 25.62591692523241 6.261122380942423 M25.16952102062273 6.265513069849114 C27.808386009337905 8.779175535403509, 24.01641541710007 5.247640440427084, 25.62591692523241 6.261122380942423 M25.62591692523241 6.261122380942423 C25.758306752934512 6.5750507503751106, 24.90241059269427 5.159263556249246, 28.082610505514186 6.362108225796333 M25.62591692523241 6.261122380942423 C29.728381778530235 4.866611281596441, 29.220813177522707 5.270435809701487, 28.082610505514186 6.362108225796333 M28.082610505514186 6.362108225796333 C27.18187434135208 7.8568220853281066, 30.82020538968221 6.7308104907765305, 29.644340241600425 6.550907848784077 M28.082610505514186 6.362108225796333 C25.35655377807299 9.00791204026312, 30.58342005775497 5.066053030979566, 29.644340241600425 6.550907848784077 M29.644340241600425 6.550907848784077 C29.29744225216113 8.815413189939385, 30.230520727994197 9.700040244762757, 29.60511871854803 12.610058540018677 M29.644340241600425 6.550907848784077 C29.69637713779155 8.46734431535278, 29.247983136378792 10.608216588136713, 29.60511871854803 12.610058540018677 M29.60511871854803 12.610058540018677 C29.590218857040195 10.312660811009287, 29.648356637927265 12.467899797024607, 29.21290348802409 12.610058540018677 M29.60511871854803 12.610058540018677 C31.58541269257435 14.914295880223095, 29.174782657633095 14.0782970172413, 29.21290348802409 12.610058540018677 M29.21290348802409 12.610058540018677 C31.66539808618275 14.30253612762916, 29.71816035321395 10.62161641649516, 27.59412426386164 12.601277162205294 M29.21290348802409 12.610058540018677 C30.7400643443167 14.517482511425792, 27.795052600451214 13.187282806519285, 27.59412426386164 12.601277162205294 M27.59412426386164 12.601277162205294 C24.647174209721197 15.4555661015919, 28.16612778264909 9.833488012842038, 26.378257049237426 12.623230606738753 M27.59412426386164 12.601277162205294 C29.610727563306497 15.239497017744794, 29.895381399019353 15.734803821697035, 26.378257049237426 12.623230606738753 M26.378257049237426 12.623230606738753 C23.875368366765088 11.731142699938035, 24.823425734660876 10.874914733162308, 24.046359224122355 15.283988084193949 M26.378257049237426 12.623230606738753 C26.850895363653308 12.994809491220629, 23.383107736765695 13.884838334871615, 24.046359224122355 15.283988084193949 M24.046359224122355 15.283988084193949 C25.28005617654831 13.890994482903132, 21.552272747398206 22.167036276739598, 23.97504736402709 20.08740174811471 M24.046359224122355 15.283988084193949 C26.15431523959101 17.850226617088865, 25.346622026839146 21.70110417032665, 23.97504736402709 20.08740174811471 M23.97504736402709 20.08740174811471 C26.183230813156612 21.130615953767187, 24.326459349479794 19.383827782009508, 26.627848559570836 20.0917924370214 M23.97504736402709 20.08740174811471 C26.156652240205354 20.956321023629492, 23.835886672858418 18.250154591497743, 26.627848559570836 20.0917924370214 M26.627848559570836 20.0917924370214 C28.9285766843764 19.656437135075, 30.87568178653411 17.943115330074694, 28.35359557387618 20.08740174811471 M26.627848559570836 20.0917924370214 C24.065262648282747 18.92460085838732, 24.90676979545198 18.592393804487553, 28.35359557387618 20.08740174811471 M28.35359557387618 20.08740174811471 C25.757116932505998 22.681350473725683, 27.526426618979308 18.12893259938944, 29.409011103286055 20.08740174811471 M28.35359557387618 20.08740174811471 C27.234841481121514 17.82303669326145, 28.761929830037985 21.30443361275036, 29.409011103286055 20.08740174811471 M29.409011103286055 20.08740174811471 C29.793103157702834 21.412780656985927, 30.50757311311069 27.629174241819843, 28.638843014257226 26.897360242393596 M29.409011103286055 20.08740174811471 C31.65331221387908 19.26413134051858, 28.15641791791174 25.916746793152257, 28.638843014257226 26.897360242393596 M28.638843014257226 26.897360242393596 C27.788632714489975 26.997558998969893, 26.34985749067107 26.6107515233028, 23.978612957031856 26.897360242393596 M28.638843014257226 26.897360242393596 C27.819646506725174 27.019661874263004, 26.736007938556515 27.27247023896708, 23.978612957031856 26.897360242393596 M23.978612957031856 26.897360242393596 C25.5760471262015 28.19510259885861, 25.82770581712767 36.07583901940336, 23.871645166888964 43.906889066917394 M23.978612957031856 26.897360242393596 C24.898527660441818 30.728021451997343, 23.23139605396363 34.61696149887554, 23.871645166888964 43.906889066917394 M23.871645166888964 43.906889066917394 C28.07232891065138 43.973240906538386, 31.828142416214305 44.460181910594244, 33.99792930041617 43.906889066917394 M23.871645166888964 43.906889066917394 C25.73553614261393 43.791774351757454, 28.08387474583632 44.22594362102101, 33.99792930041617 43.906889066917394 M33.99792930041617 43.906889066917394 C36.584539396143846 44.78939711011717, 35.20168334409569 40.04660873206556, 35.65593004763101 41.86521872530573 M33.99792930041617 43.906889066917394 C35.466512987031926 45.336602868770754, 35.570859311111015 42.039712528868016, 35.65593004763101 41.86521872530573 M35.65593004763101 41.86521872530573 C33.4422611615019 29.952064840814433, 35.928669275935185 12.760029589027155, 35.65593004763101 2.041670341611659 M35.65593004763101 41.86521872530573 C34.51020768346662 32.72698212289905, 34.73970660629148 22.845560594504054, 35.65593004763101 2.041670341611659 M35.65593004763101 2.041670341611659 C37.39537197515343 1.5189374162770255, 37.46340130028813 -1.5745170079171658, 33.99792930041617 0 M35.65593004763101 2.041670341611659 C33.91886750269656 -0.028452549413646944, 36.502367445840825 -1.139705033786595, 33.99792930041617 0 M33.99792930041617 0 C33.99792930041617 0, 33.99792930041617 0, 33.99792930041617 0 M33.99792930041617 0 C33.99792930041617 0, 33.99792930041617 0, 33.99792930041617 0" stroke="#000000" stroke-width="2" fill="none" vector-effect="non-scaling-stroke" data-shape-part="outline" stroke-opacity="1" fill-opacity="0.24"></path></g></g></g><g><g transform="translate(1054.5180445747842, 1016.3958660477798)  rotate(0)  "><g><path d="M1.9467789348418885 13.617426049657354 C1.9467789348418885 13.617426049657354, 1.9467789348418885 13.617426049657354, 1.9467789348418885 13.617426049657354 M1.9467789348418885 13.617426049657354 C1.9467789348418885 13.617426049657354, 1.9467789348418885 13.617426049657354, 1.9467789348418885 13.617426049657354 M2.0799243157095013 25.658284503586362 C4.209940801226929 23.490032079869533, 5.652573839759435 21.784204580836203, 11.264750721576602 15.092350380467554 M2.0799243157095013 25.658284503586362 C3.8998339026835898 22.017254047466473, 8.214648612655253 18.928077212146807, 11.264750721576602 15.092350380467554 M1.557010667586603 38.45385253773814 C3.212024708276367 35.161528476900585, 6.767417327953895 31.48915968411904, 10.741837073453706 27.88791841461933 M1.557010667586603 38.45385253773814 C4.06019509269337 33.47248620451835, 7.427608464470477 29.472913573625583, 10.741837073453706 27.88791841461933 M8.906805367349794 42.19290560921665 C9.436416484913604 42.17113370974118, 9.840224389572096 40.93802092544852, 10.874982454321314 39.92877686854834 M8.906805367349794 42.19290560921665 C9.584140753381126 41.59561692446571, 9.906694919963906 41.18529555099266, 10.874982454321314 39.92877686854834" stroke="none" stroke-width="1" fill="none" vector-effect="non-scaling-stroke" data-shape-part="fill" stroke-opacity="0.24" fill-opacity="0.24"></path><path d="M10.954592088323508 41.735584061842076 C7.513089295588199 42.33100914953421, 4.5154612758175725 41.867338789646496, 1.8407890114970409 41.735584061842076 M10.954592088323508 41.735584061842076 C7.854086956380992 41.692773485689024, 5.427729590640894 41.624955437145154, 1.8407890114970409 41.735584061842076 M1.8407890114970409 41.735584061842076 C2.556639287089763 31.783729293104493, -0.7655953136926312 21.715506855522154, 1.8407890114970409 13.739353508957043 M1.8407890114970409 41.735584061842076 C2.016117237978739 32.36302427460663, 2.3956257184083882 25.621227117047795, 1.8407890114970409 13.739353508957043 M1.8407890114970409 13.739353508957043 C5.4119626381567825 13.953959011618434, 6.706534857997412 13.672011753680389, 10.954592088323508 13.739353508957043 M1.8407890114970409 13.739353508957043 C4.753257178539884 13.43334518207386, 6.307381460665075 13.414572528133789, 10.954592088323508 13.739353508957043 M10.954592088323508 13.739353508957043 C11.986970747867552 22.266745363711337, 12.396900530019728 29.951309510005238, 10.954592088323508 41.735584061842076 M10.954592088323508 13.739353508957043 C9.965961670494993 19.619872310641178, 9.472414692855795 28.16926140539494, 10.954592088323508 41.735584061842076 M10.954592088323508 41.735584061842076 C10.954592088323508 41.735584061842076, 10.954592088323508 41.735584061842076, 10.954592088323508 41.735584061842076 M10.954592088323508 41.735584061842076 C10.954592088323508 41.735584061842076, 10.954592088323508 41.735584061842076, 10.954592088323508 41.735584061842076" stroke="#000000" stroke-width="2" fill="none" vector-effect="non-scaling-stroke" data-shape-part="outline" stroke-opacity="1" fill-opacity="0.24"></path></g><g><path d="M1.8694317092961912 1.6250721921442985 C1.8694317092961912 1.6250721921442985, 1.8694317092961912 1.6250721921442985, 1.8694317092961912 1.6250721921442985 M1.8694317092961912 1.6250721921442985 C1.8694317092961912 1.6250721921442985, 1.8694317092961912 1.6250721921442985, 1.8694317092961912 1.6250721921442985 M5.282872235116338 9.892382744959445 C7.704002345472531 7.051560593693151, 8.134477167816673 4.957503869613181, 12.499521554011919 1.5905773625089523 M5.282872235116338 9.892382744959445 C7.937348370533003 7.16259410843951, 9.406962147573932 4.913050597582498, 12.499521554011919 1.5905773625089523" stroke="none" stroke-width="1" fill="none" vector-effect="non-scaling-stroke" data-shape-part="fill" stroke-opacity="0.24" fill-opacity="0.24"></path><path d="M8.683000054605422 0.7550347201775365 C9.83505319263894 0.9085809953436749, 11.644803522956831 1.0223927791925793, 12.140564006900386 1.8810344694251047 C12.63632449084394 2.73967615965763, 12.103702698828585 4.595074311180353, 11.657562958266745 5.906884861572689 C11.211423217704905 7.218695411965026, 10.378562883404168 9.082142659866285, 9.463725563529348 9.751897771779122 C8.548888243654527 10.421652883691959, 7.232637054093553 10.114365314151547, 6.168539039017823 9.925415533049705 C5.104441023942092 9.736465751947863, 4.161686119317271 9.28875331649462, 3.0791374730749665 8.618199085168067 C1.9965888268326617 7.9476448538415125, -0.07991202509750761 7.015587969431037, -0.3267528384360059 5.902090145090378 C-0.5735936517745042 4.78859232074972, 0.9512972146742137 2.868160042693922, 1.5980925930439769 1.9372121391241142 C2.24488797141374 1.006264235554306, 2.464782163562962 0.4301098345194619, 3.5540194317825735 0.3164027236715308 C4.643256700002185 0.20269561282359966, 7.042032148727811 0.9933804376435875, 8.133516202361646 1.2549694740365274 C9.22500025599548 1.5165585104294672, 9.933726989805344 1.8910642952295935, 10.10292375358558 1.8859369420291698 M7.988753747064453 -0.660622423901259 C8.944755499532866 0.18117071776277982, 9.661048896895243 3.0012436889398213, 10.618806291151042 3.8984225564005355 C11.57656368540684 4.79560142386125, 13.956133082526232 4.105952206593242, 13.735298112599242 4.722450780863026 C13.514463142672252 5.33894935513281, 10.509584768775337 6.458602193780983, 9.293796471589097 7.597414002019237 C8.078008174402857 8.73622581025749, 7.8038730343606435 11.293948252225404, 6.440568329481807 11.555321630292548 C5.0772636246029705 11.816695008359693, 1.9361855312070841 9.97202338965323, 1.1139682423160768 9.165654270422102 C0.2917509534250696 8.359285151190974, 1.401215158126424 8.051865974658341, 1.507264596135764 6.717106914905775 C1.613314034145104 5.38234785515321, 1.4711923202218524 2.3788149387327264, 1.7502648703721162 1.1570999119067076 C2.02933742052238 -0.06461511491931127, 2.3192636817274024 -0.2860176137937225, 3.181699897037347 -0.6131832460503377 C4.044136112347291 -0.9403488783069529, 6.429764580288295 -1.2875875860682222, 6.924882162231784 -0.8058938816329837 C7.419999744175272 -0.3242001771977452, 5.861228824181392 2.0520264375523554, 6.152405388698278 2.2769789805610934" stroke="#000000" stroke-width="2" fill="none" vector-effect="non-scaling-stroke" data-shape-part="outline" stroke-opacity="1" fill-opacity="0.24"></path></g><g><path d="M46.49889837511556 41.735584061842076 C42.973194323760225 42.3455770708224, 39.90222507274837 41.870562356378365, 37.162113148890946 41.735584061842076 M46.49889837511556 41.735584061842076 C43.3225349771218 41.6917260640795, 40.836813328868686 41.62224875056087, 37.162113148890946 41.735584061842076 M37.162113148890946 41.735584061842076 C37.752139634872506 35.95955352408834, 34.99428369995018 30.08692376782035, 37.162113148890946 25.133168722041297 M37.162113148890946 41.735584061842076 C37.28900838393902 35.850977804437406, 37.6040462547925 32.15022223894863, 37.162113148890946 25.133168722041297 M37.162113148890946 25.133168722041297 C38.152643312871966 24.981325782629995, 37.38387216686713 23.638584047093282, 35.601237976417416 20.888659822951958 M37.162113148890946 25.133168722041297 C37.713381210467354 22.060380609733386, 37.13943127466808 21.132276706540253, 35.601237976417416 20.888659822951958 M35.601237976417416 20.888659822951958 C34.07651553512084 22.39414964027155, 35.91413708623234 18.822512180720995, 32.13789792807191 19.707542794001828 M35.601237976417416 20.888659822951958 C33.24710858985315 18.991494623500962, 33.0538225532576 22.67969095729252, 32.13789792807191 19.707542794001828 M32.13789792807191 19.707542794001828 C25.757820783245638 20.378143430864046, 27.202594539787317 23.100224570042272, 25.85644282668909 23.42200977550577 M32.13789792807191 19.707542794001828 C28.811220502683224 17.436000402494873, 24.91647213141776 20.485450163201246, 25.85644282668909 23.42200977550577 M25.85644282668909 23.42200977550577 C28.14804175268125 28.867879233495426, 25.582194273684912 30.258835847473406, 25.85644282668909 41.735584061842076 M25.85644282668909 23.42200977550577 C25.141149065065296 29.13146525377823, 25.53323635169952 38.281750458052464, 25.85644282668909 41.735584061842076 M25.85644282668909 41.735584061842076 C24.42979683013097 40.39912211701828, 20.362507616267152 41.65726607960116, 16.73789546652461 41.735584061842076 M25.85644282668909 41.735584061842076 C23.732958491069272 41.443851952657624, 20.815095268900983 41.45570705976903, 16.73789546652461 41.735584061842076 M16.73789546652461 41.735584061842076 C17.97122499579059 32.599504244907685, 14.88008380168544 25.123979014883005, 16.73789546652461 13.739354273158412 M16.73789546652461 41.735584061842076 C16.138696971332838 34.87693611418933, 16.616045284068395 26.192622968735733, 16.73789546652461 13.739354273158412 M16.73789546652461 13.739354273158412 C21.133456182146816 13.176994974889846, 23.223154279331865 13.631442248934036, 25.856442826689094 13.739354273158412 M16.73789546652461 13.739354273158412 C19.398109520536746 13.419611353518775, 22.599555792249063 14.259807530969839, 25.856442826689094 13.739354273158412 M25.856442826689094 13.739354273158412 C25.47286994470148 14.230591558317858, 25.482442484720902 15.636540470379959, 25.856442826689094 16.10576188946486 M25.856442826689094 13.739354273158412 C25.934709854970055 14.136100931196014, 25.80507475648596 14.66754510769806, 25.856442826689094 16.10576188946486 M25.856442826689094 16.10576188946486 C29.387556565820002 15.710711774541096, 32.26327846708453 11.960464174779883, 35.568027866364794 12.850386332641175 M25.856442826689094 16.10576188946486 C31.79325398917938 14.731034755133123, 34.573874624834644 9.447594930571324, 35.568027866364794 12.850386332641175 M35.568027866364794 12.850386332641175 C42.78752476364846 9.99078014019393, 46.448382754146316 16.353993697061497, 46.49889837511555 21.93204942449801 M35.568027866364794 12.850386332641175 C47.6370184223308 9.599178395015008, 47.94054122235366 21.835412533783646, 46.49889837511555 21.93204942449801 M46.49889837511555 21.93204942449801 C47.59143506065516 29.065946288445595, 46.58600073219781 35.66841844680295, 46.49889837511556 41.735584061842076 M46.49889837511555 21.93204942449801 C45.59296448804812 27.63870742432203, 45.850909715995584 36.08084704909815, 46.49889837511556 41.735584061842076 M46.49889837511556 41.735584061842076 C46.49889837511556 41.735584061842076, 46.49889837511556 41.735584061842076, 46.49889837511556 41.735584061842076 M46.49889837511556 41.735584061842076 C46.49889837511556 41.735584061842076, 46.49889837511556 41.735584061842076, 46.49889837511556 41.735584061842076 M46.49889837511556 41.735584061842076 C46.49889837511556 41.735584061842076, 46.49889837511556 41.735584061842076, 46.49889837511556 41.735584061842076 M46.49889837511556 41.735584061842076 C46.49889837511556 41.735584061842076, 46.49889837511556 41.735584061842076, 46.49889837511556 41.735584061842076" stroke="#000000" stroke-width="2" fill="none" vector-effect="non-scaling-stroke" data-shape-part="outline" stroke-opacity="1" fill-opacity="0.24"></path></g></g></g><g><g transform="translate(51.045467853116314, 1023.0692923542942)  rotate(0)  "><g><path d="M1.5515587938865956 6.799624232958251 L2.7126134944996174 38.056044451036 L21.584294087243727 31.09926738408212 L42.994299910806625 41.07265878434799 L64.66999153755386 34.321049314831896 L64.55277551673133 2.4515234339139775 L40.52351142681739 2.8248388181576267 L21.515573456858814 -1.9293100946343948" stroke="none" stroke-width="0" fill="#616161" fill-rule="evenodd" vector-effect="non-scaling-stroke" data-shape-part="fill" stroke-opacity="0.24" fill-opacity="0.24"></path><path d="M0.32049066237270185 5.9098479258000784 C2.2813925576482426 15.764535382209427, 0.8692931068215975 19.520189157874306, 0.32049066237270185 37.89481485270008 M0.32049066237270185 5.9098479258000784 C1.3399617485528192 17.791324238040513, 1.7811272404914102 31.47564557245641, 0.32049066237270185 37.89481485270008 M0.32049066237270185 37.89481485270008 C9.271743819607796 33.58453833653008, 17.88839567328631 32.20833846319713, 20.87035281396424 32.440064909912685 M0.32049066237270185 37.89481485270008 C7.422194418064006 34.43789769122182, 16.182585790542948 34.16964709185993, 20.87035281396424 32.440064909912685 M20.87035281396424 32.440064909912685 C24.293342684696313 36.546959465755165, 30.467098216969156 34.48361162398205, 42.63166927810064 38.52938743367366 M20.87035281396424 32.440064909912685 C29.82385911175662 33.78935583479374, 37.04196896079078 35.52944318959778, 42.63166927810064 38.52938743367366 M42.63166927810064 38.52938743367366 C47.56771920744697 35.409245673559454, 55.94531551231363 35.61668939676418, 64.41862313691307 32.516981983465655 M42.63166927810064 38.52938743367366 C49.487525669707594 37.71246409707802, 57.60033400962607 32.72201640121571, 64.41862313691307 32.516981983465655 M64.41862313691307 32.516981983465655 C64.14013362289779 20.915083494311617, 63.222865257276226 14.817811311862755, 64.41862313691307 0.7819972266531902 M64.41862313691307 32.516981983465655 C65.12671536623164 22.739960194200734, 64.93164085267706 9.098555980078348, 64.41862313691307 0.7819972266531902 M64.41862313691307 0.7819972266531902 C57.82903348830841 3.4075992342957346, 53.94867380509717 6.802202203667097, 42.82396074134461 5.813700361284031 M64.41862313691307 0.7819972266531902 C56.937166916458686 2.432349351051924, 51.29396390611815 3.774307680169763, 42.82396074134461 5.813700361284031 M42.82396074134461 5.813700361284031 C34.39306118088766 3.063800985068072, 23.980044851003324 1.1606354175378515, 20.851121711520076 0.32049065914531455 M42.82396074134461 5.813700361284031 C35.055485130675656 3.9967980164508576, 29.531118105827012 3.5163458744042395, 20.851121711520076 0.32049065914531455 M20.851121711520076 0.32049065914531455 C14.266974918086852 -0.2846216304294287, 5.181786220397827 5.884176030557819, 0.32049066237270185 5.9098479258000784 M20.851121711520076 0.32049065914531455 C12.190197789487726 1.0422278221500632, 6.9246338655139645 3.633718368290431, 0.32049066237270185 5.9098479258000784" stroke="#000000" stroke-width="2" fill="none" vector-effect="non-scaling-stroke" data-shape-part="outline" stroke-opacity="1" fill-opacity="0.24"></path></g><g><path d="M20.851121711520076 0.32049065914531455 C22.812474177661073 10.205513695436931, 21.40037472683443 13.991503050984075, 20.851121711520076 32.440064909912685 M20.851121711520076 0.32049065914531455 C21.870984270343087 12.253246417619453, 22.312149762281678 25.988847198269053, 20.851121711520076 32.440064909912685" stroke="#000000" stroke-width="2" fill="none" vector-effect="non-scaling-stroke" data-shape-part="outline" stroke-opacity="1" fill-opacity="0.24"></path></g><g><path d="" stroke="none" stroke-width="0" fill="#616161" vector-effect="non-scaling-stroke" data-shape-part="fill" stroke-opacity="0.24" fill-opacity="0.24"></path><path d="" stroke="#000000" stroke-width="2" fill="none" vector-effect="non-scaling-stroke" data-shape-part="outline" stroke-opacity="1" fill-opacity="0.24"></path></g><g><path d="M42.63166927810064 38.52938743367366 C44.419334265054964 33.80340102187512, 43.05057029461914 22.97788787853693, 42.82396074134461 5.813700361284031 M42.63166927810064 38.52938743367366 C43.536228813981005 25.75999192507792, 44.0506488619669 14.79622121874376, 42.82396074134461 5.813700361284031" stroke="#000000" stroke-width="2" fill="none" vector-effect="non-scaling-stroke" data-shape-part="outline" stroke-opacity="1" fill-opacity="0.24"></path></g></g></g><g transform="translate(772.1267419201743, 833.7547250273852) rotate(0)"><text transform="translate(0, 0)" style="font-size: 8px; font-family: &quot;Comic Sans MS&quot;; fill: rgb(17, 17, 17); opacity: 1; stroke-width: 0; font-style: normal; font-weight: normal; text-decoration: none;"><tspan dominant-baseline="text-before-edge" x="0" y="0"></tspan></text></g><g transform="translate(390.6877435583501, 1017.0983319747813) rotate(0)"><text transform="translate(0, 0)" style="font-size: 24px; font-family: Roboto; fill: rgb(17, 17, 17); opacity: 1; stroke-width: 0; font-style: normal; font-weight: bold; text-decoration: none;"><tspan dominant-baseline="text-before-edge" x="0" y="0">2024 James Phillip De Guzman</tspan></text></g><g transform="translate(428.2696706529313, 1046.9531338723457) rotate(0)"><text transform="translate(0, 0)" style="font-size: 17px; font-family: Roboto; fill: rgb(17, 17, 17); opacity: 1; stroke-width: 0; font-style: normal; font-weight: normal; text-decoration: none;"><tspan dominant-baseline="text-before-edge" x="0" y="0">Last Modified: dd/mm/yyyy hh:mm:s</tspan></text></g><defs><style>@import url("https://www.dafontfree.net/embed/Y29taWMtc2Fucy1tcy1yZWd1bGFyJmRhdGEvNDAvYy8xMDA5MzQvQ09NSUMuVFRG");
@import url("https://fonts.googleapis.com/css2?family=Roboto&amp;display=swap");
@import url("https://fonts.googleapis.com/css2?family=Roboto:wght@700&amp;display=swap");text {white-space: pre;};
</style></defs></svg>