<svg width="1153" height="1080" viewBox="0 0 1153 1080" xmlns="http://www.w3.org/2000/svg" xmlns:xlink="http://www.w3.org/1999/xlink"><g><g transform="translate(421.94747730991764, 108.80988836181896)  rotate(0)  "><g><path d="M0 39.016280119259754 C3.8643171938103387 90.28898551831885, 3.3611773403328606 144.89687103233265, 0 188.58286026956833 M0 39.016280119259754 C-1.6178559917298663 72.59661901366829, 0.06225988685213446 104.63585358577745, 0 188.58286026956833 M0 188.58286026956833 C79.30338228215432 188.52340681631472, 155.37349403202094 185.92552481672297, 308.1398504551869 188.58286026956833 M0 188.58286026956833 C104.37343017331068 190.59915809625053, 211.05867328327153 189.91076630348778, 308.1398504551869 188.58286026956833 M308.1398504551869 188.58286026956833 C307.68876177156255 131.76359732982868, 307.87975186193273 79.33646292842937, 308.1398504551869 39.01628011925974 M308.1398504551869 188.58286026956833 C308.19870246718096 158.07914198127818, 307.8839872605579 123.665034383239, 308.1398504551869 39.01628011925974 M308.1398504551869 39.01628011925974 C224.2236595216226 38.565616148084786, 136.0215538846722 40.83684270442418, 0 39.01628011925974 M308.1398504551869 39.01628011925974 C239.44461213849357 38.084144857548836, 169.04020899753257 37.56199268759901, 0 39.01628011925974 M0 39.01628011925974 C-4.886936003636091e-16 39.01628011925974, -1.3762732524733201e-15 39.01628011925975, 0 39.016280119259754 M0 39.01628011925974 C4.3507072671147313e-16 39.01628011925975, 6.264277938256021e-16 39.01628011925975, 0 39.016280119259754 M21.53959182651847 48.85013082804208 C25.889932372691483 47.18317435314869, 28.840790135833256 50.78079594313983, 27.888813445147598 53.53590845207267 M21.53959182651847 48.85013082804208 C27.573303441042455 47.48801472285752, 30.29027635105961 49.62989113438759, 27.888813445147598 53.53590845207267 M27.888813445147598 53.53590845207267 C29.953282856820916 57.03633891522855, 26.90235172830332 61.180828334248744, 21.53959182651847 58.2260108490002 M27.888813445147598 53.53590845207267 C27.75100045322517 55.66243494499445, 24.583804558252876 57.890382829352404, 21.53959182651847 58.2260108490002 M21.53959182651847 58.2260108490002 C15.932192267295818 60.271536947644435, 12.664418487411034 57.00400756776304, 15.190370207889343 53.53590845207267 M21.53959182651847 58.2260108490002 C19.400430097808044 55.47985360328772, 15.717703044388484 56.60285742629291, 15.190370207889343 53.53590845207267 M15.190370207889343 53.53590845207267 C14.81960530019557 50.787303697465696, 16.369935109235787 47.304923396613354, 21.53959182651847 48.8501308280421 M15.190370207889343 53.53590845207267 C12.780552695870455 49.179040319806674, 19.988432130545817 50.37463905313974, 21.53959182651847 48.8501308280421 M21.53959182651847 48.8501308280421 C21.53959182651847 48.8501308280421, 21.53959182651847 48.85013082804209, 21.53959182651847 48.85013082804208 M21.53959182651847 48.8501308280421 C21.53959182651847 48.85013082804209, 21.53959182651847 48.85013082804209, 21.53959182651847 48.85013082804208 M286.6014911880702 48.85013082804208 C292.51061109310706 51.02160606911396, 292.8400508569813 50.15098501384143, 292.95071280669936 53.53590845207267 M286.6014911880702 48.85013082804208 C293.09132941501906 47.27572308281427, 294.32241918447227 49.85252133119736, 292.95071280669936 53.53590845207267 M292.95071280669936 53.53590845207267 C291.8692954395412 55.93563794076413, 290.027512718006 58.882880808270656, 286.6014911880702 58.2260108490002 M292.95071280669936 53.53590845207267 C290.25411935322717 57.67077547658205, 289.2515041848784 59.67497820560553, 286.6014911880702 58.2260108490002 M286.6014911880702 58.2260108490002 C284.9970543373208 57.28443765775033, 279.4564953706684 54.403157820105264, 280.25226956944107 53.53590845207267 M286.6014911880702 58.2260108490002 C282.6014348925854 59.33822083775618, 283.2243774329769 57.638187513239394, 280.25226956944107 53.53590845207267 M280.25226956944107 53.53590845207267 C279.6368324825252 48.216540467141904, 280.11994351104784 51.01640580227589, 286.6014911880702 48.8501308280421 M280.25226956944107 53.53590845207267 C281.25473635417325 53.65432878840599, 286.4999992498471 47.48697338202959, 286.6014911880702 48.8501308280421 M286.6014911880702 48.8501308280421 C286.6014911880702 48.85013082804209, 286.6014911880702 48.85013082804209, 286.6014911880702 48.85013082804208 M286.6014911880702 48.8501308280421 C286.6014911880702 48.85013082804209, 286.6014911880702 48.85013082804208, 286.6014911880702 48.85013082804208 M21.53959182651848 169.39520864356496 C25.978994122369187 168.95378231779125, 25.91490139949213 169.69335688085442, 27.88881344514761 174.08531104049248 M21.53959182651848 169.39520864356496 C26.660903196072177 168.78667903487025, 29.372331519118354 174.5026613583151, 27.88881344514761 174.08531104049248 M27.88881344514761 174.08531104049248 C24.96490548369551 175.67984925479863, 22.763281681659077 180.5498936353171, 21.539591826518482 178.77108866452306 M27.88881344514761 174.08531104049248 C25.68347706445569 173.74862412949327, 21.995258066887413 178.28198499231726, 21.539591826518482 178.77108866452306 M21.539591826518482 178.77108866452306 C17.39692540369228 179.07565321306825, 16.217716762788662 176.7528111812589, 15.190370207889355 174.08531104049248 M21.539591826518482 178.77108866452306 C16.498762885064338 180.17271652369888, 15.660784213423796 178.46172078986888, 15.190370207889355 174.08531104049248 M15.190370207889355 174.08531104049248 C17.745961813788913 171.550259837817, 19.999114574310294 171.84616887346294, 21.539591826518482 169.39520864356496 M15.190370207889355 174.08531104049248 C17.968684214327535 174.7832562377039, 21.468333515156914 171.01366248075303, 21.539591826518482 169.39520864356496 M21.539591826518482 169.39520864356496 C21.539591826518482 169.39520864356496, 21.539591826518482 169.39520864356496, 21.53959182651848 169.39520864356496 M21.539591826518482 169.39520864356496 C21.539591826518482 169.39520864356496, 21.53959182651848 169.39520864356496, 21.53959182651848 169.39520864356496 M286.6014911880702 169.39520864356496 C287.91764311866365 168.53540098444012, 291.29145856839403 172.54037548036462, 292.95071280669936 174.08531104049248 M286.6014911880702 169.39520864356496 C289.922842057622 167.6933834428006, 291.16270608776045 168.12938281794226, 292.95071280669936 174.08531104049248 M292.95071280669936 174.08531104049248 C295.0455680297947 174.3975305435178, 291.01866880661566 181.3977209506476, 286.6014911880702 178.77108866452306 M292.95071280669936 174.08531104049248 C290.13856549265597 179.7780603184295, 291.97143356936743 180.20558374076276, 286.6014911880702 178.77108866452306 M286.6014911880702 178.77108866452306 C283.0981171245961 180.35713149885774, 279.51794946879994 177.3416815874097, 280.25226956944107 174.08531104049248 M286.6014911880702 178.77108866452306 C285.42854384866496 179.58552902489097, 281.7949286184917 179.90221635838273, 280.25226956944107 174.08531104049248 M280.25226956944107 174.08531104049248 C279.29619833449743 172.0732694956768, 283.26020848637626 167.16631674543407, 286.6014911880702 169.39520864356496 M280.25226956944107 174.08531104049248 C281.7172006820785 173.67758958240188, 286.3951147915627 169.22857440058527, 286.6014911880702 169.39520864356496 M286.6014911880702 169.39520864356496 C286.6014911880702 169.39520864356496, 286.6014911880702 169.39520864356496, 286.6014911880702 169.39520864356496 M286.6014911880702 169.39520864356496 C286.6014911880702 169.39520864356496, 286.6014911880702 169.39520864356496, 286.6014911880702 169.39520864356496" stroke="#000000" stroke-width="2" fill="none" vector-effect="non-scaling-stroke" data-shape-part="outline" stroke-opacity="1" fill-opacity="0.24"></path></g></g><g transform="translate(437.354469832677, 131.57185097733716) rotate(0)"><text transform="translate(0, 79)" style="font-size: 24px; font-family: &quot;Comic Sans MS&quot;; fill: rgb(17, 17, 17); opacity: 1; stroke-width: 0; font-style: normal; font-weight: normal; text-decoration: none;"></text></g></g><g><g transform="translate(11.356142977530567, 103.19016094580681)  rotate(0)  "><g><path d="M2.818550948984921 -1.7271415488794446 L1127.5790460724918 -0.1563792424276471 L1127.8463408072082 878.7952403373051 L-1.5847955597564578 876.70101507967" stroke="none" stroke-width="0" fill="#616161" vector-effect="non-scaling-stroke" data-shape-part="fill" stroke-opacity="0.03" fill-opacity="0.03"></path><path d="M0 0 C238.20447203433457 -5.791862694955512, 478.6021869244117 -4.839232139325781, 1128.428752032162 0 M0 0 C371.1858859771615 2.0043284194344766, 741.8238739231106 1.568884284960676, 1128.428752032162 0 M1128.428752032162 0 C1132.9199132790677 238.14680220752706, 1132.6551899423712 474.64297231785457, 1128.428752032162 876.3674800836448 M1128.428752032162 0 C1124.9518537542745 322.6486108489953, 1125.3202867231294 644.5634405191363, 1128.428752032162 876.3674800836448 M1128.428752032162 876.3674800836448 C856.6243455387909 871.413839203188, 585.5237424375467 871.6292528093549, 0 876.3674800836448 M1128.428752032162 876.3674800836448 C721.5701857299699 870.8226276283048, 314.85571648085124 871.3387814705155, 0 876.3674800836448 M0 876.3674800836448 C2.525383989077236 689.2446275214845, 1.1453263323122518 502.4964324691728, 0 0 M0 876.3674800836448 C-2.9380425081106156 634.900204366233, -2.629209224924657 393.3509124946287, 0 0" stroke="#000000" stroke-width="2" fill="none" vector-effect="non-scaling-stroke" data-shape-part="outline" stroke-opacity="1" fill-opacity="0.03"></path></g></g><g transform="translate(67.77758057913867, 147.00853494998904) rotate(0)"><text transform="translate(0, 382)" style="font-size: 24px; font-family: &quot;Comic Sans MS&quot;; fill: rgb(17, 17, 17); opacity: 1; stroke-width: 0; font-style: normal; font-weight: normal; text-decoration: none;"></text></g></g><g><g transform="translate(11.356142977530567, -0.07233032341628132)  rotate(0)  "><g><path d="M-0.3530573146417737 -2.429635073058307 L1129.5141404346166 0.783574883826077 L1128.3719692007242 84.03022092999463 L2.036499540321529 82.8635881287003" stroke="none" stroke-width="0" fill="#616161" vector-effect="non-scaling-stroke" data-shape-part="fill" stroke-opacity="0.1" fill-opacity="0.1"></path><path d="M0 0 C345.982064609493 1.877319483050813, 692.6845026211494 2.9283577125162976, 1128.428752032162 0 M0 0 C430.3271362983946 -1.033352584486979, 860.8043210771583 -1.3198890217600048, 1128.428752032162 0 M1128.428752032162 0 C1125.8054314451265 28.38390404109787, 1131.0334996478605 54.86225765166692, 1128.428752032162 82.99427726817821 M1128.428752032162 0 C1127.774714928275 34.13664461523723, 1127.5613587462958 67.03489228553065, 1128.428752032162 82.99427726817821 M1128.428752032162 82.99427726817821 C786.016526943788 77.84013416912248, 443.6730338648695 77.5123126878946, 0 82.99427726817821 M1128.428752032162 82.99427726817821 C831.0424743460416 82.77417173096762, 533.1688572566271 82.77425142833815, 0 82.99427726817821 M0 82.99427726817821 C-1.4280266658085243 63.234273987380135, -2.2820755437630074 45.558439488108455, 0 0 M0 82.99427726817821 C0.32315638642929445 58.58729595221321, -1.1587573440728343 32.647765997721855, 0 0" stroke="#000000" stroke-width="2" fill="none" vector-effect="non-scaling-stroke" data-shape-part="outline" stroke-opacity="1" fill-opacity="0.1"></path></g></g><g transform="translate(67.77758057913867, 4.0773835399926295) rotate(0)"><text transform="translate(0, 25)" style="font-size: 24px; font-family: &quot;Comic Sans MS&quot;; fill: rgb(17, 17, 17); opacity: 1; stroke-width: 0; font-style: normal; font-weight: normal; text-decoration: none;"></text></g></g><g><g transform="translate(42.96710969259886, -0.07233032341628132)  rotate(0)  "><g><path d="M61.32811940959171 7.645681323245732 C67.67992505183481 10.795649450770682, 75.18027440163803 17.207964821805792, 78.12774648218351 23.562275869328257 C81.07521856272899 29.916586916850722, 80.42862818275496 38.35368494306854, 79.01295189286455 45.771547608380516 C77.59727560297414 53.189410273692495, 74.4954533018267 62.38520474254621, 69.63368874284104 68.06945186120015 C64.77192418385539 73.7536989798541, 56.946932520267055 78.09398531974084, 49.84236453895059 79.87703032030416 C42.73779655763413 81.66007532086748, 33.837515093009564 81.14169728840542, 27.006280854942247 78.76772186458008 C20.17504661687493 76.39374644075474, 13.275785824516198 71.07737128943455, 8.854959110546694 65.63317777735206 C4.43413239657719 60.18898426526957, 1.4195491712324944 53.17041251044144, 0.48132057112521665 46.10256079208514 C-0.45690802898206095 39.03470907372885, 0.13093073678210487 29.938866973727468, 3.225587509903029 23.22606746721427 C6.320244283023953 16.513267960701075, 12.971494114628257 9.666575698973839, 19.049261209850762 5.8257637530059725 C25.127028305073267 1.9849518070381067, 31.93757111595674 -0.3527460217423902, 39.69219008123807 0.18119579140707742 C47.44680904651939 0.7151376045565451, 60.67080859269685 6.80107814507957, 65.57697500153873 9.029414631902778 C70.4831414103806 11.257751118725986, 69.64221063350497 13.097691204892888, 69.12918853428933 13.55121471234633 M33.520572151139845 1.287007484356451 C40.16792556750384 -0.8178114005239396, 50.45808741275347 -0.7024234596554773, 57.20852607307959 1.862018654822208 C63.95896473340571 4.426460769299894, 70.02924100478646 10.37515837932893, 74.02320411309655 16.67366017122256 C78.01716722140665 22.972161963116193, 80.97978481352821 32.037989752462444, 81.17230472294018 39.653029406184 C81.36482463235215 47.26806905990555, 79.208434414376 56.44941930806915, 75.17832356956836 62.36389809355189 C71.14821272476073 68.27837687903462, 63.92801091833793 72.28500984754682, 56.9916396540944 75.13990211908042 C50.055268389850866 77.99479439061402, 40.38390602539892 80.25119807903847, 33.56009598410717 79.49325172275346 C26.736285942815424 78.73530536646844, 21.349981536618138 75.12093572636391, 16.04877940634391 70.59222398137032 C10.747577276069684 66.06351223637674, 3.857120880455548 58.95202066301615, 1.7528832024618168 52.32098125279195 C-0.35135447553191446 45.689941842567755, 1.3532777724850171 37.99269011681743, 3.4233533383815242 30.805987520025127 C5.493428904278032 23.619284923232826, 9.015616303783432 13.945833008032192, 14.173336597840859 9.200765672038138 C19.331056891898285 4.455698336044082, 30.972875957735297 3.470191233328774, 34.369675102726085 2.335583504060793 C37.76647424771687 1.2009757747928116, 34.47087048683291 1.9153593917022402, 34.55413146778558 2.3931192964302497" stroke="none" stroke-width="0" fill="#616161" vector-effect="non-scaling-stroke" data-shape-part="fill" stroke-opacity="0.26" fill-opacity="0.26"></path><path d="M16.91748245331899 8.341454335944356 C22.61445754749916 4.061241903959484, 32.338413806740526 -0.4806658413829498, 39.657990208775686 -0.8908477209182379 C46.97756661081085 -1.301029600453526, 54.59842611072871 1.9852974527959995, 60.83494086552995 5.880363058732627 C67.0714556203312 9.775428664669255, 73.58294018246507 16.004571826210086, 77.07707873758315 22.479545914701525 C80.57121729270123 28.954520003192965, 82.63723704287372 37.70989338344734, 81.79977219623844 44.73020758968126 C80.96230734960315 51.750521795915176, 76.9016797463872 58.98583358338708, 72.05228965777144 64.60143115210506 C67.20289956915568 70.21702872082305, 59.905131368650295 76.11465692966755, 52.70343166454385 78.4237930019892 C45.501731960437404 80.73292907431085, 35.84644381474186 80.00473374510682, 28.842091433132765 78.45624758603499 C21.837739051523666 76.90776142696316, 15.227648922259327 74.27912023811392, 10.67731737488926 69.1328760475582 C6.126985827519192 63.98663185700248, 2.867059741507761 55.20506043307743, 1.5401021489123607 47.57878244270067 C0.21314455631696028 39.952504452323915, -1.7001742597942693 31.155747063827622, 2.7155718193168568 23.375208105297645 C7.131317898427983 15.594669146767668, 22.090919456398787 4.780587448790593, 28.034578623579115 0.8955486915208013 C33.978237790759444 -2.98949006574899, 38.300582237838654 -0.5223122463164517, 38.377526822398835 0.0649755616788994 M14.786302329737662 11.198573996510955 C20.15821038408287 6.283761797229017, 29.920982325149765 3.362197537779731, 37.110931037924644 2.1208838580879217 C44.30087975069952 0.8795701783961121, 51.41964600374459 1.0916959489302536, 57.925994606386936 3.750691918360097 C64.43234320902928 6.409687887789941, 72.19816468702713 11.858745757392484, 76.14902265377873 18.074859674666982 C80.09988062053033 24.29097359194148, 81.85691038479209 33.54829134619243, 81.63114240689654 41.04737542200709 C81.405374429001 48.54645949782176, 79.07987730951683 57.094144356923366, 74.79441478640544 63.06936412955499 C70.50895226329405 69.04458390218662, 62.82026066494227 74.27922851613124, 55.91836726822816 76.89869405779686 C49.01647387151405 79.51815959946248, 40.18834141261008 79.74549977978678, 33.383054406120806 78.78615737954873 C26.577767399631533 77.82681497931067, 20.384322322450835 75.47867022296074, 15.086645229292529 71.14263965636849 C9.788968136134223 66.80660908977623, 4.1513550663645145 59.94961020185666, 1.5969918471709619 52.7699739799952 C-0.9573713720225903 45.59033775813374, -2.044292698999091 35.441425238840814, -0.2395340858687831 28.064822325199763 C1.5652245272615246 20.688219411558713, 9.752975195412628 11.890894721477022, 12.425543525952808 8.510356498148894 C15.098111856492988 5.129818274820767, 15.00024983014632 7.151255505726169, 15.795875897372294 7.781592985231004" stroke="#000000" stroke-width="2" fill="none" vector-effect="non-scaling-stroke" data-shape-part="outline" stroke-opacity="1" fill-opacity="0.26"></path></g></g><g transform="translate(55.093943343312944, 12.054503327297805) rotate(0)"><text transform="translate(0, 16)" style="font-size: 24px; font-family: &quot;Comic Sans MS&quot;; fill: rgb(17, 17, 17); opacity: 1; stroke-width: 0; font-style: normal; font-weight: normal; text-decoration: none;"></text></g></g><g><g id="YheH_VaDqbgHkSYEjyY83" pointer-events="auto"><g><path data-shape-part="outline" class="" d="M106.082 6.898 C96.11380161205186 22.002750543599017, 86.14560322410371 37.10750108719803, 80.549 45.588 M106.082 6.898 C98.860260300373 17.841058355013843, 91.638520600746 28.784116710027682, 80.549 45.588 M80.549 45.588 C72.62496920050141 56.534550801007455, 64.7009384010028 67.4811016020149, 60.315 73.54 M80.549 45.588 C73.40801160612646 55.45282690449506, 66.26702321225292 65.31765380899013, 60.315 73.54" stroke="#000000" stroke-width="2" stroke-opacity="1" fill="none" stroke-linecap="round" stroke-dashoffset="-3"></path></g><path d="M106.082,6.898L80.549,45.588L60.315,73.54" fill="none" fill-opacity="0" stroke="black" stroke-opacity="0" stroke-width="10" id="hit-YheH_VaDqbgHkSYEjyY83"></path></g></g><g><g id="96UWt2DFYsuy_czOTLnEp" pointer-events="auto"><g><path data-shape-part="outline" class="" d="M57.562 9.255 C70.03357460898347 23.499130980290474, 82.50514921796695 37.743261960580945, 89.681 45.939 M57.562 9.255 C70.36223304183892 23.87450088442415, 83.16246608367786 38.4940017688483, 89.681 45.939 M89.681 45.939 C97.37440298256092 54.46858789559677, 105.06780596512183 62.998175791193546, 111.146 69.737 M89.681 45.939 C96.62221220702119 53.63464258572981, 103.56342441404239 61.330285171459614, 111.146 69.737" stroke="#000000" stroke-width="2" stroke-opacity="1" fill="none" stroke-linecap="round" stroke-dashoffset="-3"></path></g><path d="M57.562,9.255L89.681,45.939L111.146,69.737" fill="none" fill-opacity="0" stroke="black" stroke-opacity="0" stroke-width="10" id="hit-96UWt2DFYsuy_czOTLnEp"></path></g></g><g><g transform="translate(11.356142977530567, 997.078053055238)  rotate(0)  "><g><path d="M1.6419454347342253 -1.6519199442118406 L1128.601124982403 -1.3853189181536436 L1127.6992538376314 83.38692908128296 L-0.3043296206742525 80.6991577013353" stroke="none" stroke-width="0" fill="#616161" vector-effect="non-scaling-stroke" data-shape-part="fill" stroke-opacity="0.1" fill-opacity="0.1"></path><path d="M0 0 C379.8582043152559 -6.7916833211845065, 759.9016846076166 -6.113122849649777, 1128.428752032162 0 M0 0 C231.87027635401287 1.5129653696663077, 463.2278396426548 1.8164751653320488, 1128.428752032162 0 M1128.428752032162 0 C1129.6568911352642 28.785871626761963, 1128.994804112006 51.827244689593535, 1128.428752032162 82.99427726817821 M1128.428752032162 0 C1128.8522006455066 22.525916863035807, 1127.2576884511116 43.561298965082365, 1128.428752032162 82.99427726817821 M1128.428752032162 82.99427726817821 C849.5763718061437 90.14648507907452, 572.9574311142829 88.55942207648816, 0 82.99427726817821 M1128.428752032162 82.99427726817821 C892.262555968006 83.58769852988175, 656.6101757929849 83.58396879307678, 0 82.99427726817821 M0 82.99427726817821 C0.1697717712444673 49.50243558604956, 0.9894314215702424 20.416058838106046, 0 0 M0 82.99427726817821 C0.046026095810972056 61.801370125989216, -0.36354766779796044 40.025657312071075, 0 0" stroke="#000000" stroke-width="2" fill="none" vector-effect="non-scaling-stroke" data-shape-part="outline" stroke-opacity="1" fill-opacity="0.1"></path></g></g><g transform="translate(67.77758057913867, 1001.2277669186469) rotate(0)"><text transform="translate(0, 25)" style="font-size: 24px; font-family: &quot;Comic Sans MS&quot;; fill: rgb(17, 17, 17); opacity: 1; stroke-width: 0; font-style: normal; font-weight: normal; text-decoration: none;"></text></g></g><g transform="translate(376.63842501831977, 24.513977121636838) rotate(0)"><text transform="translate(0, 0)" style="font-size: 24px; font-family: Roboto; fill: rgb(17, 17, 17); opacity: 1; stroke-width: 0; font-style: normal; font-weight: normal; text-decoration: none;"><tspan dominant-baseline="text-before-edge" x="0" y="0">Hom</tspan></text></g><g transform="translate(506.9458544771013, 24.513977121636838) rotate(0)"><text transform="translate(0, 0)" style="font-size: 24px; font-family: Roboto; fill: rgb(17, 17, 17); opacity: 1; stroke-width: 0; font-style: normal; font-weight: normal; text-decoration: none;"><tspan dominant-baseline="text-before-edge" x="0" y="0">Abou</tspan></text></g><g transform="translate(636.5508180088813, 24.513977121636838) rotate(0)"><text transform="translate(0, 0)" style="font-size: 24px; font-family: Roboto; fill: rgb(17, 17, 17); opacity: 1; stroke-width: 0; font-style: normal; font-weight: normal; text-decoration: none;"><tspan dominant-baseline="text-before-edge" x="0" y="0">Contac</tspan></text></g><g transform="translate(772.1267419201743, 25.567676012139113) rotate(0)"><text transform="translate(0, 0)" style="font-size: 24px; font-family: Roboto; fill: rgb(17, 17, 17); opacity: 1; stroke-width: 0; font-style: normal; font-weight: normal; text-decoration: none;"><tspan dominant-baseline="text-before-edge" x="0" y="0">Portfoli</tspan></text></g><g transform="translate(922.1032173349982, 24.513977121636838) rotate(0)"><text transform="translate(0, 0)" style="font-size: 24px; font-family: Roboto; fill: rgb(17, 17, 17); opacity: 1; stroke-width: 0; font-style: normal; font-weight: normal; text-decoration: none;"><tspan dominant-baseline="text-before-edge" x="0" y="0">Sign U</tspan></text></g><g><g transform="translate(13.463540758535121, 359.23899133786)  rotate(0)  "><g><path d="M-2.38118168246001 -0.020994027145206928 L1128.7776319376508 -2.975114037282765 L1126.4506225875894 390.14757387082204 L-1.416073258034885 390.9187861208163" stroke="none" stroke-width="0" fill="#616161" vector-effect="non-scaling-stroke" data-shape-part="fill" stroke-opacity="0.1" fill-opacity="0.1"></path><path d="M0 0 C227.37453973406826 0.8675321979718278, 453.5139084201659 1.0878244204716752, 1128.1803162639344 0 M0 0 C428.5182765269806 0.2281269441139081, 856.5701863268698 -0.018330030630888727, 1128.1803162639344 0 M1128.1803162639344 0 C1130.313072931533 103.5991176318952, 1132.9788665411247 205.8417239779866, 1128.1803162639344 388.19102472274676 M1128.1803162639344 0 C1125.647457362215 100.62318683540566, 1125.4808874556782 203.2235647697414, 1128.1803162639344 388.19102472274676 M1128.1803162639344 388.19102472274676 C685.8905436929687 389.82673559344283, 243.35709093878606 388.2305872336673, 0 388.19102472274676 M1128.1803162639344 388.19102472274676 C701.310658436521 390.6785089318281, 274.85440476891404 390.98517581267413, 0 388.19102472274676 M0 388.19102472274676 C-4.237432296551187 257.86357748805335, -1.8358407861358088 130.46772082660416, 0 0 M0 388.19102472274676 C-2.4296216838110554 272.84411987404513, -2.2824203558195144 157.01993961841464, 0 0" stroke="#000000" stroke-width="2" fill="none" vector-effect="non-scaling-stroke" data-shape-part="outline" stroke-opacity="1" fill-opacity="0.1"></path></g></g><g transform="translate(69.87255657173185, 378.64854257399736) rotate(0)"><text transform="translate(0, 163)" style="font-size: 24px; font-family: &quot;Comic Sans MS&quot;; fill: rgb(17, 17, 17); opacity: 1; stroke-width: 0; font-style: normal; font-weight: normal; text-decoration: none;"></text></g></g><g><g id="8vDj4CI7iJxnv-N7jGK_Y" pointer-events="auto"><g><path data-shape-part="outline" class="" d="M13.464 359.239 C275.6916780961231 448.9040004793126, 537.9193561922463 538.5690009586252, 1141.644 745.004 M13.464 359.239 C332.6517952018306 468.380697083829, 651.8395904036613 577.5223941676579, 1141.644 745.004" stroke="#000000" stroke-width="2" stroke-opacity="1" fill="none" stroke-linecap="round" stroke-dashoffset="-3"></path></g><path d="M13.464,359.239L1141.644,745.004" fill="none" fill-opacity="0" stroke="black" stroke-opacity="0" stroke-width="10" id="hit-8vDj4CI7iJxnv-N7jGK_Y"></path></g></g><g><g id="KYGej1m20Ov0Ckm2ZqmI6" pointer-events="auto"><g><path data-shape-part="outline" class="" d="M1141.644 361.665 C811.7052833720929 474.48282075552174, 481.76656674418587 587.3006415110435, 13.464 747.43 M1141.644 361.665 C845.9916031980626 462.75910453322996, 550.3392063961252 563.8532090664598, 13.464 747.43" stroke="#000000" stroke-width="2" stroke-opacity="1" fill="none" stroke-linecap="round" stroke-dashoffset="-3"></path></g><path d="M1141.644,361.665L13.464,747.43" fill="none" fill-opacity="0" stroke="black" stroke-opacity="0" stroke-width="10" id="hit-KYGej1m20Ov0Ckm2ZqmI6"></path></g></g><g><g transform="translate(434.9430969594457, 827.7837646478723)  rotate(0)  "><g><path d="M239.48813613782775 78.82475681803045 C180.43078866321594 82.83202001059402, 122.10207505413194 83.42396318519462, 42.26261225961666 78.82475681803045 C15.574776943019126 78.93220051410464, -2.38534680288285 74.4197845790833, 0 59.870422860504696 C0.5370309779381602 49.957888325418956, -1.2573732366824297 42.01805736325466, 0 18.95433395752576 C1.679161369614303 11.327922932912111, 20.49156144074211 -3.3880667177960273, 42.26261225961666 0 C110.75001061236058 -5.4614833591328855, 185.88114347069086 -2.4422717748032805, 239.48813613782775 0 C265.1832932178364 -4.078602075763047, 283.5499492394151 9.753293050561547, 281.7507483974444 18.95433395752576 C281.0477844274763 34.9048107987043, 286.2223905659441 53.18479069014308, 281.7507483974444 59.870422860504696 C286.264166004804 72.27663139182326, 260.0646331102089 76.30409945468274, 239.48813613782775 78.82475681803045 C239.48813613782775 78.82475681803045, 239.48813613782775 78.82475681803045, 239.48813613782775 78.82475681803045" stroke="none" stroke-width="0" fill="#616161" vector-effect="non-scaling-stroke" data-shape-part="fill" stroke-opacity="0.1" fill-opacity="0.1"></path><path d="M239.48813613782775 78.82475681803045 C177.29661247976196 75.24269851356996, 112.20495678679093 74.32221364289774, 42.26261225961666 78.82475681803045 M239.48813613782775 78.82475681803045 C177.2602418697912 78.19798726662219, 112.67786622737542 78.0211893252951, 42.26261225961666 78.82475681803045 M42.26261225961666 78.82475681803045 C19.10897703430662 75.90480705271331, -2.895121623761952 71.87940592396257, 0 59.870422860504696 M42.26261225961666 78.82475681803045 C21.388901811503338 79.65372711559614, 2.1252337931189684 68.25573418287743, 0 59.870422860504696 M0 59.870422860504696 C0.39407095208420834 53.77811904160808, -0.3090704093907825 39.72112923596163, 0 18.95433395752576 M0 59.870422860504696 C1.246945325742328 51.51600481063886, 1.5753352832895158 42.293227907965594, 0 18.95433395752576 M0 18.95433395752576 C-2.4550700085237622 5.845068830360175, 17.241177156186197 -1.48786651622504, 42.26261225961666 0 M0 18.95433395752576 C-0.9252954037394375 7.295016374500916, 20.059080373906063 -0.281643960485235, 42.26261225961666 0 M42.26261225961666 0 C88.36324064453781 0.48619038278754867, 134.07820083646885 -2.3658569115907317, 239.48813613782775 0 M42.26261225961666 0 C86.89968374701633 3.094379145074247, 133.9705021632308 2.8776098521236166, 239.48813613782775 0 M239.48813613782775 0 C260.25533110652725 1.0623229192569852, 279.1403838513764 9.622447031844855, 281.7507483974444 18.95433395752576 M239.48813613782775 0 C265.0856632129257 -1.7765691226813942, 285.08262744386406 9.562900003107712, 281.7507483974444 18.95433395752576 M281.7507483974444 18.95433395752576 C283.0211415365081 27.427375918906797, 283.10030112412977 43.215420311449535, 281.7507483974444 59.870422860504696 M281.7507483974444 18.95433395752576 C280.59575345259765 29.614259591767677, 280.85393104594806 36.733881009919, 281.7507483974444 59.870422860504696 M281.7507483974444 59.870422860504696 C280.4747111318978 70.70046133625505, 259.9598807767467 80.2042108989772, 239.48813613782775 78.82475681803045 M281.7507483974444 59.870422860504696 C281.32288098473754 68.40742776541222, 261.2363826231067 78.52483654459795, 239.48813613782775 78.82475681803045 M239.48813613782775 78.82475681803045 C239.48813613782775 78.82475681803045, 239.48813613782775 78.82475681803045, 239.48813613782775 78.82475681803045 M239.48813613782775 78.82475681803045 C239.48813613782775 78.82475681803045, 239.48813613782775 78.82475681803045, 239.48813613782775 78.82475681803045" stroke="#000000" stroke-width="2" fill="none" vector-effect="non-scaling-stroke" data-shape-part="outline" stroke-opacity="1" fill-opacity="0.1"></path></g></g><g transform="translate(449.0306343793179, 834.1018761215455) rotate(0)"><text transform="translate(0, 21)" style="font-size: 24px; font-family: &quot;Comic Sans MS&quot;; fill: rgb(17, 17, 17); opacity: 1; stroke-width: 0; font-style: normal; font-weight: normal; text-decoration: none;"></text></g></g><g transform="translate(471.12009220002386, 852.0188391294247) rotate(0)"><text transform="translate(0, 0)" style="font-size: 24px; font-family: Roboto; fill: rgb(17, 17, 17); opacity: 1; stroke-width: 0; font-style: normal; font-weight: bold; text-decoration: none;"><tspan dominant-baseline="text-before-edge" x="0" y="0">Who is besys.tech</tspan></text></g><g transform="translate(493.24776890057166, 202.58908961652156) rotate(0)"><text transform="translate(0, 0)" style="font-size: 33px; font-family: Roboto; fill: rgb(17, 17, 17); opacity: 1; stroke-width: 0; font-style: normal; font-weight: bold; text-decoration: none;"><tspan dominant-baseline="text-before-edge" x="0" y="0">besys.tec</tspan></text></g><g><g transform="translate(994.4572078161546, 1016.3958660477798)  rotate(0)  "><g><path d="M33.99792930041617 0 C24.196580453506364 0, 14.39523160659656 0, 1.6580007472148421 0 M33.99792930041617 0 C21.235617669408985 0, 8.473306038401802 0, 1.6580007472148421 0 M1.6580007472148421 0 C0.7452089379954882 0, 0 0.9176539814985735, 0 2.041670341611659 M1.6580007472148421 0 C0.7452089379954882 0, 0 0.9176539814985735, 0 2.041670341611659 M0 2.041670341611659 C0 14.595803486692443, 0 27.14993663177323, 0 41.86521872530574 M0 2.041670341611659 C0 14.714348850956206, 0 27.387027360300756, 0 41.86521872530574 M0 41.86521872530574 C0 42.98923508541882, 0.7452089379954882 43.906889066917394, 1.6580007472148421 43.906889066917394 M0 41.86521872530574 C0 42.98923508541882, 0.7452089379954882 43.906889066917394, 1.6580007472148421 43.906889066917394 M1.6580007472148421 43.906889066917394 C5.5668443811866 43.906889066917394, 9.475688015158358 43.906889066917394, 18.145302801239424 43.906889066917394 M1.6580007472148421 43.906889066917394 C7.42911471852174 43.906889066917394, 13.200228689828638 43.906889066917394, 18.145302801239424 43.906889066917394 M18.145302801239424 43.906889066917394 C18.167743876697543 40.333806195400896, 18.19018495215566 36.7607233238844, 18.252270591382313 26.875406797860137 M18.145302801239424 43.906889066917394 C18.186032830624665 37.421826859254274, 18.226762860009902 30.936764651591158, 18.252270591382313 26.875406797860137 M18.252270591382313 26.875406797860137 C16.705977473905637 26.875406797860137, 15.15968435642896 26.875406797860137, 13.570646976128364 26.875406797860137 M18.252270591382313 26.875406797860137 C17.03515819796802 26.875406797860137, 15.818045804553725 26.875406797860137, 13.570646976128364 26.875406797860137 M13.570646976128364 26.875406797860137 C13.579952405592838 25.402957167764523, 13.589257835057314 23.930507537668912, 13.613434092185521 20.104964503741474 M13.570646976128364 26.875406797860137 C13.585112592965935 24.586432146781377, 13.599578209803504 22.297457495702616, 13.613434092185521 20.104964503741474 M13.613434092185521 20.104964503741474 C14.98780151001736 20.104964503741474, 16.362168927849197 20.104964503741474, 18.31645126546805 20.104964503741474 M13.613434092185521 20.104964503741474 C14.70601068668144 20.104964503741474, 15.798587281177358 20.104964503741474, 18.31645126546805 20.104964503741474 M18.31645126546805 20.104964503741474 C18.317663038450874 19.931871245599748, 18.318874811433698 19.75877798745802, 18.320016858472812 19.595644590565232 M18.31645126546805 20.104964503741474 C18.317393256077978 19.97040776240287, 18.3183352466879 19.835851021064265, 18.320016858472812 19.595644590565232 M18.320016858472812 19.595644590565232 C18.32714804448234 18.230140340584104, 18.31645126546805 16.86463609060297, 18.355672788520444 15.49913184062184 M18.320016858472812 19.595644590565232 C18.32714804448234 18.230140340584104, 18.31645126546805 16.86463609060297, 18.355672788520444 15.49913184062184 M18.355672788520444 15.49913184062184 C18.37350075354426 14.64294750381695, 18.409156683591892 13.760419033571912, 18.5339524387586 12.904234696767023 M18.355672788520444 15.49913184062184 C18.37350075354426 14.64294750381695, 18.409156683591892 13.760419033571912, 18.5339524387586 12.904234696767023 M18.5339524387586 12.904234696767023 C18.851290216182516 10.831829532808523, 19.632155084225634 9.093116725758595, 21.04056432110706 7.84616107625814 M18.5339524387586 12.904234696767023 C18.851290216182516 10.831829532808523, 19.632155084225634 9.093116725758595, 21.04056432110706 7.84616107625814 M21.04056432110706 7.84616107625814 C22.274259500755093 6.7616609163052805, 23.679103144631753 6.309419958916031, 25.16952102062273 6.265513069849114 M21.04056432110706 7.84616107625814 C22.274259500755093 6.7616609163052805, 23.679103144631753 6.309419958916031, 25.16952102062273 6.265513069849114 M25.16952102062273 6.265513069849114 C25.32284151982755 6.261122380942423, 25.472596426027593 6.261122380942423, 25.62591692523241 6.261122380942423 M25.16952102062273 6.265513069849114 C25.32284151982755 6.261122380942423, 25.472596426027593 6.261122380942423, 25.62591692523241 6.261122380942423 M25.62591692523241 6.261122380942423 C26.442437723323163 6.261122380942423, 27.266089707423436 6.313810647822723, 28.082610505514186 6.362108225796333 M25.62591692523241 6.261122380942423 C26.442437723323163 6.261122380942423, 27.266089707423436 6.313810647822723, 28.082610505514186 6.362108225796333 M28.082610505514186 6.362108225796333 C28.613883863223887 6.388452359236483, 29.145157220933594 6.480656826277009, 29.644340241600425 6.550907848784077 M28.082610505514186 6.362108225796333 C28.613883863223887 6.388452359236483, 29.145157220933594 6.480656826277009, 29.644340241600425 6.550907848784077 M29.644340241600425 6.550907848784077 C29.634779060636927 8.02797023023769, 29.625217879673425 9.505032611691304, 29.60511871854803 12.610058540018677 M29.644340241600425 6.550907848784077 C29.629936169304035 8.776125989718334, 29.615532097007648 11.00134413065259, 29.60511871854803 12.610058540018677 M29.60511871854803 12.610058540018677 C29.451798219343214 12.610058540018677, 29.334133650186033 12.610058540018677, 29.21290348802409 12.610058540018677 M29.60511871854803 12.610058540018677 C29.451798219343214 12.610058540018677, 29.334133650186033 12.610058540018677, 29.21290348802409 12.610058540018677 M29.21290348802409 12.610058540018677 C28.67449894430486 12.610058540018677, 28.132528807580872 12.601277162205294, 27.59412426386164 12.601277162205294 M29.21290348802409 12.610058540018677 C28.67449894430486 12.610058540018677, 28.132528807580872 12.601277162205294, 27.59412426386164 12.601277162205294 M27.59412426386164 12.601277162205294 C27.18764666131865 12.601277162205294, 26.78473465178042 12.605667851111987, 26.378257049237426 12.623230606738753 M27.59412426386164 12.601277162205294 C27.18764666131865 12.601277162205294, 26.78473465178042 12.605667851111987, 26.378257049237426 12.623230606738753 M26.378257049237426 12.623230606738753 C25.07325000949413 12.675918873619056, 24.114105491212857 13.277443253835822, 24.046359224122355 15.283988084193949 M26.378257049237426 12.623230606738753 C25.07325000949413 12.675918873619056, 24.114105491212857 13.277443253835822, 24.046359224122355 15.283988084193949 M24.046359224122355 15.283988084193949 C24.003572108065196 16.72852473449553, 23.97504736402709 19.920555569660426, 23.97504736402709 20.08740174811471 M24.046359224122355 15.283988084193949 C24.003572108065196 16.72852473449553, 23.97504736402709 19.920555569660426, 23.97504736402709 20.08740174811471 M23.97504736402709 20.08740174811471 C24.04279363111759 20.08740174811471, 25.333538298841834 20.0917924370214, 26.627848559570836 20.0917924370214 M23.97504736402709 20.08740174811471 C24.04279363111759 20.08740174811471, 25.333538298841834 20.0917924370214, 26.627848559570836 20.0917924370214 M26.627848559570836 20.0917924370214 C27.276786486437718 20.0917924370214, 27.911462041285553 20.0917924370214, 28.35359557387618 20.08740174811471 M26.627848559570836 20.0917924370214 C27.276786486437718 20.0917924370214, 27.911462041285553 20.0917924370214, 28.35359557387618 20.08740174811471 M28.35359557387618 20.08740174811471 C28.68876131632391 20.08740174811471, 29.027492651776406 20.08740174811471, 29.409011103286055 20.08740174811471 M28.35359557387618 20.08740174811471 C28.68876131632391 20.08740174811471, 29.027492651776406 20.08740174811471, 29.409011103286055 20.08740174811471 M29.409011103286055 20.08740174811471 C29.145157220933587 22.414466868661332, 28.902696896609694 24.64932752216743, 28.638843014257226 26.897360242393596 M29.409011103286055 20.08740174811471 C29.145157220933587 22.414466868661332, 28.902696896609694 24.64932752216743, 28.638843014257226 26.897360242393596 M28.638843014257226 26.897360242393596 C27.60607798890389 26.897360242393596, 26.573312963550553 26.897360242393596, 23.978612957031856 26.897360242393596 M28.638843014257226 26.897360242393596 C27.637700080880414 26.897360242393596, 26.636557147503602 26.897360242393596, 23.978612957031856 26.897360242393596 M23.978612957031856 26.897360242393596 C23.956696374678412 30.38243494364691, 23.934779792324967 33.867509644900224, 23.871645166888964 43.906889066917394 M23.978612957031856 26.897360242393596 C23.951075332473977 31.276267369954503, 23.9235377079161 35.65517449751541, 23.871645166888964 43.906889066917394 M23.871645166888964 43.906889066917394 C27.344182825535402 43.906889066917394, 30.81672048418184 43.906889066917394, 33.99792930041617 43.906889066917394 M23.871645166888964 43.906889066917394 C26.23262450189611 43.906889066917394, 28.593603836903263 43.906889066917394, 33.99792930041617 43.906889066917394 M33.99792930041617 43.906889066917394 C34.910721109635524 43.906889066917394, 35.65593004763101 42.98923508541882, 35.65593004763101 41.86521872530573 M33.99792930041617 43.906889066917394 C34.910721109635524 43.906889066917394, 35.65593004763101 42.98923508541882, 35.65593004763101 41.86521872530573 M35.65593004763101 41.86521872530573 C35.65593004763101 27.267091664245687, 35.65593004763101 12.668964603185643, 35.65593004763101 2.041670341611659 M35.65593004763101 41.86521872530573 C35.65593004763101 32.84129351811206, 35.65593004763101 23.817368310918386, 35.65593004763101 2.041670341611659 M35.65593004763101 2.041670341611659 C35.65593004763101 0.9176539814985735, 34.910721109635524 0, 33.99792930041617 0 M35.65593004763101 2.041670341611659 C35.65593004763101 0.9176539814985735, 34.910721109635524 0, 33.99792930041617 0 M33.99792930041617 0 C33.99792930041617 0, 33.99792930041617 0, 33.99792930041617 0 M33.99792930041617 0 C33.99792930041617 0, 33.99792930041617 0, 33.99792930041617 0" stroke="#000000" stroke-width="2" fill="none" vector-effect="non-scaling-stroke" data-shape-part="outline" stroke-opacity="1" fill-opacity="0.24"></path></g></g></g><g><g transform="translate(1054.5180445747842, 1016.3958660477798)  rotate(0)  "><g><path d="M1.9467789348418885 13.617426049657354 C1.9467789348418885 13.617426049657354, 1.9467789348418885 13.617426049657354, 1.9467789348418885 13.617426049657354 M1.9467789348418885 13.617426049657354 C1.9467789348418885 13.617426049657354, 1.9467789348418885 13.617426049657354, 1.9467789348418885 13.617426049657354 M2.0799243157095013 25.658284503586362 C4.793386792749603 22.536802995819766, 7.506849269789703 19.415321488053166, 11.264750721576602 15.092350380467554 M2.0799243157095013 25.658284503586362 C5.390178159278388 21.850273062062797, 8.700432002847275 18.04226162053923, 11.264750721576602 15.092350380467554 M1.557010667586603 38.45385253773814 C3.8939992823507996 35.76545466727822, 6.230987897114996 33.0770567968183, 10.741837073453706 27.88791841461933 M1.557010667586603 38.45385253773814 C3.8531473902764555 35.81244939329575, 6.149284112966308 33.17104624885335, 10.741837073453706 27.88791841461933 M8.906805367349794 42.19290560921665 C9.337504015804589 41.697443491001465, 9.768202664259384 41.201981372786285, 10.874982454321314 39.92877686854834 M8.906805367349794 42.19290560921665 C9.341388125870203 41.692975333491816, 9.775970884390613 41.19304505776698, 10.874982454321314 39.92877686854834" stroke="none" stroke-width="1" fill="none" vector-effect="non-scaling-stroke" data-shape-part="fill" stroke-opacity="0.24" fill-opacity="0.24"></path><path d="M10.954592088323508 41.735584061842076 C7.628453085077956 41.735584061842076, 4.302314081832403 41.735584061842076, 1.8407890114970409 41.735584061842076 M10.954592088323508 41.735584061842076 C8.181250415721255 41.735584061842076, 5.407908743119001 41.735584061842076, 1.8407890114970409 41.735584061842076 M1.8407890114970409 41.735584061842076 C1.8407890114970409 31.25377599122026, 1.8407890114970409 20.771967920598446, 1.8407890114970409 13.739353508957043 M1.8407890114970409 41.735584061842076 C1.8407890114970409 33.73992808467932, 1.8407890114970409 25.744272107516565, 1.8407890114970409 13.739353508957043 M1.8407890114970409 13.739353508957043 C4.875846496417637 13.739353508957043, 7.910903981338232 13.739353508957043, 10.954592088323508 13.739353508957043 M1.8407890114970409 13.739353508957043 C4.223635189124052 13.739353508957043, 6.606481366751064 13.739353508957043, 10.954592088323508 13.739353508957043 M10.954592088323508 13.739353508957043 C10.954592088323508 21.703403387567917, 10.954592088323508 29.66745326617879, 10.954592088323508 41.735584061842076 M10.954592088323508 13.739353508957043 C10.954592088323508 20.294900225452103, 10.954592088323508 26.850446941947162, 10.954592088323508 41.735584061842076 M10.954592088323508 41.735584061842076 C10.954592088323508 41.735584061842076, 10.954592088323508 41.735584061842076, 10.954592088323508 41.735584061842076 M10.954592088323508 41.735584061842076 C10.954592088323508 41.735584061842076, 10.954592088323508 41.735584061842076, 10.954592088323508 41.735584061842076" stroke="#000000" stroke-width="2" fill="none" vector-effect="non-scaling-stroke" data-shape-part="outline" stroke-opacity="1" fill-opacity="0.24"></path></g><g><path d="M2.1252227014470058 1.8474279092738564 C2.1252227014470058 1.8474279092738564, 2.1252227014470058 1.8474279092738564, 2.1252227014470058 1.8474279092738564 M2.1252227014470058 1.8474279092738564 C2.1252227014470058 1.8474279092738564, 2.1252227014470058 1.8474279092738564, 2.1252227014470058 1.8474279092738564 M5.538663227267152 10.114738462089003 C7.622733863786836 7.717289443419778, 9.70680450030652 5.319840424750555, 12.099253517172226 2.5676426598612823 M5.538663227267152 10.114738462089003 C6.904620196472262 8.543384719092083, 8.270577165677372 6.972030976095164, 12.099253517172226 2.5676426598612823" stroke="none" stroke-width="1" fill="none" vector-effect="non-scaling-stroke" data-shape-part="fill" stroke-opacity="0.24" fill-opacity="0.24"></path><path d="M12.031548279040923 4.812112730884358 C12.031548279040923 5.090650933032993, 12.003035744766787 5.373420756344206, 11.947290737598692 5.647727337330263 C11.891545730430597 5.92203391831632, 11.806874466534076 6.196211923634656, 11.697078236032354 6.4579522168007015 C11.587282005530632 6.719692509966747, 11.449024705519491 6.976947937341374, 11.288513354588364 7.2181690963265375 C11.128002003657237 7.459390255311701, 10.940359545630747 7.691906528759367, 10.734010130445593 7.90527917071168 C10.52766071526044 8.118651812663991, 10.296334520354067 8.319364042874904, 10.050416863477448 8.498404948040411 C9.804499206600829 8.677445853205919, 9.536518004190103 8.840255500630404, 9.258504189185874 8.979524601704721 C8.980490374181645 9.118793702779039, 8.683996637496785 9.238753878665763, 8.38233397345207 9.334019554486314 C8.080671309407355 9.429285230306865, 7.76467385060446 9.50275100541429, 7.448528204917586 9.551118656628024 C7.132382559230711 9.599486307841758, 6.806482801193078 9.624225461768717, 6.485460099330824 9.624225461768717 C6.1644373974685704 9.624225461768717, 5.838537639430937 9.599486307841758, 5.522391993744063 9.551118656628024 C5.2062463480571886 9.50275100541429, 4.890248889254294 9.429285230306867, 4.588586225209579 9.334019554486316 C4.286923561164865 9.238753878665765, 3.9904298244800063 9.11879370277904, 3.7124160094757768 8.979524601704723 C3.4344021944715473 8.840255500630406, 3.166420992060822 8.67744585320592, 2.9205033351842022 8.498404948040413 C2.6745856783075825 8.319364042874906, 2.44325948340121 8.118651812663995, 2.2369100682160576 7.905279170711682 C2.0305606530309053 7.69190652875937, 1.8429181950044138 7.459390255311703, 1.6824068440732871 7.218169096326541 C1.5218954931421604 6.976947937341379, 1.3836381931310189 6.719692509966752, 1.2738419626292972 6.457952216800706 C1.1640457321275754 6.19621192363466, 1.0793744682310524 5.922033918316325, 1.0236294610629573 5.647727337330268 C0.9678844538948622 5.373420756344212, 0.9393719196207271 5.090650933033, 0.9393719196207266 4.812112730884365 C0.9393719196207262 4.5335745287357305, 0.9678844538948606 4.250804705424518, 1.0236294610629546 3.9764981244384616 C1.0793744682310487 3.7021915434524044, 1.1640457321275701 3.428013538134069, 1.273841962629291 3.166273244968023 C1.3836381931310118 2.9045329518019773, 1.5218954931421529 2.6472775244273508, 1.6824068440732791 2.4060563654421876 C1.8429181950044053 2.1648352064570244, 2.0305606530308955 1.9323189330093575, 2.236910068216048 1.718946291057045 C2.4432594834012002 1.5055736491047325, 2.6745856783075723 1.3048614188938195, 2.920503335184192 1.125820513728312 C3.1664209920608117 0.9467796085628044, 3.4344021944715357 0.7839699611383176, 3.7124160094757648 0.6447008600639998 C3.990429824479994 0.5054317589896821, 4.286923561164853 0.38547158310295576, 4.588586225209567 0.29020590728240503 C4.890248889254281 0.1949402314618543, 5.206246348057175 0.12147445635442974, 5.522391993744049 0.07310680514069556 C5.838537639430922 0.02473915392696139, 6.164437397468555 8.881784197001252e-16, 6.485460099330808 0 C6.806482801193061 -8.881784197001252e-16, 7.132382559230694 0.02473915392695769, 7.448528204917569 0.07310680514069023 C7.764673850604443 0.12147445635442278, 8.080671309407338 0.19494023146184603, 8.382333973452052 0.29020590728239526 C8.683996637496767 0.3854715831029445, 8.980490374181628 0.5054317589896692, 9.258504189185857 0.6447008600639856 C9.536518004190086 0.7839699611383021, 9.804499206600811 0.9467796085627881, 10.050416863477432 1.1258205137282942 C10.296334520354053 1.3048614188938004, 10.527660715260426 1.505573649104711, 10.73401013044558 1.7189462910570223 C10.940359545630733 1.9323189330093338, 11.128002003657226 2.164835206457, 11.288513354588353 2.4060563654421623 C11.44902470551948 2.6472775244273246, 11.587282005530623 2.9045329518019507, 11.697078236032345 3.1662732449679956 C11.806874466534067 3.4280135381340404, 11.891545730430593 3.7021915434523756, 11.947290737598689 3.9764981244384323 C12.003035744766784 4.250804705424489, 12.017505355467216 4.672843629810015, 12.031548279040923 4.812112730884336 C12.045591202614629 4.951381831958657, 12.045591202614627 4.672843629810037, 12.031548279040923 4.812112730884358" stroke="#000000" stroke-width="2" fill="none" vector-effect="non-scaling-stroke" data-shape-part="outline" stroke-opacity="1" fill-opacity="0.24"></path></g><g><path d="M46.49889837511556 41.735584061842076 C43.091380652372926 41.735584061842076, 39.683862929630294 41.735584061842076, 37.162113148890946 41.735584061842076 M46.49889837511556 41.735584061842076 C43.65770295562418 41.735584061842076, 40.816507536132804 41.735584061842076, 37.162113148890946 41.735584061842076 M37.162113148890946 41.735584061842076 C37.162113148890946 35.5196282826593, 37.162113148890946 29.303672503476516, 37.162113148890946 25.133168722041297 M37.162113148890946 41.735584061842076 C37.162113148890946 36.993974251326456, 37.162113148890946 32.252364440810844, 37.162113148890946 25.133168722041297 M37.162113148890946 25.133168722041297 C37.162113148890946 25.099780254791824, 37.29969789053755 22.462091342083404, 35.601237976417416 20.888659822951958 M37.162113148890946 25.133168722041297 C37.162113148890946 25.099780254791824, 37.29969789053755 22.462091342083404, 35.601237976417416 20.888659822951958 M35.601237976417416 20.888659822951958 C34.756752320793446 20.104030842589324, 33.58965416751537 19.707542794001828, 32.13789792807191 19.707542794001828 M35.601237976417416 20.888659822951958 C34.756752320793446 20.104030842589324, 33.58965416751537 19.707542794001828, 32.13789792807191 19.707542794001828 M32.13789792807191 19.707542794001828 C28.484785822282806 19.707542794001828, 26.639252563643897 22.019694151027878, 25.85644282668909 23.42200977550577 M32.13789792807191 19.707542794001828 C28.484785822282806 19.707542794001828, 26.639252563643897 22.019694151027878, 25.85644282668909 23.42200977550577 M25.85644282668909 23.42200977550577 C25.85644282668909 27.96508395796868, 25.85644282668909 32.50815814043159, 25.85644282668909 41.735584061842076 M25.85644282668909 23.42200977550577 C25.85644282668909 30.458870644688755, 25.85644282668909 37.49573151387174, 25.85644282668909 41.735584061842076 M25.85644282668909 41.735584061842076 C23.21564910910783 41.735584061842076, 20.57485539152657 41.735584061842076, 16.73789546652461 41.735584061842076 M25.85644282668909 41.735584061842076 C23.524953845899255 41.735584061842076, 21.19346486510942 41.735584061842076, 16.73789546652461 41.735584061842076 M16.73789546652461 41.735584061842076 C16.73789546652461 32.73663948143173, 16.73789546652461 23.737694901021385, 16.73789546652461 13.739354273158412 M16.73789546652461 41.735584061842076 C16.73789546652461 33.97086685828969, 16.73789546652461 26.206149654737303, 16.73789546652461 13.739354273158412 M16.73789546652461 13.739354273158412 C20.113788397432053 13.739354273158412, 23.4896813283395 13.739354273158412, 25.856442826689094 13.739354273158412 M16.73789546652461 13.739354273158412 C19.38576233486009 13.739354273158412, 22.033629203195567 13.739354273158412, 25.856442826689094 13.739354273158412 M25.856442826689094 13.739354273158412 C25.856442826689094 14.518709087315331, 25.856442826689094 15.29806390147225, 25.856442826689094 16.10576188946486 M25.856442826689094 13.739354273158412 C25.856442826689094 14.276657195448703, 25.856442826689094 14.813960117738992, 25.856442826689094 16.10576188946486 M25.856442826689094 16.10576188946486 C28.84060842998954 13.977247102310912, 32.19008524386889 12.850386332641175, 35.568027866364794 12.850386332641175 M25.856442826689094 16.10576188946486 C28.84060842998954 13.977247102310912, 32.19008524386889 12.850386332641175, 35.568027866364794 12.850386332641175 M35.568027866364794 12.850386332641175 C44.21688938435639 12.850386332641175, 46.49889837511555 18.793533503047485, 46.49889837511555 21.93204942449801 M35.568027866364794 12.850386332641175 C44.21688938435639 12.850386332641175, 46.49889837511555 18.793533503047485, 46.49889837511555 21.93204942449801 M46.49889837511555 21.93204942449801 C46.49889837511555 29.3326548090379, 46.49889837511556 36.73326019357779, 46.49889837511556 41.735584061842076 M46.49889837511555 21.93204942449801 C46.49889837511555 28.592140563770357, 46.49889837511556 35.252231703042696, 46.49889837511556 41.735584061842076 M46.49889837511556 41.735584061842076 C46.49889837511556 41.735584061842076, 46.49889837511556 41.735584061842076, 46.49889837511556 41.735584061842076 M46.49889837511556 41.735584061842076 C46.49889837511556 41.735584061842076, 46.49889837511556 41.735584061842076, 46.49889837511556 41.735584061842076 M46.49889837511556 41.735584061842076 C46.49889837511556 41.735584061842076, 46.49889837511556 41.735584061842076, 46.49889837511556 41.735584061842076 M46.49889837511556 41.735584061842076 C46.49889837511556 41.735584061842076, 46.49889837511556 41.735584061842076, 46.49889837511556 41.735584061842076" stroke="#000000" stroke-width="2" fill="none" vector-effect="non-scaling-stroke" data-shape-part="outline" stroke-opacity="1" fill-opacity="0.24"></path></g></g></g><g><g transform="translate(51.045467853116314, 1023.0692923542942)  rotate(0)  "><g><path d="M0.32049066237270185 5.9098479258000784 L0.32049066237270185 37.89481485270008 L20.87035281396424 32.440064909912685 L42.63166927810064 38.52938743367366 L64.41862313691307 32.516981983465655 L64.41862313691307 0.7819972266531902 L42.82396074134461 5.813700361284031 L20.851121711520076 0.32049065914531455" stroke="none" stroke-width="0" fill="#616161" fill-rule="evenodd" vector-effect="non-scaling-stroke" data-shape-part="fill" stroke-opacity="0.24" fill-opacity="0.24"></path><path d="M0.32049066237270185 5.9098479258000784 C0.32049066237270185 13.118092554440803, 0.32049066237270185 20.326337183081527, 0.32049066237270185 37.89481485270008 M0.32049066237270185 5.9098479258000784 C0.32049066237270185 18.094707892489648, 0.32049066237270185 30.27956785917922, 0.32049066237270185 37.89481485270008 M0.32049066237270185 37.89481485270008 C7.673639053975028 35.942997099737994, 15.026787445577353 33.99117934677591, 20.87035281396424 32.440064909912685 M0.32049066237270185 37.89481485270008 C8.218400872899625 35.79839566744169, 16.11631108342655 33.701976482183305, 20.87035281396424 32.440064909912685 M20.87035281396424 32.440064909912685 C26.866812273992437 34.11801374692108, 32.86327173402064 35.79596258392947, 42.63166927810064 38.52938743367366 M20.87035281396424 32.440064909912685 C28.42693450779076 34.554572237017254, 35.98351620161729 36.66907956412182, 42.63166927810064 38.52938743367366 M42.63166927810064 38.52938743367366 C48.440729390788576 36.926298497586174, 54.24978950347651 35.32320956149868, 64.41862313691307 32.516981983465655 M42.63166927810064 38.52938743367366 C50.564862552563675 36.3401151384261, 58.49805582702671 34.15084284317854, 64.41862313691307 32.516981983465655 M64.41862313691307 32.516981983465655 C64.41862313691307 23.880986719666467, 64.41862313691307 15.244991455867279, 64.41862313691307 0.7819972266531902 M64.41862313691307 32.516981983465655 C64.41862313691307 21.3174215621394, 64.41862313691307 10.117861140813151, 64.41862313691307 0.7819972266531902 M64.41862313691307 0.7819972266531902 C57.766623242358065 2.3319584211317457, 51.11462334780306 3.8819196156103013, 42.82396074134461 5.813700361284031 M64.41862313691307 0.7819972266531902 C58.30290211464493 2.207001798365748, 52.18718109237679 3.6320063700783063, 42.82396074134461 5.813700361284031 M42.82396074134461 5.813700361284031 C34.31767467588554 3.687128866334148, 25.81138861042648 1.5605573713842649, 20.851121711520076 0.32049065914531455 M42.82396074134461 5.813700361284031 C36.135267480843986 4.141527062997904, 29.446574220343372 2.469353764711776, 20.851121711520076 0.32049065914531455 M20.851121711520076 0.32049065914531455 C13.854054994259744 2.2254055937016686, 6.856988276999415 4.130320528258022, 0.32049066237270185 5.9098479258000784 M20.851121711520076 0.32049065914531455 C13.176399036177791 2.409893895329132, 5.501676360835507 4.499297131512949, 0.32049066237270185 5.9098479258000784" stroke="#000000" stroke-width="2" fill="none" vector-effect="non-scaling-stroke" data-shape-part="outline" stroke-opacity="1" fill-opacity="0.24"></path></g><g><path d="M20.851121711520076 0.32049065914531455 C20.851121711520076 7.559070867668306, 20.851121711520076 14.797651076191297, 20.851121711520076 32.440064909912685 M20.851121711520076 0.32049065914531455 C20.851121711520076 12.556630072068588, 20.851121711520076 24.79276948499186, 20.851121711520076 32.440064909912685" stroke="#000000" stroke-width="2" fill="none" vector-effect="non-scaling-stroke" data-shape-part="outline" stroke-opacity="1" fill-opacity="0.24"></path></g><g><path d="" stroke="none" stroke-width="0" fill="#616161" vector-effect="non-scaling-stroke" data-shape-part="fill" stroke-opacity="0.24" fill-opacity="0.24"></path><path d="" stroke="#000000" stroke-width="2" fill="none" vector-effect="non-scaling-stroke" data-shape-part="outline" stroke-opacity="1" fill-opacity="0.24"></path></g><g><path d="M42.63166927810064 38.52938743367366 C42.67500475849146 31.156465143311323, 42.718340238882284 23.78354285294898, 42.82396074134461 5.813700361284031 M42.63166927810064 38.52938743367366 C42.704923834147934 26.066155359613177, 42.77817839019524 13.602923285552691, 42.82396074134461 5.813700361284031" stroke="#000000" stroke-width="2" fill="none" vector-effect="non-scaling-stroke" data-shape-part="outline" stroke-opacity="1" fill-opacity="0.24"></path></g></g></g><g transform="translate(772.1267419201743, 833.7547250273852) rotate(0)"><text transform="translate(0, 0)" style="font-size: 8px; font-family: &quot;Comic Sans MS&quot;; fill: rgb(17, 17, 17); opacity: 1; stroke-width: 0; font-style: normal; font-weight: normal; text-decoration: none;"><tspan dominant-baseline="text-before-edge" x="0" y="0"></tspan></text></g><g transform="translate(390.6877435583501, 1017.0983319747813) rotate(0)"><text transform="translate(0, 0)" style="font-size: 24px; font-family: Roboto; fill: rgb(17, 17, 17); opacity: 1; stroke-width: 0; font-style: normal; font-weight: bold; text-decoration: none;"><tspan dominant-baseline="text-before-edge" x="0" y="0">2024 James Phillip De Guzman</tspan></text></g><g transform="translate(428.2696706529313, 1046.9531338723457) rotate(0)"><text transform="translate(0, 0)" style="font-size: 17px; font-family: Roboto; fill: rgb(17, 17, 17); opacity: 1; stroke-width: 0; font-style: normal; font-weight: normal; text-decoration: none;"><tspan dominant-baseline="text-before-edge" x="0" y="0">Last Modified: dd/mm/yyyy hh:mm:s</tspan></text></g><defs><style>@import url("https://www.dafontfree.net/embed/Y29taWMtc2Fucy1tcy1yZWd1bGFyJmRhdGEvNDAvYy8xMDA5MzQvQ09NSUMuVFRG");
@import url("https://fonts.googleapis.com/css2?family=Roboto&amp;display=swap");
@import url("https://fonts.googleapis.com/css2?family=Roboto:wght@700&amp;display=swap");text {white-space: pre;};
</style></defs></svg>