<svg width="67" height="62" viewBox="1045 1006 67 62" xmlns="http://www.w3.org/2000/svg" xmlns:xlink="http://www.w3.org/1999/xlink"><g><g transform="translate(1054.5180445747842, 1016.3958660477798)  rotate(0)  "><g><path d="M1.9467789348418885 13.617426049657354 C1.9467789348418885 13.617426049657354, 1.9467789348418885 13.617426049657354, 1.9467789348418885 13.617426049657354 M1.9467789348418885 13.617426049657354 C1.9467789348418885 13.617426049657354, 1.9467789348418885 13.617426049657354, 1.9467789348418885 13.617426049657354 M2.0799243157095013 25.658284503586362 C4.209940801226929 23.490032079869533, 5.652573839759435 21.784204580836203, 11.264750721576602 15.092350380467554 M2.0799243157095013 25.658284503586362 C3.8998339026835898 22.017254047466473, 8.214648612655253 18.928077212146807, 11.264750721576602 15.092350380467554 M1.557010667586603 38.45385253773814 C3.212024708276367 35.161528476900585, 6.767417327953895 31.48915968411904, 10.741837073453706 27.88791841461933 M1.557010667586603 38.45385253773814 C4.06019509269337 33.47248620451835, 7.427608464470477 29.472913573625583, 10.741837073453706 27.88791841461933 M8.906805367349794 42.19290560921665 C9.436416484913604 42.17113370974118, 9.840224389572096 40.93802092544852, 10.874982454321314 39.92877686854834 M8.906805367349794 42.19290560921665 C9.584140753381126 41.59561692446571, 9.906694919963906 41.18529555099266, 10.874982454321314 39.92877686854834" stroke="none" stroke-width="1" fill="none" vector-effect="non-scaling-stroke" data-shape-part="fill" stroke-opacity="0.24" fill-opacity="0.24"></path><path d="M10.954592088323508 41.735584061842076 C7.513089295588199 42.33100914953421, 4.5154612758175725 41.867338789646496, 1.8407890114970409 41.735584061842076 M10.954592088323508 41.735584061842076 C7.854086956380992 41.692773485689024, 5.427729590640894 41.624955437145154, 1.8407890114970409 41.735584061842076 M1.8407890114970409 41.735584061842076 C2.556639287089763 31.783729293104493, -0.7655953136926312 21.715506855522154, 1.8407890114970409 13.739353508957043 M1.8407890114970409 41.735584061842076 C2.016117237978739 32.36302427460663, 2.3956257184083882 25.621227117047795, 1.8407890114970409 13.739353508957043 M1.8407890114970409 13.739353508957043 C5.4119626381567825 13.953959011618434, 6.706534857997412 13.672011753680389, 10.954592088323508 13.739353508957043 M1.8407890114970409 13.739353508957043 C4.753257178539884 13.43334518207386, 6.307381460665075 13.414572528133789, 10.954592088323508 13.739353508957043 M10.954592088323508 13.739353508957043 C11.986970747867552 22.266745363711337, 12.396900530019728 29.951309510005238, 10.954592088323508 41.735584061842076 M10.954592088323508 13.739353508957043 C9.965961670494993 19.619872310641178, 9.472414692855795 28.16926140539494, 10.954592088323508 41.735584061842076 M10.954592088323508 41.735584061842076 C10.954592088323508 41.735584061842076, 10.954592088323508 41.735584061842076, 10.954592088323508 41.735584061842076 M10.954592088323508 41.735584061842076 C10.954592088323508 41.735584061842076, 10.954592088323508 41.735584061842076, 10.954592088323508 41.735584061842076" stroke="#000000" stroke-width="2" fill="none" vector-effect="non-scaling-stroke" data-shape-part="outline" stroke-opacity="1" fill-opacity="0.24"></path></g><g><path d="M1.8694317092961912 1.6250721921442985 C1.8694317092961912 1.6250721921442985, 1.8694317092961912 1.6250721921442985, 1.8694317092961912 1.6250721921442985 M1.8694317092961912 1.6250721921442985 C1.8694317092961912 1.6250721921442985, 1.8694317092961912 1.6250721921442985, 1.8694317092961912 1.6250721921442985 M5.282872235116338 9.892382744959445 C7.704002345472531 7.051560593693151, 8.134477167816673 4.957503869613181, 12.499521554011919 1.5905773625089523 M5.282872235116338 9.892382744959445 C7.937348370533003 7.16259410843951, 9.406962147573932 4.913050597582498, 12.499521554011919 1.5905773625089523" stroke="none" stroke-width="1" fill="none" vector-effect="non-scaling-stroke" data-shape-part="fill" stroke-opacity="0.24" fill-opacity="0.24"></path><path d="M8.683000054605422 0.7550347201775365 C9.83505319263894 0.9085809953436749, 11.644803522956831 1.0223927791925793, 12.140564006900386 1.8810344694251047 C12.63632449084394 2.73967615965763, 12.103702698828585 4.595074311180353, 11.657562958266745 5.906884861572689 C11.211423217704905 7.218695411965026, 10.378562883404168 9.082142659866285, 9.463725563529348 9.751897771779122 C8.548888243654527 10.421652883691959, 7.232637054093553 10.114365314151547, 6.168539039017823 9.925415533049705 C5.104441023942092 9.736465751947863, 4.161686119317271 9.28875331649462, 3.0791374730749665 8.618199085168067 C1.9965888268326617 7.9476448538415125, -0.07991202509750761 7.015587969431037, -0.3267528384360059 5.902090145090378 C-0.5735936517745042 4.78859232074972, 0.9512972146742137 2.868160042693922, 1.5980925930439769 1.9372121391241142 C2.24488797141374 1.006264235554306, 2.464782163562962 0.4301098345194619, 3.5540194317825735 0.3164027236715308 C4.643256700002185 0.20269561282359966, 7.042032148727811 0.9933804376435875, 8.133516202361646 1.2549694740365274 C9.22500025599548 1.5165585104294672, 9.933726989805344 1.8910642952295935, 10.10292375358558 1.8859369420291698 M7.988753747064453 -0.660622423901259 C8.944755499532866 0.18117071776277982, 9.661048896895243 3.0012436889398213, 10.618806291151042 3.8984225564005355 C11.57656368540684 4.79560142386125, 13.956133082526232 4.105952206593242, 13.735298112599242 4.722450780863026 C13.514463142672252 5.33894935513281, 10.509584768775337 6.458602193780983, 9.293796471589097 7.597414002019237 C8.078008174402857 8.73622581025749, 7.8038730343606435 11.293948252225404, 6.440568329481807 11.555321630292548 C5.0772636246029705 11.816695008359693, 1.9361855312070841 9.97202338965323, 1.1139682423160768 9.165654270422102 C0.2917509534250696 8.359285151190974, 1.401215158126424 8.051865974658341, 1.507264596135764 6.717106914905775 C1.613314034145104 5.38234785515321, 1.4711923202218524 2.3788149387327264, 1.7502648703721162 1.1570999119067076 C2.02933742052238 -0.06461511491931127, 2.3192636817274024 -0.2860176137937225, 3.181699897037347 -0.6131832460503377 C4.044136112347291 -0.9403488783069529, 6.429764580288295 -1.2875875860682222, 6.924882162231784 -0.8058938816329837 C7.419999744175272 -0.3242001771977452, 5.861228824181392 2.0520264375523554, 6.152405388698278 2.2769789805610934" stroke="#000000" stroke-width="2" fill="none" vector-effect="non-scaling-stroke" data-shape-part="outline" stroke-opacity="1" fill-opacity="0.24"></path></g><g><path d="M46.49889837511556 41.735584061842076 C42.973194323760225 42.3455770708224, 39.90222507274837 41.870562356378365, 37.162113148890946 41.735584061842076 M46.49889837511556 41.735584061842076 C43.3225349771218 41.6917260640795, 40.836813328868686 41.62224875056087, 37.162113148890946 41.735584061842076 M37.162113148890946 41.735584061842076 C37.752139634872506 35.95955352408834, 34.99428369995018 30.08692376782035, 37.162113148890946 25.133168722041297 M37.162113148890946 41.735584061842076 C37.28900838393902 35.850977804437406, 37.6040462547925 32.15022223894863, 37.162113148890946 25.133168722041297 M37.162113148890946 25.133168722041297 C38.152643312871966 24.981325782629995, 37.38387216686713 23.638584047093282, 35.601237976417416 20.888659822951958 M37.162113148890946 25.133168722041297 C37.713381210467354 22.060380609733386, 37.13943127466808 21.132276706540253, 35.601237976417416 20.888659822951958 M35.601237976417416 20.888659822951958 C34.07651553512084 22.39414964027155, 35.91413708623234 18.822512180720995, 32.13789792807191 19.707542794001828 M35.601237976417416 20.888659822951958 C33.24710858985315 18.991494623500962, 33.0538225532576 22.67969095729252, 32.13789792807191 19.707542794001828 M32.13789792807191 19.707542794001828 C25.757820783245638 20.378143430864046, 27.202594539787317 23.100224570042272, 25.85644282668909 23.42200977550577 M32.13789792807191 19.707542794001828 C28.811220502683224 17.436000402494873, 24.91647213141776 20.485450163201246, 25.85644282668909 23.42200977550577 M25.85644282668909 23.42200977550577 C28.14804175268125 28.867879233495426, 25.582194273684912 30.258835847473406, 25.85644282668909 41.735584061842076 M25.85644282668909 23.42200977550577 C25.141149065065296 29.13146525377823, 25.53323635169952 38.281750458052464, 25.85644282668909 41.735584061842076 M25.85644282668909 41.735584061842076 C24.42979683013097 40.39912211701828, 20.362507616267152 41.65726607960116, 16.73789546652461 41.735584061842076 M25.85644282668909 41.735584061842076 C23.732958491069272 41.443851952657624, 20.815095268900983 41.45570705976903, 16.73789546652461 41.735584061842076 M16.73789546652461 41.735584061842076 C17.97122499579059 32.599504244907685, 14.88008380168544 25.123979014883005, 16.73789546652461 13.739354273158412 M16.73789546652461 41.735584061842076 C16.138696971332838 34.87693611418933, 16.616045284068395 26.192622968735733, 16.73789546652461 13.739354273158412 M16.73789546652461 13.739354273158412 C21.133456182146816 13.176994974889846, 23.223154279331865 13.631442248934036, 25.856442826689094 13.739354273158412 M16.73789546652461 13.739354273158412 C19.398109520536746 13.419611353518775, 22.599555792249063 14.259807530969839, 25.856442826689094 13.739354273158412 M25.856442826689094 13.739354273158412 C25.47286994470148 14.230591558317858, 25.482442484720902 15.636540470379959, 25.856442826689094 16.10576188946486 M25.856442826689094 13.739354273158412 C25.934709854970055 14.136100931196014, 25.80507475648596 14.66754510769806, 25.856442826689094 16.10576188946486 M25.856442826689094 16.10576188946486 C29.387556565820002 15.710711774541096, 32.26327846708453 11.960464174779883, 35.568027866364794 12.850386332641175 M25.856442826689094 16.10576188946486 C31.79325398917938 14.731034755133123, 34.573874624834644 9.447594930571324, 35.568027866364794 12.850386332641175 M35.568027866364794 12.850386332641175 C42.78752476364846 9.99078014019393, 46.448382754146316 16.353993697061497, 46.49889837511555 21.93204942449801 M35.568027866364794 12.850386332641175 C47.6370184223308 9.599178395015008, 47.94054122235366 21.835412533783646, 46.49889837511555 21.93204942449801 M46.49889837511555 21.93204942449801 C47.59143506065516 29.065946288445595, 46.58600073219781 35.66841844680295, 46.49889837511556 41.735584061842076 M46.49889837511555 21.93204942449801 C45.59296448804812 27.63870742432203, 45.850909715995584 36.08084704909815, 46.49889837511556 41.735584061842076 M46.49889837511556 41.735584061842076 C46.49889837511556 41.735584061842076, 46.49889837511556 41.735584061842076, 46.49889837511556 41.735584061842076 M46.49889837511556 41.735584061842076 C46.49889837511556 41.735584061842076, 46.49889837511556 41.735584061842076, 46.49889837511556 41.735584061842076 M46.49889837511556 41.735584061842076 C46.49889837511556 41.735584061842076, 46.49889837511556 41.735584061842076, 46.49889837511556 41.735584061842076 M46.49889837511556 41.735584061842076 C46.49889837511556 41.735584061842076, 46.49889837511556 41.735584061842076, 46.49889837511556 41.735584061842076" stroke="#000000" stroke-width="2" fill="none" vector-effect="non-scaling-stroke" data-shape-part="outline" stroke-opacity="1" fill-opacity="0.24"></path></g></g></g><defs><style>@import url("https://www.dafontfree.net/embed/Y29taWMtc2Fucy1tcy1yZWd1bGFyJmRhdGEvNDAvYy8xMDA5MzQvQ09NSUMuVFRG");text {white-space: pre;};
</style></defs></svg>