<svg width="915" height="1053" viewBox="119 27 915 1053" xmlns="http://www.w3.org/2000/svg" xmlns:xlink="http://www.w3.org/1999/xlink"><g><g transform="translate(454.45900545225714, 312.1050370197661)  rotate(0)  "><g><path d="M0 30.87198099215666 C-0.7464997109215682 66.48413593638183, 1.3248205546099716 105.39812420567267, 0 149.21787673999063 M0 30.87198099215666 C0.5167279750652034 69.11264352526504, 3.008242076689692 104.43559130937618, 0 149.21787673999063 M0 149.21787673999063 C65.74863241438416 151.6210808641986, 133.5431629248622 153.0864606668617, 243.81841572545605 149.21787673999063 M0 149.21787673999063 C50.38180013582181 148.79749601845188, 98.56375051835136 148.93003763264954, 243.81841572545605 149.21787673999063 M243.81841572545605 149.21787673999063 C244.45978312985628 118.33526524638498, 246.44562175171106 81.71414862121429, 243.81841572545605 30.87198099215665 M243.81841572545605 149.21787673999063 C241.6773579094627 106.10940748326496, 240.84004606046463 63.800757036149136, 243.81841572545605 30.87198099215665 M243.81841572545605 30.87198099215665 C192.48189936386945 29.95539689403844, 141.5175066436546 30.453578406073337, 0 30.87198099215665 M243.81841572545605 30.87198099215665 C150.6543768963145 32.81502912485899, 57.347883445093274 33.13579361620622, 0 30.87198099215665 M0 30.87198099215665 C3.750494417635428e-16 30.871980992156654, 3.4738435573646017e-16 30.871980992156654, 0 30.87198099215666 M0 30.87198099215665 C2.4868352691469133e-16 30.871980992156654, 2.520336560411345e-16 30.871980992156658, 0 30.87198099215666 M17.04339489604083 38.65310341677684 C17.959492912520208 40.004691154179945, 20.777780821808733 40.18697836775141, 22.06727335206385 42.360766917765915 M17.04339489604083 38.65310341677684 C17.177647108449154 40.42588284033894, 18.72166340288811 40.143049650441796, 22.06727335206385 42.360766917765915 M22.06727335206385 42.360766917765915 C21.04381565872562 42.568971933083766, 21.189423269524948 46.453754964854944, 17.043394896040827 46.071852434033275 M22.06727335206385 42.360766917765915 C25.50412280184199 42.955077303372484, 18.68175247607544 46.57688436374292, 17.043394896040827 46.071852434033275 M17.043394896040827 46.071852434033275 C12.153023642233176 43.51576111057066, 11.105481686382115 43.55421248193288, 12.019516440017805 42.360766917765915 M17.043394896040827 46.071852434033275 C11.873834715202985 48.487064436229325, 11.18831455575724 42.97965008857118, 12.019516440017805 42.360766917765915 M12.019516440017805 42.360766917765915 C10.470431623396657 41.47054761428194, 15.146770832734013 40.32770574134388, 17.043394896040827 38.653103416776844 M12.019516440017805 42.360766917765915 C15.41335932763592 43.43375894780079, 14.021051121037285 40.31150242853523, 17.043394896040827 38.653103416776844 M17.043394896040827 38.653103416776844 C17.043394896040827 38.653103416776844, 17.04339489604083 38.65310341677684, 17.04339489604083 38.65310341677684 M17.043394896040827 38.653103416776844 C17.043394896040827 38.653103416776844, 17.04339489604083 38.65310341677684, 17.04339489604083 38.65310341677684 M226.7759961030781 38.65310341677684 C227.3816463968841 36.38266998570956, 231.9265587950032 42.45565753955202, 231.79987455910117 42.360766917765915 M226.7759961030781 38.65310341677684 C226.2343956010075 39.53950222599864, 228.8756297890469 38.66161102409283, 231.79987455910117 42.360766917765915 M231.79987455910117 42.360766917765915 C231.71212774294304 42.26872429366612, 227.6682221472604 44.16151723602079, 226.7759961030781 46.071852434033275 M231.79987455910117 42.360766917765915 C232.23820417251312 42.70405607166157, 227.76847776573763 43.70047675088272, 226.7759961030781 46.071852434033275 M226.7759961030781 46.071852434033275 C223.30138104505411 43.483087781455744, 221.66381318740858 44.38123363371396, 221.7521176470551 42.360766917765915 M226.7759961030781 46.071852434033275 C225.21515619054944 47.62313598558531, 221.83067472548535 46.35453813763724, 221.7521176470551 42.360766917765915 M221.7521176470551 42.360766917765915 C220.39522106357109 42.58874937671976, 225.5966466758015 37.89166155499019, 226.7759961030781 38.653103416776844 M221.7521176470551 42.360766917765915 C222.51370313422012 38.33678167666117, 220.86379714739383 41.412075787965065, 226.7759961030781 38.653103416776844 M226.7759961030781 38.653103416776844 C226.7759961030781 38.653103416776844, 226.7759961030781 38.653103416776844, 226.7759961030781 38.65310341677684 M226.7759961030781 38.653103416776844 C226.7759961030781 38.653103416776844, 226.7759961030781 38.65310341677684, 226.7759961030781 38.65310341677684 M17.043394896040834 134.03547558664002 C20.80968926002064 134.2760180300769, 23.121320382989772 133.0857526151928, 22.067273352063857 137.74656110290738 M17.043394896040834 134.03547558664002 C18.675920124331277 135.90606916884116, 20.319839671971106 132.91035103313615, 22.067273352063857 137.74656110290738 M22.067273352063857 137.74656110290738 C20.236584266909528 139.57076780222928, 19.44560345076446 142.84860746025873, 17.043394896040837 141.45422460389645 M22.067273352063857 137.74656110290738 C22.104649398598017 137.4427395373547, 19.793229689313588 143.81476846522486, 17.043394896040837 141.45422460389645 M17.043394896040837 141.45422460389645 C16.52423134227267 142.52608639955355, 13.641419318852217 141.70028592371023, 12.019516440017814 137.74656110290738 M17.043394896040837 141.45422460389645 C16.10842898963003 142.23072198665534, 10.005844309947655 136.85903109162686, 12.019516440017814 137.74656110290738 M12.019516440017814 137.74656110290738 C14.963508459119627 137.65079502151337, 16.43714596026259 134.3468105560836, 17.043394896040837 134.03547558664002 M12.019516440017814 137.74656110290738 C10.040148589186872 138.8465134974568, 13.463698225632854 132.0512122441285, 17.043394896040837 134.03547558664002 M17.043394896040837 134.03547558664002 C17.043394896040837 134.03547558664002, 17.043394896040834 134.03547558664002, 17.043394896040834 134.03547558664002 M17.043394896040837 134.03547558664002 C17.043394896040837 134.03547558664002, 17.043394896040837 134.03547558664002, 17.043394896040834 134.03547558664002 M226.7759961030781 134.03547558664002 C228.13279603723117 135.5703958636817, 229.76632752793716 137.83278147266236, 231.79987455910117 137.74656110290738 M226.7759961030781 134.03547558664002 C232.81299708139764 134.65499882290294, 228.43577209588017 133.6915206488221, 231.79987455910117 137.74656110290738 M231.79987455910117 137.74656110290738 C229.3939844095986 142.04019064926183, 228.68845376587785 142.08330340146853, 226.7759961030781 141.45422460389645 M231.79987455910117 137.74656110290738 C231.84619546424594 141.42000953107714, 230.7256978721948 143.9935594264308, 226.7759961030781 141.45422460389645 M226.7759961030781 141.45422460389645 C224.96856156919026 140.39760504126383, 223.45037452288162 137.38407472991025, 221.7521176470551 137.74656110290738 M226.7759961030781 141.45422460389645 C221.435913890422 140.16150321847593, 220.87928672836352 137.50514554679035, 221.7521176470551 137.74656110290738 M221.7521176470551 137.74656110290738 C219.2099054890157 135.0889602391514, 223.84296777195803 132.37861800852386, 226.7759961030781 134.03547558664002 M221.7521176470551 137.74656110290738 C223.65691705168535 137.78410186581303, 227.22442835614592 131.862477341687, 226.7759961030781 134.03547558664002 M226.7759961030781 134.03547558664002 C226.7759961030781 134.03547558664002, 226.7759961030781 134.03547558664002, 226.7759961030781 134.03547558664002 M226.7759961030781 134.03547558664002 C226.7759961030781 134.03547558664002, 226.7759961030781 134.03547558664002, 226.7759961030781 134.03547558664002" stroke="#000000" stroke-width="2" fill="none" vector-effect="non-scaling-stroke" data-shape-part="outline" stroke-opacity="1" fill-opacity="0.24"></path></g></g><g transform="translate(466.64992623852993, 330.1156437475863) rotate(0)"><text transform="translate(0, 60)" style="font-size: 24px; font-family: &quot;Comic Sans MS&quot;; fill: rgb(17, 17, 17); opacity: 1; stroke-width: 0; font-style: normal; font-weight: normal; text-decoration: none;"></text></g></g><g><g transform="translate(129.52064358438392, 307.42660510805587)  rotate(0)  "><g><path d="M-1.0449401205405593 1.6954413866624236 L893.5305294632399 -1.1034885132685304 L894.3853298961603 692.4018245112674 L0.4161591762676835 693.8532131385581" stroke="none" stroke-width="0" fill="#616161" vector-effect="non-scaling-stroke" data-shape-part="fill" stroke-opacity="0.03" fill-opacity="0.03"></path><path d="M0 0 C278.3084166946544 -0.6218395178697605, 555.3212682524143 -1.127003008642008, 892.8793538813898 0 M0 0 C216.71697987508384 -3.154026163815338, 432.80774922881983 -3.112912065981705, 892.8793538813898 0 M892.8793538813898 0 C889.7368686466269 263.45246284996153, 888.9651924996429 524.5568385824746, 892.8793538813898 693.4336155212076 M892.8793538813898 0 C891.4611590741682 149.45351718850145, 891.1734016238261 300.2579000526981, 892.8793538813898 693.4336155212076 M892.8793538813898 693.4336155212076 C633.3921781716605 689.6225538861216, 373.92478196862936 689.3491034995974, 0 693.4336155212076 M892.8793538813898 693.4336155212076 C680.6107559523664 697.6260506767345, 469.4557420304796 697.7082479197097, 0 693.4336155212076 M0 693.4336155212076 C3.7473294229409126 532.3502357785417, 4.4862619490525155 371.8071012615288, 0 0 M0 693.4336155212076 C3.6643121667814866 529.5795900766198, 3.802298963875832 366.75250053296577, 0 0" stroke="#000000" stroke-width="2" fill="none" vector-effect="non-scaling-stroke" data-shape-part="outline" stroke-opacity="1" fill-opacity="0.03"></path></g></g><g transform="translate(174.1646112784534, 342.09828588411625) rotate(0)"><text transform="translate(0, 300)" style="font-size: 24px; font-family: &quot;Comic Sans MS&quot;; fill: rgb(17, 17, 17); opacity: 1; stroke-width: 0; font-style: normal; font-weight: normal; text-decoration: none;"></text></g></g><g><g transform="translate(129.52064358438392, 36.64404916135955)  rotate(0)  "><g><path d="M1.8302493821829557 -2.0320726465433836 L888.1993957119628 -1.0556632708758116 L890.4563685613318 256.0673395775277 L1.016756309196353 258.63039217218943" stroke="none" stroke-width="0" fill="#616161" vector-effect="non-scaling-stroke" data-shape-part="fill" stroke-opacity="0.1" fill-opacity="0.1"></path><path d="M0 0 C281.5729024742405 3.4976026926577743, 563.5544798971434 3.636185136848754, 890.3781170076325 0 M0 0 C233.0156601969812 3.0868087612490847, 467.43695239847676 3.2035692893367007, 890.3781170076325 0 M890.3781170076325 0 C895.6206800925803 87.72108642879793, 892.6233002262081 174.51717248976138, 890.3781170076325 258.78659095503576 M890.3781170076325 0 C891.6189231492888 104.109159326378, 890.9571632996445 204.89954488675485, 890.3781170076325 258.78659095503576 M890.3781170076325 258.78659095503576 C595.3642737777764 261.00940910955313, 300.0827329208229 261.130024329623, 0 258.78659095503576 M890.3781170076325 258.78659095503576 C658.6723224314911 262.1758306113347, 427.9853709432762 261.1802734819516, 0 258.78659095503576 M0 258.78659095503576 C1.0324468066880295 191.8649922313971, 2.7618717720302683 130.41971436787654, 0 0 M0 258.78659095503576 C-3.1313001150110025 179.53268924920428, -2.24361115094122 103.08857527897004, 0 0" stroke="#000000" stroke-width="2" fill="none" vector-effect="non-scaling-stroke" data-shape-part="outline" stroke-opacity="1" fill-opacity="0.1"></path></g></g><g transform="translate(174.03954943476555, 49.58337870911134) rotate(0)"><text transform="translate(0, 104)" style="font-size: 24px; font-family: &quot;Comic Sans MS&quot;; fill: rgb(17, 17, 17); opacity: 1; stroke-width: 0; font-style: normal; font-weight: normal; text-decoration: none;"></text></g></g><g><g transform="translate(551.5673434142711, 54.917090231923)  rotate(0)  "><g><path d="M11.013122748359551 5.1413794670825546 C15.322214409697526 1.8879127792295325, 22.564522636663806 -1.192534799635381, 27.874434096866626 -0.765909829454607 C33.18434555706945 -0.33928485927383295, 39.4291289012909 3.7541120701969, 42.872591509576466 7.701129288167198 C46.31605411786203 11.648146506137497, 48.19989314273405 17.935578077992147, 48.53520974658002 22.916193478367184 C48.870526350426 27.89680887874222, 47.94266513088469 33.607744800308076, 44.884491132652315 37.58482169041743 C41.82631713441994 41.56189858052678, 35.46506213451801 45.1911203836358, 30.186165757185744 46.7786548190233 C24.907269379853485 48.366189254410806, 17.825243621125967 49.1705960584589, 13.211112868658756 47.11002830274245 C8.596982116191544 45.049460547026, 4.525551687274509 39.43146875358486, 2.5013812423824717 34.41524828472463 C0.4772107974904336 29.399027815864407, -2.3050465511474694 22.94410114315533, 1.066090199306526 17.012705489581084 C4.437226949760522 11.081309836006838, 17.289344683699145 1.2464676953273934, 22.728201745106443 -1.1731256367208438 C28.16705880651374 -3.592718968769081, 33.74267080135183 1.9100133093721752, 33.699232567750315 2.4951454972916594 M17.125530871918592 0.519432798926502 C21.224831047980654 -0.6059848922243722, 28.530045893006445 2.3307370233505673, 33.46567806330738 4.968684536362581 C38.401310233608314 7.6066320493745945, 44.645916857171194 11.973999004610281, 46.7393238937242 16.34711787699858 C48.8327309302772 20.72023674938688, 47.61621112322487 26.34021465870559, 46.026120282625385 31.20739777069238 C44.4360294420259 36.07458088267917, 41.01762359904373 42.929519044098754, 37.198778850127276 45.55021654891932 C33.37993410121082 48.17091405373989, 27.909220087193216 47.553138209235804, 23.11305178912668 46.93158279961582 C18.316883491060143 46.31002738999583, 12.515545954525098 45.166517555958315, 8.42176906172806 41.82088409119939 C4.327992168931023 38.47525062644046, -0.6289518795951151 31.88806974363369, -1.4496095676555463 26.857782011062255 C-2.2702672557159773 21.82749427849082, -0.23945516932123212 16.22828088835363, 3.497822933365473 11.639157695770793 C7.235101036052178 7.0500345031879545, 18.367074139408942 1.025075278542542, 20.974059048464685 -0.6769571444347768 C23.58104395752043 -2.3789895674120958, 19.39536203160753 0.8537024900279301, 19.139732387699926 1.4269631579068793" stroke="none" stroke-width="0" fill="#616161" vector-effect="non-scaling-stroke" data-shape-part="fill" stroke-opacity="0.26" fill-opacity="0.26"></path><path d="M37.624177136313065 5.402378169673721 C41.76291750766953 8.015567570505558, 44.87422474140634 13.281620309204126, 46.308865955113205 18.13699187962719 C47.743507168820074 22.992363450050252, 48.279399552553805 29.81839303174392, 46.23202441855427 34.5346075922121 C44.18464928455473 39.25082215268028, 38.88709912819105 44.43242055601482, 34.02461515111599 46.43427924243626 C29.162131174040923 48.436137928857704, 22.188771787365138 47.823313685316485, 17.057120556103882 46.54575971074077 C11.925469324842627 45.26820573616505, 6.295969470574612 42.81333057945212, 3.234707763548464 38.768955394981944 C0.17344605652231548 34.72458021051177, -1.7820364330991498 27.708627737065676, -1.3104496860530084 22.279508603919727 C-0.8388629390068669 16.850389470773777, 2.211893948008933 10.11372566526978, 6.064228245825312 6.194240596106244 C9.91656254364169 2.274755526942709, 15.06603090317125 -2.0023271918470575, 21.803556100845267 -1.2374018110614848 C28.541081298519284 -0.47247643027591213, 41.94474308362829 6.640328910963188, 46.489379431869416 10.78379288081968 C51.03401578011054 14.927256850676173, 49.85462345339254 23.1922681116544, 49.07137419029205 23.62338200807747 M24.132797509397065 -0.5640684322231841 C28.88744017868007 -1.1158634250203843, 34.344465286455296 -0.05619429634578266, 38.01636619187036 3.352686212368834 C41.688267097285426 6.761566721083451, 44.92412916882293 14.199856099181563, 46.16420294188747 19.889214620064514 C47.404276714952005 25.578573140947466, 47.6552647637329 32.75193572671925, 45.45680883025758 37.488837337666546 C43.258352896782256 42.22573894861384, 37.70914915113855 46.340718601344236, 32.97346734103553 48.310624285748275 C28.237785530932513 50.280529970152315, 21.940834954977312 51.08415362107252, 17.042717969639465 49.308271444090785 C12.144600984301618 47.53238926710905, 6.507891264885764 42.228812787934686, 3.5847654290084527 37.65533122385788 C0.6616395931311416 33.08184965978107, -1.2042409880797629 26.80171218208706, -0.49603704562440143 21.867382059629946 C0.21216689683096013 16.933051937172834, 3.5869589680382825 11.976011410243068, 7.833989083740622 8.04935048911521 C12.081019199442963 4.122689567987351, 22.186746176459206 -0.09266992090497084, 24.98614364858964 -1.6925834671372009 C27.785541120720072 -3.292497013369431, 25.027146636002847 -2.18684650157036, 24.63037391652322 -1.550130788278171" stroke="#000000" stroke-width="2" fill="none" vector-effect="non-scaling-stroke" data-shape-part="outline" stroke-opacity="1" fill-opacity="0.26"></path></g></g><g transform="translate(558.8628044035917, 62.212551221243515) rotate(0)"><text transform="translate(0, 5)" style="font-size: 24px; font-family: &quot;Comic Sans MS&quot;; fill: rgb(17, 17, 17); opacity: 1; stroke-width: 0; font-style: normal; font-weight: normal; text-decoration: none;"></text></g></g><g><g id="YsMAWQFmoLKX-LghP4msS" pointer-events="auto"><g><path data-shape-part="outline" class="" d="M589.537 59.111 C583.5802079660317 68.21406199082705, 577.6234159320634 77.31712398165408, 574.279 82.428 M589.537 59.111 C585.221435658289 65.70596747645018, 580.9058713165779 72.30093495290038, 574.279 82.428 M574.279 82.428 C569.4718695233842 88.9970270154586, 564.6647390467683 95.56605403091721, 562.004 99.202 M574.279 82.428 C569.9469038976575 88.3478843194047, 565.6148077953151 94.2677686388094, 562.004 99.202" stroke="#000000" stroke-width="2" stroke-opacity="1" fill="none" stroke-linecap="round" stroke-dashoffset="-3"></path></g><path d="M589.537,59.111L574.279,82.428L562.004,99.202" fill="none" fill-opacity="0" stroke="black" stroke-opacity="0" stroke-width="10" id="hit-YsMAWQFmoLKX-LghP4msS"></path></g></g><g><g id="goD4byx0SyxOr1L_O7lOQ" pointer-events="auto"><g><path data-shape-part="outline" class="" d="M560.348 60.528 C567.8307894482929 69.08403058964946, 575.3135788965859 77.64006117929891, 579.619 82.563 M560.348 60.528 C568.0279804149967 69.30950425221585, 575.7079608299933 78.0910085044317, 579.619 82.563 M579.619 82.563 C584.2658655797298 87.70663038447388, 588.9127311594598 92.85026076894775, 592.584 96.914 M579.619 82.563 C583.8115374453309 87.20373311823718, 588.004074890662 91.84446623647437, 592.584 96.914" stroke="#000000" stroke-width="2" stroke-opacity="1" fill="none" stroke-linecap="round" stroke-dashoffset="-3"></path></g><path d="M560.348,60.528L579.619,82.563L592.584,96.914" fill="none" fill-opacity="0" stroke="black" stroke-opacity="0" stroke-width="10" id="hit-goD4byx0SyxOr1L_O7lOQ"></path></g></g><g><g transform="translate(129.09533159241028, 1014.7204477602459)  rotate(0)  "><g><path d="M-0.621089399792254 1.393582628108561 L891.2074716675417 0.9167878786101937 L891.8481186318533 66.93991949249252 L-0.7811492392793298 62.49858807612404" stroke="none" stroke-width="0" fill="#616161" vector-effect="non-scaling-stroke" data-shape-part="fill" stroke-opacity="0.1" fill-opacity="0.1"></path><path d="M0 0 C233.18262611242503 1.724846325383695, 464.1490637281263 2.096215508447202, 893.5804302391917 0 M0 0 C283.1829450044266 -2.867548447540238, 566.8060342022119 -3.2915891525058294, 893.5804302391917 0 M893.5804302391917 0 C893.9677982958927 17.81146850543886, 895.608171972908 27.534540045351672, 893.5804302391917 65.35351732865169 M893.5804302391917 0 C894.2935271666651 18.372507896643857, 894.1623511866932 37.295262351905514, 893.5804302391917 65.35351732865169 M893.5804302391917 65.35351732865169 C544.413984488869 71.36026750632998, 195.87824295632285 70.72170703241106, 0 65.35351732865169 M893.5804302391917 65.35351732865169 C665.4436715044661 68.850021378725, 438.26059352363467 69.30208197686, 0 65.35351732865169 M0 65.35351732865169 C-0.0067996377047196965 47.77391986674327, -2.3836855584677354 34.768876491497686, 0 0 M0 65.35351732865169 C0.2627107445655099 42.7959285812824, -0.6736629511656531 22.672385200390337, 0 0" stroke="#000000" stroke-width="2" fill="none" vector-effect="non-scaling-stroke" data-shape-part="outline" stroke-opacity="1" fill-opacity="0.1"></path></g></g><g transform="translate(173.77435310436985, 1017.9881236266784) rotate(0)"><text transform="translate(0, 17)" style="font-size: 24px; font-family: &quot;Comic Sans MS&quot;; fill: rgb(17, 17, 17); opacity: 1; stroke-width: 0; font-style: normal; font-weight: normal; text-decoration: none;"></text></g></g><g transform="translate(550.0665659116206, 121.32104064402333) rotate(0)"><text transform="translate(0, 0)" style="font-size: 18px; font-family: Roboto; fill: rgb(17, 17, 17); opacity: 1; stroke-width: 0; font-style: normal; font-weight: normal; text-decoration: none;"><tspan dominant-baseline="text-before-edge" x="0" y="0">Hom</tspan></text></g><g transform="translate(550.9171898955678, 154.49537601796854) rotate(0)"><text transform="translate(0, 0)" style="font-size: 18px; font-family: Roboto; fill: rgb(17, 17, 17); opacity: 1; stroke-width: 0; font-style: normal; font-weight: normal; text-decoration: none;"><tspan dominant-baseline="text-before-edge" x="0" y="0">Abou</tspan></text></g><g transform="translate(543.0665659116206, 188.09502338388737) rotate(0)"><text transform="translate(0, 0)" style="font-size: 18px; font-family: Roboto; fill: rgb(17, 17, 17); opacity: 1; stroke-width: 0; font-style: normal; font-weight: normal; text-decoration: none;"><tspan dominant-baseline="text-before-edge" x="0" y="0">Contac</tspan></text></g><g transform="translate(541.2097020882002, 221.6946707498062) rotate(0)"><text transform="translate(0, 0)" style="font-size: 18px; font-family: Roboto; fill: rgb(17, 17, 17); opacity: 1; stroke-width: 0; font-style: normal; font-weight: normal; text-decoration: none;"><tspan dominant-baseline="text-before-edge" x="0" y="0">Portfoli</tspan></text></g><g><g transform="translate(131.22189155227855, 509.8751132875161)  rotate(0)  "><g><path d="M1.1952215423807502 -1.4609277388080955 L890.2398968497353 -2.260749145410955 L892.0607787231045 306.6877843947707 L-0.17608669493347406 309.2787730009852" stroke="none" stroke-width="0" fill="#616161" vector-effect="non-scaling-stroke" data-shape-part="fill" stroke-opacity="0.1" fill-opacity="0.1"></path><path d="M0 0 C264.061719942763 -2.806014005712394, 530.6000290463111 -1.7546162887133396, 892.682776855311 0 M0 0 C237.99879032156406 -1.7523338702590963, 475.8145535904351 -1.342847582426836, 892.682776855311 0 M892.682776855311 0 C895.5343401895981 86.84367767054226, 896.6658427332352 176.71543269779102, 892.682776855311 307.15962413471175 M892.682776855311 0 C895.4067686208795 103.65853557626885, 895.955837128639 208.25123825775992, 892.682776855311 307.15962413471175 M892.682776855311 307.15962413471175 C543.5572948224441 310.52974201837566, 192.87134843683535 311.45670812526726, 0 307.15962413471175 M892.682776855311 307.15962413471175 C613.8974026787313 311.7466109207381, 335.7801043857264 311.63671511323344, 0 307.15962413471175 M0 307.15962413471175 C1.26885600555654 198.3894452436122, 1.2911621862748972 88.14144928392726, 0 0 M0 307.15962413471175 C-0.6085520866308141 223.78622064913955, -1.4733815152039376 141.9995697373991, 0 0" stroke="#000000" stroke-width="2" fill="none" vector-effect="non-scaling-stroke" data-shape-part="outline" stroke-opacity="1" fill-opacity="0.1"></path></g></g><g transform="translate(175.85603039504412, 525.2330944942516) rotate(0)"><text transform="translate(0, 126)" style="font-size: 24px; font-family: &quot;Comic Sans MS&quot;; fill: rgb(17, 17, 17); opacity: 1; stroke-width: 0; font-style: normal; font-weight: normal; text-decoration: none;"></text></g></g><g><g id="rZd8speQvYcGABUucIJWU" pointer-events="auto"><g><path data-shape-part="outline" class="" d="M131.222 509.875 C338.7121082858067 580.8232320747227, 546.2022165716135 651.7714641494454, 1023.905 815.115 M131.222 509.875 C383.7823348615963 596.2343421328217, 636.3426697231927 682.5936842656433, 1023.905 815.115" stroke="#000000" stroke-width="2" stroke-opacity="1" fill="none" stroke-linecap="round" stroke-dashoffset="-3"></path></g><path d="M131.222,509.875L1023.905,815.115" fill="none" fill-opacity="0" stroke="black" stroke-opacity="0" stroke-width="10" id="hit-rZd8speQvYcGABUucIJWU"></path></g></g><g><g id="m7aOyIIG1grsatWEEzATz" pointer-events="auto"><g><path data-shape-part="outline" class="" d="M1023.905 511.795 C762.8378977862133 601.0631078050509, 501.77079557242644 690.3312156101018, 131.222 817.035 M1023.905 511.795 C789.9672697314755 591.7866126857623, 556.0295394629511 671.7782253715247, 131.222 817.035" stroke="#000000" stroke-width="2" stroke-opacity="1" fill="none" stroke-linecap="round" stroke-dashoffset="-3"></path></g><path d="M1023.905,511.795L131.222,817.035" fill="none" fill-opacity="0" stroke="black" stroke-opacity="0" stroke-width="10" id="hit-m7aOyIIG1grsatWEEzATz"></path></g></g><g><g transform="translate(464.6664932596249, 880.7471702885442)  rotate(0)  "><g><path d="M189.49713207139834 62.37079462109886 C141.32663152529503 59.13069264416082, 101.75635419020449 65.62628321771008, 33.44067036554088 62.37079462109886 C13.329458111464398 66.87364635820322, -2.0437982356175777 51.03715921841048, 0 47.37300816203373 C-1.2636292613659483 34.375729965924535, -0.6471495963249786 29.071165641972385, 0 14.99778645906513 C2.0150384610518812 3.0705573419421843, 12.754180065854804 0.8563121164217591, 33.44067036554088 0 C79.47149515004499 1.2157124533102937, 121.6355045081622 2.922240717594428, 189.49713207139834 0 C205.2612029750416 -2.562978499568999, 227.0026497417975 3.393256720000499, 222.93780243693925 14.99778645906513 C219.9637375614476 23.485990369253845, 220.7770618996453 36.163652396890356, 222.93780243693925 47.37300816203373 C221.4906004821796 53.33623251109802, 208.1094634116212 63.38735025468103, 189.49713207139834 62.37079462109886 C189.49713207139834 62.37079462109886, 189.49713207139834 62.37079462109886, 189.49713207139834 62.37079462109886" stroke="none" stroke-width="0" fill="#616161" vector-effect="non-scaling-stroke" data-shape-part="fill" stroke-opacity="0.1" fill-opacity="0.1"></path><path d="M189.49713207139834 62.37079462109886 C142.6159226578764 61.018111459077105, 92.47821986871787 65.15837599998783, 33.44067036554088 62.37079462109886 M189.49713207139834 62.37079462109886 C149.42056448698634 62.33783698445781, 108.18766527447895 60.69143723315223, 33.44067036554088 62.37079462109886 M33.44067036554088 62.37079462109886 C17.437388655110613 59.9889187047147, 2.4676402201876044 53.08285939037286, 0 47.37300816203373 M33.44067036554088 62.37079462109886 C14.181261597001345 64.8796967122127, -1.5871598433237522 52.528993633673046, 0 47.37300816203373 M0 47.37300816203373 C-2.5981191292487353 37.857104359984085, -1.4248932793818683 24.215544967377877, 0 14.99778645906513 M0 47.37300816203373 C-1.7921188769508425 38.31667185914874, -0.24355395116100953 29.582663728422197, 0 14.99778645906513 M0 14.99778645906513 C2.93695795442909 8.64642215318381, 15.324483510419146 -0.4261153182014823, 33.44067036554088 0 M0 14.99778645906513 C-1.1644036393146964 7.220930546879389, 11.619155589663775 2.6898218992631877, 33.44067036554088 0 M33.44067036554088 0 C94.34439543689192 -2.8315717644241936, 156.14649496049861 -0.10127083130155867, 189.49713207139834 0 M33.44067036554088 0 C75.89498326573607 -2.096151609778496, 120.41138566920834 -0.3440423355103457, 189.49713207139834 0 M189.49713207139834 0 C206.1908341691414 -0.3356081089004874, 222.79877770151086 3.8860000426262546, 222.93780243693925 14.99778645906513 M189.49713207139834 0 C205.52105636289846 -1.0800932612735776, 222.1559875000648 3.860186040758707, 222.93780243693925 14.99778645906513 M222.93780243693925 14.99778645906513 C223.2085767551074 27.423577755214826, 220.21904282409048 38.03962982023255, 222.93780243693925 47.37300816203373 M222.93780243693925 14.99778645906513 C222.26800097820524 21.818774205833293, 223.54792443213228 30.09930320588135, 222.93780243693925 47.37300816203373 M222.93780243693925 47.37300816203373 C223.04071277584023 55.206759803886044, 207.9324135825554 63.81505141946308, 189.49713207139834 62.37079462109886 M222.93780243693925 47.37300816203373 C224.9157033522062 55.57687156526789, 206.19724724581968 64.70081084998145, 189.49713207139834 62.37079462109886 M189.49713207139834 62.37079462109886 C189.49713207139834 62.37079462109886, 189.49713207139834 62.37079462109886, 189.49713207139834 62.37079462109886 M189.49713207139834 62.37079462109886 C189.49713207139834 62.37079462109886, 189.49713207139834 62.37079462109886, 189.49713207139834 62.37079462109886" stroke="#000000" stroke-width="2" fill="none" vector-effect="non-scaling-stroke" data-shape-part="outline" stroke-opacity="1" fill-opacity="0.1"></path></g></g><g transform="translate(475.81338338147185, 885.7464325638139) rotate(0)"><text transform="translate(0, 14)" style="font-size: 24px; font-family: &quot;Comic Sans MS&quot;; fill: rgb(17, 17, 17); opacity: 1; stroke-width: 0; font-style: normal; font-weight: normal; text-decoration: none;"></text></g></g><g transform="translate(493.16239672185986, 900.3115219193323) rotate(0)"><text transform="translate(0, 0)" style="font-size: 19px; font-family: Roboto; fill: rgb(17, 17, 17); opacity: 1; stroke-width: 0; font-style: normal; font-weight: bold; text-decoration: none;"><tspan dominant-baseline="text-before-edge" x="0" y="0">Who is besys.tech</tspan></text></g><g transform="translate(511.0255003847534, 386.1093236231822) rotate(0)"><text transform="translate(0, 0)" style="font-size: 26px; font-family: Roboto; fill: rgb(17, 17, 17); opacity: 1; stroke-width: 0; font-style: normal; font-weight: bold; text-decoration: none;"><tspan dominant-baseline="text-before-edge" x="0" y="0">besys.tec</tspan></text></g><g><g transform="translate(903.1631569844643, 1030.0316794712974)  rotate(0)  "><g><path d="M26.7715357589474 0 C20.244838005647562 0, 13.718140252347721 0, 1.3055861696812316 0 M26.7715357589474 0 C20.086663990091978 0, 13.401792221236555 0, 1.3055861696812316 0 M1.3055861696812316 0 C0.5868118483083384 0, 0 0.722603019817702, 0 1.6077052833264664 M1.3055861696812316 0 C0.5868118483083384 0, 0 0.722603019817702, 0 1.6077052833264664 M0 1.6077052833264664 C0 13.476785854595953, 0 25.345866425865438, 0 32.96660188498464 M0 1.6077052833264664 C0 11.372176380078358, 0 21.13664747683025, 0 32.96660188498464 M0 32.96660188498464 C0 33.8517041484934, 0.5868118483083384 34.5743071683111, 1.3055861696812316 34.5743071683111 M0 32.96660188498464 C0 33.8517041484934, 0.5868118483083384 34.5743071683111, 1.3055861696812316 34.5743071683111 M1.3055861696812316 34.5743071683111 C5.620281993482567 34.5743071683111, 9.934977817283901 34.5743071683111, 14.288447349479112 34.5743071683111 M1.3055861696812316 34.5743071683111 C5.250991234587206 34.5743071683111, 9.19639629949318 34.5743071683111, 14.288447349479112 34.5743071683111 M14.288447349479112 34.5743071683111 C14.31085047606801 31.00726654084214, 14.33325360265691 27.440225913373176, 14.372678715264998 21.162933417723227 M14.288447349479112 34.5743071683111 C14.316466764082513 30.113037449924967, 14.344486178685912 25.651767731538833, 14.372678715264998 21.162933417723227 M14.372678715264998 21.162933417723227 C13.316887415304267 21.162933417723227, 12.261096115343536 21.162933417723227, 10.686152606036059 21.162933417723227 M14.372678715264998 21.162933417723227 C13.010890881827002 21.162933417723227, 11.649103048389007 21.162933417723227, 10.686152606036059 21.162933417723227 M10.686152606036059 21.162933417723227 C10.69574911455521 19.64442473704609, 10.705345623074361 18.12591605636895, 10.719845152350413 15.831575252369653 M10.686152606036059 21.162933417723227 C10.693312606859383 20.029966841162977, 10.700472607682709 18.897000264602728, 10.719845152350413 15.831575252369653 M10.719845152350413 15.831575252369653 C12.024196429521112 15.831575252369653, 13.32854770669181 15.831575252369653, 14.423217534736528 15.831575252369653 M10.719845152350413 15.831575252369653 C11.609928666857762 15.831575252369653, 12.500012181365111 15.831575252369653, 14.423217534736528 15.831575252369653 M14.423217534736528 15.831575252369653 C14.424185630121555 15.693289627288681, 14.425153725506581 15.555004002207708, 14.426025246929392 15.430513289217245 M14.423217534736528 15.831575252369653 C14.42432828715641 15.67291207199582, 14.425439039576291 15.514248891621985, 14.426025246929392 15.430513289217245 M14.426025246929392 15.430513289217245 C14.431640671315117 14.35525233628277, 14.423217534736528 13.279991383348296, 14.45410236885802 12.20473043041382 M14.426025246929392 15.430513289217245 C14.431640671315117 14.35525233628277, 14.423217534736528 13.279991383348296, 14.45410236885802 12.20473043041382 M14.45410236885802 12.20473043041382 C14.468140929822333 11.530531440631753, 14.496218051750963 10.835587866548702, 14.594487978501164 10.161388876766635 M14.45410236885802 12.20473043041382 C14.468140929822333 11.530531440631753, 14.496218051750963 10.835587866548702, 14.594487978501164 10.161388876766635 M14.594487978501164 10.161388876766635 C14.844374363665958 8.52948157842235, 15.459263333902925 7.1603390145572305, 16.568309650083755 6.178428690977196 M14.594487978501164 10.161388876766635 C14.844374363665958 8.52948157842235, 15.459263333902925 7.1603390145572305, 16.568309650083755 6.178428690977196 M16.568309650083755 6.178428690977196 C17.539778068814307 5.324443303919911, 18.646016672802276 4.968327940086307, 19.819640369418956 4.933753632917996 M16.568309650083755 6.178428690977196 C17.539778068814307 5.324443303919911, 18.646016672802276 4.968327940086307, 19.819640369418956 4.933753632917996 M19.819640369418956 4.933753632917996 C19.94037199371206 4.930296202201165, 20.058295905812297 4.930296202201165, 20.1790275301054 4.930296202201165 M19.819640369418956 4.933753632917996 C19.94037199371206 4.930296202201165, 20.058295905812297 4.930296202201165, 20.1790275301054 4.930296202201165 M20.1790275301054 4.930296202201165 C20.821993622271 4.930296202201165, 21.470575138822316 4.971785370803138, 22.113541230987913 5.009817108688281 M20.1790275301054 4.930296202201165 C20.821993622271 4.930296202201165, 21.470575138822316 4.971785370803138, 22.113541230987913 5.009817108688281 M22.113541230987913 5.009817108688281 C22.531890347724477 5.030561692989267, 22.95023946446105 5.10316773804272, 23.343319171461847 5.158486629512018 M22.113541230987913 5.009817108688281 C22.531890347724477 5.030561692989267, 22.95023946446105 5.10316773804272, 23.343319171461847 5.158486629512018 M23.343319171461847 5.158486629512018 C23.331051296088262 7.0536936425221635, 23.318783420714677 8.948900655532308, 23.312434337340356 9.92974101873895 M23.343319171461847 5.158486629512018 C23.336699686405034 6.181100091106221, 23.33008020134822 7.203713552700424, 23.312434337340356 9.92974101873895 M23.312434337340356 9.92974101873895 C23.19170271304725 9.92974101873895, 23.099048210682778 9.92974101873895, 23.00358599612544 9.92974101873895 M23.312434337340356 9.92974101873895 C23.19170271304725 9.92974101873895, 23.099048210682778 9.92974101873895, 23.00358599612544 9.92974101873895 M23.00358599612544 9.92974101873895 C22.57962145500315 9.92974101873895, 22.152849201687996 9.92282615730529, 21.7288846605657 9.92282615730529 M23.00358599612544 9.92974101873895 C22.57962145500315 9.92974101873895, 22.152849201687996 9.92282615730529, 21.7288846605657 9.92282615730529 M21.7288846605657 9.92282615730529 C21.408805470579335 9.92282615730529, 21.09153399278583 9.92628358802212, 20.771454802799465 9.940113310889444 M21.7288846605657 9.92282615730529 C21.408805470579335 9.92282615730529, 21.09153399278583 9.92628358802212, 20.771454802799465 9.940113310889444 M20.771454802799465 9.940113310889444 C19.74383214021166 9.981602479491418, 18.988557560331547 10.455270487697279, 18.93521102866715 12.035316325289099 M20.771454802799465 9.940113310889444 C19.74383214021166 9.981602479491418, 18.988557560331547 10.455270487697279, 18.93521102866715 12.035316325289099 M18.93521102866715 12.035316325289099 C18.901518482352795 13.172811031126534, 18.879056784809894 15.68636316226275, 18.879056784809894 15.817745529502332 M18.93521102866715 12.035316325289099 C18.901518482352795 13.172811031126534, 18.879056784809894 15.68636316226275, 18.879056784809894 15.817745529502332 M18.879056784809894 15.817745529502332 C18.932403316474286 15.817745529502332, 19.948795130290645 15.821202960219162, 20.96799465629986 15.821202960219162 M18.879056784809894 15.817745529502332 C18.932403316474286 15.817745529502332, 19.948795130290645 15.821202960219162, 20.96799465629986 15.821202960219162 M20.96799465629986 15.821202960219162 C21.4789982754009 15.821202960219162, 21.97877104573049 15.821202960219162, 22.326927357645488 15.817745529502332 M20.96799465629986 15.821202960219162 C21.4789982754009 15.821202960219162, 21.97877104573049 15.821202960219162, 22.326927357645488 15.817745529502332 M22.326927357645488 15.817745529502332 C22.590852303774597 15.817745529502332, 22.85758496209657 15.817745529502332, 23.158010166732893 15.817745529502332 M22.326927357645488 15.817745529502332 C22.590852303774597 15.817745529502332, 22.85758496209657 15.817745529502332, 23.158010166732893 15.817745529502332 M23.158010166732893 15.817745529502332 C22.950239464461045 17.65018380942282, 22.75931503534637 19.410016044289854, 22.551544333074517 21.180220571307384 M23.158010166732893 15.817745529502332 C22.950239464461045 17.65018380942282, 22.75931503534637 19.410016044289854, 22.551544333074517 21.180220571307384 M22.551544333074517 21.180220571307384 C21.36798836718169 21.180220571307384, 20.184432401288866 21.180220571307384, 18.881864497002756 21.180220571307384 M22.551544333074517 21.180220571307384 C21.370630869156173 21.180220571307384, 20.18971740523783 21.180220571307384, 18.881864497002756 21.180220571307384 M18.881864497002756 21.180220571307384 C18.8553784045486 25.391917872393677, 18.828892312094442 29.603615173479966, 18.797633131216873 34.5743071683111 M18.881864497002756 21.180220571307384 C18.864728930811435 23.905039946059716, 18.847593364620117 26.629859320812045, 18.797633131216873 34.5743071683111 M18.797633131216873 34.5743071683111 C20.476500148454363 34.5743071683111, 22.155367165691857 34.5743071683111, 26.7715357589474 34.5743071683111 M18.797633131216873 34.5743071683111 C21.723471610817153 34.5743071683111, 24.649310090417437 34.5743071683111, 26.7715357589474 34.5743071683111 M26.7715357589474 34.5743071683111 C27.490310080320295 34.5743071683111, 28.077121928628635 33.8517041484934, 28.077121928628635 32.966601884984634 M26.7715357589474 34.5743071683111 C27.490310080320295 34.5743071683111, 28.077121928628635 33.8517041484934, 28.077121928628635 32.966601884984634 M28.077121928628635 32.966601884984634 C28.077121928628635 22.173539576525755, 28.077121928628635 11.380477268066876, 28.077121928628635 1.6077052833264664 M28.077121928628635 32.966601884984634 C28.077121928628635 21.232059968782735, 28.077121928628635 9.497518052580833, 28.077121928628635 1.6077052833264664 M28.077121928628635 1.6077052833264664 C28.077121928628635 0.722603019817702, 27.490310080320295 0, 26.7715357589474 0 M28.077121928628635 1.6077052833264664 C28.077121928628635 0.722603019817702, 27.490310080320295 0, 26.7715357589474 0 M26.7715357589474 0 C26.7715357589474 0, 26.7715357589474 0, 26.7715357589474 0 M26.7715357589474 0 C26.7715357589474 0, 26.7715357589474 0, 26.7715357589474 0" stroke="#000000" stroke-width="2" fill="none" vector-effect="non-scaling-stroke" data-shape-part="outline" stroke-opacity="1" fill-opacity="0.24"></path></g></g></g><g><g transform="translate(950.3727880935401, 1030.0316794712974)  rotate(0)  "><g><path d="M1.590070141947952 10.6573178400346 C1.590070141947952 10.6573178400346, 1.590070141947952 10.6573178400346, 1.590070141947952 10.6573178400346 M1.590070141947952 10.6573178400346 C1.590070141947952 10.6573178400346, 1.590070141947952 10.6573178400346, 1.590070141947952 10.6573178400346 M1.723215522815563 22.698176293963606 C3.604322103444196 20.534210712992884, 5.485428684072829 18.370245132022163, 8.939864841711143 14.396370911513113 M1.723215522815563 22.698176293963606 C3.6487970129375733 20.48304818219769, 5.574378503059584 18.267920070431774, 8.939864841711143 14.396370911513113 M3.168478961664187 33.22961558744707 C5.006859945417427 31.114800183301462, 6.845240929170668 28.999984779155852, 9.073010222578752 26.43722936544212 M3.168478961664187 33.22961558744707 C4.569323115819913 31.618128729066086, 5.970167269975638 30.0066418706851, 9.073010222578752 26.43722936544212" stroke="none" stroke-width="1" fill="none" vector-effect="non-scaling-stroke" data-shape-part="fill" stroke-opacity="0.24" fill-opacity="0.24"></path><path d="M8.62615047010067 32.86452157892103 C6.5913584936754015 32.86452157892103, 4.556566517250133 32.86452157892103, 1.449522069726967 32.86452157892103 M8.62615047010067 32.86452157892103 C6.1705423866781794 32.86452157892103, 3.7149343032556885 32.86452157892103, 1.449522069726967 32.86452157892103 M1.449522069726967 32.86452157892103 C1.449522069726967 27.823680372124223, 1.449522069726967 22.782839165327417, 1.449522069726967 10.81899990201344 M1.449522069726967 32.86452157892103 C1.449522069726967 26.67525730032064, 1.449522069726967 20.485993021720255, 1.449522069726967 10.81899990201344 M1.449522069726967 10.81899990201344 C2.940683851092511 10.81899990201344, 4.431845632458056 10.81899990201344, 8.62615047010067 10.81899990201344 M1.449522069726967 10.81899990201344 C3.9075366903078077 10.81899990201344, 6.365551310888649 10.81899990201344, 8.62615047010067 10.81899990201344 M8.62615047010067 10.81899990201344 C8.62615047010067 18.639248378179197, 8.62615047010067 26.459496854344955, 8.62615047010067 32.86452157892103 M8.62615047010067 10.81899990201344 C8.62615047010067 15.675802411345302, 8.62615047010067 20.532604920677166, 8.62615047010067 32.86452157892103 M8.62615047010067 32.86452157892103 C8.62615047010067 32.86452157892103, 8.62615047010067 32.86452157892103, 8.62615047010067 32.86452157892103 M8.62615047010067 32.86452157892103 C8.62615047010067 32.86452157892103, 8.62615047010067 32.86452157892103, 8.62615047010067 32.86452157892103" stroke="#000000" stroke-width="2" fill="none" vector-effect="non-scaling-stroke" data-shape-part="outline" stroke-opacity="1" fill-opacity="0.24"></path></g><g><path d="M1.673498260578439 1.4547498436793609 C1.673498260578439 1.4547498436793609, 1.673498260578439 1.4547498436793609, 1.673498260578439 1.4547498436793609 M1.673498260578439 1.4547498436793609 C1.673498260578439 1.4547498436793609, 1.673498260578439 1.4547498436793609, 1.673498260578439 1.4547498436793609 M7.055115873370108 7.457931655826191 C7.748500877424371 6.660283453121354, 8.441885881478635 5.862635250416517, 9.679351989332137 4.439093334935103 M7.055115873370108 7.457931655826191 C7.747063605292432 6.661936845574517, 8.439011337214756 5.865942035322842, 9.679351989332137 4.439093334935103" stroke="none" stroke-width="1" fill="none" vector-effect="non-scaling-stroke" data-shape-part="fill" stroke-opacity="0.24" fill-opacity="0.24"></path><path d="M9.474195388243906 3.7892792502918544 C9.474195388243906 4.008613062453286, 9.451743305231638 4.231279048061847, 9.407847118508137 4.447280686776147 C9.363950931784636 4.663282325490448, 9.297276877928853 4.8791827178007185, 9.210818267902905 5.085289082577657 C9.124359657876957 5.291395447354596, 9.015489490565372 5.493970222197098, 8.889095458352445 5.683918875437781 C8.762701426139518 5.873867528678464, 8.614943110314927 6.0569615540273904, 8.452454074625345 6.224981002021757 C8.289965038935764 6.393000450016123, 8.107808136255183 6.551050506561294, 7.914161244214957 6.6920355634039765 C7.72051435217473 6.833020620246659, 7.509493607950269 6.961224436997137, 7.290572722383983 7.070891343077852 C7.071651836817697 7.180558249158567, 6.8381790095809665 7.275020418016651, 6.600635930817239 7.350036999888269 C6.363092852053511 7.4250535817598875, 6.114261895517148 7.482903917524986, 5.865314249801618 7.520990834307559 C5.616366604086088 7.559077751090133, 5.3597381209499115 7.578558500583709, 5.106950056524058 7.578558500583709 C4.854161992098204 7.578558500583709, 4.5975335089620275 7.559077751090133, 4.348585863246497 7.520990834307559 C4.099638217530967 7.482903917524986, 3.8508072609946047 7.425053581759887, 3.6132641822308775 7.350036999888269 C3.3757211034671504 7.275020418016652, 3.1422482762304207 7.180558249158568, 2.9233273906641344 7.070891343077853 C2.704406505097848 6.961224436997138, 2.4933857608733874 6.833020620246661, 2.29973886883316 6.692035563403978 C2.106091976792933 6.551050506561296, 1.9239350741123527 6.393000450016125, 1.7614460384227715 6.224981002021759 C1.5989570027331903 6.056961554027394, 1.4511986869085998 5.873867528678468, 1.324804654695673 5.683918875437785 C1.1984106224827464 5.493970222197102, 1.0895404551711605 5.291395447354599, 1.0030818451452115 5.085289082577661 C0.9166232351192626 4.879182717800722, 0.8499491812634798 4.663282325490452, 0.8060529945399795 4.447280686776152 C0.7621568078164791 4.231279048061851, 0.7397047248042097 4.00861306245329, 0.7397047248042092 3.7892792502918597 C0.7397047248042088 3.569945438130429, 0.7621568078164772 3.3472794525218683, 0.8060529945399768 3.131277813807568 C0.8499491812634764 2.9152761750932674, 0.9166232351192588 2.6993757827829974, 1.003081845145207 2.4932694180060584 C1.0895404551711554 2.2871630532291194, 1.1984106224827404 2.0845882783866174, 1.3248046546956664 1.8946396251459339 C1.4511986869085924 1.7046909719052505, 1.5989570027331825 1.5215969465563242, 1.7614460384227635 1.353577498561958 C1.9239350741123444 1.1855580505675918, 2.106091976792925 1.02750799402242, 2.2997388688331517 0.8865229371797372 C2.4933857608733785 0.7455378803370543, 2.704406505097839 0.6173340635865762, 2.923327390664125 0.5076671575058604 C3.142248276230411 0.39800025142514467, 3.3757211034671406 0.3035380825670609, 3.6132641822308673 0.22852150069544264 C3.850807260994594 0.1535049188238244, 4.0996382175309565 0.09565458305872462, 4.348585863246486 0.05756766627615084 C4.597533508962015 0.019480749493577067, 4.854161992098192 6.661338147750939e-16, 5.106950056524045 0 C5.359738120949898 -6.661338147750939e-16, 5.616366604086075 0.019480749493574333, 5.865314249801605 0.057567666276146845 C6.114261895517135 0.09565458305871935, 6.363092852053497 0.15350491882381795, 6.600635930817225 0.2285215006954351 C6.838179009580952 0.3035380825670522, 7.071651836817682 0.39800025142513507, 7.290572722383969 0.5076671575058498 C7.5094936079502554 0.6173340635865645, 7.720514352174717 0.7455378803370416, 7.914161244214944 0.8865229371797234 C8.107808136255173 1.0275079940224052, 8.289965038935753 1.1855580505675756, 8.452454074625335 1.3535774985619407 C8.614943110314917 1.5215969465563057, 8.76270142613951 1.704690971905231, 8.889095458352436 1.8946396251459137 C9.015489490565363 2.0845882783865965, 9.12435965787695 2.287163053229098, 9.2108182679029 2.4932694180060366 C9.29727687792885 2.699375782782975, 9.363950931784633 2.915276175093245, 9.407847118508133 3.131277813807545 C9.451743305231634 3.3472794525218452, 9.463137343287944 3.6796123442111184, 9.474195388243906 3.7892792502918367 C9.485253433199869 3.898946156372555, 9.485253433199867 3.679612344211136, 9.474195388243906 3.7892792502918544" stroke="#000000" stroke-width="2" fill="none" vector-effect="non-scaling-stroke" data-shape-part="outline" stroke-opacity="1" fill-opacity="0.24"></path></g><g><path d="M36.615374707124474 32.86452157892103 C34.53079865212556 32.86452157892103, 32.446222597126656 32.86452157892103, 29.263159889899597 32.86452157892103 M36.615374707124474 32.86452157892103 C34.099686680795024 32.86452157892103, 31.583998654465567 32.86452157892103, 29.263159889899597 32.86452157892103 M29.263159889899597 32.86452157892103 C29.263159889899597 29.875185596023904, 29.263159889899597 26.885849613126776, 29.263159889899597 19.791014894826244 M29.263159889899597 32.86452157892103 C29.263159889899597 29.194144025521187, 29.263159889899597 25.523766472121345, 29.263159889899597 19.791014894826244 M29.263159889899597 19.791014894826244 C29.263159889899597 19.764723277563107, 29.371500453771308 17.6876855137753, 28.034054872182633 16.448693050249975 M29.263159889899597 19.791014894826244 C29.263159889899597 19.764723277563107, 29.371500453771308 17.6876855137753, 28.034054872182633 16.448693050249975 M28.034054872182633 16.448693050249975 C27.369067962901116 15.830840044566258, 26.450041110748007 15.51862708956651, 25.30686136782585 15.51862708956651 M28.034054872182633 16.448693050249975 C27.369067962901116 15.830840044566258, 26.450041110748007 15.51862708956651, 25.30686136782585 15.51862708956651 M25.30686136782585 15.51862708956651 C22.43023260295636 15.51862708956651, 20.976974694470346 17.339321585038736, 20.360554244855457 18.44356951009048 M25.30686136782585 15.51862708956651 C22.43023260295636 15.51862708956651, 20.976974694470346 17.339321585038736, 20.360554244855457 18.44356951009048 M20.360554244855457 18.44356951009048 C20.360554244855457 23.407398148531044, 20.360554244855457 28.37122678697161, 20.360554244855457 32.86452157892103 M20.360554244855457 18.44356951009048 C20.360554244855457 24.20944595083483, 20.360554244855457 29.97532239157918, 20.360554244855457 32.86452157892103 M20.360554244855457 32.86452157892103 C18.67522880356152 32.86452157892103, 16.98990336226758 32.86452157892103, 13.180189977220195 32.86452157892103 M20.360554244855457 32.86452157892103 C17.74055451575529 32.86452157892103, 15.120554786655124 32.86452157892103, 13.180189977220195 32.86452157892103 M13.180189977220195 32.86452157892103 C13.180189977220195 26.538701973518453, 13.180189977220195 20.212882368115878, 13.180189977220195 10.819000503780803 M13.180189977220195 32.86452157892103 C13.180189977220195 26.205782546230477, 13.180189977220195 19.547043513539926, 13.180189977220195 10.819000503780803 M13.180189977220195 10.819000503780803 C15.54860981019361 10.819000503780803, 17.917029643167027 10.819000503780803, 20.36055424485546 10.819000503780803 M13.180189977220195 10.819000503780803 C15.601390675475105 10.819000503780803, 18.022591373730016 10.819000503780803, 20.36055424485546 10.819000503780803 M20.36055424485546 10.819000503780803 C20.36055424485546 11.411301001285965, 20.36055424485546 12.003601498791127, 20.36055424485546 12.682418877305626 M20.36055424485546 10.819000503780803 C20.36055424485546 11.262361239905447, 20.36055424485546 11.70572197603009, 20.36055424485546 12.682418877305626 M20.36055424485546 12.682418877305626 C22.710423716417676 11.006328276780653, 25.34795606446684 10.118986194149786, 28.007903701592912 10.118986194149786 M20.36055424485546 12.682418877305626 C22.710423716417676 11.006328276780653, 25.34795606446684 10.118986194149786, 28.007903701592912 10.118986194149786 M28.007903701592912 10.118986194149786 C34.818415699459244 10.118986194149786, 36.61537470712447 14.79889406698814, 36.61537470712447 17.270306089723004 M28.007903701592912 10.118986194149786 C34.818415699459244 10.118986194149786, 36.61537470712447 14.79889406698814, 36.61537470712447 17.270306089723004 M36.61537470712447 17.270306089723004 C36.61537470712447 21.817153734613107, 36.615374707124474 26.364001379503215, 36.615374707124474 32.86452157892103 M36.61537470712447 17.270306089723004 C36.61537470712447 21.401965401892774, 36.615374707124474 25.53362471406254, 36.615374707124474 32.86452157892103 M36.615374707124474 32.86452157892103 C36.615374707124474 32.86452157892103, 36.615374707124474 32.86452157892103, 36.615374707124474 32.86452157892103 M36.615374707124474 32.86452157892103 C36.615374707124474 32.86452157892103, 36.615374707124474 32.86452157892103, 36.615374707124474 32.86452157892103 M36.615374707124474 32.86452157892103 C36.615374707124474 32.86452157892103, 36.615374707124474 32.86452157892103, 36.615374707124474 32.86452157892103 M36.615374707124474 32.86452157892103 C36.615374707124474 32.86452157892103, 36.615374707124474 32.86452157892103, 36.615374707124474 32.86452157892103" stroke="#000000" stroke-width="2" fill="none" vector-effect="non-scaling-stroke" data-shape-part="outline" stroke-opacity="1" fill-opacity="0.24"></path></g></g></g><g><g transform="translate(160.56841899846083, 1035.1354233749814)  rotate(0)  "><g><path d="M0.2523691120216097 4.653686513594843 L0.2523691120216097 29.840122965822253 L16.434277267999693 25.544801569655306 L33.5701403593517 30.339814649779424 L50.726191516343555 25.605369616811974 L50.726191516343555 0.6157806415724052 L33.72155951605644 4.577975491937252 L16.419133811990402 0.2523691094802168" stroke="none" stroke-width="0" fill="#616161" fill-rule="evenodd" vector-effect="non-scaling-stroke" data-shape-part="fill" stroke-opacity="0.24" fill-opacity="0.24"></path><path d="M0.2523691120216097 4.653686513594843 C0.2523691120216097 10.986810760452546, 0.2523691120216097 17.319935007310246, 0.2523691120216097 29.840122965822253 M0.2523691120216097 4.653686513594843 C0.2523691120216097 10.35386546122039, 0.2523691120216097 16.054044408845936, 0.2523691120216097 29.840122965822253 M0.2523691120216097 29.840122965822253 C5.053496810017613 28.565712906875437, 9.854624508013616 27.29130284792862, 16.434277267999693 25.544801569655306 M0.2523691120216097 29.840122965822253 C6.347975117534177 28.222106929288934, 12.443581123046744 26.60409089275561, 16.434277267999693 25.544801569655306 M16.434277267999693 25.544801569655306 C22.345984959560145 27.19903489048573, 28.2576926511206 28.853268211316156, 33.5701403593517 30.339814649779424 M16.434277267999693 25.544801569655306 C20.535785575545653 26.692498996862568, 24.63729388309161 27.840196424069834, 33.5701403593517 30.339814649779424 M33.5701403593517 30.339814649779424 C38.63722419741005 28.941484131340275, 43.7043080354684 27.543153612901122, 50.726191516343555 25.605369616811974 M33.5701403593517 30.339814649779424 C40.10487832832531 28.53646506566827, 46.639616297298936 26.733115481557114, 50.726191516343555 25.605369616811974 M50.726191516343555 25.605369616811974 C50.726191516343555 18.9692016653873, 50.726191516343555 12.333033713962626, 50.726191516343555 0.6157806415724052 M50.726191516343555 25.605369616811974 C50.726191516343555 19.37828953947946, 50.726191516343555 13.15120946214695, 50.726191516343555 0.6157806415724052 M50.726191516343555 0.6157806415724052 C44.05819903302627 2.169468217947194, 37.390206549708985 3.7231557943219817, 33.72155951605644 4.577975491937252 M50.726191516343555 0.6157806415724052 C44.378105183609314 2.0949279101993534, 38.03001885087507 3.574075178826301, 33.72155951605644 4.577975491937252 M33.72155951605644 4.577975491937252 C29.73615140310474 3.581623473732735, 25.750743290153043 2.5852714555282175, 16.419133811990402 0.2523691094802168 M33.72155951605644 4.577975491937252 C27.429776310740536 3.005029706448065, 21.137993105424634 1.432083920958878, 16.419133811990402 0.2523691094802168 M16.419133811990402 0.2523691094802168 C10.692686915391505 1.81136442223983, 4.966240018792606 3.370359734999443, 0.2523691120216097 4.653686513594843 M16.419133811990402 0.2523691094802168 C11.37913083644346 1.624483643509841, 6.339127860896518 2.9965981775394654, 0.2523691120216097 4.653686513594843" stroke="#000000" stroke-width="2" fill="none" vector-effect="non-scaling-stroke" data-shape-part="outline" stroke-opacity="1" fill-opacity="0.24"></path></g><g><path d="M16.419133811990402 0.2523691094802168 C16.419133811990402 6.612146030656369, 16.419133811990402 12.971922951832521, 16.419133811990402 25.544801569655306 M16.419133811990402 0.2523691094802168 C16.419133811990402 5.976537009023663, 16.419133811990402 11.70070490856711, 16.419133811990402 25.544801569655306" stroke="#000000" stroke-width="2" fill="none" vector-effect="non-scaling-stroke" data-shape-part="outline" stroke-opacity="1" fill-opacity="0.24"></path></g><g><path d="" stroke="none" stroke-width="0" fill="#616161" vector-effect="non-scaling-stroke" data-shape-part="fill" stroke-opacity="0.24" fill-opacity="0.24"></path><path d="" stroke="#000000" stroke-width="2" fill="none" vector-effect="non-scaling-stroke" data-shape-part="outline" stroke-opacity="1" fill-opacity="0.24"></path></g><g><path d="M33.5701403593517 30.339814649779424 C33.608214675048735 23.86200551137113, 33.646288990745774 17.38419637296284, 33.72155951605644 4.577975491937252 M33.5701403593517 30.339814649779424 C33.60440945061249 24.509410912506752, 33.63867854187328 18.679007175234076, 33.72155951605644 4.577975491937252" stroke="#000000" stroke-width="2" fill="none" vector-effect="non-scaling-stroke" data-shape-part="outline" stroke-opacity="1" fill-opacity="0.24"></path></g></g></g><g transform="translate(731.3371122271072, 885.4256022002544) rotate(0)"><text transform="translate(0, 0)" style="font-size: 6px; font-family: &quot;Comic Sans MS&quot;; fill: rgb(17, 17, 17); opacity: 1; stroke-width: 0; font-style: normal; font-weight: normal; text-decoration: none;"><tspan dominant-baseline="text-before-edge" x="0" y="0"></tspan></text></g><g transform="translate(428.5149739418641, 1027.0544955274818) rotate(0)"><text transform="translate(0, 0)" style="font-size: 19px; font-family: Roboto; fill: rgb(17, 17, 17); opacity: 1; stroke-width: 0; font-style: normal; font-weight: bold; text-decoration: none;"><tspan dominant-baseline="text-before-edge" x="0" y="0">2024 James Phillip De Guzman</tspan></text></g><g transform="translate(458.2868133800201, 1050.446655086033) rotate(0)"><text transform="translate(0, 0)" style="font-size: 13px; font-family: Roboto; fill: rgb(17, 17, 17); opacity: 1; stroke-width: 0; font-style: normal; font-weight: normal; text-decoration: none;"><tspan dominant-baseline="text-before-edge" x="0" y="0">Last Modified: dd/mm/yyyy hh:mm:s</tspan></text></g><g><g transform="translate(529.7855406084905, 247.73096935862333)  rotate(0)  "><g><path d="M78.37001037597656 33.95753740370742 C55.15748898108705 33.95753740370742, 31.944967586197535 33.95753740370742, 13.830001831054688 33.95753740370742 C6.223500823974609 33.95753740370742, 0 30.283068383588393, 0 25.792050692331802 C0 19.94593046373935, 0 14.099810235146897, 0 8.165486711375623 C0 3.67446902011903, 6.223500823974609 0, 13.830001831054688 0 C27.62329049433101 0, 41.41657915760733 0, 78.37001037597656 0 C85.97651138305663 0, 92.20001220703125 3.67446902011903, 92.20001220703125 8.165486711375623 C92.20001220703125 14.371390873659369, 92.20001220703125 20.577295035943113, 92.20001220703125 25.792050692331802 C92.20001220703125 30.283068383588393, 85.97651138305663 33.95753740370742, 78.37001037597656 33.95753740370742 C78.37001037597656 33.95753740370742, 78.37001037597656 33.95753740370742, 78.37001037597656 33.95753740370742" stroke="none" stroke-width="0" fill="#ABB8C3" vector-effect="non-scaling-stroke" data-shape-part="fill" stroke-opacity="1" fill-opacity="1"></path><path d="M78.37001037597656 33.95753740370742 C60.70303926428642 33.95753740370742, 43.03606815259628 33.95753740370742, 13.830001831054688 33.95753740370742 M78.37001037597656 33.95753740370742 C61.23594605228381 33.95753740370742, 44.10188172859105 33.95753740370742, 13.830001831054688 33.95753740370742 M13.830001831054688 33.95753740370742 C6.223500823974609 33.95753740370742, 0 30.283068383588393, 0 25.792050692331802 M13.830001831054688 33.95753740370742 C6.223500823974609 33.95753740370742, 0 30.283068383588393, 0 25.792050692331802 M0 25.792050692331802 C0 20.295044084910305, 0 14.798037477488807, 0 8.165486711375623 M0 25.792050692331802 C0 22.233372620765294, 0 18.67469454919879, 0 8.165486711375623 M0 8.165486711375623 C0 3.67446902011903, 6.223500823974609 0, 13.830001831054688 0 M0 8.165486711375623 C0 3.67446902011903, 6.223500823974609 0, 13.830001831054688 0 M13.830001831054688 0 C31.26249534378948 0, 48.694988856524276 0, 78.37001037597656 0 M13.830001831054688 0 C30.916237842455402 0, 48.00247385385612 0, 78.37001037597656 0 M78.37001037597656 0 C85.97651138305663 0, 92.20001220703125 3.67446902011903, 92.20001220703125 8.165486711375623 M78.37001037597656 0 C85.97651138305663 0, 92.20001220703125 3.67446902011903, 92.20001220703125 8.165486711375623 M92.20001220703125 8.165486711375623 C92.20001220703125 13.18001371052728, 92.20001220703125 18.19454070967894, 92.20001220703125 25.792050692331802 M92.20001220703125 8.165486711375623 C92.20001220703125 14.822478960086096, 92.20001220703125 21.479471208796568, 92.20001220703125 25.792050692331802 M92.20001220703125 25.792050692331802 C92.20001220703125 30.283068383588393, 85.97651138305663 33.95753740370742, 78.37001037597656 33.95753740370742 M92.20001220703125 25.792050692331802 C92.20001220703125 30.283068383588393, 85.97651138305663 33.95753740370742, 78.37001037597656 33.95753740370742 M78.37001037597656 33.95753740370742 C78.37001037597656 33.95753740370742, 78.37001037597656 33.95753740370742, 78.37001037597656 33.95753740370742 M78.37001037597656 33.95753740370742 C78.37001037597656 33.95753740370742, 78.37001037597656 33.95753740370742, 78.37001037597656 33.95753740370742" stroke="#000000" stroke-width="2" fill="none" vector-effect="non-scaling-stroke" data-shape-part="outline" stroke-opacity="1" fill-opacity="1"></path></g></g><g transform="translate(534.395541218842, 250.4527983289726) rotate(0)"><text transform="translate(0, 2)" style="font-size: 24px; font-family: &quot;Comic Sans MS&quot;; fill: rgb(17, 17, 17); opacity: 1; stroke-width: 0; font-style: normal; font-weight: normal; text-decoration: none;"></text></g></g><g transform="translate(547.9425621296019, 255.05613323572328) rotate(0)"><text transform="translate(0, 0)" style="font-size: 15px; font-family: Roboto; fill: rgb(17, 17, 17); opacity: 1; stroke-width: 0; font-style: normal; font-weight: normal; text-decoration: none;"><tspan dominant-baseline="text-before-edge" x="0" y="0">Sign U</tspan></text></g><g><g id="DZVqqbGbC44kIrl4mP3ak" pointer-events="auto"><g><path data-shape-part="outline" class="" d="M588.563 281.689 C588.7181573029522 281.5587206443636, 589.2331885617133 281.81787074430565, 589.716 281.689 M588.563 281.689 C588.8901115231747 281.7569551619789, 589.3930368780661 281.69508871684434, 589.716 281.689" stroke="#000000" stroke-width="2" stroke-opacity="1" fill="none" stroke-linecap="round" stroke-dashoffset="-3"></path></g><path d="M588.563,281.689L589.716,281.689" fill="none" fill-opacity="0" stroke="black" stroke-opacity="0" stroke-width="10" id="hit-DZVqqbGbC44kIrl4mP3ak"></path></g></g><defs><style>@import url("https://www.dafontfree.net/embed/Y29taWMtc2Fucy1tcy1yZWd1bGFyJmRhdGEvNDAvYy8xMDA5MzQvQ09NSUMuVFRG");
@import url("https://fonts.googleapis.com/css2?family=Roboto&amp;display=swap");
@import url("https://fonts.googleapis.com/css2?family=Roboto:wght@700&amp;display=swap");text {white-space: pre;};
</style></defs></svg>