<svg width="1153" height="1080" viewBox="0 0 1153 1080" xmlns="http://www.w3.org/2000/svg" xmlns:xlink="http://www.w3.org/1999/xlink"><g><g transform="translate(14.393021764923509, 101.78522909180379)  rotate(0)  "><g><path d="M2.7518276860937476 -0.525764568708837 L1129.2472558878897 -0.00038017239421606064 L1128.0774503909586 874.6859575512785 L-0.7741598496213555 874.8973790111918" stroke="none" stroke-width="0" fill="#616161" vector-effect="non-scaling-stroke" data-shape-part="fill" stroke-opacity="0.03" fill-opacity="0.03"></path><path d="M0 0 C277.2638831433967 -0.14092635908545692, 555.4418212464333 -0.8642337659877702, 1128.428752032162 0 M0 0 C310.64603295182803 -3.4289019225263444, 621.9475879225133 -3.2782209096574633, 1128.428752032162 0 M1128.428752032162 0 C1131.4092418002033 346.1106763069635, 1130.2811555074595 691.1381560338895, 1128.428752032162 876.3674800836448 M1128.428752032162 0 C1133.2882615761941 180.2659070290796, 1133.0919807212538 359.564626763609, 1128.428752032162 876.3674800836448 M1128.428752032162 876.3674800836448 C795.8742339181748 870.4972217001506, 464.94764727349394 870.4966750659534, 0 876.3674800836448 M1128.428752032162 876.3674800836448 C797.3644858808248 881.1685257349319, 465.33263089371906 880.4705643985577, 0 876.3674800836448 M0 876.3674800836448 C-5.758822868552983 662.346054472344, -4.567519055095493 446.64786865280917, 0 0 M0 876.3674800836448 C4.04035564170686 642.0048391324086, 3.795372165306485 406.58420248313024, 0 0" stroke="#000000" stroke-width="2" fill="none" vector-effect="non-scaling-stroke" data-shape-part="outline" stroke-opacity="1" fill-opacity="0.03"></path></g></g><g transform="translate(70.81445936653161, 145.60360309598602) rotate(0)"><text transform="translate(0, 382)" style="font-size: 24px; font-family: &quot;Comic Sans MS&quot;; fill: rgb(17, 17, 17); opacity: 1; stroke-width: 0; font-style: normal; font-weight: normal; text-decoration: none;"></text></g></g><g><g transform="translate(10.178226202914402, -0.07233032341628132)  rotate(0)  "><g><path d="M1.5155302276834846 -1.8403794905170798 L1127.4703652822016 -2.2868073424324393 L1129.9515254758833 82.79117913590316 L0.2500569513067603 81.49337379680519" stroke="none" stroke-width="0" fill="#616161" vector-effect="non-scaling-stroke" data-shape-part="fill" stroke-opacity="0.1" fill-opacity="0.1"></path><path d="M0 0 C397.52843314222264 -2.1134995220467214, 794.335431458414 -1.8058029769226676, 1128.428752032162 0 M0 0 C352.46547804035987 -3.2400037175943512, 704.4055469784662 -3.3903074688245916, 1128.428752032162 0 M1128.428752032162 0 C1126.7358488623265 22.435135215749526, 1127.5796851400498 45.34779137511836, 1128.428752032162 82.99427726817821 M1128.428752032162 0 C1130.1623654246805 25.89886496687368, 1128.0368647605655 56.23943360300855, 1128.428752032162 82.99427726817821 M1128.428752032162 82.99427726817821 C795.7504255735939 88.1791939086917, 460.3799193692176 88.69058384370832, 0 82.99427726817821 M1128.428752032162 82.99427726817821 C715.4416759139024 90.09991352809237, 302.87917058278174 89.04116518152522, 0 82.99427726817821 M0 82.99427726817821 C-1.1456366582355388 59.482098791616494, 2.9652417795219534 34.91419098640008, 0 0 M0 82.99427726817821 C-0.7866613689589456 55.68095959239178, -0.712049690239425 25.99610955791053, 0 0" stroke="#000000" stroke-width="2" fill="none" vector-effect="non-scaling-stroke" data-shape-part="outline" stroke-opacity="1" fill-opacity="0.1"></path></g></g><g transform="translate(66.5996638045225, 4.0773835399926295) rotate(0)"><text transform="translate(0, 25)" style="font-size: 24px; font-family: &quot;Comic Sans MS&quot;; fill: rgb(17, 17, 17); opacity: 1; stroke-width: 0; font-style: normal; font-weight: normal; text-decoration: none;"></text></g></g><g><g transform="translate(41.789192917982696, -0.07233032341628132)  rotate(0)  "><g><path d="M50.80763678192659 1.7100857278097692 C57.86266165073331 2.648265771189326, 65.4722905224601 6.787047799532181, 70.51090582049771 12.224380512519481 C75.54952111853532 17.66171322550678, 79.86599604499881 27.00061753180759, 81.03932857015226 34.33408200573357 C82.21266109530572 41.66754647965955, 80.44582288676202 49.78421167199964, 77.55090097141849 56.225167356075374 C74.65597905607495 62.666123040151106, 69.83460746752786 68.75940950050763, 63.66979707809105 72.97981611018797 C57.50498668865424 77.20022271986831, 48.037987990829066 81.17321872878166, 40.56203863479763 81.54760701415742 C33.086089278766195 81.92199529953318, 24.646156336997304 79.13711054070018, 18.814100941902435 75.22614582244255 C12.982045546807566 71.31518110418492, 8.602793712292087 64.43986492932403, 5.569706264228422 58.08181870461165 C2.5366188161647583 51.72377247989927, 0.19000729638004304 44.07693713591782, 0.6155762535204516 37.07786847416827 C1.0411452106608603 30.07879981241872, 3.4682528068130978 22.04655147953095, 8.123120007070874 16.087406734114353 C12.77798720732865 10.128261988697755, 19.593680771046664 2.8740332952632395, 28.544779455067108 1.3230000016686816 C37.49587813908755 -0.2280332919258765, 54.52655842415009 3.992505010252618, 61.82971211119353 6.781206972547004 C69.13286579823698 9.56990893484139, 72.30267223562666 17.212563312102226, 72.36370157732776 18.055211775434998 M40.13842277133007 0.0818299128438511 C46.7147177478723 0.09920597524791812, 55.22848234652259 4.974953537233583, 61.279487491809874 8.924704495470863 C67.33049263709717 12.874455453708142, 73.55615418331536 17.447629726579407, 76.44445364305378 23.780335662267532 C79.3327531027922 30.113041597955657, 79.86128404438792 39.5941797161062, 78.60928425024042 46.92094010959962 C77.35728445609293 54.24770050309304, 73.61135667622072 62.14308273011674, 68.93245487816884 67.74089802322806 C64.25355308011696 73.33871331633937, 57.77257496974227 78.56692233077733, 50.53587346192914 80.50783186826752 C43.29917195411601 82.4487414057577, 32.4375642390469 81.79065319039226, 25.512245831290073 79.38635524816915 C18.586927423533247 76.98205730594604, 12.846050396031352 72.19101899491596, 8.983963015388191 66.08204421492883 C5.121875634745031 59.97306943494169, 3.357481135897018 50.15114523451994, 2.339721547431111 42.73250656824633 C1.321961958965204 35.31386790197272, 0.10856347012904033 27.563679168161503, 2.8774054845927495 21.570212217287196 C5.646247499056459 15.576745266412889, 12.529981309796273 10.589051325729296, 18.952773634213365 6.77170486300048 C25.375565958630457 2.954358400271664, 37.98242888940343 -0.4012469993508839, 41.41415943109531 -1.333866559085699 C44.845889972787184 -2.2664861188205143, 39.365007887686176 0.5176127552295403, 39.54315688436461 1.175987504591589" stroke="none" stroke-width="0" fill="#616161" vector-effect="non-scaling-stroke" data-shape-part="fill" stroke-opacity="0.26" fill-opacity="0.26"></path><path d="M52.40241355762124 3.076131062536234 C59.433117146070906 4.460346302172851, 67.25642021118452 6.959067164496331, 72.0428016539747 12.378695357468192 C76.8291830967649 17.798323550440053, 80.40362888936188 28.24366849013896, 81.12070221436235 35.5939002203674 C81.83777553936282 42.944131950595846, 79.37934357983895 49.93922155089261, 76.34524160397751 56.48008573883885 C73.31113962811608 63.02094992678509, 68.88769175316385 70.83956397123266, 62.916090359193774 74.83908534804483 C56.9444889652237 78.838606724857, 47.981173295241106 80.51170077913011, 40.515633240157044 80.47721399971189 C33.05009318507298 80.44272722029368, 24.188004222143405 78.49277248561496, 18.122850028689378 74.63216467153558 C12.05769583523535 70.77155685745619, 7.2411993030538575 64.0272833429838, 4.124708079432885 57.31356711523556 C1.008216855811913 50.59985088748733, -1.4291361121691426 41.511308476695774, -0.5760973130364562 34.349867305046196 C0.27694148609623015 27.18842613339662, 4.296344640135959 19.720923657555097, 9.242940874229003 14.3449200853381 C14.189537108322046 8.968916513121101, 19.76429214592634 3.3037449930036065, 29.10348009152181 2.0938458717442145 C38.44266803711728 0.8839467504848226, 57.96793167578003 4.413268652302136, 65.27806854780181 7.085525357781748 C72.58820541982358 9.75778206326136, 73.4302292045541 17.68167601223403, 72.96430132365248 18.127386104621888 M13.067104188088642 9.831128339593892 C18.271795638180453 5.0773485906674924, 29.045255430705257 2.945410309911782, 36.965742248449544 2.2781175718224063 C44.886229066193835 1.6108248337330306, 53.93891535811343 2.858243385633878, 60.59002509455436 5.827371911057639 C67.24113483099529 8.7965004364814, 73.55868394439243 13.860016943144991, 76.87240066709515 20.092888724364975 C80.18611738979787 26.32576050558496, 81.28514010280534 36.25118073747744, 80.4723254307707 43.224602598377544 C79.65951075873605 50.19802445927765, 75.97359589635863 56.107220429347805, 71.99551263488728 61.93341988976561 C68.01742937341592 67.75961935018341, 63.21439419675424 74.8649587804308, 56.60382586194261 78.18179936088438 C49.99325752713098 81.49863994133797, 39.54295137707623 82.85201620399816, 32.332102626017495 81.83446337248712 C25.12125387495876 80.81691054097608, 18.201526088741502 77.27579639779525, 13.338733355590211 72.07648237181814 C8.47594062243892 66.87716834584104, 4.685138674891559 58.10995975360441, 3.155346227109753 50.63857921662447 C1.6255537793279473 43.167198679644535, 2.2813428873821273 33.91638707886677, 4.159978668899377 27.24819914993852 C6.0386144504166275 20.58001122101027, 12.730493969037031 13.733676648847911, 14.427160916213253 10.629451643054974 C16.123827863389476 7.525226637262037, 13.663121264088876 8.469139730197583, 14.339980351956715 8.622849115180895" stroke="#000000" stroke-width="2" fill="none" vector-effect="non-scaling-stroke" data-shape-part="outline" stroke-opacity="1" fill-opacity="0.26"></path></g></g><g transform="translate(53.91602656869678, 12.054503327297805) rotate(0)"><text transform="translate(0, 16)" style="font-size: 24px; font-family: &quot;Comic Sans MS&quot;; fill: rgb(17, 17, 17); opacity: 1; stroke-width: 0; font-style: normal; font-weight: normal; text-decoration: none;"></text></g></g><g><g id="5Guzb7JhGQ9KjwWm5vasH" pointer-events="auto"><g><path data-shape-part="outline" class="" d="M104.904 6.898 C94.93580161205185 22.002750543599017, 84.9676032241037 37.10750108719803, 79.371 45.588 M104.904 6.898 C97.682260300373 17.841058355013843, 90.46052060074601 28.784116710027682, 79.371 45.588 M79.371 45.588 C71.4469692005014 56.534550801007455, 63.522938401002804 67.4811016020149, 59.137 73.54 M79.371 45.588 C72.23001160612647 55.45282690449506, 65.08902321225293 65.31765380899013, 59.137 73.54" stroke="#000000" stroke-width="2" stroke-opacity="1" fill="none" stroke-linecap="round" stroke-dashoffset="-3"></path></g><path d="M104.904,6.898L79.371,45.588L59.137,73.54" fill="none" fill-opacity="0" stroke="black" stroke-opacity="0" stroke-width="10" id="hit-5Guzb7JhGQ9KjwWm5vasH"></path></g></g><g><g id="iPyqE697lxGJWf2tCU6pr" pointer-events="auto"><g><path data-shape-part="outline" class="" d="M56.384 9.255 C68.85557460898347 23.499130980290474, 81.32714921796695 37.743261960580945, 88.503 45.939 M56.384 9.255 C69.18423304183892 23.87450088442415, 81.98446608367786 38.4940017688483, 88.503 45.939 M88.503 45.939 C96.19640298256093 54.46858789559677, 103.88980596512184 62.998175791193546, 109.968 69.737 M88.503 45.939 C95.4442122070212 53.63464258572981, 102.38542441404239 61.330285171459614, 109.968 69.737" stroke="#000000" stroke-width="2" stroke-opacity="1" fill="none" stroke-linecap="round" stroke-dashoffset="-3"></path></g><path d="M56.384,9.255L88.503,45.939L109.968,69.737" fill="none" fill-opacity="0" stroke="black" stroke-opacity="0" stroke-width="10" id="hit-iPyqE697lxGJWf2tCU6pr"></path></g></g><g><g transform="translate(10.178226202914402, 997.078053055238)  rotate(0)  "><g><path d="M0.04214971326291561 0.6088089141994715 L1128.2438493548495 2.5628634486347437 L1126.4102810798747 83.38293940713201 L-0.8898905608803034 81.08701301505361" stroke="none" stroke-width="0" fill="#616161" vector-effect="non-scaling-stroke" data-shape-part="fill" stroke-opacity="0.1" fill-opacity="0.1"></path><path d="M0 0 C425.03804841911676 6.814907364489092, 848.716524555055 7.2442295357003355, 1128.428752032162 0 M0 0 C275.6724559399752 2.2037703759855916, 551.5086631621208 3.0028687126822162, 1128.428752032162 0 M1128.428752032162 0 C1127.2350588184227 13.930643911947328, 1130.2741276961196 35.6463554511011, 1128.428752032162 82.99427726817821 M1128.428752032162 0 C1129.63352976488 17.80182624217212, 1128.1506950979126 38.66714205090135, 1128.428752032162 82.99427726817821 M1128.428752032162 82.99427726817821 C805.8171908974055 87.2517680765091, 482.89235431441585 87.76143234977111, 0 82.99427726817821 M1128.428752032162 82.99427726817821 C746.0693903896431 81.24175780516231, 365.19583920764694 81.3561904619273, 0 82.99427726817821 M0 82.99427726817821 C-0.9812343640381234 51.50839246140431, -0.7923737688118355 15.269479449965829, 0 0 M0 82.99427726817821 C1.7023255427704274 50.33509827074187, 0.47409330805401195 18.30527358166485, 0 0" stroke="#000000" stroke-width="2" fill="none" vector-effect="non-scaling-stroke" data-shape-part="outline" stroke-opacity="1" fill-opacity="0.1"></path></g></g><g transform="translate(66.5996638045225, 1001.2277669186469) rotate(0)"><text transform="translate(0, 25)" style="font-size: 24px; font-family: &quot;Comic Sans MS&quot;; fill: rgb(17, 17, 17); opacity: 1; stroke-width: 0; font-style: normal; font-weight: normal; text-decoration: none;"></text></g></g><g transform="translate(375.4605082437036, 24.513977121636838) rotate(0)"><text transform="translate(0, 0)" style="font-size: 24px; font-family: Roboto; fill: rgb(17, 17, 17); opacity: 1; stroke-width: 0; font-style: normal; font-weight: normal; text-decoration: none;"><tspan dominant-baseline="text-before-edge" x="0" y="0">Hom</tspan></text></g><g transform="translate(505.76793770248514, 24.513977121636838) rotate(0)"><text transform="translate(0, 0)" style="font-size: 24px; font-family: Roboto; fill: rgb(17, 17, 17); opacity: 1; stroke-width: 0; font-style: normal; font-weight: normal; text-decoration: none;"><tspan dominant-baseline="text-before-edge" x="0" y="0">Abou</tspan></text></g><g transform="translate(635.3729012342651, 24.513977121636838) rotate(0)"><text transform="translate(0, 0)" style="font-size: 24px; font-family: Roboto; fill: rgb(17, 17, 17); opacity: 1; stroke-width: 0; font-style: normal; font-weight: normal; text-decoration: none;"><tspan dominant-baseline="text-before-edge" x="0" y="0">Contac</tspan></text></g><g transform="translate(770.9488251455581, 25.567676012139113) rotate(0)"><text transform="translate(0, 0)" style="font-size: 24px; font-family: Roboto; fill: rgb(17, 17, 17); opacity: 1; stroke-width: 0; font-style: normal; font-weight: normal; text-decoration: none;"><tspan dominant-baseline="text-before-edge" x="0" y="0">Portfoli</tspan></text></g><g transform="translate(920.9253005603821, 24.513977121636838) rotate(0)"><text transform="translate(0, 0)" style="font-size: 24px; font-family: Roboto; fill: rgb(17, 17, 17); opacity: 1; stroke-width: 0; font-style: normal; font-weight: normal; text-decoration: none;"><tspan dominant-baseline="text-before-edge" x="0" y="0">Sign U</tspan></text></g><g><g transform="translate(440.0873735278432, 827.7837646478723)  rotate(0)  "><g><path d="M239.48813613782775 78.82475681803045 C164.81473315127857 76.94328120505034, 89.02264596937485 78.72718715225875, 42.26261225961666 78.82475681803045 C14.675421068249737 80.92476952089784, 4.1131801117211575 72.41247942916301, 0 59.870422860504696 C1.3293674090610186 43.730390641244156, 2.0550210216746967 31.12053608785797, 0 18.95433395752576 C-0.4568384815007448 8.879109758433403, 15.43081617894629 -3.022598863765597, 42.26261225961666 0 C98.30059644293635 -1.2463785952088597, 148.48155794852153 1.0470309072973962, 239.48813613782775 0 C261.35945459813485 4.207386310026049, 277.2953196648853 8.929100921299757, 281.7507483974444 18.95433395752576 C285.4667136474269 27.275136045669623, 280.0031769676822 44.80244025065755, 281.7507483974444 59.870422860504696 C279.10832278396657 66.56851834899929, 263.7399429543377 74.38558539538501, 239.48813613782775 78.82475681803045 C239.48813613782775 78.82475681803045, 239.48813613782775 78.82475681803045, 239.48813613782775 78.82475681803045" stroke="none" stroke-width="0" fill="#616161" vector-effect="non-scaling-stroke" data-shape-part="fill" stroke-opacity="0.1" fill-opacity="0.1"></path><path d="M239.48813613782775 78.82475681803045 C175.0519549341356 81.20376238994656, 113.86747341463126 79.7322973387724, 42.26261225961666 78.82475681803045 M239.48813613782775 78.82475681803045 C189.70009115052488 77.75191883713711, 143.57171998905972 76.4114942696761, 42.26261225961666 78.82475681803045 M42.26261225961666 78.82475681803045 C16.304127993612084 79.03676368682501, -2.216436417773366 72.6929841989949, 0 59.870422860504696 M42.26261225961666 78.82475681803045 C17.061353010582273 82.04555785474223, 0.4868431144393983 69.29928364132715, 0 59.870422860504696 M0 59.870422860504696 C-0.32808064000823767 50.20991837004415, -2.095342204739836 32.240053168679594, 0 18.95433395752576 M0 59.870422860504696 C1.3465579281157172 48.46339424403912, 0.2619350979632056 36.06205390650939, 0 18.95433395752576 M0 18.95433395752576 C2.8185602109879255 7.249394879039825, 17.463872971563134 2.2618375439196825, 42.26261225961666 0 M0 18.95433395752576 C-0.9659050709567963 6.625770125367195, 20.673388440059963 -3.2169826456345616, 42.26261225961666 0 M42.26261225961666 0 C89.06790802979972 2.0715693049549113, 129.66597573358308 -2.8403673953891744, 239.48813613782775 0 M42.26261225961666 0 C110.42635447348904 1.2099636792307098, 175.6042849332316 2.027122348464032, 239.48813613782775 0 M239.48813613782775 0 C263.2202593042017 -2.888647137209773, 283.86478814448884 7.342079863246978, 281.7507483974444 18.95433395752576 M239.48813613782775 0 C265.54152851658546 -0.802496159914881, 281.0586131462241 8.268738625027687, 281.7507483974444 18.95433395752576 M281.7507483974444 18.95433395752576 C281.69920358862805 32.5035342871424, 283.3568497082226 45.948343908029415, 281.7507483974444 59.870422860504696 M281.7507483974444 18.95433395752576 C283.03507127237964 28.960587955181364, 283.32359640670467 36.09672503262655, 281.7507483974444 59.870422860504696 M281.7507483974444 59.870422860504696 C280.3938719924884 68.51436290688065, 262.8025964452387 80.93224467723486, 239.48813613782775 78.82475681803045 M281.7507483974444 59.870422860504696 C282.3791678020144 72.32838453625513, 262.740667980487 76.28332264837665, 239.48813613782775 78.82475681803045 M239.48813613782775 78.82475681803045 C239.48813613782775 78.82475681803045, 239.48813613782775 78.82475681803045, 239.48813613782775 78.82475681803045 M239.48813613782775 78.82475681803045 C239.48813613782775 78.82475681803045, 239.48813613782775 78.82475681803045, 239.48813613782775 78.82475681803045" stroke="#000000" stroke-width="2" fill="none" vector-effect="non-scaling-stroke" data-shape-part="outline" stroke-opacity="1" fill-opacity="0.1"></path></g></g><g transform="translate(454.17491094771543, 834.1018761215455) rotate(0)"><text transform="translate(0, 21)" style="font-size: 24px; font-family: &quot;Comic Sans MS&quot;; fill: rgb(17, 17, 17); opacity: 1; stroke-width: 0; font-style: normal; font-weight: normal; text-decoration: none;"></text></g></g><g transform="translate(546.1597285050724, 851.6676061659239) rotate(0)"><text transform="translate(0, 0)" style="font-size: 24px; font-family: Roboto; fill: rgb(17, 17, 17); opacity: 1; stroke-width: 0; font-style: normal; font-weight: bold; text-decoration: none;"><tspan dominant-baseline="text-before-edge" x="0" y="0">I'm in</tspan></text></g><g><g transform="translate(420.7695605353015, 108.80988836181896)  rotate(0)  "><g><path d="M0 39.016280119259754 C1.795450356800246 90.46413928444932, -1.0209815828016522 145.0596121519808, 0 188.58286026956833 M0 39.016280119259754 C-0.03395239033728492 92.77435533151792, 1.1764939375874435 149.14944416305744, 0 188.58286026956833 M0 188.58286026956833 C118.13105954765878 185.9542863646361, 240.38798023252326 186.7962236104311, 308.1398504551869 188.58286026956833 M0 188.58286026956833 C123.95621219435259 187.41835408328856, 245.27917369396042 187.73702843858248, 308.1398504551869 188.58286026956833 M308.1398504551869 188.58286026956833 C308.4985711203043 147.44953962071804, 311.33811833719653 103.07267254370886, 308.1398504551869 39.01628011925974 M308.1398504551869 188.58286026956833 C307.34880687246346 143.34944003816543, 307.277863963938 100.8282345011209, 308.1398504551869 39.01628011925974 M308.1398504551869 39.01628011925974 C223.96089092171854 40.383028477997165, 141.13663734768755 39.90655529398498, 0 39.01628011925974 M308.1398504551869 39.01628011925974 C231.05655214048673 37.76832852214879, 151.60592189584554 37.99891638652595, 0 39.01628011925974 M0 39.01628011925974 C-8.379258982183972e-16 39.01628011925975, -1.5814396861913667e-16 39.01628011925975, 0 39.016280119259754 M0 39.01628011925974 C2.9112664354558304e-16 39.01628011925974, -9.016089309660488e-16 39.01628011925975, 0 39.016280119259754 M21.53959182651847 48.85013082804208 C27.535305491732807 48.989003596883165, 30.024214442866676 49.85552075333778, 27.888813445147598 53.53590845207267 M21.53959182651847 48.85013082804208 C27.62081346604079 50.04443141758432, 24.58054750817903 48.90891644606251, 27.888813445147598 53.53590845207267 M27.888813445147598 53.53590845207267 C25.1974740395982 55.38892275758058, 22.47700590327192 57.31250824355253, 21.53959182651847 58.2260108490002 M27.888813445147598 53.53590845207267 C25.82003775664682 58.26210841128573, 23.121695904562213 60.54356052721583, 21.53959182651847 58.2260108490002 M21.53959182651847 58.2260108490002 C16.48928232435594 59.56568129681715, 14.30629740336169 58.141159421875784, 15.190370207889343 53.53590845207267 M21.53959182651847 58.2260108490002 C16.476152455531906 57.873783291827074, 11.897698527641637 56.76482953915344, 15.190370207889343 53.53590845207267 M15.190370207889343 53.53590845207267 C15.563831292085405 53.32015821166221, 17.790189889215373 48.42340779123818, 21.53959182651847 48.8501308280421 M15.190370207889343 53.53590845207267 C15.49479757127544 51.2934209937777, 18.45794538599669 50.54899292230596, 21.53959182651847 48.8501308280421 M21.53959182651847 48.8501308280421 C21.539591826518468 48.85013082804209, 21.53959182651847 48.85013082804209, 21.53959182651847 48.85013082804208 M21.53959182651847 48.8501308280421 C21.53959182651847 48.85013082804209, 21.53959182651847 48.85013082804209, 21.53959182651847 48.85013082804208 M286.6014911880702 48.85013082804208 C287.92583583711405 49.33522403059517, 291.4926695166415 50.706305472328104, 292.95071280669936 53.53590845207267 M286.6014911880702 48.85013082804208 C290.64625876691883 45.770468636751076, 291.18505326819405 54.16237666556496, 292.95071280669936 53.53590845207267 M292.95071280669936 53.53590845207267 C291.1100304469912 53.45518255896837, 291.9657780546834 56.888947564593636, 286.6014911880702 58.2260108490002 M292.95071280669936 53.53590845207267 C293.52977298977584 56.347465317342134, 291.94680751479694 58.26201670313918, 286.6014911880702 58.2260108490002 M286.6014911880702 58.2260108490002 C280.24515385626063 58.296316403380715, 277.8554256949099 55.16883928246767, 280.25226956944107 53.53590845207267 M286.6014911880702 58.2260108490002 C282.8427850427869 55.45132121289813, 283.49258590997107 53.02958049962268, 280.25226956944107 53.53590845207267 M280.25226956944107 53.53590845207267 C280.3593070110018 50.78450456090156, 284.3147133834003 48.75291412888085, 286.6014911880702 48.8501308280421 M280.25226956944107 53.53590845207267 C280.0971849345314 53.6897512579884, 285.17802846229586 45.83508749544611, 286.6014911880702 48.8501308280421 M286.6014911880702 48.8501308280421 C286.6014911880702 48.85013082804209, 286.6014911880702 48.85013082804209, 286.6014911880702 48.85013082804208 M286.6014911880702 48.8501308280421 C286.6014911880702 48.8501308280421, 286.6014911880702 48.85013082804209, 286.6014911880702 48.85013082804208 M21.53959182651848 169.39520864356496 C27.38780820801665 169.81851060651627, 25.214126444860206 170.58552184322065, 27.88881344514761 174.08531104049248 M21.53959182651848 169.39520864356496 C24.01003633303379 169.29233330870431, 25.609783763970093 174.35997259657046, 27.88881344514761 174.08531104049248 M27.88881344514761 174.08531104049248 C29.635150548118 175.07935399272714, 22.256486228751395 179.0265863286251, 21.539591826518482 178.77108866452306 M27.88881344514761 174.08531104049248 C30.78142553526053 175.21925834994067, 23.779713282911484 176.11971769024746, 21.539591826518482 178.77108866452306 M21.539591826518482 178.77108866452306 C18.696979132436667 179.96919343340338, 14.297692559652097 177.26450157621179, 15.190370207889355 174.08531104049248 M21.539591826518482 178.77108866452306 C20.876875871841314 175.96470123519316, 12.754792754624106 173.4480130700325, 15.190370207889355 174.08531104049248 M15.190370207889355 174.08531104049248 C12.454358142402075 172.54943832376188, 17.343809618991724 169.62067069076386, 21.539591826518482 169.39520864356496 M15.190370207889355 174.08531104049248 C14.492490586705557 169.6406572971787, 17.47487542303737 168.09809777820868, 21.539591826518482 169.39520864356496 M21.539591826518482 169.39520864356496 C21.539591826518482 169.39520864356496, 21.53959182651848 169.39520864356496, 21.53959182651848 169.39520864356496 M21.539591826518482 169.39520864356496 C21.539591826518482 169.39520864356496, 21.53959182651848 169.39520864356496, 21.53959182651848 169.39520864356496 M286.6014911880702 169.39520864356496 C287.59352791497014 171.17040349506226, 291.49764880989477 171.54952296235746, 292.95071280669936 174.08531104049248 M286.6014911880702 169.39520864356496 C292.8646608255012 170.2271277376489, 295.03356270971506 173.1493811879601, 292.95071280669936 174.08531104049248 M292.95071280669936 174.08531104049248 C294.38584553583325 176.9330245301989, 287.8488998901727 179.48235533106268, 286.6014911880702 178.77108866452306 M292.95071280669936 174.08531104049248 C294.0326690615414 175.3514339892124, 293.49189593043866 179.1442150114955, 286.6014911880702 178.77108866452306 M286.6014911880702 178.77108866452306 C282.3764384634136 180.20647755730093, 279.3015365799601 176.87512439945016, 280.25226956944107 174.08531104049248 M286.6014911880702 178.77108866452306 C281.7692208538106 180.40524441291706, 278.7764240258085 174.06702294926393, 280.25226956944107 174.08531104049248 M280.25226956944107 174.08531104049248 C280.3213708791407 170.1771719715852, 280.73662306068644 169.174233272303, 286.6014911880702 169.39520864356496 M280.25226956944107 174.08531104049248 C281.87666944623834 170.99430434147973, 281.43325023975405 167.86479404354853, 286.6014911880702 169.39520864356496 M286.6014911880702 169.39520864356496 C286.6014911880702 169.39520864356496, 286.6014911880702 169.39520864356496, 286.6014911880702 169.39520864356496 M286.6014911880702 169.39520864356496 C286.6014911880702 169.39520864356496, 286.6014911880702 169.39520864356496, 286.6014911880702 169.39520864356496" stroke="#000000" stroke-width="2" fill="none" vector-effect="non-scaling-stroke" data-shape-part="outline" stroke-opacity="1" fill-opacity="0.24"></path></g></g><g transform="translate(436.17655305806085, 131.57185097733716) rotate(0)"><text transform="translate(0, 79)" style="font-size: 24px; font-family: &quot;Comic Sans MS&quot;; fill: rgb(17, 17, 17); opacity: 1; stroke-width: 0; font-style: normal; font-weight: normal; text-decoration: none;"></text></g></g><g transform="translate(487.5038236004456, 202.58908961652156) rotate(0)"><text transform="translate(0, 0)" style="font-size: 33px; font-family: Roboto; fill: rgb(17, 17, 17); opacity: 1; stroke-width: 0; font-style: normal; font-weight: bold; text-decoration: none;"><tspan dominant-baseline="text-before-edge" x="0" y="0">Sign Me U</tspan></text></g><g><g transform="translate(413.7449012652863, 500.43464266516503)  rotate(0)  "><g stroke="#000"><g><path d="M24.408718533126645 11.44608275907485 C23.65643960706345 124.97755126321304, 23.63214982646152 234.8585241160104, 24.408718533126645 299.6130434081912 M24.408718533126645 11.44608275907485 C22.10780360652851 118.91586618116285, 22.92549581913256 223.94975610482746, 24.408718533126645 299.6130434081912 M24.408718533126645 299.6130434081912 C120.07410969919734 299.0767547734944, 213.1774764085759 296.8043042087327, 305.4203409189243 299.6130434081912 M24.408718533126645 299.6130434081912 C110.62730925057664 299.8330058508363, 197.05002950454784 298.10527016664184, 305.4203409189243 299.6130434081912 M305.4203409189243 299.6130434081912 C303.5237842689033 224.8700554435843, 303.7269301669199 152.3471152459897, 305.4203409189243 11.446082759074859 M305.4203409189243 299.6130434081912 C308.7692931144161 215.53758614594278, 307.02724812506005 132.45893861983322, 305.4203409189243 11.446082759074859 M305.4203409189243 11.446082759074859 C222.22236375730847 10.293783954131893, 136.8001364122243 12.6007015494497, 24.40871853312666 11.446082759074859 M305.4203409189243 11.446082759074859 C240.94046551445143 14.116746455857804, 177.57456368197708 12.96954683067909, 24.40871853312666 11.446082759074859 M24.40871853312666 11.446082759074859 C24.408718533126656 11.446082759074855, 24.40871853312665 11.446082759074855, 24.408718533126645 11.44608275907485 M24.40871853312666 11.446082759074859 C24.408718533126656 11.446082759074859, 24.408718533126653 11.446082759074855, 24.408718533126645 11.44608275907485 M71.90419808518108 36.81933644642327 C78.43768002479536 35.239056624970694, 81.67315966030722 37.23479231877656, 79.91807077043293 44.10470535383013 M71.90419808518108 36.81933644642327 C74.84302931740147 36.954760014764325, 78.79148838883405 41.88084703741999, 79.91807077043293 44.10470535383013 M79.91807077043293 44.10470535383013 C77.92818770756871 50.852416643200726, 76.09879683452941 49.71083222413478, 71.90419808518108 51.38438163049011 M79.91807077043293 44.10470535383013 C80.65766085958035 47.050937396733374, 79.49409060898519 51.53661897936879, 71.90419808518108 51.38438163049011 M71.90419808518108 51.38438163049011 C64.95087028344211 49.086581242651604, 66.84624640381557 47.55017854544032, 63.884058635266115 44.10470535383012 M71.90419808518108 51.38438163049011 C67.04532422845301 50.172960863829516, 61.176940282794064 46.27441071617115, 63.884058635266115 44.10470535383012 M63.884058635266115 44.10470535383012 C66.34773248884309 40.946705653974796, 65.77275329692596 39.78860645854947, 71.90419808518108 36.819336446423264 M63.884058635266115 44.10470535383012 C61.143336660447005 39.25567314670422, 68.2425948390209 35.50968492368337, 71.90419808518108 36.819336446423264 M71.90419808518108 36.819336446423264 C71.90419808518108 36.819336446423264, 71.90419808518108 36.81933644642327, 71.90419808518108 36.81933644642327 M71.90419808518108 36.819336446423264 C71.90419808518108 36.819336446423264, 71.90419808518108 36.819336446423264, 71.90419808518108 36.81933644642327 M120.71569821649038 36.81933644642327 C128.1213844598461 35.41300252874877, 127.0273810631314 40.9332896141562, 128.72957090174222 44.10470535383013 M120.71569821649038 36.81933644642327 C123.84191650982984 36.41558729385521, 127.99657751607687 38.21526974497767, 128.72957090174222 44.10470535383013 M128.72957090174222 44.10470535383013 C128.92970220121322 51.03570092588505, 122.22590642094734 53.49483977342067, 120.71569821649038 51.38438163049011 M128.72957090174222 44.10470535383013 C129.27183430689155 50.79457412406644, 126.39405583486082 53.53519879141865, 120.71569821649038 51.38438163049011 M120.71569821649038 51.38438163049011 C117.71796505556865 52.95573292756496, 111.94782406045904 45.34715045362552, 112.70182553123854 44.10470535383012 M120.71569821649038 51.38438163049011 C117.5143510255353 53.80288918772755, 112.3276583689343 45.22905486270626, 112.70182553123854 44.10470535383012 M112.70182553123854 44.10470535383012 C112.32707390947833 37.189962950185254, 117.0340348682324 34.53585723837401, 120.71569821649038 36.819336446423264 M112.70182553123854 44.10470535383012 C112.25568005232707 41.837084401235295, 112.93359850486317 39.972161042443766, 120.71569821649038 36.819336446423264 M120.71569821649038 36.819336446423264 C120.71569821649038 36.819336446423264, 120.71569821649038 36.81933644642327, 120.71569821649038 36.81933644642327 M120.71569821649038 36.819336446423264 C120.71569821649038 36.819336446423264, 120.71569821649038 36.81933644642327, 120.71569821649038 36.81933644642327 M169.53379494218188 36.81933644642327 C176.21257965431815 35.14918903311278, 179.3042299441269 42.35857829137178, 177.54766762743373 44.10470535383013 M169.53379494218188 36.81933644642327 C177.38621178956038 40.04598931049492, 180.65041945718437 38.87256308852167, 177.54766762743373 44.10470535383013 M177.54766762743373 44.10470535383013 C179.493004329279 47.845678934155316, 175.49244036053656 50.0075918295425, 169.53379494218188 51.38438163049011 M177.54766762743373 44.10470535383013 C174.70260724775486 50.58815668269834, 174.8358402808511 49.36514533320484, 169.53379494218188 51.38438163049011 M169.53379494218188 51.38438163049011 C167.4486866172282 54.26918993974147, 160.64935555864201 46.62705338865359, 161.51992225693004 44.10470535383012 M169.53379494218188 51.38438163049011 C166.55621100253146 49.678792913351636, 158.79449469480738 45.638295227734645, 161.51992225693004 44.10470535383012 M161.51992225693004 44.10470535383012 C160.92052740473162 41.43658646626802, 164.6158764250091 35.26259855230833, 169.53379494218188 36.819336446423264 M161.51992225693004 44.10470535383012 C159.38323644045602 37.16444991885157, 163.11259608561906 37.11733585571433, 169.53379494218188 36.819336446423264 M169.53379494218188 36.819336446423264 C169.53379494218188 36.819336446423264, 169.53379494218188 36.81933644642327, 169.53379494218188 36.81933644642327 M169.53379494218188 36.819336446423264 C169.53379494218188 36.819336446423264, 169.53379494218188 36.81933644642327, 169.53379494218188 36.81933644642327 M218.34529507349114 36.81933644642327 C223.50180006839796 36.52599888408658, 228.65742695558245 39.98059256345967, 226.36543452340612 44.10470535383013 M218.34529507349114 36.81933644642327 C223.98820254646702 36.760017756019806, 223.38239404413278 38.96692397640089, 226.36543452340612 44.10470535383013 M226.36543452340612 44.10470535383013 C226.84993782088338 49.92862703176844, 222.48580771567086 50.28691483792748, 218.34529507349114 51.38438163049011 M226.36543452340612 44.10470535383013 C228.96920134097516 49.79800538169849, 221.14813718901732 48.59292274546709, 218.34529507349114 51.38438163049011 M218.34529507349114 51.38438163049011 C213.80856903079453 50.230336771253924, 207.9795596274818 50.98482192426761, 210.3314223882393 44.10470535383012 M218.34529507349114 51.38438163049011 C215.18944115150276 48.708475478087045, 213.51307716921815 50.81007908031185, 210.3314223882393 44.10470535383012 M210.3314223882393 44.10470535383012 C208.2349386268917 39.45785292668672, 211.9806874274426 36.1316585918286, 218.34529507349114 36.819336446423264 M210.3314223882393 44.10470535383012 C213.25147940681015 36.79784036932917, 213.8145312211626 37.80542525028373, 218.34529507349114 36.819336446423264 M218.34529507349114 36.819336446423264 C218.34529507349114 36.819336446423264, 218.34529507349114 36.81933644642327, 218.34529507349114 36.81933644642327 M218.34529507349114 36.819336446423264 C218.34529507349114 36.819336446423264, 218.34529507349114 36.81933644642327, 218.34529507349114 36.81933644642327 M267.1963747710938 36.81933644642327 C270.59474204090833 38.11883071859862, 272.54060986001394 39.26257666631074, 275.21024745634566 44.10470535383013 M267.1963747710938 36.81933644642327 C269.1901817990601 35.59139646267082, 275.3616419691255 38.20351558981867, 275.21024745634566 44.10470535383013 M275.21024745634566 44.10470535383013 C274.03227120805667 50.406263002453656, 269.1085810186111 54.34237633729396, 267.1963747710938 51.38438163049011 M275.21024745634566 44.10470535383013 C272.8056067982702 51.18853820010862, 273.5146470213079 51.55439251223622, 267.1963747710938 51.38438163049011 M267.1963747710938 51.38438163049011 C262.28568298819334 52.53009139085231, 256.28588195890404 47.00199902921756, 259.182502085842 44.10470535383012 M267.1963747710938 51.38438163049011 C260.7699588440624 54.30993004599629, 259.87760441377975 47.93661833450039, 259.182502085842 44.10470535383012 M259.182502085842 44.10470535383012 C256.19587826788427 37.50718030019136, 263.91341356745863 38.2870803256848, 267.1963747710938 36.819336446423264 M259.182502085842 44.10470535383012 C260.2194513230026 37.902123916730595, 265.03672753310707 36.77551614021446, 267.1963747710938 36.819336446423264 M267.1963747710938 36.819336446423264 C267.1963747710938 36.819336446423264, 267.1963747710938 36.81933644642327, 267.1963747710938 36.81933644642327 M267.1963747710938 36.819336446423264 C267.1963747710938 36.819336446423264, 267.1963747710938 36.819336446423264, 267.1963747710938 36.81933644642327" stroke="#000000" stroke-width="2" fill="none" vector-effect="non-scaling-stroke" data-shape-part="outline" stroke-opacity="1" fill-opacity="0.24"></path></g><g stroke-linecap="round" stroke-linejoin="round" stroke-miterlimit="10"><g><path d="M72.19972551350499 43.44376096290483 C74.87879576270485 40.84376008969679, 89.9410515290085 13.892724091659428, 65.43821627171945 0.9587588626296238 M72.19972551350499 43.44376096290483 C74.25745421458984 46.56589102980628, 91.12366155426538 13.56125326613629, 65.43821627171945 0.9587588626296238 M65.43821627171945 0.9587588626296238 C49.422613415720235 -4.679015406225709, 41.960936811722796 13.023212177475074, 41.45959569231419 10.786037204583266 M65.43821627171945 0.9587588626296238 C54.791383886190424 -6.159635339681891, 42.65612894833831 8.742838744987825, 41.45959569231419 10.786037204583266" stroke="#000000" stroke-width="2" fill="none" vector-effect="non-scaling-stroke" data-shape-part="outline" stroke-opacity="1" fill-opacity="0.24"></path></g><g><path d="M121.01452394200537 43.44376096290483 C123.69359419120524 40.84376008969679, 138.7558499575089 13.892724091659428, 114.25301470021985 0.9587588626296238 M121.01452394200537 43.44376096290483 C123.07225264309022 46.56589102980628, 139.93845998276578 13.56125326613629, 114.25301470021985 0.9587588626296238 M114.25301470021985 0.9587588626296238 C98.23741184422063 -4.679015406225709, 90.7757352402232 13.023212177475074, 90.27439412081459 10.786037204583266 M114.25301470021985 0.9587588626296238 C103.60618231469083 -6.159635339681891, 91.47092737683872 8.742838744987825, 90.27439412081459 10.786037204583266" stroke="#000000" stroke-width="2" fill="none" vector-effect="non-scaling-stroke" data-shape-part="outline" stroke-opacity="1" fill-opacity="0.24"></path></g><g><path d="M169.8293223705058 43.44376096290483 C172.50839261970566 40.84376008969679, 187.5706483860093 13.892724091659428, 163.06781312872025 0.9587588626296238 M169.8293223705058 43.44376096290483 C171.88705107159063 46.56589102980628, 188.7532584112662 13.56125326613629, 163.06781312872025 0.9587588626296238 M163.06781312872025 0.9587588626296238 C147.05221027272103 -4.679015406225709, 139.5905336687236 13.023212177475074, 139.089192549315 10.786037204583266 M163.06781312872025 0.9587588626296238 C152.42098074319122 -6.159635339681891, 140.2857258053391 8.742838744987825, 139.089192549315 10.786037204583266" stroke="#000000" stroke-width="2" fill="none" vector-effect="non-scaling-stroke" data-shape-part="outline" stroke-opacity="1" fill-opacity="0.24"></path></g><g><path d="M218.6441207990062 43.44376096290483 C221.32319104820607 40.84376008969679, 236.3854468145097 13.892724091659428, 211.88261155722063 0.9587588626296238 M218.6441207990062 43.44376096290483 C220.70184950009104 46.56589102980628, 237.56805683976657 13.56125326613629, 211.88261155722063 0.9587588626296238 M211.88261155722063 0.9587588626296238 C195.86700870122144 -4.679015406225709, 188.40533209722398 13.023212177475074, 187.90399097781537 10.786037204583266 M211.88261155722063 0.9587588626296238 C201.23577917169163 -6.159635339681891, 189.10052423383948 8.742838744987825, 187.90399097781537 10.786037204583266" stroke="#000000" stroke-width="2" fill="none" vector-effect="non-scaling-stroke" data-shape-part="outline" stroke-opacity="1" fill-opacity="0.24"></path></g><g><path d="M267.45891922750656 43.44376096290483 C270.1379894767064 40.84376008969679, 285.2002452430101 13.892724091659428, 260.69740998572104 0.9587588626296238 M267.45891922750656 43.44376096290483 C269.5166479285914 46.56589102980628, 286.38285526826695 13.56125326613629, 260.69740998572104 0.9587588626296238 M260.69740998572104 0.9587588626296238 C244.68180712972185 -4.679015406225709, 237.22013052572441 13.023212177475074, 236.7187894063158 10.786037204583266 M260.69740998572104 0.9587588626296238 C250.05057760019204 -6.159635339681891, 237.91532266233992 8.742838744987825, 236.7187894063158 10.786037204583266" stroke="#000000" stroke-width="2" fill="none" vector-effect="non-scaling-stroke" data-shape-part="outline" stroke-opacity="1" fill-opacity="0.24"></path></g></g></g></g><g transform="translate(446.7278731764352, 530.3958571223408) rotate(0)"><text transform="translate(0, 115)" style="font-size: 24px; font-family: &quot;Comic Sans MS&quot;; fill: rgb(17, 17, 17); opacity: 1; stroke-width: 0; font-style: normal; font-weight: normal; text-decoration: none;"></text></g></g><g><g transform="translate(481.181630257432, 611.4242591314048)  rotate(0)  "><g><path d="M175.86539547519848 39.6066626200573 C117.13583451167213 44.46535891771343, 68.21385812277812 44.975718878507884, 10.432692951918552 39.6066626200573 C4.800739506204833 42.46869970635785, -3.0078071860596536 42.14098654820004, 0 35.1511119838114 C0.3196257248634759 27.659208749998328, -2.9858599945788913 14.149638738030593, 0 4.455550636245899 C-3.304849785752594 1.6009897228229462, 6.821479213183035 -1.611567368917167, 10.432692951918552 0 C68.22320736895038 -0.9092320691568241, 131.9843987532976 -5.250210876367746, 175.86539547519848 0 C185.66391156195166 0.08320853095501661, 182.45708615672396 0.5844036422568977, 186.29808842711702 4.455550636245899 C184.540638096853 14.823834082017013, 187.45270399026464 27.76736453819051, 186.29808842711702 35.1511119838114 C188.01901995692953 41.88754041364768, 184.70349400183622 38.17382681780769, 175.86539547519848 39.6066626200573 C175.86539547519848 39.6066626200573, 175.86539547519848 39.6066626200573, 175.86539547519848 39.6066626200573" stroke="none" stroke-width="0" fill="#616161" vector-effect="non-scaling-stroke" data-shape-part="fill" stroke-opacity="0.24" fill-opacity="0.24"></path><path d="M175.86539547519848 39.6066626200573 C139.58148604509003 37.98561861760791, 109.53817731547177 40.00322979338344, 10.432692951918552 39.6066626200573 M175.86539547519848 39.6066626200573 C112.84725639395687 40.271449452093805, 47.69215356760179 40.5274513268983, 10.432692951918552 39.6066626200573 M10.432692951918552 39.6066626200573 C3.1380938633729114 38.100874566671386, -1.8951249914243817 40.02320378741601, 0 35.1511119838114 M10.432692951918552 39.6066626200573 C2.5175692886032506 40.659125860373436, -1.2469266997184603 35.90294272394271, 0 35.1511119838114 M0 35.1511119838114 C-0.5247346566537415 23.869085325472966, 1.2912575496813261 13.89968546577175, 0 4.455550636245899 M0 35.1511119838114 C1.2621632624111987 28.506823596888058, 1.8162235576353885 21.35724396920925, 0 4.455550636245899 M0 4.455550636245899 C-1.856125851161778 2.9540363561261116, 5.735515390281786 2.628737364895642, 10.432692951918552 0 M0 4.455550636245899 C-2.551457990845665 -1.3236783248007624, 6.470152369133417 -2.6096564880106596, 10.432692951918552 0 M10.432692951918552 0 C71.656960381342 2.982665921635476, 134.18999375392758 5.0504651619861995, 175.86539547519848 0 M10.432692951918552 0 C51.27308530864958 -2.2394903308337324, 93.96477445765308 -3.001151458043396, 175.86539547519848 0 M175.86539547519848 0 C179.36374608865444 -1.2043530000373721, 184.9744236231278 1.381244422112745, 186.29808842711702 4.455550636245899 M175.86539547519848 0 C180.22493692185233 -1.961643703887239, 184.4948580861985 1.7732113081395295, 186.29808842711702 4.455550636245899 M186.29808842711702 4.455550636245899 C185.5021908260913 17.02632705980323, 187.4634600557418 27.540166762043093, 186.29808842711702 35.1511119838114 M186.29808842711702 4.455550636245899 C186.39739721052072 15.403905057877006, 185.80376101068876 22.53326395670728, 186.29808842711702 35.1511119838114 M186.29808842711702 35.1511119838114 C185.6685626864861 39.764638838380364, 184.52155427327816 40.96118959152414, 175.86539547519848 39.6066626200573 M186.29808842711702 35.1511119838114 C189.0252440542876 35.03094398470016, 179.9372722759421 41.48489618186182, 175.86539547519848 39.6066626200573 M175.86539547519848 39.6066626200573 C175.86539547519848 39.6066626200573, 175.86539547519848 39.6066626200573, 175.86539547519848 39.6066626200573 M175.86539547519848 39.6066626200573 C175.86539547519848 39.6066626200573, 175.86539547519848 39.6066626200573, 175.86539547519848 39.6066626200573" stroke="#000000" stroke-width="2" fill="none" vector-effect="non-scaling-stroke" data-shape-part="outline" stroke-opacity="1" fill-opacity="0.24"></path></g></g><g transform="translate(490.49653467878784, 615.4024292447862) rotate(0)"><text transform="translate(0, 4)" style="font-size: 24px; font-family: &quot;Comic Sans MS&quot;; fill: rgb(17, 17, 17); opacity: 1; stroke-width: 0; font-style: normal; font-weight: normal; text-decoration: none;"></text></g></g><g><g transform="translate(481.181630257432, 696.4226362985885)  rotate(0)  "><g><path d="M175.86539547519848 39.6066626200573 C110.45208698282717 42.88984537217011, 47.77222671385301 36.02146698328843, 10.432692951918552 39.6066626200573 C6.45041728815179 38.86491206792457, 1.3590980011969804 37.421280613191215, 0 35.1511119838114 C0.6979309796130464 26.978048559046407, 2.5813252805506988 19.449413176976343, 0 4.455550636245899 C-2.6772475380450484 0.9890888137641967, 1.7526980382774369 -2.747661237046122, 10.432692951918552 0 C75.27291892802936 -1.6273625770716194, 139.91899883537343 -6.322092513194513, 175.86539547519848 0 C177.83086160766396 1.7288651090115308, 187.14576552272393 -1.3739201719042242, 186.29808842711702 4.455550636245899 C182.7287120313052 12.680007555177033, 186.9488773435954 29.12454148025448, 186.29808842711702 35.1511119838114 C181.84461092338518 40.1890821937693, 179.626762252771 39.655567690555884, 175.86539547519848 39.6066626200573 C175.86539547519848 39.6066626200573, 175.86539547519848 39.6066626200573, 175.86539547519848 39.6066626200573" stroke="none" stroke-width="0" fill="#616161" vector-effect="non-scaling-stroke" data-shape-part="fill" stroke-opacity="0.24" fill-opacity="0.24"></path><path d="M175.86539547519848 39.6066626200573 C118.76911064437908 41.86326755313363, 59.1017404331694 39.992187691015864, 10.432692951918552 39.6066626200573 M175.86539547519848 39.6066626200573 C109.26980894143374 37.040815372388316, 44.125388419993385 38.74756835810418, 10.432692951918552 39.6066626200573 M10.432692951918552 39.6066626200573 C6.477918751296808 40.7880395410703, 2.2453542184084654 39.09514162877926, 0 35.1511119838114 M10.432692951918552 39.6066626200573 C6.555840800927241 40.16329725171713, 0.7103048519231376 38.62717201553637, 0 35.1511119838114 M0 35.1511119838114 C-0.9386263605429621 22.606366457554742, -1.7963930484129877 12.667478022322602, 0 4.455550636245899 M0 35.1511119838114 C1.1949906099664458 25.695179444894144, -0.8987200211656801 17.799142904775206, 0 4.455550636245899 M0 4.455550636245899 C-1.9211653042584658 1.4345959259096204, 4.82650841003399 1.9527938235551119, 10.432692951918552 0 M0 4.455550636245899 C-3.092744646873325 0.5281485640342951, 6.50590332619961 -1.8752079457975923, 10.432692951918552 0 M10.432692951918552 0 C75.53038640858597 2.462861189348859, 139.65087072750075 4.500156113608044, 175.86539547519848 0 M10.432692951918552 0 C48.811436313488024 1.275879611777306, 87.64211893843856 1.4445523820390704, 175.86539547519848 0 M175.86539547519848 0 C180.46147973807965 1.4966384042054415, 184.53049782798246 4.639186961752516, 186.29808842711702 4.455550636245899 M175.86539547519848 0 C184.9909175159453 -3.1123862416483457, 188.90181781979828 3.126511903935265, 186.29808842711702 4.455550636245899 M186.29808842711702 4.455550636245899 C186.32065202356276 12.707867216901818, 188.37244267822203 21.19853831842997, 186.29808842711702 35.1511119838114 M186.29808842711702 4.455550636245899 C187.3050161914255 15.570889397456504, 185.25790018004435 26.99475867465826, 186.29808842711702 35.1511119838114 M186.29808842711702 35.1511119838114 C185.66000644252256 34.746186474360314, 182.80749066146527 41.39658377153142, 175.86539547519848 39.6066626200573 M186.29808842711702 35.1511119838114 C187.7745766553524 39.064929984438955, 179.5754656674384 40.618097100512074, 175.86539547519848 39.6066626200573 M175.86539547519848 39.6066626200573 C175.86539547519848 39.6066626200573, 175.86539547519848 39.6066626200573, 175.86539547519848 39.6066626200573 M175.86539547519848 39.6066626200573 C175.86539547519848 39.6066626200573, 175.86539547519848 39.6066626200573, 175.86539547519848 39.6066626200573" stroke="#000000" stroke-width="2" fill="none" vector-effect="non-scaling-stroke" data-shape-part="outline" stroke-opacity="1" fill-opacity="0.24"></path></g></g><g transform="translate(490.49653467878784, 700.4008064119698) rotate(0)"><text transform="translate(0, 4)" style="font-size: 24px; font-family: &quot;Comic Sans MS&quot;; fill: rgb(17, 17, 17); opacity: 1; stroke-width: 0; font-style: normal; font-weight: normal; text-decoration: none;"></text></g></g><g transform="translate(481.53286322093277, 579.8132924163366) rotate(0)"><text transform="translate(0, 0)" style="font-size: 23px; font-family: Roboto; fill: rgb(17, 17, 17); opacity: 1; stroke-width: 0; font-style: normal; font-weight: bold; text-decoration: none;"><tspan dominant-baseline="text-before-edge" x="0" y="0">Nam</tspan></text></g><g transform="translate(481.53286322093277, 665.5141355105217) rotate(0)"><text transform="translate(0, 0)" style="font-size: 23px; font-family: Roboto; fill: rgb(17, 17, 17); opacity: 1; stroke-width: 0; font-style: normal; font-weight: bold; text-decoration: none;"><tspan dominant-baseline="text-before-edge" x="0" y="0">Emai</tspan></text></g><g><g transform="translate(49.86755107850015, 1023.0692923542942)  rotate(0)  "><g><path d="M-1.3169929260471527 6.939551310996705 L1.1325974887153443 35.103429238386894 L19.895364302200726 32.7696135733724 L44.27520314215919 35.552539404142124 L62.98738962001879 35.443887979631825 L67.09796407408793 -0.7516244058408422 L41.37413862190745 5.450173010225011 L23.022358741586626 0.10316900156964764" stroke="none" stroke-width="0" fill="#616161" fill-rule="evenodd" vector-effect="non-scaling-stroke" data-shape-part="fill" stroke-opacity="0.24" fill-opacity="0.24"></path><path d="M0.32049066237270185 5.9098479258000784 C-0.8902461612535827 12.146327378292703, 3.5898113464997894 18.89199407373285, 0.32049066237270185 37.89481485270008 M0.32049066237270185 5.9098479258000784 C0.01995726969503059 18.17181242966106, -1.3657264009449612 30.41653992264446, 0.32049066237270185 37.89481485270008 M0.32049066237270185 37.89481485270008 C5.538687979987479 39.30131493644486, 9.324134904980886 38.31634052023211, 20.87035281396424 32.440064909912685 M0.32049066237270185 37.89481485270008 C6.950423429799164 34.76258193636758, 17.480761323064435 33.63152048825301, 20.87035281396424 32.440064909912685 M20.87035281396424 32.440064909912685 C29.174277773925404 34.022623016208094, 34.29611039387662 36.47896741461422, 42.63166927810064 38.52938743367366 M20.87035281396424 32.440064909912685 C24.720390888368264 33.429592579400186, 30.129721164317658 35.58632032183243, 42.63166927810064 38.52938743367366 M42.63166927810064 38.52938743367366 C47.561263419292146 38.313568366597046, 53.86801621463153 34.699922078265004, 64.41862313691307 32.516981983465655 M42.63166927810064 38.52938743367366 C47.638233530204786 35.88295086284583, 52.54322295850879 36.51857185531796, 64.41862313691307 32.516981983465655 M64.41862313691307 32.516981983465655 C65.14486830559359 21.951024857898958, 65.45097943273173 9.95345323558709, 64.41862313691307 0.7819972266531902 M64.41862313691307 32.516981983465655 C64.28979614912744 24.58824897378007, 65.92318405746694 19.770883901737566, 64.41862313691307 0.7819972266531902 M64.41862313691307 0.7819972266531902 C59.733917913114176 0.31943017594159384, 53.87958781658546 4.184807725690742, 42.82396074134461 5.813700361284031 M64.41862313691307 0.7819972266531902 C58.97751779784596 0.42552180788781735, 56.49214769380719 3.215392160465811, 42.82396074134461 5.813700361284031 M42.82396074134461 5.813700361284031 C38.40590133547082 1.7790786527482654, 33.49020621935712 1.5626709329096333, 20.851121711520076 0.32049065914531455 M42.82396074134461 5.813700361284031 C38.8628362591856 5.06083036442767, 31.796723977346296 2.1840335233494597, 20.851121711520076 0.32049065914531455 M20.851121711520076 0.32049065914531455 C17.888256962685603 1.4534316934773401, 8.294631009782377 0.4510836962684497, 0.32049066237270185 5.9098479258000784 M20.851121711520076 0.32049065914531455 C13.486933155539338 1.391668140532515, 3.7453774581872707 5.087721673547227, 0.32049066237270185 5.9098479258000784" stroke="#000000" stroke-width="2" fill="none" vector-effect="non-scaling-stroke" data-shape-part="outline" stroke-opacity="1" fill-opacity="0.24"></path></g><g><path d="M20.851121711520076 0.32049065914531455 C19.64189074423933 6.590173608221782, 24.121948251992702 13.36904380024577, 20.851121711520076 32.440064909912685 M20.851121711520076 0.32049065914531455 C20.549706215443777 12.635402559160873, 19.164022544803785 24.933077448298853, 20.851121711520076 32.440064909912685" stroke="#000000" stroke-width="2" fill="none" vector-effect="non-scaling-stroke" data-shape-part="outline" stroke-opacity="1" fill-opacity="0.24"></path></g><g><path d="" stroke="none" stroke-width="0" fill="#616161" vector-effect="non-scaling-stroke" data-shape-part="fill" stroke-opacity="0.24" fill-opacity="0.24"></path><path d="" stroke="#000000" stroke-width="2" fill="none" vector-effect="non-scaling-stroke" data-shape-part="outline" stroke-opacity="1" fill-opacity="0.24"></path></g><g><path d="M42.63166927810064 38.52938743367366 C40.74455661676666 28.804434015620842, 45.2720465283409 19.590434607346157, 42.82396074134461 5.813700361284031 M42.63166927810064 38.52938743367366 C42.83076693918284 25.343002890633677, 41.520720551782745 12.137917844917336, 42.82396074134461 5.813700361284031" stroke="#000000" stroke-width="2" fill="none" vector-effect="non-scaling-stroke" data-shape-part="outline" stroke-opacity="1" fill-opacity="0.24"></path></g></g></g><g><g transform="translate(993.2792910415384, 1016.3958660477798)  rotate(0)  "><g><path d="M33.99792930041617 0 C22.698948033204424 -2.9581359938185283, 11.071109891735357 1.9463665172059468, 1.6580007472148421 0 M33.99792930041617 0 C19.924372029276547 1.093266742793928, 9.851028017967998 -1.2897220081406728, 1.6580007472148421 0 M1.6580007472148421 0 C2.7840879860747405 0.7305298335850239, 1.4055969826877117 2.489605300030802, 0 2.041670341611659 M1.6580007472148421 0 C-1.9433796624239732 1.2396691521629692, 3.2696440586820237 -0.693989378497805, 0 2.041670341611659 M0 2.041670341611659 C-1.5795036411513326 17.7221310834927, 2.4674880647431374 30.156729091801026, 0 41.86521872530574 M0 2.041670341611659 C-1.381487975849099 17.91658795726722, 0.04929797814946668 32.62262937759634, 0 41.86521872530574 M0 41.86521872530574 C-1.3816723711788654 44.282205910405516, 1.739901870809848 46.72944894887278, 1.6580007472148421 43.906889066917394 M0 41.86521872530574 C-0.24372885134071098 42.4538520179525, -2.230840728670006 45.01342945683518, 1.6580007472148421 43.906889066917394 M1.6580007472148421 43.906889066917394 C7.331059703329194 44.345621324692445, 11.40161584749035 44.092711411423885, 18.145302801239424 43.906889066917394 M1.6580007472148421 43.906889066917394 C6.481511719839851 42.86679610518947, 9.558210562238315 44.26591484713646, 18.145302801239424 43.906889066917394 M18.145302801239424 43.906889066917394 C20.162343668497204 37.00349491990566, 19.53687743744399 34.089905198246235, 18.252270591382313 26.875406797860137 M18.145302801239424 43.906889066917394 C19.0077356313709 38.82598786587303, 17.658692047417524 34.19135020894123, 18.252270591382313 26.875406797860137 M18.252270591382313 26.875406797860137 C16.215460268097125 26.911568558290362, 14.337899127251388 27.333642174664252, 13.570646976128364 26.875406797860137 M18.252270591382313 26.875406797860137 C16.765858593044054 26.809070754300716, 15.973989875076443 26.53392446089514, 13.570646976128364 26.875406797860137 M13.570646976128364 26.875406797860137 C14.175015943069269 23.729832846875997, 12.82345509387451 21.3450835438945, 13.613434092185521 20.104964503741474 M13.570646976128364 26.875406797860137 C13.342834960071636 24.44488046892563, 13.956312878493515 22.49517343174318, 13.613434092185521 20.104964503741474 M13.613434092185521 20.104964503741474 C15.111564035392234 20.221053476533136, 16.418154404333187 20.165347870574447, 18.31645126546805 20.104964503741474 M13.613434092185521 20.104964503741474 C15.141708286236286 20.025473589186877, 16.990803900263064 20.181519733509592, 18.31645126546805 20.104964503741474 M18.31645126546805 20.104964503741474 C18.260316449814173 19.86191641125688, 18.388255061604095 19.717507449902502, 18.320016858472812 19.595644590565232 M18.31645126546805 20.104964503741474 C18.313253569110984 19.884688597649927, 18.323024011444065 19.72623452714654, 18.320016858472812 19.595644590565232 M18.320016858472812 19.595644590565232 C17.840925073251594 19.761096061276977, 17.080044831140686 16.289644674416877, 18.355672788520444 15.49913184062184 M18.320016858472812 19.595644590565232 C19.004899717681575 21.08115734092403, 19.258074674001683 19.6681894175897, 18.355672788520444 15.49913184062184 M18.355672788520444 15.49913184062184 C18.91493290697782 14.114425895255673, 18.142589822171022 16.31145138676448, 18.5339524387586 12.904234696767023 M18.355672788520444 15.49913184062184 C21.68862985575198 14.43984017268257, 19.115175495987526 14.894512183137072, 18.5339524387586 12.904234696767023 M18.5339524387586 12.904234696767023 C18.164701224749134 12.494624052024346, 22.386392151180008 10.870575680361075, 21.04056432110706 7.84616107625814 M18.5339524387586 12.904234696767023 C18.530667474937783 10.751486908285777, 19.213326746772328 8.830439517238123, 21.04056432110706 7.84616107625814 M21.04056432110706 7.84616107625814 C24.455535594923518 5.140002520329452, 26.60667099543012 4.937145846959673, 25.16952102062273 6.265513069849114 M21.04056432110706 7.84616107625814 C21.074052518596968 3.970425161480106, 24.23798197861857 4.949615336645865, 25.16952102062273 6.265513069849114 M25.16952102062273 6.265513069849114 C25.81943143006653 7.152679526806194, 23.827584416138706 3.886393034458477, 25.62591692523241 6.261122380942423 M25.16952102062273 6.265513069849114 C24.678514774295095 9.164788783900756, 28.6535336277436 7.580786414258498, 25.62591692523241 6.261122380942423 M25.62591692523241 6.261122380942423 C27.05335268010145 5.737001025677044, 29.404149692316043 6.607341398842439, 28.082610505514186 6.362108225796333 M25.62591692523241 6.261122380942423 C23.018752566955445 3.4549393547702025, 23.905233348157694 7.216492531060979, 28.082610505514186 6.362108225796333 M28.082610505514186 6.362108225796333 C28.48969759701023 5.793195959873204, 29.523503556076445 5.636600506831638, 29.644340241600425 6.550907848784077 M28.082610505514186 6.362108225796333 C31.554898523559963 4.607121442019646, 30.32045224697516 7.346858878773382, 29.644340241600425 6.550907848784077 M29.644340241600425 6.550907848784077 C30.249697954745542 8.062722975837715, 29.705260897593316 9.396162719906755, 29.60511871854803 12.610058540018677 M29.644340241600425 6.550907848784077 C29.58413631429771 8.669795790628132, 29.60882628372797 10.604682817560835, 29.60511871854803 12.610058540018677 M29.60511871854803 12.610058540018677 C26.667989641537456 11.386199278297305, 28.423711097809047 15.603032750549197, 29.21290348802409 12.610058540018677 M29.60511871854803 12.610058540018677 C29.28863221585521 9.323904170567573, 27.476565875867873 11.456024428183614, 29.21290348802409 12.610058540018677 M29.21290348802409 12.610058540018677 C26.343531648389973 12.487717432441592, 26.604924954086943 13.635665156762913, 27.59412426386164 12.601277162205294 M29.21290348802409 12.610058540018677 C27.458817028760887 14.928313316876471, 28.40886251012276 13.805432561669365, 27.59412426386164 12.601277162205294 M27.59412426386164 12.601277162205294 C27.34876625276338 14.005075790803746, 25.548335727638296 12.393200586727955, 26.378257049237426 12.623230606738753 M27.59412426386164 12.601277162205294 C24.87922971750777 11.106982467207924, 28.285512433721415 13.549979924961129, 26.378257049237426 12.623230606738753 M26.378257049237426 12.623230606738753 C26.36726459376723 10.053916320424294, 21.42886022689129 11.80328918754139, 24.046359224122355 15.283988084193949 M26.378257049237426 12.623230606738753 C26.348675796205406 10.05406921360246, 24.609166830092025 15.68333229015597, 24.046359224122355 15.283988084193949 M24.046359224122355 15.283988084193949 C24.672852290635415 19.552217581538805, 24.452466989994832 19.443320658486844, 23.97504736402709 20.08740174811471 M24.046359224122355 15.283988084193949 C21.00621525908769 17.416067741295645, 23.363528612383494 19.49889498153752, 23.97504736402709 20.08740174811471 M23.97504736402709 20.08740174811471 C24.931272517453678 19.851724077427274, 24.93669654556763 22.143520137999918, 26.627848559570836 20.0917924370214 M23.97504736402709 20.08740174811471 C27.432825655240364 19.923238178567477, 22.193872684214533 16.89290876254138, 26.627848559570836 20.0917924370214 M26.627848559570836 20.0917924370214 C28.829959682008425 17.3151158306345, 28.954995139238157 22.477963707183267, 28.35359557387618 20.08740174811471 M26.627848559570836 20.0917924370214 C28.281175767449835 16.666776172962752, 29.85137966621361 21.9554653392702, 28.35359557387618 20.08740174811471 M28.35359557387618 20.08740174811471 C27.953686926597985 21.3115352880596, 31.177599331424567 19.886935044491178, 29.409011103286055 20.08740174811471 M28.35359557387618 20.08740174811471 C30.151273113014433 23.094339796380584, 28.534020493798884 18.49286401517827, 29.409011103286055 20.08740174811471 M29.409011103286055 20.08740174811471 C28.770455851379783 25.204657136969256, 26.17713838842216 27.214578801789745, 28.638843014257226 26.897360242393596 M29.409011103286055 20.08740174811471 C28.27635366709158 22.59811936108767, 27.492158808265657 25.765265067131683, 28.638843014257226 26.897360242393596 M28.638843014257226 26.897360242393596 C26.883379295543502 26.680674053928488, 26.12206947470854 26.506579328103218, 23.978612957031856 26.897360242393596 M28.638843014257226 26.897360242393596 C26.93353371305422 26.96608276898637, 25.852022199885656 26.727452993212903, 23.978612957031856 26.897360242393596 M23.978612957031856 26.897360242393596 C25.565154457440503 32.818189832860185, 26.042192976471235 35.41111290649698, 23.871645166888964 43.906889066917394 M23.978612957031856 26.897360242393596 C23.502732588432046 31.362526893588353, 24.06894495645208 36.36581931126741, 23.871645166888964 43.906889066917394 M23.871645166888964 43.906889066917394 C25.448743275342032 42.4543383011735, 29.5089327600473 42.583985722652514, 33.99792930041617 43.906889066917394 M23.871645166888964 43.906889066917394 C28.015409426782906 44.056155952805256, 31.23717959775157 43.57078294234477, 33.99792930041617 43.906889066917394 M33.99792930041617 43.906889066917394 C34.99165731427758 44.77842334367106, 33.48700322374676 40.722519368848204, 35.65593004763101 41.86521872530573 M33.99792930041617 43.906889066917394 C34.181213342412704 40.53745745409051, 36.622547281123445 44.76971299870163, 35.65593004763101 41.86521872530573 M35.65593004763101 41.86521872530573 C34.704626972289645 30.657236724937164, 33.73813372335013 22.211891017294402, 35.65593004763101 2.041670341611659 M35.65593004763101 41.86521872530573 C34.3840119311945 26.427397483657337, 34.46213484503193 11.259398874902864, 35.65593004763101 2.041670341611659 M35.65593004763101 2.041670341611659 C34.97032560572003 2.105638496480082, 32.1112437820205 -1.5700813047587872, 33.99792930041617 0 M35.65593004763101 2.041670341611659 C38.65206873450403 3.528208028986249, 34.26514738725066 -2.0891532400622963, 33.99792930041617 0 M33.99792930041617 0 C33.99792930041617 0, 33.99792930041617 0, 33.99792930041617 0 M33.99792930041617 0 C33.99792930041617 0, 33.99792930041617 0, 33.99792930041617 0" stroke="#000000" stroke-width="2" fill="none" vector-effect="non-scaling-stroke" data-shape-part="outline" stroke-opacity="1" fill-opacity="0.24"></path></g></g></g><g><g transform="translate(1053.3401278001681, 1016.3958660477798)  rotate(0)  "><g><path d="M1.9467789348418885 13.617426049657354 C1.9467789348418885 13.617426049657354, 1.9467789348418885 13.617426049657354, 1.9467789348418885 13.617426049657354 M1.9467789348418885 13.617426049657354 C1.9467789348418885 13.617426049657354, 1.9467789348418885 13.617426049657354, 1.9467789348418885 13.617426049657354 M2.0799243157095013 25.658284503586362 C4.650564811360649 24.367623301268914, 8.695598713423122 17.927854343572605, 11.92080975056711 14.337640800244781 M2.0799243157095013 25.658284503586362 C4.517389158416026 21.98424983018145, 9.664829966400852 18.763570549489174, 11.92080975056711 14.337640800244781 M1.557010667586603 38.45385253773814 C6.63251208101913 34.37810436330577, 6.492764251128732 31.920715523084393, 12.053955131434721 26.37849925417379 M1.557010667586603 38.45385253773814 C5.284480549754338 34.3586342338943, 8.765466004409053 30.939268825277164, 12.053955131434721 26.37849925417379 M6.282569251387763 45.211743930107744 C8.208518981023257 43.46376831917192, 10.287269245506701 40.41594044622643, 11.53104148331182 39.17406728832557 M6.282569251387763 45.211743930107744 C7.345108724341149 43.359440229017586, 8.770159894050032 42.05017333381262, 11.53104148331182 39.17406728832557" stroke="none" stroke-width="1" fill="none" vector-effect="non-scaling-stroke" data-shape-part="fill" stroke-opacity="0.24" fill-opacity="0.24"></path><path d="M10.954592088323508 41.735584061842076 C8.193548793643501 41.67193912737927, 5.613162057572968 40.30496652783813, 1.8407890114970409 41.735584061842076 M10.954592088323508 41.735584061842076 C7.551665773524686 41.20316749392163, 4.800014683678915 41.201699441953416, 1.8407890114970409 41.735584061842076 M1.8407890114970409 41.735584061842076 C0.8055606923808438 34.76478264620384, 1.0007337771167142 28.080997180872856, 1.8407890114970409 13.739353508957043 M1.8407890114970409 41.735584061842076 C0.42987358347817617 34.46138710332643, 3.248494831484997 25.40632441316169, 1.8407890114970409 13.739353508957043 M1.8407890114970409 13.739353508957043 C3.9198168610761623 12.653449888396835, 8.008907753540734 12.799196366864901, 10.954592088323508 13.739353508957043 M1.8407890114970409 13.739353508957043 C4.22675118498833 13.973734857448077, 7.775546902008077 13.499893125593719, 10.954592088323508 13.739353508957043 M10.954592088323508 13.739353508957043 C10.769744375682885 19.071075137971867, 8.643769541717583 26.30032580838128, 10.954592088323508 41.735584061842076 M10.954592088323508 13.739353508957043 C11.546213600323604 22.597478988355125, 11.953478876040386 32.467570455025765, 10.954592088323508 41.735584061842076 M10.954592088323508 41.735584061842076 C10.954592088323508 41.735584061842076, 10.954592088323508 41.735584061842076, 10.954592088323508 41.735584061842076 M10.954592088323508 41.735584061842076 C10.954592088323508 41.735584061842076, 10.954592088323508 41.735584061842076, 10.954592088323508 41.735584061842076" stroke="#000000" stroke-width="2" fill="none" vector-effect="non-scaling-stroke" data-shape-part="outline" stroke-opacity="1" fill-opacity="0.24"></path></g><g><path d="M0.8269960836550863 3.3689227144449476 C0.8269960836550863 3.3689227144449476, 0.8269960836550863 3.3689227144449476, 0.8269960836550863 3.3689227144449476 M0.8269960836550863 3.3689227144449476 C0.8269960836550863 3.3689227144449476, 0.8269960836550863 3.3689227144449476, 0.8269960836550863 3.3689227144449476 M6.208613696446754 9.372104526591777 C8.632637256501019 7.969145160188326, 8.959147325044102 6.4099157809958305, 10.801026899380306 4.089137465032373 M6.208613696446754 9.372104526591777 C7.534150025290923 8.472396793396264, 8.327696828861946 6.478054341334649, 10.801026899380306 4.089137465032373" stroke="none" stroke-width="1" fill="none" vector-effect="non-scaling-stroke" data-shape-part="fill" stroke-opacity="0.24" fill-opacity="0.24"></path><path d="M6.975376102059977 -0.11734381469990396 C8.216033217737928 -0.08694892667540577, 9.833055930247593 -0.435624623876702, 10.464009756024295 0.14935706122923342 C11.094963581800997 0.7343387463351688, 10.845686466890557 2.2341004762119656, 10.761099056720184 3.3925462959357082 C10.67651164654981 4.550992115659451, 10.26525919545519 6.253291088416538, 9.956485295002057 7.100031979571689 C9.647711394548924 7.94677287072684, 9.905447243155146 8.035639920396532, 8.90845565400139 8.472991642866614 C7.9114640648476335 8.910343365336695, 5.249032357091257 9.784099022393283, 3.9745357600795215 9.724142314392182 C2.7000391630677862 9.664185606391081, 1.806981174455324 9.14839452630157, 1.2614760719309768 8.113251394860011 C0.7159709694066297 7.078108263418454, 0.1878820789650607 4.945475547525168, 0.7015051449334395 3.513283525742837 C1.2151282109018182 2.081091503960506, 3.123379676386781 -0.13137992108171614, 4.34321446774125 -0.4799007358339762 C5.563049259095719 -0.8284215505862362, 7.495038039086405 1.19542888391034, 8.020513893060253 1.422158637229277 C8.545989747034099 1.648888390548214, 7.743311000729273 1.1376780994135876, 7.496069591584332 0.8804777840796456 M2.070058629607764 1.4488038921877138 C3.5085559455237734 1.0614068062702675, 7.464240136269273 0.9649988129302002, 8.538624108795341 1.1763560680761076 C9.613008081321409 1.387713323222015, 8.03744134912958 2.204302457855205, 8.516362464764173 2.716947423063158 C8.995283580398766 3.229592388271111, 11.34335578623318 3.593825086225597, 11.412150802602905 4.2522258593238265 C11.48094581897263 4.910626632422056, 9.291468942086984 5.778055959213887, 8.929132562982518 6.667352061652535 C8.566796183878052 7.5566481640911825, 10.2125038718431 9.463135284844377, 9.238132527976111 9.588002473955713 C8.263761184109121 9.71286966306705, 4.380802775679606 7.7560936983121325, 3.0829044997805837 7.416555196320552 C1.7850062238815616 7.077016694328971, 1.773666892104312 8.267389127971864, 1.450742872581979 7.550771462006229 C1.1278188530596462 6.834153796040593, 0.6130400175571592 4.495985129016901, 1.1453603826465866 3.1168492005267368 C1.677680747736014 1.737713272036572, 3.950414365785247 -0.12333090203605401, 4.644665063118543 -0.72404410893476 C5.338915760451839 -1.324757315833466, 5.7545569518142905 -0.7792883304369387, 5.310864566646363 -0.48743004086549924" stroke="#000000" stroke-width="2" fill="none" vector-effect="non-scaling-stroke" data-shape-part="outline" stroke-opacity="1" fill-opacity="0.24"></path></g><g><path d="M46.49889837511556 41.735584061842076 C43.670302230846936 41.67038196357342, 41.0267826647342 40.2699644359551, 37.162113148890946 41.735584061842076 M46.49889837511556 41.735584061842076 C43.01271463007373 41.19014116564908, 40.19374048428355 41.18863719570233, 37.162113148890946 41.735584061842076 M37.162113148890946 41.735584061842076 C36.35101403421258 37.818196750238776, 36.51303126500933 34.1390673394429, 37.162113148890946 25.133168722041297 M37.162113148890946 41.735584061842076 C35.97214318348452 37.52782922279049, 38.311939215734355 31.841740756676074, 37.162113148890946 25.133168722041297 M37.162113148890946 25.133168722041297 C38.13731865415773 23.244724987800566, 35.92690495553868 20.374326011634658, 35.601237976417416 20.888659822951958 M37.162113148890946 25.133168722041297 C34.26380714372224 25.370604756175872, 34.7692041999984 23.701155326704722, 35.601237976417416 20.888659822951958 M35.601237976417416 20.888659822951958 C36.19814506475347 21.573174536856, 30.624920114276144 21.03005888330711, 32.13789792807191 19.707542794001828 M35.601237976417416 20.888659822951958 C33.807021204330944 19.233308081304763, 30.831244200521294 17.800026022912544, 32.13789792807191 19.707542794001828 M32.13789792807191 19.707542794001828 C30.88299690845169 19.754883252260814, 25.81051318317994 19.941059775321563, 25.85644282668909 23.42200977550577 M32.13789792807191 19.707542794001828 C28.760843644819484 21.39469446194319, 26.437415761112863 21.955399175497522, 25.85644282668909 23.42200977550577 M25.85644282668909 23.42200977550577 C24.210598382058116 27.209027214392734, 25.65227242945234 36.58377703032927, 25.85644282668909 41.735584061842076 M25.85644282668909 23.42200977550577 C26.378405128822212 29.818058197563747, 24.71153620840512 34.15088463398141, 25.85644282668909 41.735584061842076 M25.85644282668909 41.735584061842076 C22.707240236179818 42.83984512011487, 20.232662104952894 41.91424145810984, 16.73789546652461 41.735584061842076 M25.85644282668909 41.735584061842076 C23.21986971831984 42.17430991300466, 19.214746551093437 42.35721415275557, 16.73789546652461 41.735584061842076 M16.73789546652461 41.735584061842076 C17.77157134216778 37.35736545216361, 15.786696438012047 26.505722741236767, 16.73789546652461 13.739354273158412 M16.73789546652461 41.735584061842076 C17.70790726253613 33.08894157535542, 17.297414931746562 25.84458755276676, 16.73789546652461 13.739354273158412 M16.73789546652461 13.739354273158412 C19.852341718150786 14.494953003676029, 20.73316781092462 12.968236698015712, 25.856442826689094 13.739354273158412 M16.73789546652461 13.739354273158412 C18.991056079786382 13.863250461647139, 21.926264378566497 13.189597750957986, 25.856442826689094 13.739354273158412 M25.856442826689094 13.739354273158412 C26.055862670496907 14.326420950218871, 25.886471288111757 15.16052315291046, 25.856442826689094 16.10576188946486 M25.856442826689094 13.739354273158412 C25.990454320124975 14.373404057235284, 25.84391035002481 15.363784888990635, 25.856442826689094 16.10576188946486 M25.856442826689094 16.10576188946486 C29.81493828341993 11.853602040683882, 31.719315445485776 10.321448581213883, 35.568027866364794 12.850386332641175 M25.856442826689094 16.10576188946486 C30.73327941110986 12.198176761189506, 32.08564897251061 15.50713159704097, 35.568027866364794 12.850386332641175 M35.568027866364794 12.850386332641175 C44.521809247476114 13.637098984713486, 47.90532655761317 18.488330845690626, 46.49889837511555 21.93204942449801 M35.568027866364794 12.850386332641175 C41.41379512051593 13.687176489471277, 46.596558720979104 20.256088682513045, 46.49889837511555 21.93204942449801 M46.49889837511555 21.93204942449801 C44.32433909832069 27.184891687729987, 47.80812026666991 30.038681209551537, 46.49889837511556 41.735584061842076 M46.49889837511555 21.93204942449801 C47.86880579483394 29.579184173700593, 46.914309286006656 34.6420776807139, 46.49889837511556 41.735584061842076 M46.49889837511556 41.735584061842076 C46.49889837511556 41.735584061842076, 46.49889837511556 41.735584061842076, 46.49889837511556 41.735584061842076 M46.49889837511556 41.735584061842076 C46.49889837511556 41.735584061842076, 46.49889837511556 41.735584061842076, 46.49889837511556 41.735584061842076 M46.49889837511556 41.735584061842076 C46.49889837511556 41.735584061842076, 46.49889837511556 41.735584061842076, 46.49889837511556 41.735584061842076 M46.49889837511556 41.735584061842076 C46.49889837511556 41.735584061842076, 46.49889837511556 41.735584061842076, 46.49889837511556 41.735584061842076" stroke="#000000" stroke-width="2" fill="none" vector-effect="non-scaling-stroke" data-shape-part="outline" stroke-opacity="1" fill-opacity="0.24"></path></g></g></g><g transform="translate(395.4807871632468, 1012.8835364127722) rotate(0)"><text transform="translate(0, 0)" style="font-size: 24px; font-family: Roboto; fill: rgb(17, 17, 17); opacity: 1; stroke-width: 0; font-style: normal; font-weight: bold; text-decoration: none;"><tspan dominant-baseline="text-before-edge" x="0" y="0">2024 James Phillip De Guzman</tspan></text></g><g transform="translate(433.4139472213288, 1042.7383383103368) rotate(0)"><text transform="translate(0, 0)" style="font-size: 17px; font-family: Roboto; fill: rgb(17, 17, 17); opacity: 1; stroke-width: 0; font-style: normal; font-weight: normal; text-decoration: none;"><tspan dominant-baseline="text-before-edge" x="0" y="0">Last Modified: dd/mm/yyyy hh:mm:s</tspan></text></g><defs><style>@import url("https://www.dafontfree.net/embed/Y29taWMtc2Fucy1tcy1yZWd1bGFyJmRhdGEvNDAvYy8xMDA5MzQvQ09NSUMuVFRG");
@import url("https://fonts.googleapis.com/css2?family=Roboto&amp;display=swap");
@import url("https://fonts.googleapis.com/css2?family=Roboto:wght@700&amp;display=swap");text {white-space: pre;};
</style></defs></svg>