<svg width="1153" height="1080" viewBox="0 0 1153 1080" xmlns="http://www.w3.org/2000/svg" xmlns:xlink="http://www.w3.org/1999/xlink"><g><g transform="translate(14.393021764923509, 101.78522909180379)  rotate(0)  "><g><path d="M1.2523082932457328 0.17362326476722956 L1127.3973656111 1.9460689136758447 L1131.12128407886 875.5819062444348 L-0.43479250464588404 876.4984883221764" stroke="none" stroke-width="0" fill="#616161" vector-effect="non-scaling-stroke" data-shape-part="fill" stroke-opacity="0.03" fill-opacity="0.03"></path><path d="M0 0 C360.2317449106019 2.2161894830659388, 719.6511122487716 2.1823113593057153, 1128.428752032162 0 M0 0 C278.73057414981565 -6.963077685624931, 557.7113595058961 -6.218810227901314, 1128.428752032162 0 M1128.428752032162 0 C1132.2103379953342 339.51563259550386, 1132.1572724926905 681.7229549508731, 1128.428752032162 876.3674800836448 M1128.428752032162 0 C1126.7068472292065 339.8152420199906, 1126.7992324318527 680.5553952109927, 1128.428752032162 876.3674800836448 M1128.428752032162 876.3674800836448 C714.6997191401634 880.1058443630737, 302.74854817673196 881.5391972268624, 0 876.3674800836448 M1128.428752032162 876.3674800836448 C842.9533280628458 881.2667246950908, 556.0847764407131 881.3359154773993, 0 876.3674800836448 M0 876.3674800836448 C4.419051601607978 612.8489537774835, 5.020398177821815 348.18287298470483, 0 0 M0 876.3674800836448 C1.2878244457154362 669.1315569631248, 1.1072577593236057 461.3836956936816, 0 0" stroke="#000000" stroke-width="2" fill="none" vector-effect="non-scaling-stroke" data-shape-part="outline" stroke-opacity="1" fill-opacity="0.03"></path></g></g><g transform="translate(70.81445936653161, 145.60360309598602) rotate(0)"><text transform="translate(0, 382)" style="font-size: 24px; font-family: &quot;Comic Sans MS&quot;; fill: rgb(17, 17, 17); opacity: 1; stroke-width: 0; font-style: normal; font-weight: normal; text-decoration: none;"></text></g></g><g><g transform="translate(10.178226202914402, -0.07233032341628132)  rotate(0)  "><g><path d="M0.4440605092793703 -0.15515657551586626 L1128.865695305781 0.6887608539313077 L1128.4039321503205 83.31376089518461 L-0.6058407735079526 83.0542992657939" stroke="none" stroke-width="0" fill="#616161" vector-effect="non-scaling-stroke" data-shape-part="fill" stroke-opacity="0.1" fill-opacity="0.1"></path><path d="M0 0 C266.3762057270009 -1.0911034539439688, 532.770914876292 -1.0465068057277211, 1128.428752032162 0 M0 0 C237.42029674185775 1.2782846357832505, 474.7829055922173 1.4238670566092089, 1128.428752032162 0 M1128.428752032162 0 C1127.9802328239261 18.959528160229947, 1128.9030092011271 39.55579677362864, 1128.428752032162 82.99427726817821 M1128.428752032162 0 C1128.2974593701153 28.691137205953325, 1128.6405895950584 58.18960684361791, 1128.428752032162 82.99427726817821 M1128.428752032162 82.99427726817821 C786.0956574634358 84.42022482350112, 443.3734940380233 84.45941467240095, 0 82.99427726817821 M1128.428752032162 82.99427726817821 C816.9529420347936 81.42458524841621, 505.3152526090236 81.49553952593162, 0 82.99427726817821 M0 82.99427726817821 C0.4216417048460664 64.4109572718497, 0.03731740455691239 45.032497802962084, 0 0 M0 82.99427726817821 C-0.04937314210277394 51.52763811813366, 0.013390185257379283 20.387702492119857, 0 0" stroke="#000000" stroke-width="2" fill="none" vector-effect="non-scaling-stroke" data-shape-part="outline" stroke-opacity="1" fill-opacity="0.1"></path></g></g><g transform="translate(66.5996638045225, 4.0773835399926295) rotate(0)"><text transform="translate(0, 25)" style="font-size: 24px; font-family: &quot;Comic Sans MS&quot;; fill: rgb(17, 17, 17); opacity: 1; stroke-width: 0; font-style: normal; font-weight: normal; text-decoration: none;"></text></g></g><g><g transform="translate(41.789192917982696, -0.07233032341628132)  rotate(0)  "><g><path d="M61.372309529807495 6.437630690488383 C67.74087013037767 9.933159032290432, 74.46880791601693 18.089118004411475, 77.65477081371878 24.564286913101387 C80.84073371142064 31.0394558217913, 81.61607330844049 38.532110242936604, 80.4880869160186 45.28864414262787 C79.36010052359671 52.04517804231913, 75.57948740110444 59.64166271375798, 70.88685245918742 65.10349031124898 C66.1942175172704 70.56531790873997, 59.282218870234395 75.57323300931658, 52.332277264516435 78.05960972757381 C45.382335658798475 80.54598644583105, 36.22202254656608 82.01682579384088, 29.187202824879662 80.02175062079239 C22.152383103193245 78.0266754477439, 15.126337142080963 71.46290453274972, 10.123358934397931 66.08915868928287 C5.1203807267149 60.71541284581601, 0.505201726187763 54.79982076375978, -0.830666421218524 47.77927555999126 C-2.1665345686248108 40.75873035622274, -1.170685591093886 30.60268960834465, 2.1081500499602086 23.965887466671738 C5.386985691014303 17.329085324998825, 12.520824922097862 11.889096795082056, 18.842347425106045 7.9584627099537855 C25.163869928114227 4.027828624825515, 31.10502722036758 -0.9289913620795467, 40.0372850680093 0.3820829559021135 C48.96954291565101 1.6931572738837737, 66.09671573832692 11.825959414091622, 72.43589451095632 15.824908617843747 C78.77507328358571 19.823857821595873, 78.99654345584807 24.051138818595923, 78.07235770378566 24.375778178414862 M36.850560771777744 0.11146591814775064 C43.21632970826299 -1.582969304411349, 50.111901356198345 0.5396618901218031, 56.63455238141988 3.972198061165102 C63.157203406641415 7.404734232208401, 72.12840034271875 14.504103260862188, 75.98646692310697 20.706682944407543 C79.8445335034952 26.9092626279529, 80.20331404060151 34.12113488578566, 79.78295186374919 41.187676162437235 C79.36258968689687 48.25421743908881, 77.53943238114726 56.851945832564944, 73.46429386199301 63.105930604316995 C69.38915534283876 69.35991537606904, 62.15044658767369 75.81144377419731, 55.33212074882364 78.71158479294954 C48.51379490997359 81.61172581170176, 39.50820948404005 81.84232341865513, 32.5543388288927 80.5067767168303 C25.60046817374536 79.17123001500548, 18.995472826618116 75.54041973704477, 13.608896817939574 70.69830458200055 C8.222320809261031 65.85618942695632, 2.15038579727371 58.67264471147905, 0.23488277682145053 51.454085786564946 C-1.680620243630809 44.23552686165084, -0.5861003778737568 34.7804032317281, 2.115878695226016 27.38695103251589 C4.817857768325789 19.99349883330368, 10.840300606452736 11.67873485201618, 16.446757215420085 7.093372591291686 C22.053213824387434 2.508010330567192, 32.72500529895284 0.9595559612266253, 35.75461834903012 -0.1252225318310778 C38.7842313991074 -1.210001024888781, 34.82614092006546 0.2183810772348937, 34.624435515883754 0.5847016329454675" stroke="none" stroke-width="0" fill="#616161" vector-effect="non-scaling-stroke" data-shape-part="fill" stroke-opacity="0.26" fill-opacity="0.26"></path><path d="M13.626342667647389 9.912104767748424 C18.671057157709605 4.847741097450975, 27.14944395527694 1.9485101488114522, 34.312657574305035 1.0347976381892323 C41.47587119333313 0.12108512756701251, 50.109446463487835 1.6682754204253984, 56.60562438181595 4.429829704015106 C63.101802300144065 7.191383987604812, 69.36684093678912 11.620840366089045, 73.28972508427373 17.604123339727476 C77.21260923175834 23.587406313365907, 80.01366351613667 33.223011199523285, 80.14292926672361 40.32952754584569 C80.27219501731055 47.4360438921681, 77.56520675337379 54.43416935984141, 74.06531958779536 60.243221417661914 C70.56543242221693 66.05227347548242, 65.41737737347927 71.96250569074815, 59.143606273253056 75.18383989276872 C52.86983517302684 78.40517409478929, 44.01896761633359 80.2478886844455, 36.42269298643807 79.57122662978531 C28.826418356542558 78.89456457512513, 19.313283420382177 75.48268193690433, 13.565958493879961 71.1238675648076 C7.818633567377745 66.76505319271087, 3.894293217963405 60.07852382185712, 1.9387434274247752 53.418340397204915 C-0.016806363113854417 46.75815697255271, -2.1677296090201708 39.69896994986428, 1.8326597506481832 31.162767016894392 C5.833049110316537 22.626564083924507, 19.074110413765478 7.0781585722534786, 25.9410795854349 2.201122799385601 C32.80804875710432 -2.6759129734822764, 42.910322086819775 1.4572486941798968, 43.0344747806647 1.9005523796871273 M31.259191396210355 0.982604816460352 C37.591440601980075 -1.5970441329127287, 46.89980744267856 -1.1921027481033395, 54.01838222818513 0.9914343868965645 C61.136957013691706 3.1749715218964685, 69.49684681470848 7.973555206451835, 73.97064010924981 14.083827626459776 C78.44443340379115 20.194100046467717, 80.57485942389958 30.424098450266253, 80.8611419954332 37.653068906944206 C81.14742456696682 44.882039363622155, 78.94924129282444 51.10537166607598, 75.68833553845154 57.45765036652749 C72.42742978407864 63.809929066978995, 67.13110287538127 71.82116733335918, 61.29570746919584 75.76674110965322 C55.460312063010406 79.71231488594726, 47.787880848613035 81.83165862720868, 40.67596310133896 81.13109302429172 C33.56404535406488 80.43052742137475, 24.94651106046051 76.06865994437871, 18.62420098555137 71.5633474921514 C12.301890910642229 67.05803503992408, 5.845935232496608 60.348719552452344, 2.7421026518841245 54.09921831092778 C-0.36172992872835863 47.84971706940322, -1.1342054610377474 41.03323007800552, 0.0012055018764698389 34.066340043004004 C1.1366164647906871 27.099450008002485, 4.513347622093334 17.998430179329965, 9.554568429369429 12.297878100918666 C14.595789236645523 6.597326022507368, 27.03357758095184 1.6985098112220136, 30.24853034553304 -0.1369724274637818 C33.46348311011425 -1.9724546661495772, 28.69038382958552 0.6972592084327308, 28.844285016856645 1.2849846688038937" stroke="#000000" stroke-width="2" fill="none" vector-effect="non-scaling-stroke" data-shape-part="outline" stroke-opacity="1" fill-opacity="0.26"></path></g></g><g transform="translate(53.91602656869678, 12.054503327297805) rotate(0)"><text transform="translate(0, 16)" style="font-size: 24px; font-family: &quot;Comic Sans MS&quot;; fill: rgb(17, 17, 17); opacity: 1; stroke-width: 0; font-style: normal; font-weight: normal; text-decoration: none;"></text></g></g><g><g id="kiWnfdvfYq-Pa52B6-og8" pointer-events="auto"><g><path data-shape-part="outline" class="" d="M104.904 6.898 C94.93580161205185 22.002750543599017, 84.9676032241037 37.10750108719803, 79.371 45.588 M104.904 6.898 C97.682260300373 17.841058355013843, 90.46052060074601 28.784116710027682, 79.371 45.588 M79.371 45.588 C71.4469692005014 56.534550801007455, 63.522938401002804 67.4811016020149, 59.137 73.54 M79.371 45.588 C72.23001160612647 55.45282690449506, 65.08902321225293 65.31765380899013, 59.137 73.54" stroke="#000000" stroke-width="2" stroke-opacity="1" fill="none" stroke-linecap="round" stroke-dashoffset="-3"></path></g><path d="M104.904,6.898L79.371,45.588L59.137,73.54" fill="none" fill-opacity="0" stroke="black" stroke-opacity="0" stroke-width="10" id="hit-kiWnfdvfYq-Pa52B6-og8"></path></g></g><g><g id="ohNmbvuN_CU8YHpnmMYA_" pointer-events="auto"><g><path data-shape-part="outline" class="" d="M56.384 9.255 C68.85557460898347 23.499130980290474, 81.32714921796695 37.743261960580945, 88.503 45.939 M56.384 9.255 C69.18423304183892 23.87450088442415, 81.98446608367786 38.4940017688483, 88.503 45.939 M88.503 45.939 C96.19640298256093 54.46858789559677, 103.88980596512184 62.998175791193546, 109.968 69.737 M88.503 45.939 C95.4442122070212 53.63464258572981, 102.38542441404239 61.330285171459614, 109.968 69.737" stroke="#000000" stroke-width="2" stroke-opacity="1" fill="none" stroke-linecap="round" stroke-dashoffset="-3"></path></g><path d="M56.384,9.255L88.503,45.939L109.968,69.737" fill="none" fill-opacity="0" stroke="black" stroke-opacity="0" stroke-width="10" id="hit-ohNmbvuN_CU8YHpnmMYA_"></path></g></g><g><g transform="translate(10.178226202914402, 997.078053055238)  rotate(0)  "><g><path d="M-0.19602605793625116 -0.37384264077991247 L1130.670638945007 2.1231699446216226 L1129.9651488625047 80.4056747411335 L1.5674170246347785 83.78147341357116" stroke="none" stroke-width="0" fill="#616161" vector-effect="non-scaling-stroke" data-shape-part="fill" stroke-opacity="0.1" fill-opacity="0.1"></path><path d="M0 0 C298.6035215638761 5.603791102700004, 595.8334097605565 4.827367088131675, 1128.428752032162 0 M0 0 C260.9220401918028 -1.2041320796969606, 522.648758722558 -1.4096747454169465, 1128.428752032162 0 M1128.428752032162 0 C1130.4307826303789 16.431470069279342, 1126.3031423532316 37.167858279662966, 1128.428752032162 82.99427726817821 M1128.428752032162 0 C1128.2676947023754 22.57629887904286, 1127.678919559348 46.612576524359426, 1128.428752032162 82.99427726817821 M1128.428752032162 82.99427726817821 C821.9663127273274 83.30944632799304, 513.2639117920141 84.6809295705048, 0 82.99427726817821 M1128.428752032162 82.99427726817821 C756.305391451429 79.65488291882309, 384.34358111259115 79.44320278667243, 0 82.99427726817821 M0 82.99427726817821 C0.6087347328928264 53.15664543322333, 2.214750385310963 21.452534112972735, 0 0 M0 82.99427726817821 C0.08270940484492273 62.622032961698984, -0.21748293636353522 41.58860616923326, 0 0" stroke="#000000" stroke-width="2" fill="none" vector-effect="non-scaling-stroke" data-shape-part="outline" stroke-opacity="1" fill-opacity="0.1"></path></g></g><g transform="translate(66.5996638045225, 1001.2277669186469) rotate(0)"><text transform="translate(0, 25)" style="font-size: 24px; font-family: &quot;Comic Sans MS&quot;; fill: rgb(17, 17, 17); opacity: 1; stroke-width: 0; font-style: normal; font-weight: normal; text-decoration: none;"></text></g></g><g transform="translate(375.4605082437036, 24.513977121636838) rotate(0)"><text transform="translate(0, 0)" style="font-size: 24px; font-family: Roboto; fill: rgb(17, 17, 17); opacity: 1; stroke-width: 0; font-style: normal; font-weight: normal; text-decoration: none;"><tspan dominant-baseline="text-before-edge" x="0" y="0">Hom</tspan></text></g><g transform="translate(505.76793770248514, 24.513977121636838) rotate(0)"><text transform="translate(0, 0)" style="font-size: 24px; font-family: Roboto; fill: rgb(17, 17, 17); opacity: 1; stroke-width: 0; font-style: normal; font-weight: normal; text-decoration: none;"><tspan dominant-baseline="text-before-edge" x="0" y="0">Abou</tspan></text></g><g transform="translate(635.3729012342651, 24.513977121636838) rotate(0)"><text transform="translate(0, 0)" style="font-size: 24px; font-family: Roboto; fill: rgb(17, 17, 17); opacity: 1; stroke-width: 0; font-style: normal; font-weight: normal; text-decoration: none;"><tspan dominant-baseline="text-before-edge" x="0" y="0">Contac</tspan></text></g><g transform="translate(770.9488251455581, 25.567676012139113) rotate(0)"><text transform="translate(0, 0)" style="font-size: 24px; font-family: Roboto; fill: rgb(17, 17, 17); opacity: 1; stroke-width: 0; font-style: normal; font-weight: normal; text-decoration: none;"><tspan dominant-baseline="text-before-edge" x="0" y="0">Portfoli</tspan></text></g><g transform="translate(920.9253005603821, 24.513977121636838) rotate(0)"><text transform="translate(0, 0)" style="font-size: 24px; font-family: Roboto; fill: rgb(17, 17, 17); opacity: 1; stroke-width: 0; font-style: normal; font-weight: normal; text-decoration: none;"><tspan dominant-baseline="text-before-edge" x="0" y="0">Sign U</tspan></text></g><g><g transform="translate(420.7695605353015, 108.80988836181896)  rotate(0)  "><g><path d="M0 39.016280119259754 C-0.5285677296668498 87.99904085689826, 2.13996094636617 136.58096258987115, 0 188.58286026956833 M0 39.016280119259754 C0.7154656445301858 87.22988007930715, 0.8307471668042031 139.64081324298323, 0 188.58286026956833 M0 188.58286026956833 C76.36663000832527 190.73316100241905, 148.80540198670494 188.59505823906076, 308.1398504551869 188.58286026956833 M0 188.58286026956833 C103.3079485226291 188.20031237889978, 203.90480699226643 189.0967634109802, 308.1398504551869 188.58286026956833 M308.1398504551869 188.58286026956833 C308.59614701780555 147.62670101961197, 305.5674176982331 111.10055503511633, 308.1398504551869 39.01628011925974 M308.1398504551869 188.58286026956833 C310.0425751830214 131.6415724696893, 311.0093543554419 73.88508671213062, 308.1398504551869 39.01628011925974 M308.1398504551869 39.01628011925974 C231.7843110324079 36.759430298707194, 154.29499357661547 34.790622942736164, 0 39.01628011925974 M308.1398504551869 39.01628011925974 C218.87840051975823 36.97820326835047, 129.10962611306013 37.44565015069045, 0 39.01628011925974 M0 39.01628011925974 C1.8951402003559928e-16 39.01628011925975, 2.1525888541528087e-15 39.01628011925975, 0 39.016280119259754 M0 39.01628011925974 C3.8339706883566276e-16 39.01628011925975, -4.3284898364302233e-16 39.01628011925975, 0 39.016280119259754 M21.53959182651847 48.85013082804208 C26.74001189422831 47.37175845732902, 29.98408302483224 50.67184081315879, 27.888813445147598 53.53590845207267 M21.53959182651847 48.85013082804208 C23.694262228990347 47.589667755607415, 31.28382022106164 53.98604000244174, 27.888813445147598 53.53590845207267 M27.888813445147598 53.53590845207267 C28.355030545472 55.79901779174775, 24.174400186760312 56.23196651176282, 21.53959182651847 58.2260108490002 M27.888813445147598 53.53590845207267 C24.865612252495087 58.488597503043415, 26.376644139772242 60.24982235063531, 21.53959182651847 58.2260108490002 M21.53959182651847 58.2260108490002 C16.89317648243616 55.940585987127506, 17.330603374701035 58.41470194339723, 15.190370207889343 53.53590845207267 M21.53959182651847 58.2260108490002 C21.27286727168123 56.79467363585451, 17.195495075706432 58.90200117502333, 15.190370207889343 53.53590845207267 M15.190370207889343 53.53590845207267 C16.87864440120017 52.66374829053763, 18.226887284733795 50.243386860992665, 21.53959182651847 48.8501308280421 M15.190370207889343 53.53590845207267 C15.735925107628162 50.46072827611003, 16.0477708499436 49.913963103536425, 21.53959182651847 48.8501308280421 M21.53959182651847 48.8501308280421 C21.53959182651847 48.85013082804209, 21.53959182651847 48.85013082804209, 21.53959182651847 48.85013082804208 M21.53959182651847 48.8501308280421 C21.53959182651847 48.85013082804209, 21.53959182651847 48.85013082804208, 21.53959182651847 48.85013082804208 M286.6014911880702 48.85013082804208 C288.4723196238907 46.654095526840436, 290.73866477182867 50.14326861142997, 292.95071280669936 53.53590845207267 M286.6014911880702 48.85013082804208 C292.5410994908469 52.12705336833363, 293.78663148957105 48.044700754022934, 292.95071280669936 53.53590845207267 M292.95071280669936 53.53590845207267 C290.99357301634535 53.93854785442323, 290.4919549562176 55.97416152194806, 286.6014911880702 58.2260108490002 M292.95071280669936 53.53590845207267 C296.24714876361924 57.7934445110333, 290.4084661809867 58.78749234904268, 286.6014911880702 58.2260108490002 M286.6014911880702 58.2260108490002 C280.97115681952044 57.185355917967044, 278.6818342916193 58.73821104049654, 280.25226956944107 53.53590845207267 M286.6014911880702 58.2260108490002 C284.15853662582293 60.49598594535806, 279.7038864833759 53.21955932650686, 280.25226956944107 53.53590845207267 M280.25226956944107 53.53590845207267 C280.6792657294954 51.511804964541234, 285.832497474113 47.70875692000603, 286.6014911880702 48.8501308280421 M280.25226956944107 53.53590845207267 C277.2076608985374 50.075009793377255, 285.1927902178182 47.69978831434613, 286.6014911880702 48.8501308280421 M286.6014911880702 48.8501308280421 C286.6014911880702 48.85013082804209, 286.6014911880702 48.85013082804209, 286.6014911880702 48.85013082804208 M286.6014911880702 48.8501308280421 C286.6014911880702 48.85013082804209, 286.6014911880702 48.85013082804209, 286.6014911880702 48.85013082804208 M21.53959182651848 169.39520864356496 C26.792306637985604 170.36222363785294, 26.78586209702383 169.8371874335516, 27.88881344514761 174.08531104049248 M21.53959182651848 169.39520864356496 C27.632203828578785 168.9395107613915, 30.612602426550193 172.31963400070703, 27.88881344514761 174.08531104049248 M27.88881344514761 174.08531104049248 C30.866141049238685 178.22183358938668, 26.889096581461285 179.7609219876969, 21.539591826518482 178.77108866452306 M27.88881344514761 174.08531104049248 C29.765514448518697 174.47519023482923, 28.267728738570963 177.81377782895356, 21.539591826518482 178.77108866452306 M21.539591826518482 178.77108866452306 C20.50302737853721 179.72408095280767, 14.473141724236376 174.3711252239463, 15.190370207889355 174.08531104049248 M21.539591826518482 178.77108866452306 C16.08149063396499 179.12388370706827, 12.751892637640305 178.3564661449683, 15.190370207889355 174.08531104049248 M15.190370207889355 174.08531104049248 C15.705123557310603 172.2467813733328, 17.790155456778518 169.18060649708298, 21.539591826518482 169.39520864356496 M15.190370207889355 174.08531104049248 C11.802993441347084 168.4239536983255, 18.775455180187635 172.18355517853436, 21.539591826518482 169.39520864356496 M21.539591826518482 169.39520864356496 C21.539591826518482 169.39520864356496, 21.53959182651848 169.39520864356496, 21.53959182651848 169.39520864356496 M21.539591826518482 169.39520864356496 C21.539591826518482 169.39520864356496, 21.53959182651848 169.39520864356496, 21.53959182651848 169.39520864356496 M286.6014911880702 169.39520864356496 C290.59157756344877 170.02498520687607, 291.011459774196 168.7185807469595, 292.95071280669936 174.08531104049248 M286.6014911880702 169.39520864356496 C290.0912294296687 167.7202195094937, 296.2664814288242 174.86887130563295, 292.95071280669936 174.08531104049248 M292.95071280669936 174.08531104049248 C295.60973265341283 179.18807721407387, 289.4970032185944 181.07812157551885, 286.6014911880702 178.77108866452306 M292.95071280669936 174.08531104049248 C295.44991312700125 173.6397178000701, 287.8397298416751 176.33494430258065, 286.6014911880702 178.77108866452306 M286.6014911880702 178.77108866452306 C281.84914278642225 179.11685350815893, 278.0590604463304 177.30967796118233, 280.25226956944107 174.08531104049248 M286.6014911880702 178.77108866452306 C282.15444598359005 180.1074839956978, 278.28332443532446 176.65669069354658, 280.25226956944107 174.08531104049248 M280.25226956944107 174.08531104049248 C279.0619658939066 169.4391297343481, 282.6997893888335 169.17605925873306, 286.6014911880702 169.39520864356496 M280.25226956944107 174.08531104049248 C279.74018905586473 168.34938061659372, 285.92012626620186 169.75746670831379, 286.6014911880702 169.39520864356496 M286.6014911880702 169.39520864356496 C286.6014911880702 169.39520864356496, 286.6014911880702 169.39520864356496, 286.6014911880702 169.39520864356496 M286.6014911880702 169.39520864356496 C286.6014911880702 169.39520864356496, 286.6014911880702 169.39520864356496, 286.6014911880702 169.39520864356496" stroke="#000000" stroke-width="2" fill="none" vector-effect="non-scaling-stroke" data-shape-part="outline" stroke-opacity="1" fill-opacity="0.24"></path></g></g><g transform="translate(436.17655305806085, 131.57185097733716) rotate(0)"><text transform="translate(0, 79)" style="font-size: 24px; font-family: &quot;Comic Sans MS&quot;; fill: rgb(17, 17, 17); opacity: 1; stroke-width: 0; font-style: normal; font-weight: normal; text-decoration: none;"></text></g></g><g transform="translate(511.0364321549965, 202.58908961652156) rotate(0)"><text transform="translate(0, 0)" style="font-size: 33px; font-family: Roboto; fill: rgb(17, 17, 17); opacity: 1; stroke-width: 0; font-style: normal; font-weight: bold; text-decoration: none;"><tspan dominant-baseline="text-before-edge" x="0" y="0">Site Pla</tspan></text></g><g><g transform="translate(49.86755107850015, 1023.0692923542942)  rotate(0)  "><g><path d="M-0.2323938697660034 5.620597058358782 L-0.10813159645438841 35.86975901022598 L21.399780746539584 34.45579825439308 L42.09594069126299 38.37477219350211 L64.98636481594075 29.97557032844196 L63.93662348817814 2.1769531429834084 L40.740997917312896 7.115221526580466 L20.579291735751152 0.8157303174265216" stroke="none" stroke-width="0" fill="#616161" fill-rule="evenodd" vector-effect="non-scaling-stroke" data-shape-part="fill" stroke-opacity="0.24" fill-opacity="0.24"></path><path d="M0.32049066237270185 5.9098479258000784 C0.024816969817303858 18.251469757953092, -0.31990714889226035 25.764376755579928, 0.32049066237270185 37.89481485270008 M0.32049066237270185 5.9098479258000784 C1.0644001749171401 16.54693332005536, -0.34007768958672036 25.409606925169044, 0.32049066237270185 37.89481485270008 M0.32049066237270185 37.89481485270008 C7.541152001929103 39.06044833898085, 9.353041193171746 32.589447271120456, 20.87035281396424 32.440064909912685 M0.32049066237270185 37.89481485270008 C8.126855796073922 35.35646334416041, 14.211119747055843 35.23491866778247, 20.87035281396424 32.440064909912685 M20.87035281396424 32.440064909912685 C27.109418586258364 35.96524613281136, 32.817793537078366 35.24803638919502, 42.63166927810064 38.52938743367366 M20.87035281396424 32.440064909912685 C26.98507925772559 33.901627941801635, 32.480993888874835 35.960639006176805, 42.63166927810064 38.52938743367366 M42.63166927810064 38.52938743367366 C54.0349022600106 38.7442338328882, 61.579259408146044 32.573425673200575, 64.41862313691307 32.516981983465655 M42.63166927810064 38.52938743367366 C49.36065477103056 36.08716117750424, 55.99066195078522 36.06381038882879, 64.41862313691307 32.516981983465655 M64.41862313691307 32.516981983465655 C62.62572135158772 20.394813915110134, 65.10217185446018 12.28281322009892, 64.41862313691307 0.7819972266531902 M64.41862313691307 32.516981983465655 C63.90476546062429 25.208028977701744, 63.273233000173164 15.025812144412757, 64.41862313691307 0.7819972266531902 M64.41862313691307 0.7819972266531902 C57.17525864194941 2.3695314421047096, 46.82358440107584 4.980655201595047, 42.82396074134461 5.813700361284031 M64.41862313691307 0.7819972266531902 C57.711110206683706 2.5657409178128177, 50.80739185559796 5.240953527347861, 42.82396074134461 5.813700361284031 M42.82396074134461 5.813700361284031 C35.25278753352608 3.7299020691608042, 30.047037060127295 2.6075252112937264, 20.851121711520076 0.32049065914531455 M42.82396074134461 5.813700361284031 C38.5846875042011 5.596016263383218, 32.40828883135212 4.439158187242714, 20.851121711520076 0.32049065914531455 M20.851121711520076 0.32049065914531455 C14.787914686677738 -0.7367157755678899, 9.691833757442646 3.5913009928660107, 0.32049066237270185 5.9098479258000784 M20.851121711520076 0.32049065914531455 C12.077691432458433 1.611995478817697, 6.448145961556344 4.487789258152191, 0.32049066237270185 5.9098479258000784" stroke="#000000" stroke-width="2" fill="none" vector-effect="non-scaling-stroke" data-shape-part="outline" stroke-opacity="1" fill-opacity="0.24"></path></g><g><path d="M20.851121711520076 0.32049065914531455 C20.553465882026657 12.702895969567088, 20.208741763317093 20.25658644546268, 20.851121711520076 32.440064909912685 M20.851121711520076 0.32049065914531455 C21.594638288897993 11.00140152921556, 20.190160424394133 19.90790061014421, 20.851121711520076 32.440064909912685" stroke="#000000" stroke-width="2" fill="none" vector-effect="non-scaling-stroke" data-shape-part="outline" stroke-opacity="1" fill-opacity="0.24"></path></g><g><path d="" stroke="none" stroke-width="0" fill="#616161" vector-effect="non-scaling-stroke" data-shape-part="fill" stroke-opacity="0.24" fill-opacity="0.24"></path><path d="" stroke="#000000" stroke-width="2" fill="none" vector-effect="non-scaling-stroke" data-shape-part="outline" stroke-opacity="1" fill-opacity="0.24"></path></g><g><path d="M42.63166927810064 38.52938743367366 C43.346994593686524 31.265295585130414, 43.06053115862449 19.175125717828394, 42.82396074134461 5.813700361284031 M42.63166927810064 38.52938743367366 C43.62705416473613 28.10101615227561, 42.285182588134745 15.898439623955255, 42.82396074134461 5.813700361284031" stroke="#000000" stroke-width="2" fill="none" vector-effect="non-scaling-stroke" data-shape-part="outline" stroke-opacity="1" fill-opacity="0.24"></path></g></g></g><g><g transform="translate(129.94866675667316, 252.81540339713007)  rotate(0)  "><g><path d="M0.31401662807911634 132.2826086944879 L-0.6144268931820989 629.2121657605662 L890.6938433465411 629.1450262244239 L889.8012942192008 131.07932851379516 L1.8479708908125758 131.7888251013101 M64.08412003677866 165.64587567839084 L73.89608340974983 168.1543148289415 L79.17365703865272 172.03505544849935 L81.85477129844284 180.55986778836993 L81.02429154093488 187.7510755926818 L76.04653875383315 189.30639559262335 L63.245719613251886 196.55167183459247 L47.81134315302951 192.1724283718401 L44.638973094504436 187.39250394408407 L46.17098017629092 179.98291729789523 L43.30195882359324 171.71781449505391 L49.05915720072612 169.60923458440033 L62.73499787014505 166.16977010759769 M824.3742006361366 161.26347346696315 L837.4736310119765 165.0916080902311 L843.7713681769512 171.2863984305531 L845.9465534435162 178.11277880173472 L844.1065131009864 184.8049870104045 L841.9192790745657 187.49140385025083 L828.2940189778686 196.14728743017162 L816.2864527822337 187.3263258659178 L810.9396051464992 182.33927195970716 L810.1245577467793 178.2628085206106 L810.4458659457785 174.39549567290845 L815.9219888453113 170.4925365279409 L829.1178099453331 162.02843768987117 M61.602369131264915 567.8896269760247 L75.7722333506006 570.9984905974493 L76.43928268130051 577.4415621766756 L82.68342421678165 581.3210529476013 L78.29445073887095 584.9176874539147 L74.90411066528497 591.6434378772445 L60.666087390599486 595.9663635313963 L48.15150142517912 593.1627642660804 L45.200027966888555 588.4633592745553 L46.77101447280355 579.094608285984 L43.83898279814065 577.7140581617067 L47.07360853722678 571.6730034010038 L62.971790970978965 563.2512518129464 M824.3289025962234 567.5235001704808 L836.9798983692091 573.3335900263414 L842.5385101617621 576.3882577130506 L847.1383560047993 582.4703785270061 L845.904189617648 585.7600910743962 L841.0839703555243 594.7875315993496 L823.7288425505043 595.3576734781717 L812.5886376504527 593.3024806230732 L809.9629917907339 590.6270862898122 L808.5524633659237 582.5511142700519 L809.3540351687388 577.9440254876325 L812.3410937310061 573.5877785043344 L825.5954992711426 567.4115951917287" stroke="none" stroke-width="0" fill="#616161" vector-effect="non-scaling-stroke" data-shape-part="fill" stroke-opacity="0.24" fill-opacity="0.24"></path><path d="M0 130.38595468746283 C-0.9099535501555589 321.27439648723197, -2.6133566514337563 510.80439675776006, 0 630.2127265536606 M0 130.38595468746283 C0.689407381349533 297.8155215477594, 1.675120300219315 465.819763293287, 0 630.2127265536606 M0 630.2127265536606 C234.7828286166717 633.4624413172893, 469.79098467853754 634.6706163685016, 888.7638868032818 630.2127265536606 M0 630.2127265536606 C238.06947853135836 626.5441978119835, 477.5375238476127 626.9658582531437, 888.7638868032818 630.2127265536606 M888.7638868032818 630.2127265536606 C891.3867596670377 487.20490297423095, 892.372788958659 343.4084088920722, 888.7638868032818 130.38595468746277 M888.7638868032818 630.2127265536606 C886.3124069322171 467.4006842409505, 886.2314209289008 305.17017596365764, 888.7638868032818 130.38595468746277 M888.7638868032818 130.38595468746277 C588.1359228148431 126.67821139501102, 286.1692251782681 125.11931262420184, 0 130.38595468746277 M888.7638868032818 130.38595468746277 C664.5148237846071 133.77506967776304, 440.37232645839435 133.52144744985586, 0 130.38595468746277 M0 130.38595468746277 C5.993024391777436e-15 130.3859546874628, -7.722891777575052e-15 130.3859546874628, 0 130.38595468746283 M0 130.38595468746277 C3.87876559960872e-15 130.3859546874628, -2.223646804116508e-15 130.3859546874628, 0 130.38595468746283 M62.126373215323 163.24905719234852 C74.988501393892 163.61493351394228, 77.9431564891079 169.94748389696392, 80.43935310290462 178.90815096281764 M62.126373215323 163.24905719234852 C70.0817505461668 161.6447629709254, 77.04087452197649 170.19464849614226, 80.43935310290462 178.90815096281764 M80.43935310290462 178.90815096281764 C81.84194596676357 189.6011795281325, 73.61880395884779 193.3781240894268, 62.12637321532299 194.58169740897114 M80.43935310290462 178.90815096281764 C82.3641251572521 188.5128836000696, 74.386060435997 194.01553255862507, 62.12637321532299 194.58169740897114 M62.12637321532299 194.58169740897114 C49.85121344773067 194.6767197861145, 41.99539245421919 185.36932649005993, 43.81339332774137 178.90815096281764 M62.12637321532299 194.58169740897114 C53.85075483585676 193.33906602061305, 45.31047793351035 190.86049735344804, 43.81339332774137 178.90815096281764 M43.81339332774137 178.90815096281764 C42.262170518300636 169.58284178351673, 52.50628865672946 161.56652235323483, 62.12637321532299 163.24905719234854 M43.81339332774137 178.90815096281764 C42.274127357238115 167.1514141344341, 54.6622397897739 162.3836655412327, 62.12637321532299 163.24905719234854 M62.12637321532299 163.24905719234854 C62.12637321532299 163.24905719234854, 62.12637321532299 163.24905719234854, 62.126373215323 163.24905719234852 M62.12637321532299 163.24905719234854 C62.12637321532299 163.24905719234854, 62.126373215323 163.24905719234852, 62.126373215323 163.24905719234852 M826.641068643506 163.24905719234852 C835.1856121584455 165.48563545280984, 843.1111429937126 168.96103385066303, 844.9540485310877 178.90815096281764 M826.641068643506 163.24905719234852 C833.526733235657 165.14115353268488, 841.8243766416273 166.86245233648145, 844.9540485310877 178.90815096281764 M844.9540485310877 178.90815096281764 C844.1472301016784 189.10864217866998, 834.8631034822513 194.09740448135832, 826.641068643506 194.58169740897114 M844.9540485310877 178.90815096281764 C845.0201893515641 184.32459341384325, 835.9451765311726 196.54554896152527, 826.641068643506 194.58169740897114 M826.641068643506 194.58169740897114 C817.2544170467569 191.8546345545719, 805.6338760901715 189.7499037264739, 808.3280887559243 178.90815096281764 M826.641068643506 194.58169740897114 C814.7357960428031 198.00015270358833, 809.9404472620233 186.94694018609678, 808.3280887559243 178.90815096281764 M808.3280887559243 178.90815096281764 C810.065539675188 169.15240007614406, 817.1693274989807 164.2514628403812, 826.641068643506 163.24905719234854 M808.3280887559243 178.90815096281764 C805.3654160846311 168.08656030379856, 819.8176766094368 165.8113736708175, 826.641068643506 163.24905719234854 M826.641068643506 163.24905719234854 C826.641068643506 163.24905719234854, 826.641068643506 163.24905719234852, 826.641068643506 163.24905719234852 M826.641068643506 163.24905719234854 C826.641068643506 163.24905719234854, 826.641068643506 163.24905719234854, 826.641068643506 163.24905719234852 M62.12637321532302 566.0907685448568 C70.75836814518243 566.7858639623612, 80.03341942100059 575.7582144837386, 80.43935310290465 581.7643149910103 M62.12637321532302 566.0907685448568 C71.46722394220687 568.3640421292853, 80.07171501155216 572.4246659985769, 80.43935310290465 581.7643149910103 M80.43935310290465 581.7643149910103 C81.3958875322083 588.8868265730371, 72.50363975176974 597.0371965513956, 62.12637321532303 597.4234087614794 M80.43935310290465 581.7643149910103 C79.11648548597675 587.2706529297442, 72.88570436216345 595.0780048665516, 62.12637321532303 597.4234087614794 M62.12637321532303 597.4234087614794 C53.24737719609144 596.8299958155882, 42.88919847693218 593.0085940641393, 43.8133933277414 581.7643149910103 M62.12637321532303 597.4234087614794 C54.44147954415272 600.7444390815608, 46.780090243154376 592.845041375658, 43.8133933277414 581.7643149910103 M43.8133933277414 581.7643149910103 C46.12014345581568 572.766850034476, 51.18490191547171 564.6576474275082, 62.12637321532303 566.0907685448568 M43.8133933277414 581.7643149910103 C44.32988352946862 576.1299453354466, 48.85817506725871 564.3259573376845, 62.12637321532303 566.0907685448568 M62.12637321532303 566.0907685448568 C62.12637321532303 566.0907685448568, 62.12637321532302 566.0907685448568, 62.12637321532302 566.0907685448568 M62.12637321532303 566.0907685448568 C62.12637321532303 566.0907685448568, 62.12637321532302 566.0907685448568, 62.12637321532302 566.0907685448568 M826.641068643506 566.0907685448568 C837.3889868290473 566.5173389877766, 842.5790666769481 573.8338925044543, 844.9540485310877 581.7643149910103 M826.641068643506 566.0907685448568 C839.4937180338271 567.1973249144029, 843.779730852669 569.8943187273132, 844.9540485310877 581.7643149910103 M844.9540485310877 581.7643149910103 C847.1339471645596 589.9003259819974, 835.648305104641 596.3154311822187, 826.641068643506 597.4234087614794 M844.9540485310877 581.7643149910103 C845.5446250472626 587.7324019395322, 839.4868512686489 597.7773140055053, 826.641068643506 597.4234087614794 M826.641068643506 597.4234087614794 C816.6763738706791 599.0654610143434, 805.5445030204772 592.3512017113198, 808.3280887559243 581.7643149910103 M826.641068643506 597.4234087614794 C813.2219725829166 598.5608994332068, 807.1524199728209 591.8104082920165, 808.3280887559243 581.7643149910103 M808.3280887559243 581.7643149910103 C810.1360732663895 574.8517224292762, 816.5749667434408 567.6139444972962, 826.641068643506 566.0907685448568 M808.3280887559243 581.7643149910103 C808.172813053523 572.4179871461379, 819.5391143779191 562.8844083986353, 826.641068643506 566.0907685448568 M826.641068643506 566.0907685448568 C826.641068643506 566.0907685448568, 826.641068643506 566.0907685448568, 826.641068643506 566.0907685448568 M826.641068643506 566.0907685448568 C826.641068643506 566.0907685448568, 826.641068643506 566.0907685448568, 826.641068643506 566.0907685448568" stroke="#000000" stroke-width="2" fill="none" vector-effect="non-scaling-stroke" data-shape-part="outline" stroke-opacity="1" fill-opacity="0.24"></path></g></g><g transform="translate(174.38686109683726, 328.882117525514) rotate(0)"><text transform="translate(0, 292)" style="font-size: 24px; font-family: &quot;Comic Sans MS&quot;; fill: rgb(17, 17, 17); opacity: 1; stroke-width: 0; font-style: normal; font-weight: normal; text-decoration: none;"></text></g></g><g transform="translate(525.0857506950268, 511.3228645336886) rotate(0)"><text transform="translate(0, 0)" style="font-size: 17px; font-family: Roboto; fill: rgb(17, 17, 17); opacity: 1; stroke-width: 0; font-style: normal; font-weight: bold; text-decoration: none;"><tspan dominant-baseline="text-before-edge" x="0" y="0">Site Nam</tspan></text></g><g transform="translate(525.0857506950268, 549.6072575552713) rotate(0)"><text transform="translate(0, 0)" style="font-size: 17px; font-family: Roboto; fill: rgb(17, 17, 17); opacity: 1; stroke-width: 0; font-style: normal; font-weight: bold; text-decoration: none;"><tspan dominant-baseline="text-before-edge" x="0" y="0">Site Purpos</tspan></text></g><g transform="translate(525.0857506950268, 587.891650576854) rotate(0)"><text transform="translate(0, 0)" style="font-size: 17px; font-family: Roboto; fill: rgb(17, 17, 17); opacity: 1; stroke-width: 0; font-style: normal; font-weight: bold; text-decoration: none;"><tspan dominant-baseline="text-before-edge" x="0" y="0">Scenario</tspan></text></g><g transform="translate(525.0857506950268, 626.8785095254383) rotate(0)"><text transform="translate(0, 0)" style="font-size: 17px; font-family: Roboto; fill: rgb(17, 17, 17); opacity: 1; stroke-width: 0; font-style: normal; font-weight: bold; text-decoration: none;"><tspan dominant-baseline="text-before-edge" x="0" y="0">Color Schem</tspan></text></g><g transform="translate(525.0857506950268, 666.2166014375232) rotate(0)"><text transform="translate(0, 0)" style="font-size: 17px; font-family: Roboto; fill: rgb(17, 17, 17); opacity: 1; stroke-width: 0; font-style: normal; font-weight: bold; text-decoration: none;"><tspan dominant-baseline="text-before-edge" x="0" y="0">Typograph</tspan></text></g><g transform="translate(525.0857506950268, 706.9596252036113) rotate(0)"><text transform="translate(0, 0)" style="font-size: 17px; font-family: Roboto; fill: rgb(17, 17, 17); opacity: 1; stroke-width: 0; font-style: normal; font-weight: bold; text-decoration: none;"><tspan dominant-baseline="text-before-edge" x="0" y="0">Wirefram</tspan></text></g><g><g transform="translate(993.2792910415384, 1016.3958660477798)  rotate(0)  "><g><path d="M33.99792930041617 0 C25.496605368397574 2.9141169621128173, 15.674169106307357 2.2292561067718597, 1.6580007472148421 0 M33.99792930041617 0 C25.151299409164977 1.4916578561525955, 16.95915014425474 -0.6173799454707489, 1.6580007472148421 0 M1.6580007472148421 0 C-0.26193343722785045 2.2304055942222476, -0.09156129788607359 3.1622437228403433, 0 2.041670341611659 M1.6580007472148421 0 C1.425323892845193 -0.3710144498851149, 3.1614895956125113 1.8819237930189265, 0 2.041670341611659 M0 2.041670341611659 C-1.3158840839826826 12.790461821009238, 2.9334751958883043 22.252733872623033, 0 41.86521872530574 M0 2.041670341611659 C1.0892486999081696 9.616032676822467, -1.187047274942485 20.380229594186986, 0 41.86521872530574 M0 41.86521872530574 C-1.3714776439592242 44.3918835297063, -2.011736861109381 43.37622047576824, 1.6580007472148421 43.906889066917394 M0 41.86521872530574 C-2.189097864786163 39.64620399254598, -0.40867512701602793 41.56918689601826, 1.6580007472148421 43.906889066917394 M1.6580007472148421 43.906889066917394 C8.46952728974379 42.86394074998347, 12.310202998275685 45.73548045713007, 18.145302801239424 43.906889066917394 M1.6580007472148421 43.906889066917394 C6.362561928154845 43.588161261302226, 12.504894349431277 43.30930986745816, 18.145302801239424 43.906889066917394 M18.145302801239424 43.906889066917394 C19.701708688688974 40.013147212810466, 19.55416964778869 34.46350113900101, 18.252270591382313 26.875406797860137 M18.145302801239424 43.906889066917394 C17.235643170209546 40.547422509338226, 17.90150646643377 35.29263866907416, 18.252270591382313 26.875406797860137 M18.252270591382313 26.875406797860137 C17.47843570185329 26.876969978904818, 15.886377880679781 27.462230825986754, 13.570646976128364 26.875406797860137 M18.252270591382313 26.875406797860137 C17.010879533014588 26.956114647772424, 16.001091161995962 26.959923873346476, 13.570646976128364 26.875406797860137 M13.570646976128364 26.875406797860137 C14.651899110467214 25.299012870581837, 12.691963855969602 23.247674261759578, 13.613434092185521 20.104964503741474 M13.570646976128364 26.875406797860137 C13.708442390920608 24.84053172166897, 14.099596712875488 21.841203801686934, 13.613434092185521 20.104964503741474 M13.613434092185521 20.104964503741474 C13.980418726545542 19.50861261978859, 15.119775784247254 20.323590985183603, 18.31645126546805 20.104964503741474 M13.613434092185521 20.104964503741474 C15.169779596123304 20.37404395559226, 16.90645862676048 20.21490838967069, 18.31645126546805 20.104964503741474 M18.31645126546805 20.104964503741474 C18.25742628738627 19.929660353014828, 18.327851805126713 19.904155276135334, 18.320016858472812 19.595644590565232 M18.31645126546805 20.104964503741474 C18.30915109641517 20.010685469530287, 18.306176907995297 19.88175749102027, 18.320016858472812 19.595644590565232 M18.320016858472812 19.595644590565232 C20.101613863371778 17.46968395269919, 18.326151672742117 17.112995617110528, 18.355672788520444 15.49913184062184 M18.320016858472812 19.595644590565232 C18.974257697677704 18.560209734109005, 18.996146105919753 16.91427953473317, 18.355672788520444 15.49913184062184 M18.355672788520444 15.49913184062184 C20.14627606549858 16.280030850772427, 16.059397571479668 12.538318264402283, 18.5339524387586 12.904234696767023 M18.355672788520444 15.49913184062184 C18.343337878329667 14.550798020264748, 20.76143613522104 14.241828624123542, 18.5339524387586 12.904234696767023 M18.5339524387586 12.904234696767023 C17.91419936202203 10.519208351909082, 19.09513188729743 6.446377804466469, 21.04056432110706 7.84616107625814 M18.5339524387586 12.904234696767023 C15.706650070126326 9.007339254454608, 21.261928662413084 6.093509412194548, 21.04056432110706 7.84616107625814 M21.04056432110706 7.84616107625814 C24.40936119630011 8.255606569855608, 23.929745672457884 9.074880654056095, 25.16952102062273 6.265513069849114 M21.04056432110706 7.84616107625814 C19.460456872675664 8.195000894175045, 26.133174896008367 7.606930659449198, 25.16952102062273 6.265513069849114 M25.16952102062273 6.265513069849114 C26.052428855898384 4.171421856247205, 25.53856886317837 4.816636086069364, 25.62591692523241 6.261122380942423 M25.16952102062273 6.265513069849114 C24.40521072979324 9.305256634811256, 26.47716492847423 4.587303982535694, 25.62591692523241 6.261122380942423 M25.62591692523241 6.261122380942423 C28.27903816574013 4.801078290306348, 25.47779061346917 5.328246381491229, 28.082610505514186 6.362108225796333 M25.62591692523241 6.261122380942423 C26.243832622652334 3.494307899335716, 26.764248070070956 7.816134006188989, 28.082610505514186 6.362108225796333 M28.082610505514186 6.362108225796333 C28.310259252807295 8.12488293996424, 28.3857195304446 7.663899232041768, 29.644340241600425 6.550907848784077 M28.082610505514186 6.362108225796333 C31.252177834484897 6.176739099429627, 28.434393084162853 3.985010765879161, 29.644340241600425 6.550907848784077 M29.644340241600425 6.550907848784077 C30.51545256883424 9.151699471819432, 29.57630995489672 10.334570735435486, 29.60511871854803 12.610058540018677 M29.644340241600425 6.550907848784077 C29.719613979326027 9.016067328623278, 30.017484669608354 10.81738225901277, 29.60511871854803 12.610058540018677 M29.60511871854803 12.610058540018677 C26.816086837200015 14.185931105638325, 30.278748676190645 10.12197880866605, 29.21290348802409 12.610058540018677 M29.60511871854803 12.610058540018677 C29.34057927827121 12.160554053407564, 31.803060445152717 13.375378376763717, 29.21290348802409 12.610058540018677 M29.21290348802409 12.610058540018677 C28.808272439748027 13.990457077050984, 25.350309894033177 10.112101301435247, 27.59412426386164 12.601277162205294 M29.21290348802409 12.610058540018677 C29.81532742874136 12.641830774169817, 30.010043517252832 10.613827737351746, 27.59412426386164 12.601277162205294 M27.59412426386164 12.601277162205294 C28.43009265641849 10.711906626704947, 24.97961551450073 9.699792223229208, 26.378257049237426 12.623230606738753 M27.59412426386164 12.601277162205294 C25.436848102269504 11.004033300956579, 26.826308314976014 11.507963965685242, 26.378257049237426 12.623230606738753 M26.378257049237426 12.623230606738753 C23.191290501320964 14.608499846640742, 23.730254221021486 12.392779846144999, 24.046359224122355 15.283988084193949 M26.378257049237426 12.623230606738753 C23.247794469215204 16.011534069558373, 26.09522867800045 10.07479267761127, 24.046359224122355 15.283988084193949 M24.046359224122355 15.283988084193949 C23.44186346868933 16.490793422093937, 26.44686642674435 21.098531994466246, 23.97504736402709 20.08740174811471 M24.046359224122355 15.283988084193949 C24.118574180062346 13.49354210896077, 22.028730175725038 19.64355904116346, 23.97504736402709 20.08740174811471 M23.97504736402709 20.08740174811471 C25.17372660760934 17.353109981344527, 26.335664535288036 21.72735193162855, 26.627848559570836 20.0917924370214 M23.97504736402709 20.08740174811471 C26.449012440146678 22.975532391193767, 23.787810368018494 22.85884366352741, 26.627848559570836 20.0917924370214 M26.627848559570836 20.0917924370214 C25.650486200867395 20.950707671937312, 28.60876666728101 19.68339386373457, 28.35359557387618 20.08740174811471 M26.627848559570836 20.0917924370214 C29.7981256885046 18.556415407552162, 26.626872531759286 21.971578094555777, 28.35359557387618 20.08740174811471 M28.35359557387618 20.08740174811471 C26.283087265761825 19.795307065771407, 29.32508125814143 20.987019594238586, 29.409011103286055 20.08740174811471 M28.35359557387618 20.08740174811471 C25.759769098684448 22.604064073685073, 29.43461025861557 20.861401481452845, 29.409011103286055 20.08740174811471 M29.409011103286055 20.08740174811471 C27.615703277450056 24.1431609751135, 26.6959094491646 24.812451900006696, 28.638843014257226 26.897360242393596 M29.409011103286055 20.08740174811471 C31.648526302093643 22.84338354560918, 26.23960984613265 21.77431394483471, 28.638843014257226 26.897360242393596 M28.638843014257226 26.897360242393596 C26.95702199629778 26.93441411174505, 25.691904507103057 27.59206343110826, 23.978612957031856 26.897360242393596 M28.638843014257226 26.897360242393596 C26.64537006369448 26.811217793329632, 24.66496469421448 26.918248225586474, 23.978612957031856 26.897360242393596 M23.978612957031856 26.897360242393596 C21.42848083741956 33.75360116773091, 26.2686043820367 40.860128880434495, 23.871645166888964 43.906889066917394 M23.978612957031856 26.897360242393596 C23.184174548377385 29.52244352005143, 25.05397902437213 32.525940716821836, 23.871645166888964 43.906889066917394 M23.871645166888964 43.906889066917394 C27.341045163899533 43.97830567498128, 27.744229643562015 43.4483856305874, 33.99792930041617 43.906889066917394 M23.871645166888964 43.906889066917394 C25.855959936953568 44.52225994630818, 27.697172516675803 44.028058291731305, 33.99792930041617 43.906889066917394 M33.99792930041617 43.906889066917394 C36.432941621556274 41.01321999344746, 35.356084580309435 41.14868200568706, 35.65593004763101 41.86521872530573 M33.99792930041617 43.906889066917394 C37.97235261794678 40.82142675959276, 33.80489318027136 39.68861076760329, 35.65593004763101 41.86521872530573 M35.65593004763101 41.86521872530573 C37.386164269560375 31.11842041068021, 32.32817243706564 26.81431808160289, 35.65593004763101 2.041670341611659 M35.65593004763101 41.86521872530573 C36.128832433343646 32.269332083495755, 36.186334390164134 24.31568677296878, 35.65593004763101 2.041670341611659 M35.65593004763101 2.041670341611659 C34.09035318601851 -1.0430329154290812, 34.593519514813416 0.36181634198874235, 33.99792930041617 0 M35.65593004763101 2.041670341611659 C34.77807080700037 -1.3257505002011163, 32.13298498388878 -3.3005259209778157, 33.99792930041617 0 M33.99792930041617 0 C33.99792930041617 0, 33.99792930041617 0, 33.99792930041617 0 M33.99792930041617 0 C33.99792930041617 0, 33.99792930041617 0, 33.99792930041617 0" stroke="#000000" stroke-width="2" fill="none" vector-effect="non-scaling-stroke" data-shape-part="outline" stroke-opacity="1" fill-opacity="0.24"></path></g></g></g><g><g transform="translate(1053.3401278001681, 1016.3958660477798)  rotate(0)  "><g><path d="M1.9467789348418885 13.617426049657354 C1.9467789348418885 13.617426049657354, 1.9467789348418885 13.617426049657354, 1.9467789348418885 13.617426049657354 M1.9467789348418885 13.617426049657354 C1.9467789348418885 13.617426049657354, 1.9467789348418885 13.617426049657354, 1.9467789348418885 13.617426049657354 M2.0799243157095013 25.658284503586362 C6.0872375711960665 22.000829181342947, 7.8581954010585005 17.304220381672444, 11.92080975056711 14.337640800244781 M2.0799243157095013 25.658284503586362 C6.415633763387653 22.402372873861705, 10.072637949689142 16.570137458815395, 11.92080975056711 14.337640800244781 M1.557010667586603 38.45385253773814 C4.808919315090708 31.78438555354719, 9.502807220457449 28.58420221761676, 12.053955131434721 26.37849925417379 M1.557010667586603 38.45385253773814 C3.871658568442442 33.74883724537554, 8.339003594613562 31.055620215887682, 12.053955131434721 26.37849925417379 M6.282569251387763 45.211743930107744 C8.0563525278155 42.62001890038449, 8.226580576511674 42.627483831982055, 11.53104148331182 39.17406728832557 M6.282569251387763 45.211743930107744 C7.496282430716177 43.55303266454266, 9.620371635077342 41.5918731104617, 11.53104148331182 39.17406728832557" stroke="none" stroke-width="1" fill="none" vector-effect="non-scaling-stroke" data-shape-part="fill" stroke-opacity="0.24" fill-opacity="0.24"></path><path d="M10.954592088323508 41.735584061842076 C6.350073185597589 41.46338088743952, 4.8451504565888825 41.437320306596305, 1.8407890114970409 41.735584061842076 M10.954592088323508 41.735584061842076 C7.128367311931157 42.29005246197874, 4.943593855474864 41.91351057694902, 1.8407890114970409 41.735584061842076 M1.8407890114970409 41.735584061842076 C0.5049544819164682 36.20336352285307, 3.7657126732635904 24.83308787146489, 1.8407890114970409 13.739353508957043 M1.8407890114970409 41.735584061842076 C0.5885079312759496 37.0132589069103, 2.980930950089083 30.708411058422723, 1.8407890114970409 13.739353508957043 M1.8407890114970409 13.739353508957043 C3.103373382948784 14.08714643546496, 7.283659628810909 13.869939320039723, 10.954592088323508 13.739353508957043 M1.8407890114970409 13.739353508957043 C3.835659560632959 13.901684361157963, 5.830209245225524 13.64364070736601, 10.954592088323508 13.739353508957043 M10.954592088323508 13.739353508957043 C14.098075857594484 26.86073634214319, 9.335764667227739 33.8908129275809, 10.954592088323508 41.735584061842076 M10.954592088323508 13.739353508957043 C9.799025876351813 21.054785428160997, 10.321864811607817 27.090941181719383, 10.954592088323508 41.735584061842076 M10.954592088323508 41.735584061842076 C10.954592088323508 41.735584061842076, 10.954592088323508 41.735584061842076, 10.954592088323508 41.735584061842076 M10.954592088323508 41.735584061842076 C10.954592088323508 41.735584061842076, 10.954592088323508 41.735584061842076, 10.954592088323508 41.735584061842076" stroke="#000000" stroke-width="2" fill="none" vector-effect="non-scaling-stroke" data-shape-part="outline" stroke-opacity="1" fill-opacity="0.24"></path></g><g><path d="M3.735532486585053 0.5972228625724354 C3.735532486585053 0.5972228625724354, 3.735532486585053 0.5972228625724354, 3.735532486585053 0.5972228625724354 M3.735532486585053 0.5972228625724354 C3.735532486585053 0.5972228625724354, 3.735532486585053 0.5972228625724354, 3.735532486585053 0.5972228625724354 M5.18079592543368 11.1286621560559 C6.253249227242415 7.931464238263384, 8.884103109087711 8.033904765740928, 11.741386215338752 3.5815663538281783 M5.18079592543368 11.1286621560559 C7.489039683395951 8.066046093294739, 10.66143015662474 5.381568062379496, 11.741386215338752 3.5815663538281783" stroke="none" stroke-width="1" fill="none" vector-effect="non-scaling-stroke" data-shape-part="fill" stroke-opacity="0.24" fill-opacity="0.24"></path><path d="M6.712143067559775 0.0331256870194947 C7.658159431241322 -0.295215591492847, 8.686263517065397 -1.1537273474055194, 9.724070146659992 -0.3738301658465639 C10.761876776254587 0.4060670157123917, 12.568243965246158 3.6281356717066524, 12.938982845127342 4.7125087763732285 C13.309721725008526 5.796881881039805, 12.510315444176102 5.528619524356178, 11.948503425947091 6.132408462152891 C11.38669140771808 6.736197399949604, 10.777557625855701 7.614164738473395, 9.568110735753272 8.335242403153508 C8.358663845650844 9.05632006783362, 5.766193713251715 10.727990594294447, 4.6918220853325145 10.458874450233566 C3.617450457413314 10.189758306172685, 3.9645314148604966 7.485263922047441, 3.121880968238072 6.720545538788224 C2.279230521615647 5.955827155529008, -0.4565841405706137 6.879876867157549, -0.36408059440203466 5.870564150678269 C-0.27157704823345563 4.861251434198989, 2.3453467376259676 1.3938529368127446, 3.676902245249546 0.6646692399125458 C5.008457752873125 -0.06451445698765312, 6.92160358248664 1.747053960453336, 7.6252524513394375 1.4954619692770752 C8.328901320192234 1.2438699781008145, 7.873908792803646 -0.8863373261099708, 7.898795458366327 -0.8448827071450182 M4.298282131364006 -1.0274564167661069 C5.152279455436006 -1.7704979049706804, 6.706881186712419 0.01966069054120112, 7.747892968775046 0.606417154572453 C8.788904750837673 1.193173618603705, 9.937907676525068 1.7980205148713204, 10.544352823739768 2.4930823674214047 C11.150797970954468 3.188144219971489, 11.089061235099514 3.524430933079249, 11.386563852063247 4.776788269872958 C11.68406646902698 6.029145606666666, 13.339245167955758 8.859785423189457, 12.329368525522163 10.007226388183653 C11.319491883088569 11.15466735317785, 6.472101097667978 12.096428608918142, 5.327303997461683 11.66143405983814 C4.182506897255387 11.226439510758137, 6.266834134529911 8.469824373626533, 5.460585924284393 7.397259093703633 C4.654337714038875 6.3246938137807325, 1.1360760905390825 5.717760283819688, 0.48981473598857495 5.226042380300735 C-0.15644661856193276 4.734324476781783, 1.3154901199006062 5.165641468909825, 1.5830177969813466 4.446951672589917 C1.850545474062087 3.7282618762700097, 1.870305710384069 1.7490023818002687, 2.0949807984730175 0.9139036023812901 C2.319655886561966 0.07880482296231162, 2.9112430725703202 -0.7496238553786669, 2.9310683255150374 -0.5636410039239532" stroke="#000000" stroke-width="2" fill="none" vector-effect="non-scaling-stroke" data-shape-part="outline" stroke-opacity="1" fill-opacity="0.24"></path></g><g><path d="M46.49889837511556 41.735584061842076 C41.78172337117489 41.45672104978562, 40.239980568047436 41.43002285978166, 37.162113148890946 41.735584061842076 M46.49889837511556 41.735584061842076 C42.57905956981251 42.30361831967762, 40.34083252464446 41.917863802099816, 37.162113148890946 41.735584061842076 M37.162113148890946 41.735584061842076 C36.08772912882477 38.90455387872477, 38.7945522195949 31.22723290797256, 37.162113148890946 25.133168722041297 M37.162113148890946 41.735584061842076 C36.206649283112064 39.22772898077364, 38.19264931445385 35.40618894755151, 37.162113148890946 25.133168722041297 M37.162113148890946 25.133168722041297 C35.235298869371924 27.847693592104463, 39.82440330892312 20.51734223170508, 35.601237976417416 20.888659822951958 M37.162113148890946 25.133168722041297 C38.33016001594677 27.99009990620367, 37.919591191769335 20.031635101654793, 35.601237976417416 20.888659822951958 M35.601237976417416 20.888659822951958 C34.88442038208711 20.769017548928147, 33.16295584883276 20.553001665686796, 32.13789792807191 19.707542794001828 M35.601237976417416 20.888659822951958 C33.773726691673495 19.77388759360101, 36.244882252539654 22.72243500113448, 32.13789792807191 19.707542794001828 M32.13789792807191 19.707542794001828 C25.929768865990713 22.484045618390272, 29.207088618244672 20.033885785049577, 25.85644282668909 23.42200977550577 M32.13789792807191 19.707542794001828 C27.38580656295389 18.079715727865302, 26.998943087489973 24.240970724911246, 25.85644282668909 23.42200977550577 M25.85644282668909 23.42200977550577 C24.427096999072337 25.084191380415287, 27.17789669845931 32.22725631960929, 25.85644282668909 41.735584061842076 M25.85644282668909 23.42200977550577 C26.26115739787958 28.573919946698993, 25.348680802510824 32.37466683949369, 25.85644282668909 41.735584061842076 M25.85644282668909 41.735584061842076 C24.367973285958772 42.584680781191814, 21.482242292778967 41.56241036150883, 16.73789546652461 41.735584061842076 M25.85644282668909 41.735584061842076 C23.2136133262118 40.98119268442421, 21.322329568872156 41.906126996221225, 16.73789546652461 41.735584061842076 M16.73789546652461 41.735584061842076 C16.233801293015766 30.256616282907142, 19.203916746020603 20.330617295658207, 16.73789546652461 13.739354273158412 M16.73789546652461 41.735584061842076 C15.595751915471013 35.369371441955984, 17.50221731175607 27.978810842960154, 16.73789546652461 13.739354273158412 M16.73789546652461 13.739354273158412 C21.382372270963096 12.49894966186796, 24.671136862995347 12.684855287436372, 25.856442826689094 13.739354273158412 M16.73789546652461 13.739354273158412 C19.076457659425596 13.528143865625466, 21.407180212724725 13.6294930175283, 25.856442826689094 13.739354273158412 M25.856442826689094 13.739354273158412 C25.83610537487832 14.446574249949467, 25.748256267860555 14.885970912527679, 25.856442826689094 16.10576188946486 M25.856442826689094 13.739354273158412 C25.714816228606416 14.665044260050731, 25.862635557438708 15.42861754682729, 25.856442826689094 16.10576188946486 M25.856442826689094 16.10576188946486 C27.725247761129165 12.40240054310675, 32.771825899805194 14.053589033814898, 35.568027866364794 12.850386332641175 M25.856442826689094 16.10576188946486 C28.607835040275702 10.972952225603194, 29.172091685624114 10.983336298879987, 35.568027866364794 12.850386332641175 M35.568027866364794 12.850386332641175 C47.19760270059581 14.862874525519839, 45.316456821083285 19.15727881152864, 46.49889837511555 21.93204942449801 M35.568027866364794 12.850386332641175 C46.919142932365716 15.731402290579682, 46.52020402479657 19.138549255409572, 46.49889837511555 21.93204942449801 M46.49889837511555 21.93204942449801 C44.16972325516148 25.54895209597901, 47.66770770232023 30.474035989776983, 46.49889837511556 41.735584061842076 M46.49889837511555 21.93204942449801 C47.71879945648131 29.739018997214917, 45.75171572167543 37.29939527048857, 46.49889837511556 41.735584061842076 M46.49889837511556 41.735584061842076 C46.49889837511556 41.735584061842076, 46.49889837511556 41.735584061842076, 46.49889837511556 41.735584061842076 M46.49889837511556 41.735584061842076 C46.49889837511556 41.735584061842076, 46.49889837511556 41.735584061842076, 46.49889837511556 41.735584061842076 M46.49889837511556 41.735584061842076 C46.49889837511556 41.735584061842076, 46.49889837511556 41.735584061842076, 46.49889837511556 41.735584061842076 M46.49889837511556 41.735584061842076 C46.49889837511556 41.735584061842076, 46.49889837511556 41.735584061842076, 46.49889837511556 41.735584061842076" stroke="#000000" stroke-width="2" fill="none" vector-effect="non-scaling-stroke" data-shape-part="outline" stroke-opacity="1" fill-opacity="0.24"></path></g></g></g><g transform="translate(394.77832123624535, 1012.8835364127722) rotate(0)"><text transform="translate(0, 0)" style="font-size: 24px; font-family: Roboto; fill: rgb(17, 17, 17); opacity: 1; stroke-width: 0; font-style: normal; font-weight: bold; text-decoration: none;"><tspan dominant-baseline="text-before-edge" x="0" y="0">2024 James Phillip De Guzman</tspan></text></g><g transform="translate(432.71148129432726, 1042.7383383103368) rotate(0)"><text transform="translate(0, 0)" style="font-size: 17px; font-family: Roboto; fill: rgb(17, 17, 17); opacity: 1; stroke-width: 0; font-style: normal; font-weight: normal; text-decoration: none;"><tspan dominant-baseline="text-before-edge" x="0" y="0">Last Modified: dd/mm/yyyy hh:mm:s</tspan></text></g><defs><style>@import url("https://www.dafontfree.net/embed/Y29taWMtc2Fucy1tcy1yZWd1bGFyJmRhdGEvNDAvYy8xMDA5MzQvQ09NSUMuVFRG");
@import url("https://fonts.googleapis.com/css2?family=Roboto&amp;display=swap");
@import url("https://fonts.googleapis.com/css2?family=Roboto:wght@700&amp;display=swap");text {white-space: pre;};
</style></defs></svg>