<?xml version="1.0" ?><svg fill="none" height="32" viewBox="0 0 32 32" width="32" xmlns="http://www.w3.org/2000/svg"><mask height="24" id="mask0" mask-type="alpha" maskUnits="userSpaceOnUse" width="24" x="4" y="4"><rect fill="#C4C4C4" height="24" rx="2" width="24" x="4" y="4"/></mask><g mask="url(#mask0)"><rect fill="#1F4099" height="12" width="50" x="-9" y="4"/><rect fill="#D1222B" height="12" width="50" x="-9" y="16"/><path d="M19 16L4 22.9282L4 9.0718L19 16Z" fill="#FCF8F7"/><path d="M6.70711 12.7071L6.37726 13.3545L6.89101 13.8682L6.17341 13.7545L5.84357 14.4019L5.72991 13.6843L5.01231 13.5706L5.65967 13.2408L5.54601 12.5232L6.05975 13.037L6.70711 12.7071Z" fill="#FCD116"/><path d="M5.97815 17.7921L6.34142 18.4213L7.05208 18.2702L6.56593 18.8102L6.9292 19.4394L6.26547 19.1439L5.77932 19.6838L5.85527 18.9612L5.19154 18.6657L5.9022 18.5147L5.97815 17.7921Z" fill="#FCD116"/><path d="M15 15L15.2245 15.691H15.9511L15.3633 16.118L15.5878 16.809L15 16.382L14.4122 16.809L14.6367 16.118L14.0489 15.691H14.7755L15 15Z" fill="#FCD116"/><path d="M12 16C12 17.1046 11.1046 18 10 18C8.89543 18 8 17.1046 8 16C8 14.8954 8.89543 14 10 14C11.1046 14 12 14.8954 12 16Z" fill="#FCD116"/></g></svg>